<svg width="138" height="73" viewBox="0 0 138 73" fill="none" xmlns="http://www.w3.org/2000/svg">
<path d="M73.61 61.0475V61.301C76.1764 61.3406 77.6101 63.4318 77.6101 65.7764C77.6101 69.7369 73.7922 72.5251 69.6891 72.5251C64.8098 72.5251 59.4948 68.6042 59.4948 57.9266V35.1141C59.4948 33.5378 60.5562 32.5081 62.1008 32.5081H62.1721V32.2546H53.9897V32.5081H54.1006C55.6768 32.5081 56.7066 33.5378 56.7066 35.1141V45.1659C55.2016 44.1044 53.1818 43.7005 51.4629 43.7005C47.6133 43.7005 44.4211 44.9124 42.1082 47.5184V43.9856C46.4806 43.5025 50.14 40.8885 50.14 37.2528C50.14 34.623 48.1756 32.2863 44.7854 32.2625H36.6031V32.516H36.714C38.2902 32.516 39.32 33.5457 39.32 35.122V43.6133C33.1812 42.3143 26.6622 33.4982 21.7115 27.0188V6.91527C21.7115 5.00631 22.8126 3.72308 24.4284 3.72308V3.4696H18.7412V3.72308C20.3887 3.72308 21.4581 5.00631 21.4581 6.91527V26.7178L3.59613 3.46167H0V3.71515C1.61589 3.71515 2.7169 4.99838 2.7169 6.90734V25.6881C2.7169 27.597 1.61589 28.8802 0 28.8802V29.1337H5.64769V28.8802C4.0318 28.8802 2.93079 27.597 2.93079 25.6881V7.0182L18.4798 27.4465C23.866 34.5359 31.4544 43.0906 39.312 43.9777V55.0592C39.312 56.5959 38.2823 57.6652 36.706 57.6652H36.5951V57.9187H44.7775V57.6652H44.7062C43.1696 57.6652 42.1002 56.6038 42.1002 55.0592V47.9066C44.3736 45.1896 47.5657 43.946 51.455 43.946C53.1817 43.946 55.2333 44.3896 56.6987 45.4827V57.9187C56.6987 68.7388 63.4078 72.8102 69.4594 72.8102C74.4497 72.8102 78.9963 70.0616 78.9963 65.9902C78.9963 63.3842 77.0161 61.0396 73.6021 61.0396L73.61 61.0475ZM42.1002 35.122C42.1002 33.5457 43.1616 32.516 44.7062 32.516H44.7458C47.2806 32.5952 48.7459 34.6467 48.7459 36.9914C48.7459 40.5321 45.6885 43.1618 42.1082 43.6767V35.1141L42.1002 35.122Z" fill="black"/>
<path d="M137.818 55.8753C137.16 56.8258 136.574 57.4119 136.059 57.4119C135.402 57.4119 134.958 56.2713 134.958 53.6336V51.5028C134.958 50.4018 134.332 49.6652 133.421 49.6652H133.382C132.463 49.6652 131.655 50.3226 131.362 51.4237C129.928 56.2317 127.837 57.1109 125.453 57.1109C123.766 57.1109 122.443 56.1604 122.443 54.2831C122.443 48.4533 134.697 49.3325 134.697 43.4234C134.697 40.5639 131.465 39.2807 128.091 39.2807C124.463 39.2807 120.716 40.7857 120.716 43.5343C120.716 44.7462 121.485 45.3324 122.221 45.3324C122.879 45.3324 123.465 44.8888 123.465 43.9779C123.465 43.867 123.465 43.7561 123.425 43.6135C122.879 40.2391 125.295 39.5817 127.275 39.5817C129.912 39.5817 132.74 40.8253 132.74 43.9066C132.74 50.5444 119.718 48.1998 119.718 54.2514C119.718 54.394 119.718 54.5287 119.734 54.6633C118.601 56.6515 117.136 57.6654 115.948 57.6654C114.76 57.6654 113.857 56.6753 113.857 54.6554C113.857 51.3919 116.938 46.8057 116.938 43.5818C116.938 40.7936 114.007 39.1777 110.886 39.1777C108.755 39.1777 106.593 39.9144 105.199 41.562V39.1777L100.391 39.9144V40.1679H100.462C101.674 39.9461 102.482 40.6431 102.482 41.8946V50.283L100.866 53.7445C99.6938 56.3505 97.967 57.6654 96.6125 57.6654C95.4402 57.6654 94.5214 56.6753 94.5214 54.6554C94.5214 51.3919 97.6027 46.8057 97.6027 43.5818C97.6027 40.7936 94.6719 39.1777 91.551 39.1777C89.4202 39.1777 87.2578 39.9144 85.8637 41.562V39.1777L81.0556 39.9144V40.1679H81.1269C82.3388 39.9461 83.1468 40.6431 83.1468 41.8946V48.0968C81.8398 51.2019 80.0259 53.2217 78.6555 54.6633C78.3783 54.9485 78.1328 55.194 77.8951 55.4158C77.7922 55.5109 77.6971 55.6059 77.5941 55.693C77.5545 55.7247 77.5149 55.7643 77.4753 55.796C75.6376 57.3565 73.8554 57.5307 73.1108 57.5228C68.5166 57.2139 65.3482 51.582 65.3482 46.6948C65.3482 41.8075 67.9859 39.653 70.7028 39.653C73.5623 39.653 76.501 41.9976 76.501 45.9977C76.501 48.8255 74.9247 51.4949 71.9147 51.4949C68.9047 51.4949 67.479 49.2929 67.2176 46.9879L67.0037 47.0988C67.2968 49.5226 68.9127 51.7563 71.8831 51.7563C76.5802 51.7563 78.7427 48.9285 78.7427 45.9977C78.7427 41.6728 75.1861 39.3203 71.4474 39.3203C67.2651 39.3203 62.8293 42.259 62.8293 48.6037C62.8293 53.4039 66.0294 58.2832 72.0415 58.2832C73.3405 58.2832 74.4653 58.0694 75.4317 57.6812H75.4475C75.4475 57.6812 77.7209 56.9842 80.4378 53.2771C81.42 52.0098 82.4022 50.4731 83.1547 48.7542V55.6059C83.1547 56.8495 82.3468 57.6575 81.1031 57.6575H80.4457V57.9109H88.5489V57.6575H87.9231C86.6795 57.6575 85.8716 56.8495 85.8716 55.6059V41.9263C87.1944 40.3104 88.9925 39.6134 90.64 39.6134C92.953 39.6134 95.0045 41.0075 95.0045 43.2095C95.0045 46.6948 91.852 51.9385 91.8124 54.6554C91.852 56.9683 93.4282 58.4733 95.4402 58.4733C97.3095 58.4733 99.5512 57.1189 101.088 53.8871L102.482 50.98V55.6139C102.482 56.8575 101.674 57.6654 100.43 57.6654H99.773V57.9188H107.876V57.6654H107.25C106.007 57.6654 105.199 56.8575 105.199 55.6139V41.9342C106.522 40.3183 108.32 39.6213 109.967 39.6213C112.28 39.6213 114.332 41.0154 114.332 43.2174C114.332 46.7027 111.179 51.9464 111.14 54.6633C111.179 56.9763 112.756 58.4813 114.767 58.4813C116.391 58.4813 118.292 57.4595 119.766 55.0832C120.09 57.3565 121.778 58.4813 123.885 58.4813C130.855 58.4813 131.109 51.1068 132.027 51.1068C132.281 51.1068 132.21 51.3999 132.21 51.6533V54.5128C132.21 56.7465 133.453 58.1407 134.958 58.1407C135.948 58.1407 137.089 57.4832 138 55.9782L137.778 55.8673L137.818 55.8753Z" fill="black"/>
<path d="M60.469 29.0705C60.469 29.0705 60.8254 28.9913 62.671 27.217L63.2255 26.7021L62.5205 27.1299L61.7918 27.8269L61.1344 28.5002L60.4136 28.8408L60.469 29.0626V29.0705Z" fill="black"/>
<path d="M69.2773 25.0225C71.4556 25.1809 73.4675 25.8225 75.4319 26.8048C74.7191 26.0443 73.0398 25.3156 69.5387 24.2304C69.61 24.175 69.6575 24.1274 69.713 24.1037C72.2398 23.1215 74.7904 22.7888 77.3964 23.771C79.7885 24.6819 81.1668 26.3849 81.3648 28.983C81.4757 30.4405 81.2381 31.8663 80.9925 33.4109C80.2242 31.2563 78.5053 30.5118 76.5964 29.9969C75.329 29.6563 74.0616 29.3236 72.8259 28.888C71.0754 28.2701 69.6655 26.6859 69.2853 25.0225H69.2773Z" fill="black"/>
<path d="M34.3536 29.6957C39.6606 29.6957 42.3221 25.4184 42.3221 21.1806C42.3221 19.8499 42.0607 18.5192 41.5459 17.3231L44.7776 14.3448C45.4589 13.7269 46.1717 13.4022 46.7816 13.4022C47.8193 13.4022 48.5956 14.2735 48.5956 16.0557C48.5956 18.9707 45.9103 22.9867 45.9103 25.8699C45.9103 28.3017 48.5005 29.7195 51.257 29.7195C53.5541 29.7195 55.9542 28.7135 56.9919 26.4798C57.0869 28.2937 58.1245 29.3631 59.3523 29.3631C60.2553 29.3631 61.2296 28.7769 62.0059 27.4858L61.8791 27.3907C61.3246 28.1987 60.8098 28.6898 60.39 28.6898C59.8038 28.6898 59.384 27.7472 59.384 25.4184V13.0141H55.1383V13.2438H55.2017C56.271 13.2438 56.9839 13.9567 56.9839 15.026V26.1946C55.8195 28.3967 53.8393 29.3393 52.065 29.3393C49.9896 29.3393 48.2153 28.1432 48.2153 26.163C48.2153 23.0896 51.0036 18.4875 51.0036 16.0637C51.0036 14.0201 49.5778 12.7289 47.8272 12.7289C46.7896 12.7289 45.6569 13.1804 44.6192 14.1864L41.4587 17.133C40.2864 14.5824 37.9259 12.6655 34.3536 12.6655C29.0465 12.6655 26.385 16.9112 26.385 21.1806C26.385 25.4501 29.0386 29.6957 34.3536 29.6957ZM33.2525 13.117C37.4586 13.117 40.3736 18.6538 40.3736 23.2559C40.3736 26.4956 38.9161 29.2443 35.4546 29.2443C31.2485 29.2443 28.3336 23.7075 28.3336 19.145C28.3336 15.8736 29.791 13.125 33.2525 13.125V13.117Z" fill="black"/>
<path d="M64.382 28.7375C64.2077 28.8484 64.0414 28.9435 63.8988 29.0623C63.4473 29.4346 63.2968 29.9336 63.3285 30.496C63.4077 31.795 64.4929 32.6664 65.8078 32.4921C66.6157 32.3812 67.2335 31.9693 67.6692 31.304C68.1286 30.599 68.3821 29.8227 68.3029 28.9752C68.1682 27.4623 66.9721 26.3454 65.4513 26.3058C64.4849 26.282 63.6057 26.583 62.8057 27.1058C62.568 27.2642 62.3542 27.4464 62.1245 27.6207C62.1007 27.6444 62.069 27.6603 62.0374 27.6761C62.2433 27.4068 62.481 27.1771 62.7503 26.9791C63.6216 26.3533 64.5879 26.0285 65.6573 26.084C67.4949 26.1869 68.8098 27.7474 68.6039 29.5772C68.5009 30.5119 68.1365 31.3357 67.4712 32.0169C66.6236 32.8723 65.2771 33.102 64.2394 32.5792C63.1701 32.0327 62.6869 30.5594 63.2493 29.5376C63.4948 29.094 63.8671 28.8247 64.3899 28.7375H64.382Z" fill="black"/>
<path d="M70.188 13.4897C69.5939 14.0917 68.7701 14.4402 67.8275 14.5273C64.77 14.8046 62.0056 12.2777 61.8472 9.06973C61.6571 5.18843 64.3027 1.85369 68.279 1.06159C73.7366 -0.023592 78.6872 3.32698 79.812 8.86377C80.2477 10.9866 79.6061 12.9114 78.3942 14.654C76.81 16.9195 74.6396 18.5353 72.3425 19.9928C70.386 21.2443 68.3662 22.4008 66.4176 23.6682C64.7067 24.7929 63.1779 26.1475 61.7758 27.6525C61.7125 27.7158 61.6412 27.7792 61.562 27.8267C62.465 26.496 63.5898 25.3633 64.7779 24.294C66.782 22.4721 69.1662 21.1968 71.3603 19.6443C72.8415 18.5987 74.2752 17.466 75.6139 16.2382C76.4218 15.5016 77.0951 14.5828 77.6654 13.6402C78.9565 11.4936 78.7189 9.33905 77.5308 7.19245C75.1307 2.86757 70.6395 2.07549 67.677 2.95472C64.5086 3.8894 62.6155 7.22412 63.5343 10.2975C64.1759 12.452 66.2433 14.0758 68.3107 13.9412C68.9681 13.9016 69.6019 13.6322 70.1801 13.4817L70.188 13.4897Z" fill="black"/>
<path d="M60.7302 28.8648C61.76 27.4866 63.059 26.3855 64.4848 25.435C69.4275 22.124 74.9168 20.92 80.8021 21.2369C84.6517 21.4428 88.3429 22.4963 92.0579 23.3756C95.9471 24.2944 99.8284 25.2607 103.741 26.0845C106.244 26.6073 108.787 26.7658 111.314 26.1242C115.663 25.0232 118.649 21.3953 118.974 16.809C119.148 14.3694 118.752 12.0644 117.152 10.1237C113.484 5.68793 106.339 6.42455 103.425 11.5732C101.682 14.6545 101.642 17.7437 103.781 20.7062C103.813 20.7537 103.829 20.8091 103.868 20.8883C102.807 20.223 101.872 18.7101 101.523 17.0546C100.399 11.6049 104.621 5.16514 111.282 5.56912C116.138 5.86219 119.734 9.20486 120.328 14.0288C120.621 16.3655 120.376 18.6467 119.473 20.8171C117.595 25.34 114.07 27.6054 109.286 27.9618C105.88 28.2153 102.585 27.3994 99.3215 26.544C94.759 25.3479 90.2281 24.0171 85.6498 22.9161C79.5981 21.4587 73.6098 21.6409 67.8195 24.1756C65.4274 25.2212 63.265 26.6232 61.3164 28.3579C61.1263 28.5321 60.9283 28.6985 60.7302 28.8727V28.8648Z" fill="black"/>
<path d="M63.2414 24.3967C61.8394 23.3115 61.2691 21.252 61.9186 19.5649C62.1245 19.0342 62.4176 18.543 62.6632 18.0282C63.0275 17.2598 63.3761 16.4757 63.6771 15.8103C64.2236 16.8559 64.7939 18.0044 65.4039 19.1371C66.4653 21.0936 65.6573 22.9788 63.8672 24.0323C63.8276 24.0561 63.78 24.064 63.7087 24.0878C63.186 22.9075 63.2335 21.7035 63.5266 20.4916C62.9325 21.7431 62.9721 23.0501 63.2494 24.4046L63.2414 24.3967Z" fill="black"/>
<path d="M96.3039 17.7035C95.1315 16.6976 93.9592 15.6916 92.8028 14.6777C91.4483 13.4975 90.173 12.1984 88.7314 11.137C86.6719 9.61613 84.5015 9.67951 82.5846 11.0974C81.6104 11.8182 80.9371 12.7925 80.2083 13.7351C79.1786 15.0817 78.0855 16.3807 76.9765 17.6718C76.4775 18.25 75.8993 18.7649 75.3527 19.3035C75.3527 19.3035 82.1252 15.248 86.9253 15.4539C86.9253 15.4539 78.8301 17.6164 74.8933 20.8798C75.7171 20.7135 76.4063 20.5472 77.1033 20.4284C79.4559 20.0402 81.7767 20.365 84.0975 20.769C85.4916 21.0145 86.854 20.9194 88.1531 20.365C89.0878 19.9689 90.0066 19.5095 90.8859 19.0105C92.6126 18.0362 94.379 17.3391 96.5415 17.9094C96.3831 17.7748 96.3435 17.7352 96.2959 17.7035H96.3039Z" fill="black"/>
<path d="M108.423 30.1079C108.47 30.1 108.51 30.0762 108.557 30.0762C111.076 30.0366 113.524 30.3851 115.781 31.5812C117.516 32.5079 118.926 33.7832 119.663 35.6526C119.861 36.1595 119.932 36.7219 119.988 37.2685C120.027 37.617 119.916 37.9814 119.568 38.1557C119.211 38.3378 118.863 38.1715 118.617 37.9259C118.166 37.4903 117.73 37.0308 117.366 36.5239C115.528 33.9654 113.27 31.9376 110.332 30.7416C109.714 30.4881 109.072 30.3138 108.431 30.1L108.423 30.1079Z" fill="black"/>
<path d="M113.057 28.1119C113.722 27.8505 114.387 27.6129 115.037 27.3278C116.787 26.5673 118.443 25.6406 119.694 24.1673C120.186 23.597 120.518 22.892 120.922 22.2425C121.081 21.989 121.192 21.7038 121.374 21.482C121.714 21.0781 122.174 21.1414 122.364 21.6405C122.498 21.9969 122.578 22.4088 122.554 22.789C122.483 24.0089 121.849 24.9594 120.954 25.7436C119.702 26.8446 118.189 27.4307 116.582 27.7317C115.417 27.9456 114.245 28.0644 113.072 28.2228C113.072 28.1832 113.057 28.1436 113.057 28.1119Z" fill="black"/>
<path d="M125.881 30.4722C125.445 29.8544 125.065 29.1969 124.598 28.6028C123.964 27.787 123.188 27.1296 122.087 27.0583C121.318 27.0108 120.605 27.2167 119.956 27.581C118.38 28.4524 116.684 28.8959 114.902 29.0543C114.791 29.0623 114.673 29.086 114.57 29.1019C114.57 29.1019 120.922 29.4583 123.877 31.8109C123.877 31.8109 118.704 29.7594 114.213 30.0841C115.267 30.2742 116.233 30.6782 117.104 31.296C117.643 31.6762 118.174 32.0564 118.665 32.4842C119.94 33.5773 121.413 33.9416 123.077 33.8624C124.503 33.799 125.944 33.8624 127.378 33.9099C127.956 33.9258 128.526 34.0604 129.16 34.1555C127.782 33.1337 126.823 31.8109 125.889 30.4722H125.881Z" fill="black"/>
</svg>
