<svg width="108" height="59" viewBox="0 0 108 59" fill="none" xmlns="http://www.w3.org/2000/svg">
<path d="M45.27 44.1739H63.7891V37.7505L38.3206 37.7129V57.697H45.3451L45.27 44.1739Z" fill="black"/>
<path d="M64.8785 20.8093H38.3206V27.5709H64.9536L64.8785 20.8093Z" fill="black"/>
<path d="M75.2462 57.8101H68.2593V20.8093H76.3732L87.9429 36.7366L99.4188 20.9408H107.983L87.9805 47.987L75.3026 31.0268L75.2462 57.8101Z" fill="#221F20"/>
<path d="M75.2462 57.8101H68.2593V20.8093H76.3732L87.9429 36.7366L99.4188 20.9408H107.983L87.9805 47.987L75.3026 31.0268L75.2462 57.8101Z" fill="black"/>
<path d="M55.8003 0.330322L49.0701 7.00423L56.2761 14.0538L62.662 7.39239L55.8003 0.330322Z" fill="black"/>
<path d="M58.5113 16.1385L65.0413 9.48959L62.8437 7.29834L56.3201 14.1288L58.5113 16.1385Z" fill="#BCBEC0"/>
<path d="M68.7665 0.693359L62.0425 7.36727L69.2486 14.4168L75.6345 7.75543L68.7665 0.693359Z" fill="black"/>
<path d="M71.4333 16.3265L77.9694 9.84665L75.7782 7.71802L69.2483 14.3731L71.4333 16.3265Z" fill="#BCBEC0"/>
<path d="M21.185 20.8654C26.7257 20.8654 31.3398 22.6184 35.0274 26.1306C38.7149 29.6429 40.5556 34.0379 40.5556 39.3282C40.5556 44.6185 38.6961 48.9947 34.971 52.4631C31.2459 55.9316 26.5567 57.6658 20.897 57.6658C15.2373 57.6658 10.9863 55.9316 7.38639 52.4631C3.78648 48.9947 1.9834 44.6498 1.9834 39.4284C1.9834 34.2069 3.799 29.6366 7.42395 26.1244C11.0489 22.6184 15.638 20.8591 21.1787 20.8591L21.185 20.8654ZM21.3916 25.7425C17.2846 25.7425 13.91 27.0259 11.268 29.5928C8.62601 32.1597 7.30499 35.4403 7.30499 39.4284C7.30499 43.4164 8.63229 46.5155 11.2806 49.0824C13.9288 51.6493 17.247 52.9327 21.2351 52.9327C25.2231 52.9327 28.5789 51.6242 31.2522 49.001C33.9318 46.384 35.2653 43.1222 35.2653 39.2155C35.2653 35.3088 33.9255 32.216 31.2522 29.6241C28.5726 27.0322 25.2857 25.7362 21.3853 25.7362L21.3916 25.7425Z" fill="black" stroke="black" stroke-width="2" stroke-miterlimit="10"/>
</svg>
