<svg width="169" height="78" viewBox="0 0 169 78" fill="none" xmlns="http://www.w3.org/2000/svg">
<path d="M101.523 35.7094C101.523 35.7094 97.6671 42.2745 101.842 48.5778C101.842 48.5778 110.003 40.1871 108.849 29.1033C108.849 29.1033 108.653 33.8102 102.652 42.8639C102.652 42.8639 101.13 41.0057 101.531 35.7094H101.523Z" fill="black"/>
<path d="M107.065 41.6524L107.834 40.0234C107.834 40.0234 107.957 40.752 109.414 41.9553C109.414 41.9553 112.14 38.7137 111.542 28.9478C111.542 28.9478 115.595 36.4298 109.848 46.3348C109.848 46.3348 107.99 45.549 107.065 41.6524Z" fill="black"/>
<path d="M99.7137 28.0554C99.7137 28.0554 91.4295 30.9123 84.5205 41.6769C84.5205 41.6769 96.4557 44.1327 100.901 35.341C100.901 35.341 92.5509 40.1052 89.1456 39.4012C89.1456 39.4012 91.6423 34.0885 99.7219 28.0554H99.7137Z" fill="black"/>
<path d="M93.1976 46.2367L89.2846 63.0998C89.2028 63.4518 89.1209 63.812 89.0472 64.164C88.9736 64.516 88.9326 64.8107 88.9326 65.0317C88.9326 65.5638 89.0554 65.9322 89.2928 66.1204C89.5302 66.3169 89.915 66.4152 90.4471 66.4152C90.6353 66.4152 90.9136 66.3906 91.282 66.3415C91.6504 66.2924 91.9287 66.2351 92.117 66.1696L91.9041 67.0619C91.061 67.3975 90.4143 67.6349 89.9641 67.774C89.5138 67.9132 88.9981 67.9869 88.4333 67.9869C87.6884 67.9869 87.1153 67.7904 86.7306 67.4057C86.3458 67.0209 86.1494 66.5379 86.1494 65.9731C86.1494 65.7603 86.1739 65.5311 86.2149 65.3018C86.2558 65.0645 86.3131 64.778 86.3868 64.4178L89.8003 49.6584C89.8658 49.3719 89.9068 49.1673 89.9313 49.0527C89.9559 48.938 89.9641 48.7989 89.9641 48.6352C89.9641 48.2995 89.9068 48.0376 89.7922 47.8575C89.6776 47.6774 89.522 47.5382 89.3174 47.4482C89.1209 47.3663 88.8753 47.309 88.5724 47.2763C88.2696 47.2517 87.9667 47.219 87.6556 47.178L87.8521 46.3267L93.0584 46.0156L93.1976 46.2285V46.2367Z" fill="black"/>
<path d="M102.857 65.7441H102.775C102.341 66.0879 101.932 66.4072 101.539 66.6937C101.146 66.9802 100.762 67.2258 100.377 67.4222C99.9266 67.6433 99.5255 67.807 99.1571 67.9052C98.7887 68.0034 98.3139 68.0526 97.7246 68.0526C96.8241 68.0526 96.1283 67.7906 95.6371 67.2749C95.146 66.7592 94.8922 66.0797 94.8922 65.2366C94.8922 65.0155 94.9086 64.7454 94.9495 64.4343C94.9905 64.1233 95.0723 63.673 95.2115 63.0591L96.3002 58.6223C96.3902 58.213 96.4721 57.8446 96.5294 57.5335C96.5867 57.2143 96.6195 56.9114 96.6195 56.6249C96.6195 56.101 96.5294 55.7572 96.3575 55.5853C96.1856 55.4134 95.8336 55.3233 95.3015 55.3233C95.0969 55.3233 94.8349 55.3642 94.5157 55.4379C94.1964 55.5198 93.9508 55.5771 93.7708 55.6262L93.9836 54.7257C94.7122 54.3983 95.3506 54.1445 95.9073 53.9808C96.4639 53.8171 96.906 53.7271 97.2416 53.7271C97.9865 53.7271 98.535 53.8989 98.887 54.2509C99.239 54.6029 99.4109 55.1023 99.4109 55.7408C99.4109 55.9127 99.3945 56.1419 99.3536 56.4284C99.3127 56.7149 99.2635 57.0096 99.1817 57.2961L97.9456 62.4779C97.8555 62.8708 97.7737 63.2392 97.7164 63.5748C97.6591 63.9186 97.6263 64.1724 97.6263 64.3525C97.6263 64.9746 97.7655 65.474 98.0356 65.8342C98.3058 66.1943 98.7314 66.3826 99.3208 66.3826C99.9102 66.3826 100.532 66.2271 101.163 65.916C101.793 65.6049 102.423 65.1301 103.062 64.4916L105.501 53.9481L107.949 53.7762L108.121 53.989L106.042 63.01C105.952 63.3947 105.861 63.7795 105.788 64.1642C105.714 64.5489 105.673 64.8273 105.673 64.9828C105.673 65.5149 105.788 65.8751 106.017 66.0715C106.246 66.2598 106.623 66.358 107.155 66.358C107.335 66.358 107.581 66.3335 107.908 66.2762C108.235 66.2189 108.489 66.1616 108.661 66.0961L108.448 66.9884C107.671 67.3076 107.024 67.545 106.508 67.7006C105.992 67.8561 105.509 67.9379 105.076 67.9379C104.323 67.9379 103.758 67.7169 103.389 67.2831C103.021 66.841 102.833 66.3335 102.833 65.7441H102.857Z" fill="black"/>
<path d="M122.422 56.4772C122.422 57.4677 122.11 58.3191 121.488 59.0313C120.866 59.7434 119.966 60.3083 118.779 60.7257C117.911 61.045 117.035 61.2988 116.143 61.4952C115.259 61.6917 114.276 61.8554 113.204 61.9864C113.204 63.4599 113.474 64.5896 114.023 65.3672C114.571 66.1449 115.373 66.5378 116.421 66.5378C117.354 66.5378 118.181 66.3004 118.893 65.8338C119.606 65.3672 120.309 64.6714 121.005 63.7464L121.799 64.3358C121.054 65.4736 120.121 66.3823 119 67.0699C117.878 67.7493 116.716 68.0932 115.513 68.0932C113.859 68.0932 112.598 67.6266 111.722 66.7015C110.846 65.7765 110.413 64.4668 110.413 62.7641C110.413 61.5853 110.593 60.4638 110.969 59.3914C111.338 58.3191 111.878 57.3449 112.59 56.4527C113.278 55.5849 114.129 54.881 115.136 54.3489C116.143 53.8168 117.248 53.5466 118.459 53.5466C119.802 53.5466 120.801 53.8168 121.447 54.3652C122.094 54.9137 122.422 55.6095 122.422 56.4608V56.4772ZM119.851 56.1334C119.851 55.7732 119.802 55.4867 119.696 55.2739C119.589 55.061 119.458 54.9055 119.303 54.8073C119.131 54.6927 118.959 54.6272 118.771 54.5944C118.582 54.5699 118.394 54.5535 118.197 54.5535C117.076 54.5535 116.045 55.1675 115.095 56.3954C114.145 57.6233 113.548 59.154 113.294 60.9959C113.949 60.9059 114.686 60.7667 115.504 60.5948C116.323 60.4229 117.011 60.1937 117.551 59.9153C118.328 59.5142 118.901 58.9985 119.278 58.3682C119.655 57.7379 119.843 56.9929 119.843 56.1252L119.851 56.1334Z" fill="black"/>
<path d="M137.885 58.9169C137.885 60.1612 137.664 61.3481 137.214 62.486C136.764 63.6238 136.174 64.598 135.438 65.4248C134.685 66.2679 133.825 66.931 132.875 67.4058C131.926 67.8806 130.911 68.1261 129.847 68.1261C129.044 68.1261 128.332 68.0606 127.726 67.9215C127.113 67.7823 126.597 67.6022 126.163 67.3648C125.721 67.1193 125.361 66.8491 125.074 66.5462C124.788 66.2434 124.526 65.9077 124.288 65.5312L127.898 49.6667C127.948 49.4539 127.988 49.2656 128.013 49.11C128.046 48.9545 128.062 48.799 128.062 48.6435C128.062 48.3078 128.005 48.0459 127.89 47.8658C127.776 47.6857 127.62 47.5465 127.415 47.4565C127.219 47.3746 126.973 47.3173 126.67 47.2846C126.376 47.26 126.073 47.2273 125.762 47.1863L125.958 46.335L131.132 46.0239L131.271 46.2368L129.151 55.5361H129.208C130.051 54.7911 130.788 54.2754 131.435 53.9889C132.073 53.7024 132.704 53.5632 133.309 53.5632C134.734 53.5632 135.847 54.0462 136.666 55.0122C137.476 55.9781 137.885 57.2797 137.885 58.9169ZM135.004 58.9824C135.004 58.4912 134.963 57.9919 134.873 57.4925C134.783 56.9932 134.635 56.5757 134.431 56.2401C134.218 55.8881 133.923 55.6016 133.547 55.3969C133.17 55.1923 132.712 55.0858 132.155 55.0858C131.828 55.0858 131.517 55.1431 131.23 55.2577C130.944 55.3723 130.641 55.5197 130.33 55.708C130.059 55.8799 129.798 56.0764 129.536 56.3219C129.274 56.5675 129.044 56.7722 128.823 56.9604L126.957 65.2774C126.982 65.4657 127.072 65.6703 127.211 65.8913C127.35 66.1124 127.53 66.3088 127.743 66.4807C128.005 66.6936 128.299 66.8573 128.627 66.9719C128.954 67.0865 129.315 67.1438 129.707 67.1438C130.444 67.1438 131.14 66.9228 131.795 66.4889C132.442 66.0551 133.006 65.4657 133.473 64.7289C133.989 63.9267 134.373 63.0263 134.627 62.0357C134.881 61.0452 135.004 60.0302 135.004 58.9906V58.9824Z" fill="black"/>
<path d="M151.842 56.4772C151.842 57.4677 151.531 58.3191 150.909 59.0313C150.287 59.7434 149.386 60.3083 148.199 60.7257C147.331 61.045 146.455 61.2988 145.563 61.4952C144.679 61.6917 143.697 61.8554 142.624 61.9864C142.624 63.4599 142.895 64.5896 143.443 65.3672C143.992 66.1449 144.794 66.5378 145.842 66.5378C146.775 66.5378 147.602 66.3004 148.314 65.8338C149.026 65.3672 149.73 64.6714 150.426 63.7464L151.22 64.3358C150.475 65.4736 149.542 66.3823 148.42 67.0699C147.299 67.7493 146.136 68.0932 144.933 68.0932C143.279 68.0932 142.019 67.6266 141.143 66.7015C140.267 65.7765 139.833 64.4668 139.833 62.7641C139.833 61.5853 140.013 60.4638 140.39 59.3914C140.758 58.3191 141.298 57.3449 142.011 56.4527C142.698 55.5849 143.549 54.881 144.556 54.3489C145.563 53.8168 146.668 53.5466 147.88 53.5466C149.222 53.5466 150.221 53.8168 150.868 54.3652C151.514 54.9137 151.842 55.6095 151.842 56.4608V56.4772ZM149.263 56.1334C149.263 55.7732 149.214 55.4867 149.108 55.2739C149.001 55.061 148.87 54.9055 148.715 54.8073C148.543 54.6927 148.371 54.6272 148.183 54.5944C147.994 54.5699 147.806 54.5535 147.61 54.5535C146.488 54.5535 145.457 55.1675 144.507 56.3954C143.558 57.6233 142.96 59.154 142.706 60.9959C143.361 60.9059 144.098 60.7667 144.917 60.5948C145.735 60.4229 146.423 60.1937 146.963 59.9153C147.741 59.5142 148.314 58.9985 148.69 58.3682C149.067 57.7379 149.255 56.9929 149.255 56.1252L149.263 56.1334Z" fill="black"/>
<path d="M160.814 46.2367L156.901 63.0998C156.819 63.4518 156.737 63.812 156.663 64.164C156.59 64.516 156.549 64.8107 156.549 65.0317C156.549 65.5638 156.672 65.9322 156.909 66.1204C157.146 66.3169 157.531 66.4152 158.063 66.4152C158.252 66.4152 158.53 66.3906 158.898 66.3415C159.267 66.2924 159.545 66.2351 159.733 66.1696L159.52 67.0619C158.677 67.3975 158.031 67.6349 157.58 67.774C157.13 67.9132 156.614 67.9869 156.05 67.9869C155.305 67.9869 154.732 67.7904 154.347 67.4057C153.962 67.0209 153.766 66.5379 153.766 65.9731C153.766 65.7603 153.79 65.5311 153.831 65.3018C153.872 65.0645 153.929 64.778 154.003 64.4178L157.417 49.6584C157.482 49.3719 157.523 49.1673 157.548 49.0527C157.572 48.938 157.58 48.7989 157.58 48.6352C157.58 48.2995 157.523 48.0376 157.408 47.8575C157.294 47.6774 157.138 47.5382 156.934 47.4482C156.737 47.3663 156.492 47.309 156.189 47.2763C155.886 47.2517 155.583 47.219 155.272 47.178L155.468 46.3267L160.675 46.0156L160.814 46.2285V46.2367Z" fill="black"/>
<path d="M169 46.2367L165.087 63.0998C165.005 63.4518 164.923 63.812 164.85 64.164C164.776 64.516 164.735 64.8107 164.735 65.0317C164.735 65.5638 164.858 65.9322 165.095 66.1204C165.333 66.3169 165.717 66.4152 166.25 66.4152C166.438 66.4152 166.716 66.3906 167.085 66.3415C167.453 66.2924 167.731 66.2351 167.919 66.1696L167.707 67.0619C166.864 67.3975 166.217 67.6349 165.767 67.774C165.316 67.9132 164.801 67.9869 164.236 67.9869C163.491 67.9869 162.918 67.7904 162.533 67.4057C162.148 67.0209 161.952 66.5379 161.952 65.9731C161.952 65.7603 161.976 65.5311 162.017 65.3018C162.058 65.0645 162.116 64.778 162.189 64.4178L165.603 49.6584C165.668 49.3719 165.709 49.1673 165.734 49.0527C165.758 48.938 165.767 48.7989 165.767 48.6352C165.767 48.2995 165.709 48.0376 165.595 47.8575C165.48 47.6774 165.325 47.5382 165.12 47.4482C164.923 47.3663 164.678 47.309 164.375 47.2763C164.072 47.2517 163.769 47.219 163.458 47.178L163.655 46.3267L168.861 46.0156L169 46.2285V46.2367Z" fill="black"/>
<path d="M16.0937 77.7691C15.5862 77.7691 15.1851 77.5972 14.8904 77.2615C14.5957 76.9259 14.4565 76.4675 14.4565 75.8945C14.4565 75.6489 14.4975 75.4115 14.5712 75.1987C14.6448 74.9858 14.7594 74.7894 14.9068 74.6093C15.0459 74.4374 15.226 74.3064 15.4389 74.2C15.6517 74.0936 15.8809 74.0444 16.1347 74.0444C16.4785 74.0444 16.765 74.1263 16.9778 74.29C17.1989 74.4537 17.3053 74.6829 17.3053 74.9695C17.3053 75.0922 17.2725 75.1905 17.2152 75.2887C17.1579 75.3787 17.0597 75.4279 16.9287 75.4279C16.7896 75.4279 16.6749 75.3951 16.6013 75.3214C16.5276 75.2478 16.4867 75.1741 16.4867 75.084C16.4867 74.9776 16.5031 74.8712 16.5276 74.7566C16.5522 74.642 16.5767 74.5601 16.5767 74.511C16.5358 74.4373 16.4703 74.3882 16.3884 74.3637C16.3066 74.3391 16.2166 74.3309 16.1183 74.3309C16.0037 74.3309 15.8973 74.3555 15.7909 74.4046C15.6844 74.4537 15.5862 74.5438 15.488 74.6747C15.3979 74.7975 15.3243 74.9531 15.2751 75.1577C15.226 75.3624 15.1933 75.5998 15.1933 75.8863C15.1933 76.3283 15.2915 76.6967 15.488 76.975C15.6845 77.2533 15.9464 77.3925 16.2657 77.3925C16.4949 77.3925 16.6913 77.3352 16.8468 77.2206C17.0024 77.106 17.1497 76.9423 17.2807 76.7131L17.5099 76.8604C17.3544 77.1387 17.1415 77.3679 16.8878 77.5317C16.634 77.6954 16.3639 77.7772 16.0855 77.7772L16.0937 77.7691Z" fill="black"/>
<path d="M26.0888 75.87C26.0888 76.1156 26.0478 76.3612 25.9742 76.5986C25.8923 76.836 25.7858 77.0406 25.6385 77.2126C25.4748 77.4008 25.2784 77.5482 25.0655 77.6382C24.8445 77.7283 24.6071 77.7774 24.3369 77.7774C24.1159 77.7774 23.8949 77.7365 23.6984 77.6464C23.502 77.5564 23.3137 77.4417 23.1582 77.278C23.0026 77.1143 22.8798 76.926 22.7898 76.6886C22.6997 76.4594 22.6506 76.1975 22.6506 75.911C22.6506 75.3625 22.8143 74.9041 23.1336 74.5603C23.4528 74.2083 23.8785 74.0364 24.3943 74.0364C24.91 74.0364 25.2947 74.2001 25.6222 74.5357C25.9414 74.8714 26.1051 75.3134 26.1051 75.87H26.0888ZM25.3438 75.8782C25.3438 75.6981 25.3274 75.5099 25.2865 75.3134C25.2538 75.1169 25.1965 74.945 25.1228 74.8059C25.0491 74.6585 24.9427 74.5357 24.8199 74.4539C24.6971 74.372 24.5416 74.3229 24.3615 74.3229C24.1814 74.3229 24.0177 74.3638 23.8867 74.462C23.7558 74.5521 23.6493 74.6749 23.5675 74.8386C23.4938 74.986 23.4365 75.1497 23.4037 75.3379C23.371 75.5262 23.3546 75.7063 23.3546 75.8782C23.3546 76.1074 23.371 76.3203 23.4119 76.5167C23.4529 76.7132 23.5101 76.8851 23.592 77.0407C23.6739 77.1962 23.7721 77.3108 23.9031 77.4008C24.034 77.4909 24.1814 77.5318 24.3615 77.5318C24.6644 77.5318 24.8936 77.3844 25.0737 77.0979C25.2456 76.8114 25.3356 76.4103 25.3356 75.9028L25.3438 75.8782Z" fill="black"/>
<path d="M34.8886 75.87C34.8886 76.1156 34.8476 76.3612 34.774 76.5986C34.6921 76.836 34.5856 77.0406 34.4383 77.2126C34.2746 77.4008 34.0782 77.5482 33.8653 77.6382C33.6443 77.7283 33.4069 77.7774 33.1368 77.7774C32.9157 77.7774 32.6947 77.7365 32.4982 77.6464C32.3018 77.5564 32.1135 77.4417 31.958 77.278C31.8024 77.1143 31.6796 76.926 31.5896 76.6886C31.4995 76.4594 31.4504 76.1975 31.4504 75.911C31.4504 75.3625 31.6141 74.9041 31.9334 74.5603C32.2526 74.2083 32.6783 74.0364 33.1941 74.0364C33.7098 74.0364 34.0945 74.2001 34.422 74.5357C34.7412 74.8714 34.9049 75.3134 34.9049 75.87H34.8886ZM34.1518 75.8782C34.1518 75.6981 34.1354 75.5099 34.0945 75.3134C34.0618 75.1169 34.0044 74.945 33.9308 74.8059C33.8571 74.6585 33.7507 74.5357 33.6279 74.4539C33.5051 74.372 33.3496 74.3229 33.1695 74.3229C32.9894 74.3229 32.8257 74.3638 32.6947 74.462C32.5638 74.5521 32.4573 74.6749 32.3755 74.8386C32.3018 74.986 32.2445 75.1497 32.2117 75.3379C32.179 75.5262 32.1626 75.7063 32.1626 75.8782C32.1626 76.1074 32.179 76.3203 32.2199 76.5167C32.2609 76.7132 32.3181 76.8851 32.4 77.0407C32.4819 77.1962 32.5801 77.3108 32.7111 77.4008C32.842 77.4909 32.9894 77.5318 33.1695 77.5318C33.4724 77.5318 33.7016 77.3844 33.8817 77.0979C34.0536 76.8114 34.1436 76.4103 34.1436 75.9028L34.1518 75.8782Z" fill="black"/>
<path d="M43.9915 77.6709H42.9273C42.739 77.4007 42.5425 77.1142 42.3297 76.8031C42.1168 76.4921 41.8958 76.1974 41.6666 75.9027L41.3719 76.1728V77.0078C41.3719 77.0978 41.3883 77.1633 41.421 77.2206C41.4538 77.2779 41.5029 77.3189 41.5684 77.3434C41.6257 77.368 41.683 77.3844 41.7321 77.4007C41.7812 77.4089 41.8467 77.4171 41.9122 77.4253V77.6627H40.185V77.4253C40.2423 77.4253 40.2996 77.4171 40.3569 77.4089C40.4142 77.4089 40.4633 77.3925 40.5042 77.3843C40.5697 77.3598 40.6188 77.327 40.6516 77.2697C40.6843 77.2124 40.7007 77.1469 40.7007 77.0569V72.9475C40.7007 72.8575 40.6843 72.7756 40.6434 72.7019C40.6024 72.6283 40.5615 72.5628 40.496 72.5218C40.4469 72.4809 40.3651 72.4564 40.2586 72.4482C40.1522 72.44 40.0704 72.4236 40.0049 72.4236V72.1944L41.3146 72.1125L41.3637 72.1699V75.9109C41.552 75.7226 41.7485 75.5261 41.9695 75.3133C42.1823 75.1004 42.3706 74.9122 42.518 74.7403C42.5344 74.7157 42.5589 74.6912 42.5834 74.6584C42.608 74.6257 42.6162 74.5929 42.6162 74.5765C42.6162 74.5111 42.5671 74.4619 42.4607 74.4292C42.3543 74.3965 42.256 74.3801 42.1578 74.3637V74.1345H43.7131V74.3555C43.5085 74.4128 43.3366 74.4865 43.1811 74.5765C43.0255 74.6666 42.9109 74.7484 42.829 74.8221C42.7717 74.8712 42.6899 74.9449 42.5834 75.0513C42.477 75.1577 42.3297 75.2969 42.1414 75.477C42.3379 75.7144 42.5589 76.0091 42.8045 76.3447C43.0501 76.6803 43.2302 76.9259 43.3366 77.0733C43.443 77.2124 43.533 77.3107 43.6231 77.3516C43.7049 77.3925 43.8277 77.4171 43.9915 77.4335V77.6709Z" fill="black"/>
<path d="M50.7369 77.6708H49.0342V77.4334C49.0915 77.4334 49.1488 77.4253 49.2061 77.4171C49.2634 77.4171 49.3125 77.4007 49.3616 77.3925C49.4271 77.368 49.4762 77.3352 49.509 77.2779C49.5417 77.2206 49.5581 77.1551 49.5581 77.0651V74.8876C49.5581 74.8139 49.5417 74.7402 49.509 74.6748C49.4762 74.6093 49.4271 74.5602 49.3616 74.5192C49.3125 74.4865 49.247 74.4619 49.1652 74.4456C49.0833 74.4292 49.0014 74.4128 48.9277 74.4046V74.1672L50.172 74.0854L50.2211 74.1345V77.016C50.2211 77.0978 50.2375 77.1715 50.2703 77.2206C50.303 77.2779 50.3521 77.3188 50.4176 77.3434C50.4667 77.368 50.524 77.3843 50.5731 77.3925C50.6222 77.4089 50.6796 77.4171 50.7369 77.4171V77.6545V77.6708ZM50.2948 72.7019C50.2948 72.8411 50.2539 72.9557 50.1638 73.0621C50.0738 73.1685 49.9673 73.2177 49.8364 73.2177C49.7136 73.2177 49.6072 73.1685 49.5172 73.0703C49.4271 72.9721 49.3861 72.8657 49.3861 72.7429C49.3861 72.6119 49.4271 72.4973 49.5172 72.3991C49.6072 72.3008 49.7136 72.2517 49.8364 72.2517C49.9755 72.2517 50.082 72.3008 50.172 72.3909C50.2621 72.4809 50.303 72.5873 50.303 72.7101L50.2948 72.7019Z" fill="black"/>
<path d="M59.1685 76.844C59.0212 77.1224 58.8247 77.3516 58.571 77.5153C58.3254 77.679 58.0389 77.7691 57.7115 77.7691C57.425 77.7691 57.1793 77.7199 56.9665 77.6217C56.7537 77.5235 56.5736 77.3843 56.4344 77.2124C56.2953 77.0405 56.1889 76.8358 56.1234 76.6148C56.0579 76.3856 56.0251 76.1401 56.0251 75.8863C56.0251 75.6571 56.0578 75.4279 56.1315 75.2068C56.2052 74.9858 56.3116 74.7894 56.4508 74.6093C56.5899 74.4374 56.7537 74.3064 56.9583 74.2C57.163 74.0936 57.384 74.0444 57.6378 74.0444C57.8915 74.0444 58.1126 74.0854 58.3008 74.1672C58.4809 74.2491 58.6364 74.3637 58.751 74.5028C58.8575 74.6338 58.9393 74.7975 58.9966 74.9776C59.0539 75.1577 59.0785 75.3542 59.0785 75.567V75.8044H56.7373C56.7373 76.0336 56.7618 76.2465 56.8028 76.4347C56.8437 76.623 56.9174 76.7867 57.0156 76.9341C57.1057 77.0733 57.2285 77.1797 57.384 77.2615C57.5313 77.3434 57.7114 77.3843 57.9243 77.3843C58.1371 77.3843 58.3172 77.3352 58.4728 77.237C58.6283 77.1387 58.7756 76.9586 58.9148 76.6967L59.1685 76.8522V76.844ZM58.3745 75.4933C58.3745 75.3624 58.3663 75.215 58.3417 75.0677C58.3172 74.9121 58.2844 74.7894 58.2353 74.6829C58.178 74.5765 58.1044 74.4865 58.0061 74.4128C57.9079 74.3473 57.7851 74.3064 57.6378 74.3064C57.384 74.3064 57.1793 74.4128 57.0156 74.6174C56.8519 74.8221 56.7618 75.1168 56.7455 75.4852H58.3827L58.3745 75.4933Z" fill="black"/>
<path d="M66.7568 75.9437C66.8551 76.0256 66.9287 76.132 66.986 76.2384C67.0351 76.353 67.0679 76.4922 67.0679 76.6477C67.0679 76.9752 66.9451 77.2453 66.6995 77.45C66.454 77.6546 66.1347 77.761 65.7499 77.761C65.5453 77.761 65.357 77.7201 65.1851 77.6464C65.0132 77.5727 64.8904 77.5073 64.8168 77.4418L64.7431 77.671H64.4729L64.4402 76.4431H64.6858C64.7021 76.5331 64.7431 76.6477 64.8086 76.7705C64.8741 76.8933 64.9477 77.0079 65.0377 77.1061C65.1278 77.2126 65.2424 77.3026 65.3734 77.3763C65.5044 77.4499 65.6517 77.4827 65.8154 77.4827C66.0446 77.4827 66.2247 77.4336 66.3475 77.3271C66.4703 77.2207 66.5358 77.0734 66.5358 76.8769C66.5358 76.7787 66.5194 76.6886 66.4785 76.615C66.4376 76.5413 66.3803 76.4758 66.3066 76.4267C66.2248 76.3694 66.1347 76.3203 66.0201 76.2793C65.9055 76.2384 65.7745 76.1893 65.6354 76.1484C65.5208 76.1156 65.3979 76.0665 65.2588 76.0092C65.1196 75.9519 65.005 75.8782 64.9068 75.8046C64.8004 75.7227 64.7185 75.6163 64.6448 75.4935C64.5793 75.3707 64.5466 75.2315 64.5466 75.0596C64.5466 74.7731 64.653 74.5275 64.8659 74.3229C65.0787 74.1182 65.3652 74.02 65.7254 74.02C65.8646 74.02 66.0037 74.0364 66.1511 74.0773C66.2984 74.11 66.413 74.1592 66.5031 74.2083L66.5849 74.02H66.8387L66.896 75.1579H66.6504C66.6013 74.9041 66.4949 74.6995 66.323 74.5357C66.1592 74.372 65.9546 74.2983 65.7172 74.2983C65.5207 74.2983 65.3652 74.3475 65.2588 74.4457C65.1442 74.5439 65.0869 74.6667 65.0869 74.8059C65.0869 74.9123 65.1032 75.0023 65.1442 75.076C65.1769 75.1497 65.2342 75.207 65.3079 75.2561C65.3816 75.3052 65.4716 75.3461 65.5781 75.3871C65.6845 75.428 65.8236 75.4771 65.9792 75.5262C66.1347 75.5754 66.282 75.6327 66.4212 75.6981C66.5603 75.7636 66.675 75.8373 66.765 75.9192L66.7568 75.9437Z" fill="black"/>
<path d="M84.0128 74.7073C83.8736 74.7155 83.7263 74.7482 83.5872 74.7892C83.448 74.8301 83.3334 74.9038 83.2597 75.002C83.2106 75.0593 83.1615 75.1412 83.1042 75.2558C83.055 75.3704 82.9896 75.5014 82.9159 75.6569C82.8422 75.8124 82.7685 75.9598 82.6949 76.1071C82.6212 76.2545 82.523 76.4018 82.4084 76.5492C82.5066 76.6638 82.6212 76.7865 82.7604 76.9257C82.8995 77.0649 83.0141 77.1549 83.1124 77.2204C83.2106 77.2777 83.3416 77.3186 83.5217 77.3596C83.7017 77.4005 83.8409 77.4169 83.9555 77.4251V77.6788H82.482L81.95 77.073C81.8681 77.1631 81.778 77.245 81.6798 77.3432C81.5816 77.4332 81.4751 77.5151 81.3605 77.5806C81.2377 77.6543 81.115 77.7116 80.984 77.7525C80.8612 77.7934 80.7138 77.8098 80.5419 77.8098C80.37 77.8098 80.19 77.7852 80.0181 77.7361C79.8462 77.687 79.6824 77.6051 79.5433 77.4905C79.4041 77.3841 79.2895 77.2368 79.2076 77.0649C79.1258 76.893 79.0767 76.6883 79.0767 76.4509C79.0767 76.1562 79.1585 75.8861 79.314 75.6487C79.4696 75.4113 79.7643 75.1575 80.1899 74.8874C79.9935 74.6336 79.8461 74.4126 79.7397 74.2243C79.6333 74.0361 79.576 73.8314 79.576 73.594C79.576 73.4303 79.6087 73.2748 79.6742 73.1438C79.7397 73.0046 79.8298 72.89 79.9526 72.7836C80.059 72.6935 80.1981 72.6199 80.3537 72.5626C80.5092 72.5135 80.673 72.4807 80.8367 72.4807C81.0249 72.4807 81.1968 72.5134 81.336 72.5707C81.4834 72.628 81.598 72.7099 81.688 72.8081C81.7699 72.8982 81.8353 73.0046 81.8763 73.1192C81.9172 73.242 81.9418 73.3566 81.9418 73.4794C81.9418 73.7659 81.8517 74.0115 81.6798 74.2161C81.4997 74.4208 81.2541 74.6091 80.943 74.7728C81.1641 75.0757 81.3851 75.354 81.598 75.5996C81.8108 75.8452 82.0155 76.0907 82.2201 76.3363C82.3756 76.0825 82.5066 75.837 82.5884 75.6159C82.6785 75.3867 82.7194 75.1903 82.7194 75.0184C82.7194 74.9447 82.6621 74.8792 82.5557 74.8383C82.4411 74.7974 82.2938 74.7482 82.0973 74.7073V74.4535H84.0128V74.7073ZM81.7616 76.8602C81.5406 76.5819 81.2869 76.2708 81.0085 75.9352C80.7302 75.5996 80.5092 75.3131 80.3373 75.0839C80.1408 75.2148 80.0098 75.3704 79.928 75.5587C79.8461 75.7388 79.8052 75.9434 79.8052 76.1726C79.8052 76.5 79.8952 76.7702 80.0835 76.983C80.2718 77.1959 80.5174 77.3023 80.8285 77.3023C81.0004 77.3023 81.1723 77.2613 81.3442 77.1877C81.5161 77.114 81.647 77.0076 81.7616 76.8602ZM81.4833 73.5449C81.4833 73.2993 81.426 73.111 81.3196 72.9882C81.2132 72.8655 81.0577 72.7918 80.8612 72.7918C80.7466 72.7918 80.6566 72.8163 80.5829 72.8573C80.5092 72.8982 80.4437 72.9555 80.3946 73.0292C80.3455 73.0946 80.3127 73.1683 80.2882 73.242C80.2636 73.3157 80.2554 73.3894 80.2554 73.4467C80.2554 73.6104 80.2964 73.7823 80.3864 73.946C80.4683 74.1179 80.6075 74.3226 80.7876 74.56C81.0331 74.4208 81.205 74.2734 81.3196 74.1097C81.4342 73.946 81.4833 73.7577 81.4833 73.5449Z" fill="black"/>
<path d="M101.785 77.6711H100.066V77.4337C100.123 77.4337 100.172 77.4255 100.229 77.4173C100.287 77.4092 100.336 77.401 100.377 77.3846C100.442 77.36 100.491 77.3273 100.524 77.27C100.557 77.2127 100.573 77.1472 100.573 77.0572V75.2317C100.573 74.9861 100.516 74.7896 100.401 74.6587C100.287 74.5195 100.147 74.454 99.9755 74.454C99.8609 74.454 99.7463 74.4704 99.6481 74.5113C99.5498 74.544 99.4516 74.5932 99.3615 74.6587C99.296 74.7078 99.2306 74.7651 99.1896 74.8306C99.1487 74.896 99.1078 74.9452 99.0832 74.9861V77.0244C99.0832 77.1063 99.0996 77.1799 99.1241 77.2291C99.1569 77.2864 99.206 77.3273 99.2715 77.3518C99.3288 77.3764 99.3779 77.3928 99.4188 77.401C99.4598 77.4092 99.5171 77.4173 99.5908 77.4255V77.6629H97.9044V77.4255C97.9617 77.4255 98.0109 77.4173 98.0682 77.4091C98.1173 77.4091 98.1664 77.3928 98.2073 77.3764C98.2728 77.3518 98.3219 77.3191 98.3547 77.2618C98.3874 77.2045 98.4038 77.139 98.4038 77.049V75.2235C98.4038 74.9779 98.3465 74.7814 98.2319 74.6505C98.1173 74.5113 97.9781 74.4458 97.8062 74.4458C97.6916 74.4458 97.577 74.4622 97.4788 74.5031C97.3723 74.5441 97.2823 74.5932 97.1923 74.6587C97.1268 74.7078 97.0613 74.7733 97.0203 74.8388C96.9712 74.9042 96.9385 74.9533 96.9139 74.9861V77.008C96.9139 77.0899 96.9303 77.1554 96.963 77.2127C96.9958 77.27 97.0449 77.3109 97.1104 77.3355C97.1595 77.36 97.2086 77.3764 97.2659 77.3928C97.3232 77.4092 97.3805 77.4092 97.4378 77.4173V77.6547H95.7188V77.4173C95.7761 77.4173 95.8334 77.4092 95.8907 77.401C95.948 77.3928 95.9971 77.3846 96.0462 77.3764C96.1117 77.3518 96.1608 77.3191 96.1935 77.2618C96.2263 77.2045 96.2427 77.139 96.2427 77.049V74.8551C96.2427 74.7814 96.2263 74.7078 96.1935 74.6505C96.1608 74.585 96.1117 74.5359 96.0462 74.4949C96.0053 74.4622 95.948 74.4458 95.8743 74.4295C95.8088 74.4131 95.7352 74.3967 95.6697 74.3967V74.1593L96.8485 74.0774L96.8976 74.1266V74.6341H96.9221C96.9794 74.5768 97.0531 74.5031 97.1431 74.4213C97.2332 74.3394 97.3069 74.2739 97.3805 74.2248C97.4624 74.1675 97.5688 74.1184 97.6916 74.0856C97.8144 74.0447 97.9535 74.0283 98.1009 74.0283C98.3301 74.0283 98.5266 74.0938 98.6903 74.2166C98.854 74.3394 98.9768 74.4868 99.0423 74.6587C99.1324 74.5768 99.206 74.5031 99.2715 74.4376C99.337 74.3721 99.427 74.3066 99.5334 74.233C99.6235 74.1675 99.7299 74.1184 99.8527 74.0856C99.9755 74.0447 100.115 74.0283 100.262 74.0283C100.557 74.0283 100.794 74.1266 100.974 74.323C101.146 74.5195 101.236 74.8224 101.236 75.2235V77.0162C101.236 77.0981 101.253 77.1718 101.277 77.2209C101.302 77.27 101.351 77.3191 101.424 77.3437C101.482 77.3682 101.531 77.3846 101.588 77.3928C101.645 77.401 101.703 77.4092 101.768 77.4173V77.6547L101.785 77.6711Z" fill="black"/>
<path d="M110.404 77.6135C110.29 77.6544 110.192 77.6872 110.11 77.7117C110.028 77.7363 109.93 77.7527 109.823 77.7527C109.635 77.7527 109.488 77.7118 109.381 77.6217C109.275 77.5317 109.201 77.4089 109.168 77.237H109.144C108.988 77.4089 108.825 77.5399 108.644 77.6299C108.464 77.72 108.252 77.7691 107.998 77.7691C107.736 77.7691 107.515 77.6872 107.343 77.5235C107.171 77.3598 107.089 77.1469 107.089 76.885C107.089 76.7458 107.105 76.623 107.146 76.5166C107.187 76.4102 107.245 76.3119 107.318 76.2301C107.376 76.1564 107.457 76.0909 107.556 76.0418C107.654 75.9845 107.744 75.9436 107.834 75.9108C107.94 75.8699 108.161 75.7962 108.489 75.6816C108.816 75.5752 109.037 75.4852 109.152 75.4279V75.0759C109.152 75.0759 109.152 74.9858 109.136 74.8958C109.119 74.8057 109.095 74.7239 109.054 74.642C109.005 74.5519 108.939 74.4783 108.849 74.4128C108.759 74.3473 108.636 74.3146 108.481 74.3146C108.374 74.3146 108.268 74.3309 108.178 74.3719C108.08 74.4046 108.014 74.4455 107.981 74.4865C107.981 74.5356 107.99 74.6011 108.014 74.6993C108.039 74.7893 108.047 74.8794 108.047 74.9531C108.047 75.0349 108.006 75.1168 107.932 75.1823C107.859 75.2478 107.752 75.2887 107.621 75.2887C107.498 75.2887 107.417 75.2478 107.359 75.1577C107.302 75.0677 107.277 74.9776 107.277 74.8712C107.277 74.7648 107.318 74.6584 107.392 74.552C107.466 74.4537 107.572 74.3637 107.695 74.2818C107.801 74.2163 107.932 74.159 108.088 74.1099C108.243 74.0608 108.391 74.0444 108.538 74.0444C108.743 74.0444 108.915 74.0608 109.062 74.0854C109.209 74.1099 109.348 74.1754 109.471 74.2654C109.594 74.3555 109.684 74.4701 109.75 74.6256C109.815 74.773 109.848 74.9694 109.848 75.2068C109.848 75.5506 109.848 75.8535 109.84 76.1155C109.84 76.3774 109.831 76.664 109.831 76.9832C109.831 77.0733 109.848 77.1469 109.881 77.2042C109.913 77.2615 109.962 77.3025 110.028 77.3434C110.061 77.3679 110.118 77.3761 110.2 77.3761C110.282 77.3761 110.355 77.3761 110.437 77.3761V77.6054L110.404 77.6135ZM109.152 75.7226C108.947 75.7799 108.775 75.8372 108.62 75.8945C108.464 75.9518 108.325 76.0254 108.194 76.1073C108.071 76.1892 107.981 76.2874 107.908 76.3938C107.842 76.5084 107.801 76.6394 107.801 76.7949C107.801 76.9914 107.85 77.1387 107.957 77.2288C108.063 77.3188 108.194 77.3679 108.35 77.3679C108.522 77.3679 108.669 77.327 108.8 77.2452C108.931 77.1633 109.037 77.0651 109.127 76.9505L109.152 75.7144V75.7226Z" fill="black"/>
<path d="M117.24 77.7691C116.732 77.7691 116.331 77.5972 116.036 77.2615C115.75 76.9259 115.603 76.4675 115.603 75.8945C115.603 75.6489 115.643 75.4115 115.717 75.1987C115.791 74.9858 115.905 74.7894 116.053 74.6093C116.192 74.4374 116.372 74.3064 116.585 74.2C116.798 74.0936 117.027 74.0444 117.281 74.0444C117.624 74.0444 117.911 74.1263 118.124 74.29C118.345 74.4537 118.451 74.6829 118.451 74.9695C118.451 75.0922 118.419 75.1905 118.361 75.2887C118.304 75.3787 118.206 75.4279 118.075 75.4279C117.936 75.4279 117.821 75.3951 117.747 75.3214C117.674 75.2478 117.633 75.1741 117.633 75.084C117.633 74.9776 117.649 74.8712 117.674 74.7566C117.706 74.642 117.723 74.5601 117.723 74.511C117.682 74.4373 117.616 74.3882 117.534 74.3637C117.453 74.3391 117.363 74.3309 117.264 74.3309C117.15 74.3309 117.043 74.3555 116.937 74.4046C116.83 74.4537 116.732 74.5438 116.634 74.6747C116.544 74.7975 116.478 74.9531 116.421 75.1577C116.364 75.3624 116.339 75.5998 116.339 75.8863C116.339 76.3283 116.438 76.6967 116.634 76.975C116.83 77.2533 117.092 77.3925 117.412 77.3925C117.641 77.3925 117.837 77.3352 117.993 77.2206C118.148 77.106 118.296 76.9423 118.427 76.7131L118.656 76.8604C118.5 77.1387 118.288 77.3679 118.034 77.5317C117.78 77.6954 117.51 77.7772 117.232 77.7772L117.24 77.7691Z" fill="black"/>
<path d="M127.129 77.6135C127.014 77.6544 126.916 77.6872 126.834 77.7117C126.752 77.7363 126.654 77.7527 126.547 77.7527C126.359 77.7527 126.212 77.7118 126.105 77.6217C125.999 77.5317 125.925 77.4089 125.892 77.237H125.868C125.712 77.4089 125.549 77.5399 125.369 77.6299C125.188 77.72 124.976 77.7691 124.722 77.7691C124.46 77.7691 124.239 77.6872 124.067 77.5235C123.895 77.3598 123.813 77.1469 123.813 76.885C123.813 76.7458 123.83 76.623 123.87 76.5166C123.911 76.4102 123.969 76.3119 124.042 76.2301C124.1 76.1564 124.182 76.0909 124.28 76.0418C124.378 75.9845 124.468 75.9436 124.558 75.9108C124.665 75.8699 124.886 75.7962 125.213 75.6816C125.54 75.5752 125.761 75.4852 125.876 75.4279V75.0759C125.876 75.0759 125.876 74.9858 125.86 74.8958C125.843 74.8057 125.819 74.7239 125.778 74.642C125.729 74.5519 125.663 74.4783 125.573 74.4128C125.483 74.3473 125.36 74.3146 125.205 74.3146C125.098 74.3146 124.992 74.3309 124.902 74.3719C124.804 74.4046 124.738 74.4455 124.705 74.4865C124.705 74.5356 124.714 74.6011 124.738 74.6993C124.763 74.7893 124.771 74.8794 124.771 74.9531C124.771 75.0349 124.73 75.1168 124.656 75.1823C124.583 75.2478 124.476 75.2887 124.345 75.2887C124.223 75.2887 124.141 75.2478 124.083 75.1577C124.026 75.0677 124.001 74.9776 124.001 74.8712C124.001 74.7648 124.042 74.6584 124.116 74.552C124.19 74.4537 124.296 74.3637 124.419 74.2818C124.525 74.2163 124.656 74.159 124.812 74.1099C124.967 74.0608 125.115 74.0444 125.262 74.0444C125.467 74.0444 125.639 74.0608 125.786 74.0854C125.933 74.1099 126.073 74.1754 126.195 74.2654C126.318 74.3555 126.408 74.4701 126.474 74.6256C126.539 74.773 126.572 74.9694 126.572 75.2068C126.572 75.5506 126.572 75.8535 126.564 76.1155C126.564 76.3774 126.556 76.664 126.556 76.9832C126.556 77.0733 126.572 77.1469 126.605 77.2042C126.637 77.2615 126.686 77.3025 126.752 77.3434C126.785 77.3679 126.842 77.3761 126.924 77.3761C127.006 77.3761 127.079 77.3761 127.161 77.3761V77.6054L127.129 77.6135ZM125.876 75.7226C125.671 75.7799 125.5 75.8372 125.344 75.8945C125.188 75.9518 125.049 76.0254 124.918 76.1073C124.796 76.1892 124.706 76.2874 124.632 76.3938C124.566 76.5084 124.525 76.6394 124.525 76.7949C124.525 76.9914 124.575 77.1387 124.681 77.2288C124.787 77.3188 124.918 77.3679 125.074 77.3679C125.246 77.3679 125.393 77.327 125.524 77.2452C125.655 77.1633 125.761 77.0651 125.852 76.9505L125.876 75.7144V75.7226Z" fill="black"/>
<path d="M135.036 74.6012C135.036 74.724 135.003 74.8304 134.946 74.9286C134.889 75.0269 134.791 75.0678 134.668 75.0678C134.537 75.0678 134.43 75.0351 134.365 74.9614C134.291 74.8959 134.258 74.814 134.258 74.7322C134.258 74.6831 134.258 74.6339 134.267 74.593C134.275 74.5521 134.283 74.5112 134.291 74.462C134.177 74.462 134.046 74.5112 133.898 74.6012C133.751 74.6913 133.62 74.8222 133.514 74.986V77.0406C133.514 77.1225 133.53 77.1962 133.563 77.2453C133.595 77.2944 133.645 77.3353 133.718 77.3599C133.775 77.3844 133.857 77.4008 133.947 77.4172C134.037 77.4336 134.119 77.4336 134.193 77.4418V77.6792H132.327V77.4418C132.384 77.4418 132.441 77.4336 132.498 77.4254C132.556 77.4254 132.605 77.409 132.654 77.4008C132.72 77.3763 132.769 77.3435 132.801 77.2862C132.834 77.2289 132.85 77.1634 132.85 77.0734V74.8959C132.85 74.8222 132.834 74.7486 132.801 74.6749C132.769 74.6012 132.72 74.5439 132.654 74.503C132.605 74.4702 132.556 74.4538 132.49 74.4375C132.425 74.4211 132.359 74.4129 132.286 74.4129V74.1755L133.464 74.0937L133.514 74.1428V74.6421H133.53C133.677 74.4457 133.841 74.2983 134.021 74.2001C134.201 74.1019 134.365 74.0527 134.52 74.0527C134.676 74.0527 134.791 74.1019 134.889 74.2001C134.987 74.2983 135.028 74.4293 135.028 74.593L135.036 74.6012Z" fill="black"/>
<path d="M143.631 75.87C143.631 76.1156 143.59 76.3612 143.517 76.5986C143.435 76.836 143.328 77.0406 143.181 77.2126C143.017 77.4008 142.821 77.5482 142.608 77.6382C142.387 77.7283 142.15 77.7774 141.879 77.7774C141.658 77.7774 141.437 77.7365 141.241 77.6464C141.044 77.5564 140.856 77.4417 140.701 77.278C140.545 77.1143 140.422 76.926 140.332 76.6886C140.242 76.4512 140.193 76.1975 140.193 75.911C140.193 75.3625 140.357 74.9041 140.676 74.5603C140.995 74.2165 141.421 74.0364 141.937 74.0364C142.452 74.0364 142.837 74.2001 143.165 74.5357C143.484 74.8714 143.648 75.3134 143.648 75.87H143.631ZM142.895 75.8782C142.895 75.6981 142.878 75.5099 142.837 75.3134C142.804 75.1169 142.747 74.945 142.673 74.8059C142.6 74.6585 142.493 74.5357 142.371 74.4539C142.248 74.3638 142.092 74.3229 141.912 74.3229C141.732 74.3229 141.568 74.3638 141.437 74.462C141.306 74.5521 141.2 74.6749 141.118 74.8386C141.044 74.986 140.987 75.1497 140.954 75.3379C140.922 75.5262 140.905 75.7063 140.905 75.8782C140.905 76.1074 140.922 76.3203 140.963 76.5167C140.995 76.7132 141.061 76.8851 141.143 77.0407C141.225 77.1962 141.323 77.3108 141.454 77.4008C141.585 77.4909 141.732 77.5318 141.912 77.5318C142.215 77.5318 142.452 77.3844 142.624 77.0979C142.796 76.8114 142.886 76.4103 142.886 75.9028L142.895 75.8782Z" fill="black"/>
<path d="M152.89 77.6708H151.163V77.4334C151.22 77.4334 151.277 77.4252 151.343 77.4171C151.408 77.4089 151.466 77.4007 151.507 77.3843C151.572 77.3598 151.621 77.327 151.654 77.2697C151.687 77.2124 151.703 77.1469 151.703 77.0569V75.2396C151.703 74.9858 151.646 74.7975 151.523 74.6584C151.4 74.5192 151.261 74.4537 151.089 74.4537C150.958 74.4537 150.843 74.4701 150.737 74.511C150.631 74.5519 150.541 74.6011 150.459 74.6584C150.377 74.7157 150.32 74.773 150.27 74.8385C150.221 74.904 150.189 74.9531 150.172 74.994V77.0241C150.172 77.106 150.189 77.1715 150.221 77.2288C150.254 77.2779 150.303 77.3188 150.369 77.3516C150.418 77.3761 150.475 77.3925 150.532 77.4089C150.59 77.4252 150.647 77.4252 150.713 77.4334V77.6708H148.985V77.4334C149.043 77.4334 149.1 77.4252 149.157 77.4171C149.214 77.4171 149.264 77.4007 149.313 77.3925C149.378 77.3679 149.427 77.3352 149.46 77.2779C149.493 77.2206 149.509 77.1551 149.509 77.0651V74.8876C149.509 74.8057 149.493 74.732 149.46 74.6666C149.427 74.6011 149.378 74.5438 149.313 74.5028C149.264 74.4701 149.214 74.4537 149.149 74.4373C149.083 74.421 149.018 74.4128 148.944 74.4128V74.1754L150.123 74.0935L150.172 74.1427V74.642H150.189C150.246 74.5847 150.32 74.5192 150.401 74.4373C150.492 74.3555 150.565 74.29 150.647 74.2409C150.737 74.1836 150.844 74.1345 150.958 74.1017C151.081 74.0608 151.22 74.0444 151.367 74.0444C151.703 74.0444 151.957 74.1508 152.121 74.3637C152.284 74.5765 152.366 74.8548 152.366 75.2068V77.0487C152.366 77.1305 152.382 77.196 152.407 77.2533C152.44 77.3024 152.481 77.3434 152.554 77.3761C152.612 77.4007 152.661 77.4171 152.702 77.4253C152.743 77.4334 152.8 77.4416 152.874 77.4498V77.6872L152.89 77.6708Z" fill="black"/>
<path d="M160.511 75.9437C160.609 76.0256 160.683 76.132 160.74 76.2384C160.79 76.353 160.822 76.4922 160.822 76.6477C160.822 76.9752 160.699 77.2453 160.454 77.45C160.208 77.6546 159.889 77.761 159.504 77.761C159.3 77.761 159.111 77.7201 158.939 77.6464C158.768 77.5727 158.645 77.5073 158.571 77.4418L158.497 77.671H158.227L158.195 76.4431H158.44C158.457 76.5331 158.497 76.6477 158.563 76.7705C158.628 76.8933 158.702 77.0079 158.792 77.1061C158.882 77.2126 158.997 77.3026 159.128 77.3763C159.259 77.4499 159.406 77.4827 159.57 77.4827C159.799 77.4827 159.979 77.4336 160.102 77.3271C160.225 77.2207 160.29 77.0734 160.29 76.8769C160.29 76.7787 160.274 76.6886 160.233 76.615C160.192 76.5413 160.135 76.4758 160.061 76.4267C159.979 76.3694 159.889 76.3203 159.774 76.2793C159.66 76.2384 159.529 76.1893 159.39 76.1484C159.275 76.1156 159.152 76.0665 159.013 76.0092C158.874 75.9519 158.759 75.8782 158.661 75.8046C158.555 75.7227 158.473 75.6163 158.399 75.4935C158.334 75.3707 158.301 75.2315 158.301 75.0596C158.301 74.7731 158.407 74.5275 158.62 74.3229C158.833 74.1182 159.12 74.02 159.48 74.02C159.619 74.02 159.758 74.0364 159.905 74.0773C160.053 74.1182 160.167 74.1592 160.257 74.2083L160.339 74.02H160.601L160.659 75.1579H160.413C160.364 74.9041 160.257 74.6995 160.086 74.5357C159.922 74.372 159.717 74.2983 159.48 74.2983C159.283 74.2983 159.128 74.3475 159.021 74.4457C158.907 74.5439 158.849 74.6667 158.849 74.8059C158.849 74.9123 158.866 75.0023 158.907 75.076C158.94 75.1497 158.997 75.207 159.07 75.2561C159.144 75.3052 159.234 75.3461 159.341 75.3871C159.447 75.428 159.586 75.4771 159.742 75.5262C159.897 75.5754 160.045 75.6327 160.184 75.6981C160.323 75.7636 160.438 75.8373 160.528 75.9192L160.511 75.9437Z" fill="black"/>
<path d="M112.312 26.4183L110.126 22.5955C110.126 22.5955 110.028 22.2353 110.151 21.7277L110.847 16.7015H110.855C110.871 16.4232 110.879 16.1285 110.879 15.842C110.879 11.5443 109.545 8.08986 106.868 5.46215C104.2 2.84263 100.663 1.52469 96.2674 1.52469C90.66 1.52469 84.8561 3.39107 78.8639 7.13208C72.2087 2.84261 64.1128 0.689697 54.5761 0.689697C41.8878 0.689697 30.3128 4.51256 19.8347 12.1747C9.35659 19.8286 4.12573 28.2929 4.12573 37.5758C4.12573 42.1682 5.49281 45.8273 8.23512 48.5697C10.9692 51.3038 14.6202 52.679 19.1798 52.679C26.1625 52.679 33.2433 49.4373 40.4224 42.9458C47.6016 36.4543 51.1952 30.0283 51.1952 23.6678C51.1952 18.4533 48.3792 15.8502 42.7391 15.8502C37.0989 15.8502 31.0822 18.265 25.483 23.0948C19.8756 27.9245 17.076 32.8771 17.076 37.9524C17.076 40.0153 17.6163 41.7589 18.6968 43.1832C19.7774 44.6076 21.1035 45.3198 22.6834 45.3198C23.3055 45.3198 23.6166 45.1725 23.6166 44.8778C23.6166 44.714 23.3383 44.583 22.7816 44.4848C21.7338 44.4848 20.817 44.0592 20.0311 43.2078C19.2453 42.3565 18.8523 41.3414 18.8523 40.1626C18.8523 35.382 21.6438 30.2821 27.2348 24.863C32.8258 19.4438 38.0567 16.7343 42.9437 16.7343C47.8308 16.7343 50.2702 19.1082 50.2702 23.8643C50.2702 29.8319 46.7502 35.9796 39.7266 42.3073C32.6949 48.6351 25.8841 51.7949 19.2944 51.7949C15.2587 51.7949 12.0662 50.7144 9.70859 48.5533C7.35102 46.3922 6.16403 43.4698 6.16403 39.8024C6.16403 32.5578 10.3635 24.8384 18.7541 16.6442C28.9784 6.64913 41.0119 1.64747 54.8462 1.64747C64.6776 1.64747 72.1841 3.82494 77.3659 8.18808C74.2879 10.3164 70.4651 13.9101 65.9055 18.9609C61.3459 24.0116 57.4493 28.9724 54.1995 33.8594C47.5115 44.0837 43.2303 50.4524 41.3638 52.9655C39.4974 55.4705 37.2954 57.8771 34.7741 60.1692C28.9375 65.4819 22.4296 68.1342 15.2505 68.1342C11.182 68.1342 7.81762 67.2337 5.14898 65.4328C2.48034 63.6319 1.13782 61.3726 1.13782 58.6466C1.13782 56.9112 1.39979 56.0435 1.92369 56.0435C2.08741 56.0435 2.15289 56.4036 2.12015 57.124C2.05466 58.8922 2.87326 59.7763 4.57595 59.7763C5.55827 59.7763 6.38508 59.3834 7.05633 58.5975C7.72758 57.8117 8.06319 56.8621 8.06319 55.7488C8.06319 53.5222 7.06452 52.4089 5.06714 52.4089C3.69189 52.4089 2.50488 53.0146 1.498 54.2262C0.49931 55.4377 0 56.8784 0 58.5566C0 61.569 1.45709 64.0903 4.37949 66.1041C7.29371 68.1178 10.9529 69.1247 15.3488 69.1247C20.727 69.1247 26.8419 67.4548 33.6936 64.1067C39.4974 61.2252 43.967 58.0245 47.1186 54.5209C50.3603 50.8781 53.9376 45.0169 57.8423 36.921C64.1701 23.7415 70.9235 14.4013 78.1026 8.89209C80.6239 11.5444 81.8928 14.5159 81.8928 17.7903C81.8928 21.0647 80.9022 24.2163 78.9212 26.8358C76.9402 29.4553 74.2388 31.2972 70.8335 32.345C68.4104 31.7556 66.4539 31.4609 64.9804 31.4609C62.9176 31.4609 61.8862 31.7556 61.8862 32.345C61.8862 33.1636 63.1304 33.5729 65.6272 33.5729C66.413 33.5729 67.1989 33.5238 67.9847 33.4255L70.8335 33.0817C76.0807 35.6358 78.7002 39.6387 78.7002 45.0824C78.7002 50.919 76.6128 56.2727 72.4379 61.1351C68.2631 65.9976 63.6789 68.4371 58.6691 68.4371C56.4752 68.4371 54.6415 67.7167 53.168 66.276C51.6946 64.8352 50.9579 63.0343 50.9579 60.865C50.9579 56.7966 52.726 52.8182 56.2542 48.9135C59.7905 45.0169 63.4006 43.0605 67.1006 43.0605C69.0653 43.0605 70.6452 43.6335 71.8567 44.7795C73.0682 45.9256 73.674 47.4318 73.674 49.3064C73.674 51.3038 72.8226 53.5549 71.1199 56.0435C70.989 56.3054 70.9235 56.5019 70.9235 56.6328C70.9235 56.8948 71.1036 57.0258 71.4638 57.0258C71.955 57.0258 72.5934 56.0762 73.3793 54.177C74.1651 52.2779 74.5581 50.6816 74.5581 49.4046C74.5581 47.2763 73.8705 45.5245 72.4952 44.1656C71.12 42.8067 69.3518 42.1272 67.1825 42.1272C63.2778 42.1272 59.4058 44.1819 55.5502 48.2995C51.6946 52.4171 49.7709 56.5674 49.7709 60.7668C49.7709 63.4845 50.6795 65.6456 52.4968 67.2337C54.3141 68.8218 56.7699 69.6159 59.8479 69.6159C66.2739 69.6159 71.8895 67.5039 76.6865 63.2717C81.4917 59.0395 83.8901 54.1116 83.8901 48.4714C83.8901 40.8666 79.8053 35.6358 71.6439 32.787C81.5735 31.4118 86.5424 27.065 86.5424 19.7549C86.5424 15.1953 84.2503 11.2169 79.658 7.80334C85.3964 4.22605 90.9792 2.44151 96.3902 2.44151C100.426 2.44151 103.676 3.69398 106.132 6.20708C108.595 8.712 109.823 12.0355 109.823 16.1612C109.823 16.3823 109.799 16.5869 109.799 16.8079C109.799 16.8079 109.48 19.1655 108.514 20.6308C108.497 20.6554 108.481 20.6799 108.465 20.7045C108.448 20.729 108.432 20.7536 108.415 20.7782C108.235 21.0483 108.047 21.2366 107.883 21.3594C107.883 21.3594 107.875 21.3676 107.867 21.3757C107.777 21.4412 107.687 21.4985 107.621 21.5313C107.507 21.5968 107.384 21.6459 107.261 21.6868C102.235 23.807 101.621 26.0172 101.621 26.0172C101.621 26.0172 101.122 27.417 102.644 26.9913L104.208 26.361C104.208 26.361 105.419 25.8535 105.706 26.8522L105.902 27.4743C105.902 27.4743 106.115 28.4812 106.868 27.6053L107.515 26.9177C107.515 26.9177 108.137 26.3364 108.898 27.1632L110.02 28.3584C110.02 28.3584 110.879 29.2589 110.92 28.0146C110.961 26.7703 112.189 27.1305 112.189 27.1305C112.189 27.1305 112.901 27.1714 112.312 26.4511V26.4183Z" fill="black"/>
</svg>
