<svg width="63" height="42" viewBox="0 0 63 42" fill="none" xmlns="http://www.w3.org/2000/svg">
<path d="M62.1252 30.4261C62.1252 31.4675 61.9884 32.4782 61.7291 33.4391C61.307 35.0178 60.5573 36.4663 59.5599 37.7018C59.053 38.3338 58.4754 38.9137 57.8458 39.4225C55.8653 41.0367 53.3425 42 50.5957 42H11.1454C11.0039 42 10.8625 42 10.721 41.9906C10.6927 41.9906 10.6644 41.9906 10.6338 41.9906C10.4994 41.9858 10.365 41.9764 10.233 41.9645C10.2235 41.9669 10.2164 41.9645 10.2094 41.9645C10.0585 41.9527 9.90993 41.9385 9.76139 41.9196C9.63172 41.9054 9.5044 41.8864 9.37708 41.8675C9.32757 41.8604 9.27805 41.8509 9.22854 41.8438C9.15309 41.832 9.07764 41.8178 9.00455 41.8036C8.91731 41.787 8.83243 41.7705 8.74755 41.7515C8.67446 41.7373 8.60373 41.7207 8.53064 41.7042C8.4882 41.6947 8.44576 41.6829 8.40332 41.6734C8.31844 41.6521 8.23356 41.6308 8.15104 41.6071C8.07559 41.5882 8.0025 41.5669 7.9294 41.5456C7.84924 41.5243 7.77143 41.5006 7.69363 41.4746C7.61582 41.4509 7.53801 41.4249 7.46256 41.3989C7.2315 41.3208 7.0028 41.2355 6.77881 41.1432C6.71987 41.1196 6.66092 41.0959 6.60198 41.0699C6.58547 41.0628 6.56897 41.0557 6.55482 41.0486C6.34734 40.9586 6.14221 40.8616 5.9418 40.7598C5.92766 40.7527 5.91351 40.7456 5.89936 40.7385C5.78383 40.6793 5.6683 40.6178 5.55513 40.5539C5.42781 40.4829 5.30284 40.4095 5.17788 40.3338C5.05528 40.258 4.93032 40.1799 4.81007 40.0994C4.6969 40.0261 4.58608 39.948 4.47527 39.8699C4.46819 39.8651 4.45876 39.858 4.45169 39.8533C4.4399 39.8438 4.42575 39.8344 4.41396 39.8249C4.33144 39.7681 4.24892 39.7066 4.17111 39.645C4.11688 39.6071 4.06501 39.5645 4.0155 39.5243C3.97542 39.4912 3.93534 39.4604 3.89525 39.4273C3.73728 39.2995 3.58167 39.1669 3.43313 39.032C3.28223 38.8971 3.13369 38.7551 2.99223 38.6107C2.70222 38.3243 2.43343 38.0213 2.1788 37.7066C2.10335 37.6142 2.03026 37.5196 1.95952 37.4249C1.91237 37.361 1.86285 37.2971 1.81806 37.2332C1.79212 37.2 1.76854 37.1645 1.74496 37.1314C1.65301 37.0036 1.56577 36.8734 1.47854 36.7409C1.42195 36.6533 1.36772 36.5681 1.31349 36.4805C1.26398 36.3977 1.21447 36.3125 1.16495 36.2296C1.11544 36.1421 1.06593 36.0569 1.01877 35.9669C0.922102 35.7918 0.832507 35.6142 0.745269 35.432C0.705187 35.3444 0.662747 35.2568 0.622665 35.1693C0.469409 34.8284 0.335016 34.4805 0.21477 34.1231C0.188834 34.0497 0.165257 33.9764 0.144037 33.903C0.0945234 33.7492 0.0520835 33.5977 0.00964355 33.4415H4.54364C4.76056 33.9172 5.02463 34.3669 5.3335 34.7811C5.38065 34.845 5.42781 34.9066 5.47732 34.9681C5.53155 35.0367 5.58814 35.103 5.64472 35.1693C5.68716 35.2213 5.73196 35.271 5.77676 35.3208C5.97953 35.5456 6.19644 35.7563 6.4275 35.9551C6.50059 36.019 6.5784 36.0829 6.65621 36.1444C6.75052 36.2178 6.84719 36.2912 6.94621 36.3622C6.99337 36.3977 7.04288 36.4308 7.09004 36.4616C7.13719 36.4947 7.18671 36.5279 7.23622 36.5586C7.28337 36.5918 7.33289 36.6225 7.38476 36.6509C7.43427 36.6817 7.48614 36.7125 7.53566 36.7409C7.58753 36.7716 7.63704 36.8 7.68891 36.8261C7.94591 36.9681 8.21234 37.0935 8.48584 37.2C8.533 37.2213 8.58251 37.2379 8.62966 37.2545C8.74755 37.3018 8.8678 37.3421 8.98804 37.3776C9.20968 37.4462 9.43602 37.5054 9.66708 37.5527C9.78969 37.5811 9.91465 37.6024 10.0396 37.6213C10.2212 37.6474 10.4027 37.6687 10.5866 37.6829C10.6479 37.6876 10.7092 37.6923 10.7729 37.6947C10.8955 37.7018 11.0204 37.7042 11.1454 37.7042H28.7297V37.6924H33.009V37.7042H50.5957C50.6806 37.7042 50.7631 37.7018 50.8456 37.6995C50.9045 37.6971 50.9635 37.6947 51.0201 37.69C51.1097 37.6853 51.1945 37.6805 51.2818 37.671C51.3431 37.6663 51.4067 37.6592 51.468 37.6497C51.5459 37.6426 51.6237 37.6308 51.7015 37.6213C51.7722 37.6095 51.8453 37.5953 51.9137 37.5835C51.9773 37.5716 52.041 37.5598 52.1023 37.5456C52.1188 37.5409 52.1377 37.5385 52.1542 37.5338C52.2155 37.5219 52.2768 37.5077 52.3381 37.4912C52.3994 37.477 52.4607 37.4604 52.522 37.4415C52.746 37.3823 52.9652 37.3089 53.1822 37.2261C53.2246 37.2119 53.267 37.1953 53.3071 37.1764C53.3354 37.1645 53.3637 37.1527 53.3944 37.1409C53.5948 37.0557 53.7928 36.9634 53.9838 36.8616C54.0239 36.8403 54.064 36.819 54.1017 36.7977C54.1111 36.7929 54.1182 36.7882 54.1253 36.7835C54.1795 36.7551 54.229 36.7243 54.2809 36.6935C54.2879 36.6888 54.295 36.6864 54.3021 36.6817C54.3445 36.6557 54.387 36.6296 54.4294 36.6036C54.5638 36.5208 54.6935 36.4332 54.8232 36.3385C54.8798 36.2983 54.934 36.258 54.9882 36.2154C55.0448 36.1728 55.099 36.1302 55.1509 36.0853C55.2051 36.0426 55.2594 35.9977 55.3136 35.9527C55.3655 35.9077 55.4197 35.8604 55.4692 35.8131C55.5187 35.7681 55.5729 35.7184 55.6201 35.6711C55.6625 35.6308 55.7026 35.5906 55.7451 35.5503C55.771 35.5243 55.7946 35.4983 55.8205 35.4699C55.8535 35.4367 55.8865 35.4012 55.9195 35.3657C55.9596 35.3231 55.9973 35.2781 56.0374 35.2355C56.127 35.1338 56.2142 35.0273 56.2991 34.9184C56.3227 34.89 56.3463 34.8568 56.3722 34.8261C56.3958 34.7929 56.4217 34.7598 56.4453 34.7267C56.5349 34.6012 56.6221 34.4782 56.7023 34.3503C56.7282 34.3077 56.7542 34.2699 56.7801 34.2273C56.8461 34.116 56.9098 34.0071 56.9687 33.8959C56.997 33.8438 57.0253 33.7918 57.0513 33.7397C57.0819 33.6829 57.1102 33.6261 57.1361 33.5693C57.155 33.5267 57.1786 33.4864 57.1951 33.4415C57.1974 33.4391 57.1974 33.4344 57.1998 33.432C57.2564 33.3066 57.3106 33.1787 57.3601 33.0509C57.3719 33.0178 57.3861 32.9847 57.3979 32.9515C57.4073 32.9208 57.4191 32.89 57.4285 32.8616C57.4757 32.7314 57.5181 32.6012 57.5558 32.4687C57.57 32.419 57.5841 32.3669 57.5983 32.3148C57.6101 32.2699 57.6218 32.2225 57.6336 32.1752C57.6666 32.0379 57.6973 31.8983 57.7232 31.7563C57.7327 31.7089 57.7421 31.6569 57.7492 31.6095C57.7562 31.5645 57.7633 31.5219 57.7704 31.4793C57.7845 31.3776 57.7963 31.2734 57.8081 31.1716C57.8128 31.1101 57.8175 31.0486 57.8246 30.987C57.8293 30.9137 57.834 30.8379 57.8364 30.7645C57.8388 30.7172 57.8411 30.6651 57.8435 30.6154C57.8435 30.5515 57.8458 30.49 57.8458 30.4284C57.8458 29.3634 57.6171 28.3503 57.2069 27.4391C56.0704 24.9113 53.5382 23.1503 50.5957 23.1503H38.828V18.8545H50.5957C53.0926 18.8545 55.4008 19.6498 57.2894 21.0012C57.478 21.1361 57.6643 21.2805 57.8458 21.4273C58.4754 21.9385 59.053 22.516 59.5599 23.1503C60.5643 24.3929 61.3141 25.8486 61.7362 27.4391C61.9908 28.3929 62.1252 29.3941 62.1252 30.4284V30.4261Z" fill="white"/>
<path d="M22.7763 18.8521V23.148H11.1454C8.64853 23.148 6.33791 22.3527 4.45169 20.9989C4.26071 20.864 4.0768 20.7219 3.89525 20.5752C3.26337 20.064 2.68807 19.4841 2.17879 18.8521C1.18146 17.6143 0.431685 16.1681 0.00964355 14.587H4.54364C5.6848 17.103 8.20998 18.8521 11.1454 18.8521H22.7763Z" fill="white"/>
<path d="M61.7383 8.58461C61.3163 6.99408 60.5641 5.54083 59.5621 4.29822C59.0504 3.6639 58.4751 3.08639 57.8456 2.57515C55.8651 0.963313 53.3423 0 50.5978 0H11.1452C8.39839 0 5.87557 0.963313 3.8974 2.57515C3.26552 3.08639 2.68786 3.6639 2.17858 4.29822C1.17653 5.54083 0.424399 6.99408 0.00235777 8.58461C0.00235777 8.58934 0 8.59171 0 8.59645H4.52928C4.52928 8.59645 4.534 8.58934 4.534 8.58461C5.67045 6.05917 8.20269 4.29822 11.1452 4.29822H24.1106C24.2073 4.29112 24.3039 4.28876 24.4006 4.28876C24.4973 4.28876 24.5939 4.29112 24.6906 4.29822H28.7295V31.7349H33.0112V8.98934C33.0112 8.98934 33.0112 8.97514 33.0088 8.96804V8.30769C33.0088 8.30769 33.0112 8.29349 33.0112 8.28639V4.29822H36.9982C37.109 4.28875 37.2198 4.28639 37.333 4.28639C37.4462 4.28639 37.5546 4.28875 37.6654 4.29822H50.5978C53.538 4.29822 56.0702 6.05917 57.209 8.58461C57.209 8.58934 57.2114 8.59171 57.2137 8.59645H61.7407C61.7407 8.59645 61.7383 8.58934 61.7383 8.58461Z" fill="white"/>
</svg>
