<svg width="160" height="47" viewBox="0 0 160 47" fill="none" xmlns="http://www.w3.org/2000/svg">
<path d="M28.1665 3.90137V6.44261V7.27522V17.2887H7.54485V8.20524V6.44261V3.90137H0.15918V6.44261V9.62183V33.2172V35.2069V37.7481H7.54485V35.2069V34.1363V23.593H28.1665V31.6276L35.5522 15.5153V8.70263V6.44261V3.90137H28.1665Z" fill="black"/>
<path d="M113.897 31.8655L103.332 9.68672L100.488 3.89062H92.8645L90.9829 8.16196C90.864 8.44312 90.7234 8.76754 90.572 9.12439L79.1095 34.1255C78.904 34.5364 78.6121 34.9798 78.2228 35.4664C77.8335 35.953 77.3361 36.245 76.7197 36.3531V37.7373H83.9756L88.4093 29.281H104.868L108.977 37.7373H116.665L113.886 31.8655H113.897ZM90.7234 23.5822L96.1843 10.6599L102.413 23.5822H90.7234Z" fill="black"/>
<path d="M65.5493 35.8882C65.2465 35.6827 64.9546 35.3475 64.7059 34.8933L52.6919 9.68672L49.8479 3.89062H42.2243L40.3427 8.16196C40.2238 8.44312 40.0832 8.76754 39.9318 9.12439L29.3128 32.2764L26.8689 37.7373H33.3355L37.7691 29.281H54.2275L58.3366 37.7373H66.5334V36.3531C66.1765 36.2558 65.8413 36.0936 65.5385 35.8882H65.5493ZM40.094 23.5822L45.5549 10.6599L51.7836 23.5822H40.094Z" fill="black"/>
<path d="M82.6781 3.89046L79.0771 8.65925L72.2321 18.1969L64.4679 8.04286L61.0183 3.89046H52.0754V5.27457C52.5404 5.27457 53.0271 5.38274 53.5353 5.57739C54.0436 5.78285 54.4869 6.11805 54.8438 6.57223L67.9175 23.3442V35.1851C67.9175 35.9529 67.4525 36.3421 66.5333 36.3421V37.7263H76.763V36.3421C75.7898 36.3421 75.3032 35.9529 75.3032 35.1851V23.6469L87.0684 8.42132C87.6307 7.70762 88.2904 6.99396 89.0257 6.30188C89.7718 5.60981 90.4531 5.26375 91.0695 5.26375V3.87964H82.6781V3.89046Z" fill="black"/>
<path d="M130.799 46.8099C128.474 46.8099 126.906 46.2043 126.095 44.9932C125.284 43.782 124.981 42.5493 125.154 41.3058C126.225 36.7424 131.512 31.5951 140.996 25.8638C141.266 25.5935 141.266 25.2799 140.996 24.9231C140.639 24.4797 138.174 22.5982 133.61 19.2892C131.102 17.5049 129.804 16.5641 129.717 16.4668C128.02 15.0394 127.165 13.4282 127.165 11.6331C127.165 10.9194 127.295 10.2922 127.566 9.75155C127.652 9.3947 127.879 8.85403 128.236 8.14033C130.118 5.00437 132.799 2.72267 136.292 1.29527C137.633 0.668083 139.201 0.354492 140.996 0.354492C142.153 0.354492 143.051 0.441001 143.678 0.624833C144.748 0.711342 145.733 1.20876 146.63 2.1063C147.787 3.09034 148.155 4.11762 147.701 5.19898C147.43 6.01001 146.803 6.26953 145.819 6.01001C145.278 5.83699 145.008 5.56665 145.008 5.19898V4.38796C144.824 3.76077 144.629 3.31742 144.402 3.04708C144.175 2.77674 143.883 2.64698 143.527 2.64698C143.44 2.64698 142.943 2.73349 142.045 2.91732C140.791 3.36068 139.98 3.71752 139.623 3.98786C136.941 5.51258 134.919 7.43744 133.578 9.76237L133.037 10.9735C132.68 11.871 133.08 12.8767 134.248 13.9905C135.405 15.1151 137.244 16.5209 139.753 18.2187C142.521 20.1867 144.543 21.7979 145.797 23.0523L146.608 22.6522C148.306 21.4952 149.961 20.5544 151.572 19.8299C153.356 19.1162 154.794 18.6728 155.865 18.489H156.935C157.746 18.489 158.32 18.5755 158.676 18.7593C159.217 18.9432 159.531 19.1811 159.617 19.4947C159.704 19.8082 159.574 20.1435 159.217 20.5003C158.417 21.1275 157.606 21.3546 156.806 21.1708H156.135C155.681 21.1708 155.238 21.3005 154.794 21.5709C153.724 22.1115 152.513 22.8685 151.172 23.8525C149.831 24.8366 149.063 25.4637 148.89 25.7341C148.436 26.1774 148.306 26.7614 148.49 27.4751C148.933 28.3727 149.16 29.5297 149.16 30.9679C149.16 32.3088 148.955 33.6497 148.555 35.0014C148.155 36.3423 147.636 37.4669 147.009 38.3536C145.57 40.6786 143.537 42.5601 140.899 43.9983C138.26 45.4257 135.416 46.3232 132.378 46.6801L130.766 46.8099H130.799ZM131.74 43.0467C135.946 41.8789 139.169 40.0081 141.407 37.402C143.191 35.2501 144.089 33.0225 144.089 30.6867C144.089 30.2434 144.067 29.8757 144.024 29.6162C143.981 29.3459 143.959 29.1728 143.959 29.0755C138.325 33.109 134.475 36.2774 132.41 38.6132C131.426 39.5972 130.756 40.538 130.399 41.4355C129.945 42.4196 129.945 43.0035 130.399 43.1765C130.756 43.263 131.21 43.2197 131.74 43.0467Z" fill="black"/>
<path d="M131.815 30.6002V19.6135C129.49 17.9482 129.014 17.5914 128.852 17.4508C127.49 16.2938 126.592 15.0069 126.16 13.612H124.419V35.2068C124.419 35.6177 124.267 35.9097 123.954 36.0935C123.651 36.2774 123.078 36.3639 122.267 36.3639C121.348 36.3639 120.883 35.9854 120.883 35.2176V9.6001H126.225C126.257 9.50277 126.3 9.40543 126.343 9.30811C126.473 8.87556 126.7 8.31328 127.079 7.57795L127.1 7.53472L127.122 7.49142C127.922 6.16134 128.874 4.97185 129.955 3.91211H101.926L102.586 5.28546L104.63 9.6001H113.497V28.0373L118.104 37.748H125.23C126.571 35.4555 128.744 33.0873 131.804 30.611L131.815 30.6002Z" fill="black"/>
</svg>
