<svg width="125" height="57" viewBox="0 0 125 57" fill="none" xmlns="http://www.w3.org/2000/svg">
<path d="M30.3286 13.0227C30.3286 13.0227 12.4274 52.5226 6.13217 52.5226C-0.163042 52.5226 19.1643 13.0227 19.1643 13.0227H13.5821C13.5821 13.0227 -8.09725 55.1565 4.89228 55.1565C17.8818 55.1565 35.916 13.0227 35.916 13.0227H30.3339H30.3286Z" fill="#161616"/>
<path d="M85.7987 11.927C85.7987 11.927 85.6072 8.46374 91.2159 7.42578C91.2159 7.42578 82.691 7.84821 79.2268 12.0574C79.2268 12.0574 83.585 9.67376 85.7987 11.927Z" fill="#161616"/>
<path d="M94.7388 43.9109C96.4416 41.303 97.8677 38.648 99.0278 36.1339V36.0975C99.0278 36.0975 105.28 21.6182 103.423 16.225C103.418 16.2145 103.418 16.1988 103.413 16.1884C102.912 14.994 102.061 14.2116 100.757 13.9664C100.747 13.9612 100.741 13.9612 100.741 13.9612C100.459 13.9039 100.145 13.8778 99.8101 13.8778C98.7138 13.8778 97.5697 14.1803 96.4203 14.7384C92.3282 17.0386 88.2573 22.2911 85.4742 26.4534C83.8033 28.9778 82.01 31.9405 80.4455 35.0648C80.2699 34.924 80.0996 34.7883 79.9187 34.6475C79.2322 34.0894 78.5245 33.5938 77.8008 33.1452C79.0619 31.3145 79.9293 29.927 80.355 29.2281C80.4774 29.0351 80.5572 28.8892 80.6051 28.8057C80.6211 28.7692 80.6424 28.7483 80.6477 28.7274C80.653 28.7274 80.653 28.7222 80.653 28.7222C84.7984 21.6129 87.938 14.102 83.2605 13.304C82.4942 13.1684 81.6588 13.2467 80.7754 13.4971C79.9187 13.737 79.0194 14.1491 78.0881 14.6863C77.822 14.8584 72.474 18.3009 68.2861 28.6336C68.0945 29.103 67.903 29.5828 67.7114 30.0575C65.4072 29.8906 63.0339 30.0106 60.6552 30.3444C62.8742 25.0816 65.1944 20.0535 66.7269 16.7831H66.7323C66.7429 16.7466 66.7908 16.6475 66.8653 16.491C67.6688 14.6602 71.4257 4.81262 61.2512 0.452148V0.46259L61.2778 0.488695C61.4534 0.796432 62.6241 2.89835 63.0764 6.01223C63.0924 6.13741 63.1084 6.27305 63.135 6.42953C63.2042 7.02414 63.2467 7.65531 63.2574 8.31251C63.1882 12.021 61.5066 15.8912 61.0171 16.9448C60.9745 17.0335 60.9319 17.122 60.8894 17.2159V17.2264C59.2131 20.7419 56.7812 26.0621 54.658 31.6275C53.1733 32.0343 51.7099 32.5037 50.2785 33.0149C53.8332 22.8543 55.6425 13.0225 49.3685 13.0225C36.379 13.0225 18.3501 55.1562 18.3501 55.1562H23.9322C23.9322 55.1562 23.9961 55.0155 24.1185 54.7495C24.8209 53.2786 27.4923 48.1566 32.4837 44.3073C35.2721 42.2523 38.9439 39.7903 43.068 37.5944C39.2472 46.6909 35.1019 55.1562 35.1019 55.1562H40.684C40.684 55.1562 45.9575 44.9019 49.7463 34.5066C51.1831 33.9538 52.6465 33.4582 54.1205 33.0462C50.0976 43.9161 47.5592 55.1562 54.2695 55.1562C56.8877 55.1562 59.708 53.4455 62.5443 50.7124V50.7749C62.7784 53.5967 63.9811 55.3702 66.6418 55.3702C69.6377 55.3702 72.8944 53.1325 76.1352 49.6952C76.1032 50.5506 76.1298 51.3435 76.2363 52.0528C76.5928 54.4991 77.8114 56.0117 80.2646 56.0117C82.4197 56.0117 84.7186 54.8538 87.0493 52.9135C87.5815 52.4649 88.1189 51.9851 88.6564 51.4583L88.699 51.4165C90.2901 49.8361 91.7322 48.1358 93.0253 46.3884C105.967 50.9732 118.068 49.4606 124.512 44.5785C124.049 44.8602 112.448 51.6669 94.7547 43.9161L94.7388 43.9109ZM43.8556 35.6385C37.1453 38.7315 31.6962 42.2627 29.2749 43.9213C35.0753 32.243 44.0258 15.6512 48.1074 15.6512C51.2789 15.6512 47.9371 25.6813 43.8502 35.6385H43.8556ZM76.3108 20.5698C76.3427 20.5125 76.3693 20.4446 76.4012 20.3872C76.4917 20.2307 76.5768 20.0691 76.6673 19.9178C76.6726 19.9074 76.6726 19.9022 76.6779 19.8865C77.5879 18.2644 78.5458 16.9239 79.5196 16.0998C79.5196 16.0998 79.5231 16.0963 79.5302 16.0893C79.5302 16.0893 79.5728 16.0528 79.5941 16.0371C79.8655 15.8181 80.1368 15.6356 80.4082 15.4948C80.9723 15.1662 81.4672 14.9889 81.8663 14.9889C81.9301 14.9889 81.9993 14.9887 82.0632 14.9992C84.6388 15.4321 79.3972 24.2939 74.6026 31.5596C73.6181 31.1788 72.6124 30.866 71.5854 30.6313C72.804 27.5591 74.3472 24.1792 76.3108 20.5698ZM70.4732 33.6095C70.5051 33.5209 70.537 33.4217 70.569 33.3331C71.3033 33.6356 72.0164 33.9798 72.7241 34.3815C72.0802 35.3203 71.4736 36.207 70.9255 36.9999L70.7073 37.3075L70.4785 37.6414L68.3021 40.8334C68.7916 38.8201 69.4941 36.3844 70.4732 33.6095ZM63.0658 44.6463C60.0539 49.278 57.2921 52.5223 55.4828 52.5223C52.2474 52.5223 55.7808 42.0801 59.9847 31.93C62.3155 31.711 64.625 31.7787 66.8653 32.2168C65.2529 36.4834 63.8268 40.8543 63.0658 44.6411V44.6463ZM78.3542 39.7591C78.3542 39.7591 78.3489 39.7746 78.3435 39.785C77.2633 42.3565 74.0332 46.9517 73.6181 47.5411C71.3299 50.6967 69.2972 52.7413 67.8657 52.7413C66.3651 52.7413 66.3225 50.4829 67.1314 47.0456C67.2112 46.717 67.291 46.3727 67.3815 46.0284C67.5092 45.898 67.6209 45.7781 67.7486 45.6477C69.0204 44.2968 70.2071 42.9511 71.3033 41.6472C72.8997 39.7642 74.3046 37.9596 75.5179 36.327C76.5821 37.2085 77.6571 38.0326 78.7267 38.815C78.599 39.1331 78.4659 39.4513 78.3489 39.7643L78.3542 39.7591ZM85.852 49.9926H85.8467C84.1385 52.0998 82.6219 53.3777 81.4938 53.3777C80.5679 53.3777 80.1954 52.5327 80.2326 51.0879C80.2326 51.0775 80.2326 51.0618 80.2273 51.0462C80.0411 47.9323 80.9351 44.3646 82.1324 41.0995C84.6228 42.6642 87.1345 43.9839 89.6302 45.0636C88.5074 46.7118 87.2515 48.3809 85.8573 49.9926H85.852ZM91.3969 42.2991C88.9065 41.0004 86.3097 39.4095 83.617 37.4745C85.3199 33.6982 87.0334 30.9546 87.0334 30.9546C89.2471 27.0375 91.4927 23.4281 93.4989 20.7941C95.5104 18.1653 97.2824 16.5066 98.5755 16.5066C99.1449 16.5066 99.5121 16.8405 99.6877 17.4455C99.9218 18.2175 99.8633 19.4328 99.5653 20.961C99.528 21.1801 99.4855 21.4044 99.4322 21.6339V21.6442C98.8362 24.7424 98.038 27.5226 97.1919 29.9323C97.1919 29.9323 96.7396 31.3615 95.7924 33.62C94.8452 35.8837 93.3925 38.9714 91.3916 42.2939L91.3969 42.2991Z" fill="#161616"/>
</svg>
