<svg width="107" height="80" viewBox="0 0 107 80" fill="none" xmlns="http://www.w3.org/2000/svg">
<path d="M51.7911 78.9905C52.2035 79.0069 52.6289 79.0167 53.0577 79.0167H53.1493C53.578 79.0167 54.0362 79.0036 54.5108 78.9807C54.4911 78.0611 54.9297 77.1807 55.6759 76.6505C55.9606 76.4443 56.2944 76.2971 56.6675 76.2087L56.7231 76.1989C56.7722 76.1858 56.8442 76.176 56.9195 76.1629C57.0046 76.1531 57.0864 76.1465 57.1584 76.1465C57.178 76.14 57.1977 76.14 57.2042 76.14C57.2304 76.14 57.2533 76.14 57.2795 76.14C58.5526 76.14 59.6784 77.0433 59.9632 78.2869C60.2348 78.2313 60.5032 78.1658 60.7879 78.0971L60.8435 78.084C61.4064 77.9531 61.9824 77.796 62.5977 77.6094C62.2606 76.4051 62.7744 75.0992 63.8512 74.4643C63.8741 74.448 63.9035 74.4414 63.9232 74.4349C64.0017 74.3858 64.1163 74.3302 64.2439 74.2778C64.3552 74.2352 64.4632 74.1992 64.5679 74.1763L64.5974 74.1665C65.049 74.0454 65.5432 74.052 66.0341 74.1927C66.7639 74.4087 67.3694 74.9127 67.7163 75.5836C68.5901 75.1483 69.3723 74.7163 70.1054 74.2745C69.4672 73.1847 69.6407 71.8003 70.5276 70.9101L70.5668 70.8578H70.5865C70.665 70.7792 70.7599 70.704 70.8646 70.6254C70.917 70.5861 70.9694 70.5534 71.0218 70.5174L71.0479 70.4978C71.097 70.4683 71.1428 70.4454 71.1886 70.4225L71.2803 70.3767C72.393 69.8236 73.7512 70.1018 74.5694 71.0411C75.165 70.5272 75.6887 70.0494 76.1599 69.5847C76.2712 69.4767 76.3792 69.3654 76.4905 69.2574L76.569 69.1789C76.4185 69.0381 76.2712 68.8549 76.1436 68.6454C75.633 67.8043 75.6101 66.7472 76.0781 65.8832C76.0945 65.8505 76.1174 65.8079 76.1501 65.7654C76.2025 65.6738 76.2778 65.5625 76.3727 65.4414C76.4839 65.3072 76.5952 65.1927 76.7196 65.0912L76.7556 65.0585C77.7276 64.2599 79.0858 64.2207 80.1036 64.9407C80.3851 64.5447 80.6109 64.2108 80.8072 63.8999C80.9054 63.7527 80.997 63.6054 81.0887 63.4581C81.1509 63.3632 81.2098 63.265 81.2687 63.1701C81.3734 62.9967 81.4781 62.8199 81.5829 62.6399C81.5272 62.6072 81.4749 62.5745 81.4258 62.5417H76.196C75.8392 63.0425 75.4465 63.5497 75.0341 64.0472C73.9017 65.425 72.6123 66.7145 71.205 67.8763C70.6519 68.3312 70.0694 68.7763 69.477 69.1952C68.397 69.9578 67.2483 70.6483 66.0635 71.2538C64.4206 72.0949 62.6894 72.7756 60.9155 73.2763C59.2235 73.7542 57.4922 74.0716 55.7675 74.2222C54.9951 74.2942 54.2751 74.3302 53.5682 74.3367C53.4471 74.3432 53.3293 74.3432 53.205 74.3432H53.1526C53.0479 74.3432 52.9399 74.3432 52.8351 74.3367C52.138 74.3334 51.3951 74.2942 50.626 74.2254C48.8915 74.0749 47.1602 73.7542 45.478 73.2731C43.6845 72.7658 41.9533 72.0851 40.3234 71.2505C39.2074 70.6843 38.062 69.9905 36.9231 69.1952C36.3438 68.7861 35.7743 68.3509 35.182 67.8665C33.7943 66.721 32.5081 65.4348 31.3627 64.0472C30.9438 63.5367 30.5641 63.0425 30.2074 62.5417H24.8826C24.7976 62.6007 24.6994 62.6563 24.5848 62.7119C24.7485 62.9967 24.9285 63.2912 25.1248 63.6021C25.1837 63.7003 25.2459 63.8018 25.3114 63.8967C25.5405 64.2567 25.7925 64.6265 26.0837 65.0323C27.1179 64.2043 28.5907 64.2305 29.6052 65.1076C29.7132 65.1959 29.8212 65.3072 29.9325 65.4414C30.0241 65.5461 30.1158 65.677 30.191 65.8112L30.214 65.8505C30.2369 65.8963 30.2499 65.9225 30.2598 65.9519C30.6656 66.7309 30.6656 67.68 30.2532 68.4752C30.1256 68.7403 29.9489 68.9792 29.7296 69.1854C29.7034 69.2149 29.6739 69.241 29.6445 69.2705C29.8376 69.4669 30.0307 69.66 30.227 69.8465C30.6689 70.2687 31.1369 70.6909 31.6572 71.1327C32.482 70.1149 33.9318 69.8007 35.0871 70.4094L35.1231 70.4323C35.1983 70.4651 35.2736 70.5109 35.3423 70.5632C35.3718 70.5796 35.4143 70.6025 35.4503 70.6418C35.5485 70.7072 35.65 70.7956 35.7416 70.8872C36.6547 71.7971 36.8347 73.1847 36.1932 74.2778C36.1769 74.304 36.1638 74.3302 36.1474 74.3563C36.9361 74.8276 37.7445 75.2662 38.5529 75.6589C38.9031 74.9258 39.5674 74.3727 40.3529 74.1698C40.8274 74.052 41.2791 74.0552 41.734 74.1763H41.77L41.7896 74.1927C41.8813 74.2189 41.9729 74.2483 42.0613 74.2811C42.1594 74.3236 42.2478 74.3629 42.3362 74.412L42.3689 74.4283C43.5144 75.0502 44.0675 76.4247 43.6911 77.6684C44.3718 77.868 44.9805 78.0251 45.5435 78.1527C45.7889 78.2149 46.0409 78.2705 46.3355 78.3327C46.6104 77.0433 47.7886 76.1203 49.0944 76.1531L49.1435 76.104L49.2057 76.1563C49.2678 76.1563 49.3235 76.1629 49.3824 76.1727C49.4511 76.1825 49.5067 76.1923 49.5656 76.2054C49.582 76.2054 49.6147 76.212 49.6377 76.2153C50.0337 76.3003 50.3969 76.4705 50.7177 76.7258C51.418 77.2625 51.814 78.1036 51.7977 78.9938L51.7911 78.9905Z" fill="black"/>
<path d="M80.3423 38.7914H82.5613C82.3125 38.559 82.1064 38.2841 81.9591 37.9797C81.9427 37.947 81.9362 37.9339 81.9329 37.9208C81.8936 37.8357 81.8511 37.7277 81.8151 37.623C81.7856 37.5117 81.7562 37.4037 81.7365 37.3055L81.7267 37.2957L81.7202 37.2335C81.478 35.8983 82.2831 34.5532 83.5889 34.1244C83.602 34.1179 83.6151 34.1146 83.6314 34.1113C83.6314 34.1015 83.6249 34.095 83.6216 34.0852C83.278 33.2539 82.8885 32.4095 82.4664 31.5815C82.4467 31.5946 82.4238 31.6077 82.4009 31.6175C82.0965 31.8106 81.7431 31.9481 81.3929 32.007C80.29 32.1903 79.1936 31.6993 78.598 30.7535C78.2478 30.207 78.1005 29.5459 78.1889 28.9011C78.2936 28.0928 78.7551 27.3728 79.4521 26.9244C79.4783 26.908 79.5045 26.8917 79.5307 26.8753C78.9809 26.1357 78.3885 25.4091 77.7667 24.7055C77.7438 24.735 77.7176 24.7611 77.6914 24.7906C77.3118 25.203 76.8209 25.4811 76.2776 25.599C75.3809 25.792 74.4514 25.5368 73.7838 24.9117C73.4598 24.6073 73.2209 24.244 73.0801 23.8349C72.7234 22.8629 72.9525 21.7469 73.6627 20.9909C73.6921 20.9582 73.7249 20.9255 73.7609 20.8895C73.0376 20.3037 72.2816 19.7407 71.5027 19.2204C71.4798 19.2695 71.4569 19.3153 71.4307 19.3611C71.3718 19.4593 71.3063 19.5673 71.2245 19.672C70.4194 20.788 68.891 21.1284 67.6736 20.4575C66.9961 20.0844 66.5052 19.4429 66.3252 18.7C66.1517 18.0226 66.2434 17.3058 66.5837 16.6873C66.6165 16.6251 66.6492 16.5727 66.6819 16.5204C66.4692 16.4189 66.2336 16.3175 65.9554 16.1996C65.3663 15.9476 64.7314 15.7022 64.0637 15.4666C64.0506 15.5353 64.0376 15.6007 64.0179 15.6695C63.6579 17.0604 62.2703 17.9571 60.8597 17.7084C60.7877 17.6986 60.7157 17.6822 60.6437 17.6593C59.9368 17.4793 59.3379 17.0309 58.9615 16.396C58.5819 15.7578 58.4772 15.0084 58.6604 14.2884C58.6768 14.2131 58.6964 14.1411 58.7226 14.0724C57.7964 13.912 56.8539 13.7909 55.9113 13.7124C55.9179 13.7844 55.9212 13.8596 55.9212 13.9349C55.9212 14.092 55.9081 14.2393 55.8819 14.3636C55.6823 15.6989 54.5106 16.7102 53.1524 16.7102C51.9382 16.7102 50.8779 15.928 50.5146 14.7662C50.4328 14.4978 50.3902 14.2164 50.3902 13.9349C50.3902 13.8531 50.3935 13.7713 50.4033 13.6895C49.4379 13.768 48.4888 13.8858 47.5757 14.0396C47.6051 14.1215 47.628 14.2033 47.6509 14.2851C47.8375 15.0051 47.7295 15.7546 47.3499 16.3927C46.9735 17.0276 46.3713 17.4793 45.6579 17.6593L45.5498 17.6887C44.0902 17.9931 42.66 17.1062 42.2935 15.6662C42.2706 15.5713 42.2509 15.4862 42.2378 15.4011C41.6716 15.5942 41.0793 15.82 40.4313 16.0851C40.1465 16.2029 39.8651 16.3273 39.5836 16.4549C39.636 16.5335 39.6851 16.6087 39.7244 16.684C40.0582 17.296 40.1498 18.0127 39.9829 18.6967C39.7931 19.456 39.312 20.0778 38.628 20.4542C37.4564 21.0989 36 20.8175 35.1622 19.7767C35.0509 19.6426 34.956 19.5018 34.8774 19.3578C34.8349 19.276 34.7956 19.1975 34.7629 19.1222C34.0036 19.6229 33.228 20.1891 32.4556 20.8044C32.5178 20.86 32.5833 20.9222 32.6454 20.9877C33.3622 21.7502 33.5814 22.8433 33.2182 23.8317C33.084 24.2375 32.8483 24.5975 32.5178 24.9051C31.8796 25.5073 30.9796 25.7724 30.1123 25.6088C29.5331 25.504 29.0127 25.2193 28.6069 24.7873C28.548 24.7219 28.4956 24.6597 28.4432 24.5942C27.8149 25.2946 27.2061 26.0342 26.6367 26.7968C26.7021 26.8295 26.7709 26.8688 26.8461 26.9179C27.5399 27.3662 27.9981 28.0895 28.1061 28.8946C28.1945 29.5459 28.0505 30.2037 27.7036 30.747C27.1243 31.6601 26.064 32.1608 24.997 32.0135C24.6109 31.9579 24.2279 31.8172 23.8843 31.6012C23.8254 31.5619 23.7632 31.5226 23.701 31.4768C23.2658 32.3113 22.8632 33.1753 22.5065 34.0524C22.5752 34.0688 22.6472 34.0884 22.7159 34.1146C24.0643 34.5564 24.8596 35.9408 24.565 37.3317C24.5618 37.3481 24.5552 37.3612 24.5519 37.3743C24.5356 37.4528 24.5094 37.5346 24.4832 37.6132C24.4603 37.6917 24.4308 37.7735 24.3948 37.8521L24.3883 37.875C24.2377 38.2219 24.0218 38.523 23.7436 38.7815H26.0541C26.5385 37.1288 27.1865 35.5121 27.972 33.9772C28.5545 32.8252 29.2451 31.6732 30.0305 30.5539C30.4429 29.9746 30.8814 29.3953 31.3363 28.8291C32.4982 27.4317 33.7909 26.139 35.1785 24.9935C35.7709 24.5059 36.3338 24.0739 36.8934 23.6811C37.9865 22.9088 39.1385 22.2117 40.3233 21.6128C41.9727 20.7684 43.7073 20.0877 45.4778 19.5902C47.16 19.1157 48.8946 18.7949 50.6259 18.6378C51.215 18.5855 51.7942 18.5495 52.3506 18.5364C52.619 18.5266 52.8841 18.52 53.1524 18.52H53.2048C53.4895 18.52 53.771 18.5266 54.059 18.5364C54.599 18.5495 55.175 18.5855 55.7673 18.6378C57.5182 18.7949 59.2495 19.1157 60.9154 19.5837C62.6565 20.0746 64.391 20.752 66.0634 21.6029C67.2514 22.2117 68.4099 22.912 69.5063 23.6811C70.0921 24.0968 70.6649 24.5353 71.2049 24.9837C72.599 26.1324 73.895 27.4284 75.0536 28.8291C75.5216 29.4019 75.9569 29.9746 76.3562 30.5375C77.1154 31.6208 77.8125 32.7761 78.4245 33.9772C79.2067 35.5121 79.8514 37.1288 80.3423 38.7815V38.7914Z" fill="black"/>
<path d="M22.0221 4.14965L19.7999 6.02166L19.4988 6.27366L15.4439 9.68713L12.8486 11.8733L11.389 13.1071L7.42894 16.4388L7.41913 16.429L7.28821 16.2752L6.35876 15.1788L7.00349 14.6322L8.30277 13.5359C8.36823 13.4835 8.43367 13.4311 8.49585 13.3722L9.61515 12.433L11.0584 11.2188L15.1133 7.80203L16.5632 6.5813L18.3861 5.04638L19.1683 4.38856L19.4726 4.13656L20.9486 2.88965L22.0155 4.14965H22.0221Z" fill="white"/>
<path d="M20.0159 1.78317L19.8359 1.93371L18.8835 2.73553L16.1574 5.02973L14.8286 6.149L13.729 7.07519L10.7737 9.56574L9.24205 10.8585L6.78422 12.9268L6.71876 12.9825L5.6224 13.9087L5.42277 14.0756H5.41949L5.38675 14.1018L4.78458 13.3523L4.72893 13.2836L4.37549 12.845V12.8385C4.21185 12.5767 4.0973 12.2756 4.04166 11.9548C3.91075 11.1988 4.13003 10.4592 4.58167 9.89956C4.58167 9.89956 4.58167 9.89847 4.58167 9.89629L5.33767 9.25811H5.34095C5.34095 9.25811 5.34094 9.25483 5.34748 9.25156L5.96931 8.72465L6.43076 8.33519L10.0275 5.30791L13.3821 2.48026L14.0824 1.88789L15.5519 0.654071L15.6795 0.546071C16.0068 0.290797 16.3963 0.114069 16.8348 0.0387961C17.4108 -0.0593861 17.9672 0.0322506 18.4515 0.274433C18.7199 0.40207 18.9686 0.578798 19.1748 0.794799L19.1879 0.811163L19.4039 1.06971L19.6755 1.38717L20.0061 1.77335L20.0159 1.78317Z" fill="black"/>
<path d="M84.2863 4.14965L86.5084 6.02166L86.8095 6.27366L90.8645 9.68713L93.4598 11.8733L94.9194 13.1071L98.8794 16.4388L98.8892 16.429L99.0201 16.2752L99.9496 15.1788L99.3049 14.6322L98.0056 13.5359C97.9401 13.4835 97.8747 13.4311 97.8125 13.3722L96.6932 12.433L95.2499 11.2188L91.195 7.80203L89.7452 6.5813L87.9223 5.04638L87.1401 4.38856L86.8357 4.13656L85.3597 2.88965L84.2928 4.14965H84.2863Z" fill="white"/>
<path d="M86.2922 1.78317L86.4722 1.93371L87.4246 2.73553L90.1508 5.02973L91.4795 6.149L92.5792 7.07519L95.5345 9.56574L97.0661 10.8585L99.5239 12.9268L99.5894 12.9825L100.686 13.9087L100.885 14.0756H100.889L100.921 14.1018L101.524 13.3523L101.579 13.2836L101.933 12.845V12.8385C102.096 12.5767 102.211 12.2756 102.266 11.9548C102.397 11.1988 102.178 10.4592 101.726 9.89956C101.726 9.89956 101.726 9.89847 101.726 9.89629L100.97 9.25811H100.967C100.967 9.25811 100.967 9.25483 100.961 9.25156L100.339 8.72465L99.8774 8.33519L96.2806 5.30791L92.9261 2.48026L92.2257 1.88789L90.7563 0.654071L90.6286 0.546071C90.3013 0.290797 89.9119 0.114069 89.4733 0.0387961C88.8973 -0.0593861 88.341 0.0322506 87.8566 0.274433C87.5882 0.40207 87.3395 0.578798 87.1333 0.794799L87.1202 0.811163L86.9042 1.06971L86.6326 1.38717L86.302 1.77335L86.2922 1.78317Z" fill="black"/>
<path d="M45.3667 43.4187C45.1867 42.3812 44.7219 41.4616 44.0609 40.7285C43.5176 40.123 42.8401 39.6452 42.0874 39.3376C42.0154 39.3081 41.9401 39.2754 41.8648 39.2558C41.7077 39.2165 41.5539 39.1707 41.4034 39.1085C40.7488 38.8663 40.1565 38.4703 39.6754 37.9598C39.4332 37.7045 39.2237 37.4165 39.0503 37.1023L38.7034 36.631L37.8197 35.4299L34.7957 31.3063L32.6161 28.3314L31.7717 27.1826L28.7477 23.059L26.5321 20.0317L26.123 19.4753L26.3946 19.2462L27.0328 18.7095L29.1895 16.8931L29.3204 16.7819L29.4448 16.6771C29.9651 16.1895 30.2761 15.4957 30.263 14.7528L30.119 13.9248C30.0764 13.7971 30.0175 13.6728 29.9553 13.5549C29.9291 13.5026 29.8964 13.4469 29.8637 13.3946C29.8244 13.3258 29.7819 13.2702 29.7328 13.208L29.543 12.9855L26.5746 9.4902H26.5615L24.2313 6.74437L23.1218 5.44182L22.9713 5.25854H22.968L22.6604 5.52036L19.7869 7.93892L15.732 11.3524V11.3655L15.7091 11.3688L11.6771 14.7659L8.76106 17.2237L8.37488 17.5477L11.6215 21.3735L13.1302 23.1572L14.9825 25.3401L15.0546 25.4284H15.0578C15.0578 25.4284 15.0676 25.4481 15.0775 25.4546L15.1004 25.4808L15.1462 25.5332C15.7255 26.1321 16.5862 26.4463 17.4698 26.2924C17.7578 26.2434 18.0295 26.1452 18.2749 26.011L18.288 26.0764L20.0913 24.5579L22.3429 22.6597L22.8044 22.2702L24.0971 23.8608L27.4059 27.9354L28.0408 28.7143L30.7179 32.0099L33.9481 35.983L34.0299 36.0845L34.4553 36.6081L35.0346 37.3183C35.3619 37.819 35.5943 38.3885 35.7023 39.0136C35.7873 39.498 35.7906 39.9758 35.7186 40.4372C35.6597 40.843 35.5485 41.2292 35.3848 41.5958C35.3128 41.7594 35.2277 41.9165 35.1361 42.0703C35.1001 42.1423 35.0674 42.2143 35.0412 42.2863C34.6648 43.1994 34.5372 44.2205 34.7172 45.258C34.8972 46.2954 35.3619 47.2151 36.023 47.9482C36.5663 48.5536 37.2437 49.0314 37.9965 49.3391C38.9095 49.7154 39.9306 49.8431 40.9681 49.6631C42.0056 49.4831 42.9252 49.0184 43.6583 48.3573C44.2637 47.814 44.7416 47.1365 45.0492 46.3838C45.4256 45.4707 45.5532 44.4496 45.3732 43.4121L45.3667 43.4187ZM20.7033 15.1619C20.4022 16.016 19.656 16.6902 18.6938 16.8571C17.9149 16.9913 17.1524 16.7622 16.5895 16.2942C16.4586 16.1862 16.3407 16.0684 16.236 15.9342C15.9644 15.6004 15.7713 15.1946 15.6927 14.7364C15.5814 14.1015 15.7124 13.4862 16.0135 12.9724C16.3866 12.3408 17.028 11.8695 17.8069 11.732C19.224 11.4866 20.5691 12.4324 20.8113 13.8462C20.8898 14.3011 20.8473 14.7495 20.7 15.1553L20.7033 15.1619ZM40.6932 48.1085C38.6117 48.4685 36.635 47.0776 36.2717 44.9962C35.9935 43.3958 36.7528 41.8543 38.0685 41.0656C38.4612 40.83 38.9063 40.6598 39.3841 40.5747C40.2906 40.4176 41.1743 40.591 41.9107 41.0067C42.8761 41.5532 43.5994 42.5121 43.8023 43.6871C44.1623 45.7685 42.7714 47.7453 40.6899 48.1085H40.6932Z" fill="black"/>
<path d="M97.5442 17.2335L94.6281 14.7757L90.5961 11.3786H90.5732V11.359L86.5183 7.94551L83.6448 5.52696L83.3372 5.26514H83.3339L83.1834 5.44514L82.0739 6.74769L79.7437 9.49679H79.7306L76.7623 12.9888L76.5724 13.2113C76.5234 13.2703 76.4808 13.3292 76.4415 13.3914C76.4088 13.447 76.3761 13.5026 76.3499 13.555C76.2877 13.6728 76.2288 13.7972 76.1863 13.9248L76.0423 14.7528C76.0292 15.4957 76.3368 16.1895 76.8604 16.6772L76.9848 16.7819L77.1157 16.8932L79.2725 18.7096L79.9106 19.2463L80.1823 19.4754L79.7732 20.0317L77.5575 23.059L74.5335 27.1827L73.6892 28.3314L71.5095 31.3063L68.4855 35.43L67.6019 36.6311L67.255 37.1024C67.0815 37.4165 66.872 37.7013 66.6299 37.9598C66.1488 38.4704 65.5564 38.8664 64.9019 39.1085C64.7513 39.1674 64.5975 39.2133 64.4404 39.2558C64.3651 39.2787 64.2899 39.3082 64.2179 39.3376C63.4651 39.6453 62.7877 40.1231 62.2444 40.7285C61.5833 41.4616 61.1186 42.3813 60.9386 43.4187C60.7586 44.4562 60.8862 45.4773 61.2626 46.3904C61.5702 47.1431 62.048 47.8206 62.6535 48.3638C63.3866 49.0249 64.3062 49.4897 65.3437 49.6697C66.3811 49.8497 67.4022 49.722 68.3153 49.3457C69.0681 49.038 69.7455 48.5602 70.2888 47.9548C70.9499 47.2217 71.4146 46.302 71.5946 45.2646C71.7746 44.2271 71.647 43.206 71.2706 42.2929C71.2444 42.2209 71.2084 42.1456 71.1757 42.0769C71.0841 41.9231 70.999 41.766 70.927 41.6024C70.7633 41.2358 70.6521 40.8496 70.5931 40.4438C70.5211 39.9824 70.5277 39.5045 70.6095 39.0202C70.7175 38.3951 70.9499 37.8256 71.2772 37.3249L71.8564 36.6147L72.2819 36.0911L72.3637 35.9896L75.5939 32.0165L78.271 28.7209L78.9059 27.942L82.2146 23.8674L83.5074 22.2768L83.9689 22.6663L86.2205 24.5645L88.0238 26.083L88.0369 26.0176C88.2823 26.1518 88.5539 26.2499 88.8419 26.299C89.7256 26.4529 90.5831 26.1387 91.1656 25.5398L91.2114 25.4874L91.2343 25.4612C91.2343 25.4612 91.2474 25.4449 91.254 25.435H91.2572L91.3292 25.3467L93.1816 23.1638L94.6903 21.3801L97.9369 17.5543L97.5507 17.2303L97.5442 17.2335ZM70.0335 44.9962C69.6735 47.0777 67.6968 48.4719 65.612 48.1086C63.5306 47.7486 62.1364 45.7718 62.4997 43.6871C62.7026 42.5089 63.4259 41.5533 64.3913 41.0067C65.131 40.5911 66.0146 40.4176 66.9179 40.5747C67.399 40.6565 67.8408 40.8267 68.2335 41.0656C69.5492 41.8544 70.3084 43.3926 70.0302 44.9962H70.0335ZM90.6158 14.7397C90.5372 15.1946 90.3441 15.6037 90.0725 15.9375C89.9678 16.0685 89.8499 16.1895 89.719 16.2975C89.1529 16.7655 88.3936 16.9979 87.6147 16.8605C86.6525 16.6935 85.9063 16.0194 85.6052 15.1652C85.4612 14.7594 85.4154 14.311 85.4939 13.8561C85.7394 12.4423 87.0845 11.4964 88.4983 11.7419C89.2772 11.8761 89.9154 12.3506 90.2918 12.9823C90.5929 13.4928 90.7238 14.1114 90.6125 14.7463L90.6158 14.7397Z" fill="black"/>
<path d="M94.4971 62.6955H11.8309L11.7982 62.6235L0 38.6343H106.397L94.4971 62.6955Z" fill="black"/>
<path d="M100.561 38.6343L90.1474 62.6955H16.5828L6.23108 38.6343H100.561Z" fill="white"/>
<path d="M25.7173 53.3128H19.09V44.604H25.7173C25.7173 44.8135 25.6944 44.9935 25.6453 45.1506C25.5962 45.3044 25.5307 45.4386 25.4522 45.5498C25.3704 45.6611 25.282 45.7527 25.1773 45.8247C25.0725 45.8967 24.9711 45.9524 24.8664 45.9949C24.6176 46.0964 24.3329 46.1422 24.0155 46.1291H20.6936V48.0862H24.1987C24.1987 48.2793 24.1791 48.4527 24.1365 48.6C24.094 48.7473 24.0384 48.8749 23.9696 48.9829C23.9009 49.0909 23.8191 49.1826 23.7307 49.2546C23.6424 49.3298 23.5507 49.3887 23.4624 49.4346C23.2431 49.5458 22.9976 49.6048 22.7227 49.6113H20.6969V51.7942H24.2314C24.4245 51.7942 24.5914 51.8171 24.7387 51.8597C24.886 51.9022 25.0104 51.9611 25.1151 52.0331C25.2198 52.1051 25.3082 52.1869 25.3802 52.2786C25.4522 52.3702 25.5111 52.4619 25.5536 52.5568C25.6584 52.7793 25.7107 53.0346 25.7173 53.3193V53.3128Z" fill="#221F20"/>
<path d="M38.4482 44.8326C38.4024 44.9439 38.3369 45.0945 38.2551 45.2876C38.1733 45.4806 38.0784 45.6999 37.9704 45.9486C37.8624 46.1974 37.7446 46.469 37.6202 46.7603C37.4959 47.0516 37.365 47.3592 37.2275 47.6734C37.0933 47.9876 36.9559 48.305 36.8184 48.6257C36.681 48.9465 36.5468 49.2607 36.4126 49.565C36.2817 49.8694 36.1573 50.1607 36.0395 50.4356C35.9217 50.7105 35.8137 50.9592 35.7188 51.1818C35.6238 51.4043 35.542 51.5909 35.4766 51.7479C35.4111 51.905 35.362 52.013 35.3359 52.0785C35.2573 52.2618 35.1755 52.4189 35.0904 52.5596C35.0053 52.697 34.9169 52.8181 34.8319 52.9196C34.7435 53.021 34.6584 53.1061 34.5733 53.1781C34.4882 53.2501 34.4064 53.3058 34.3278 53.3516C34.1446 53.4563 33.9646 53.5185 33.7813 53.5316L29.9587 44.6428H31.8831L34.246 50.6188L36.1704 45.7425C36.298 45.4414 36.4682 45.1959 36.6809 45.0061C36.7726 44.9243 36.874 44.8556 36.9919 44.7934C37.1064 44.7312 37.2406 44.6886 37.3879 44.6625C37.5351 44.6363 37.6955 44.6363 37.8722 44.6625C38.049 44.6854 38.2421 44.7443 38.4548 44.8392L38.4482 44.8326Z" fill="#221F20"/>
<path d="M48.7474 51.7187L46.4533 51.7252C46.1522 51.7351 45.8838 51.686 45.6482 51.5845C45.5467 51.542 45.4485 51.4863 45.3504 51.4143C45.2555 51.3423 45.1671 51.254 45.0951 51.146C45.0198 51.038 44.9609 50.9071 44.9151 50.7565C44.8693 50.606 44.8463 50.426 44.8463 50.2231H48.7573V48.4525C48.7573 48.0598 48.7016 47.7063 48.5969 47.3954C48.4889 47.0845 48.3285 46.8129 48.1158 46.5805C47.6871 46.1125 47.1471 45.8801 46.5024 45.8801C46.1784 45.8801 45.8805 45.939 45.6122 46.0536C45.3438 46.1681 45.1049 46.3449 44.8922 46.5805C44.4634 47.042 44.2474 47.6638 44.2474 48.4525V53.2994H42.6274V48.1056C42.6274 47.0649 42.9874 46.1779 43.7074 45.4449C44.074 45.0783 44.4863 44.8034 44.9511 44.6201C45.4158 44.4369 45.9296 44.3452 46.5024 44.3452C47.0751 44.3452 47.5922 44.4369 48.0536 44.6201C48.5151 44.8034 48.9242 45.0783 49.2875 45.4449C50.0173 46.1812 50.3806 47.0681 50.3806 48.1056V53.2994H48.7606V51.7187H48.754H48.7474Z" fill="#221F20"/>
<path d="M57.8852 51.7938H59.4364C59.9895 51.7676 60.4804 51.6433 60.9124 51.424C61.0957 51.3324 61.2757 51.2113 61.4557 51.0673C61.6324 50.92 61.7928 50.7433 61.9303 50.5306C62.0677 50.3178 62.179 50.0691 62.2641 49.7811C62.3492 49.4931 62.3917 49.1593 62.3917 48.7796C62.3917 48.6225 62.3754 48.4687 62.3426 48.3247C62.3099 48.1807 62.2674 48.0433 62.2117 47.9156C62.1594 47.788 62.0972 47.6669 62.0284 47.5556C61.9597 47.4444 61.891 47.3429 61.819 47.2513C61.6488 47.0385 61.459 46.8487 61.2463 46.6818C61.0957 46.5803 60.9288 46.4887 60.7455 46.4069C60.5884 46.3382 60.3986 46.2727 60.1826 46.2138C59.9666 46.1549 59.7277 46.1254 59.4659 46.1254H59.263C59.1746 46.1254 59.0764 46.1254 58.9652 46.1254C58.8539 46.1254 58.7361 46.1254 58.6117 46.1254H58.2419C57.9539 46.1254 57.643 46.1254 57.3059 46.1254L57.2862 53.3091H55.699V44.6003H59.3481C60.0517 44.6003 60.6866 44.7083 61.2495 44.9211C61.8124 45.1371 62.3132 45.4643 62.7484 45.9062C63.5666 46.7342 63.9757 47.7454 63.9757 48.94C63.9757 50.1345 63.5601 51.1622 62.7255 51.9869C61.8746 52.8444 60.7783 53.2796 59.4364 53.2993C59.1452 53.3124 58.8866 53.2731 58.6608 53.1716C58.5626 53.1291 58.4677 53.0735 58.3761 53.0015C58.2844 52.9295 58.2026 52.8411 58.1273 52.7298C58.0553 52.6186 57.9964 52.4876 57.9506 52.3338C57.9048 52.18 57.8852 51.9967 57.8852 51.7873V51.7938Z" fill="#221F20"/>
<path d="M75.9701 53.3128H69.3428V44.604H75.9701C75.9701 44.8135 75.9439 44.9935 75.8981 45.1506C75.849 45.3044 75.7835 45.4386 75.705 45.5498C75.6264 45.6611 75.5348 45.7527 75.4301 45.8247C75.3253 45.8967 75.2239 45.9524 75.1191 45.9949C74.8704 46.0964 74.5857 46.1422 74.2682 46.1291H70.9464V48.0862H74.4515C74.4515 48.2793 74.4319 48.4527 74.3893 48.6C74.3468 48.7473 74.2911 48.8749 74.2224 48.9829C74.1537 49.0909 74.0719 49.1826 73.9835 49.2546C73.8952 49.3298 73.8035 49.3887 73.7151 49.4346C73.4959 49.5458 73.2504 49.6048 72.9755 49.6113H70.9497V51.7942H74.4842C74.6773 51.7942 74.8442 51.8171 74.9915 51.8597C75.1388 51.9022 75.2632 51.9611 75.3679 52.0331C75.4726 52.1051 75.561 52.1869 75.633 52.2786C75.705 52.3702 75.7639 52.4619 75.8064 52.5568C75.9112 52.7793 75.9635 53.0346 75.9701 53.3193V53.3128Z" fill="#221F20"/>
<path d="M83.8575 50.0923H83.0001V51.6272C83.0001 51.8792 82.9771 52.1017 82.9313 52.2883C82.8855 52.4748 82.8266 52.6319 82.7513 52.7628C82.676 52.8937 82.591 53.0017 82.4928 53.0836C82.3979 53.1654 82.2997 53.2308 82.1982 53.2799C81.9626 53.3945 81.6975 53.437 81.403 53.4141V44.6235H85.5037C85.8703 44.6235 86.2008 44.6694 86.4953 44.7577C86.7899 44.8461 87.0517 44.9639 87.2808 45.1079C87.5099 45.2519 87.7063 45.4188 87.8732 45.6054C88.0401 45.7919 88.1743 45.9817 88.2823 46.1748C88.3903 46.3679 88.4688 46.5577 88.5179 46.7443C88.5703 46.9308 88.5932 47.0977 88.5932 47.2417C88.5932 47.4577 88.5768 47.6574 88.5408 47.8406C88.5081 48.0239 88.4557 48.1974 88.387 48.361C88.3183 48.5246 88.2332 48.6785 88.1284 48.8257C88.0237 48.973 87.9059 49.117 87.7684 49.2545C87.415 49.6046 86.9895 49.8436 86.4953 49.9712L86.4757 49.9777L88.7666 53.3028H86.7735L85.111 50.7501C85.0521 50.629 84.967 50.521 84.8557 50.4228C84.8066 50.3836 84.751 50.3443 84.6888 50.305C84.6266 50.2657 84.5546 50.2297 84.4728 50.2003C84.391 50.1708 84.2961 50.1446 84.1946 50.125C84.0932 50.1054 83.9786 50.0956 83.8542 50.0956L83.8575 50.0923ZM87.0026 47.2352C87.0026 47.1665 86.9928 47.0912 86.9732 47.0094C86.9535 46.9275 86.9208 46.8457 86.8717 46.7672C86.8226 46.6854 86.7604 46.6101 86.6819 46.5348C86.6033 46.4595 86.5019 46.3941 86.3841 46.3352C86.263 46.2795 86.1222 46.2337 85.9586 46.1977C85.795 46.1617 85.6051 46.1454 85.3859 46.1454H83.0001V47.9519C83.0328 48.037 83.0753 48.109 83.1342 48.1712C83.1899 48.2334 83.2553 48.2857 83.3273 48.3316C83.3993 48.3774 83.4746 48.4134 83.5531 48.4396C83.6317 48.4657 83.7135 48.4886 83.7921 48.505C83.9753 48.5443 84.175 48.5574 84.391 48.5541H85.3859C85.651 48.5541 85.8866 48.5148 86.0895 48.4396C86.2924 48.361 86.4626 48.253 86.6001 48.1155C86.6655 48.0501 86.7244 47.9879 86.7735 47.9257C86.8226 47.8635 86.8652 47.8014 86.8979 47.7326C86.9306 47.6672 86.9568 47.5919 86.9732 47.5134C86.9895 47.4348 86.9993 47.3432 86.9993 47.2352H87.0026Z" fill="#221F20"/>
<path d="M72.9822 62.6956C68.2923 68.5014 61.1087 72.216 53.0643 72.216C45.0199 72.216 37.8395 68.5014 33.1497 62.6956H72.9822Z" fill="#E6E7E8"/>
<path d="M26.3422 57.7865C26.5222 57.9207 26.7644 58.0156 27 58.0156C27.2782 58.0156 27.468 57.8814 27.468 57.6916C27.468 57.5476 27.3502 57.4298 27.1015 57.3709L26.9411 57.3316C26.5124 57.2302 26.352 57.0469 26.352 56.8145C26.352 56.5494 26.6433 56.3433 27.0328 56.3433C27.2357 56.3433 27.4615 56.3956 27.6448 56.4873L27.5924 56.6902C27.396 56.5822 27.2095 56.5298 27.0328 56.5298C26.7873 56.5298 26.6171 56.6542 26.6171 56.8178C26.6171 56.9651 26.7317 57.0698 27.036 57.1418L27.1931 57.1811C27.5564 57.2662 27.7364 57.456 27.7364 57.6916C27.7364 57.9862 27.432 58.2022 26.9968 58.2022C26.7088 58.2022 26.4633 58.1138 26.28 57.9993L26.3389 57.7865H26.3422Z" fill="#221F20"/>
<path d="M32.3053 57.5901H32.05V58.1726H31.7882V56.3792H32.3053C32.8289 56.3792 33.2151 56.6344 33.2151 56.9879C33.2151 57.3413 32.8322 57.5933 32.3053 57.5933V57.5901ZM32.3053 56.5624H32.05V57.4068H32.3053C32.6751 57.4068 32.9402 57.2301 32.9402 56.9879C32.9402 56.7457 32.6751 56.5657 32.3053 56.5657V56.5624Z" fill="#221F20"/>
<path d="M38.4609 57.5509H37.5446L37.1879 58.1695H36.9097L38.0028 56.3105L39.0959 58.1695H38.8177L38.4609 57.5509ZM38.3595 57.3709L38.0028 56.7556L37.646 57.3709H38.3562H38.3595Z" fill="#221F20"/>
<path d="M44.0739 58.1726L43.2524 57.4232V58.1726H42.9906V56.3792H43.4684C43.9757 56.3792 44.3161 56.6148 44.3161 56.9388C44.3161 57.2202 44.0444 57.4362 43.6386 57.4755L44.411 58.1726H44.0739ZM43.2524 57.325H43.4652C43.8219 57.325 44.0379 57.1646 44.0379 56.9388C44.0379 56.713 43.8186 56.5624 43.4652 56.5624H43.2524V57.325Z" fill="#221F20"/>
<path d="M49.788 57.9857L49.7389 58.1689H48.4298V56.3755H49.6898L49.7389 56.5588H48.6916V57.1511H49.5589V57.3344H48.6916V57.9824H49.7847L49.788 57.9857Z" fill="#221F20"/>
<path d="M58.6213 57.5901H58.3661V58.1726H58.1042V56.3792H58.6213C59.145 56.3792 59.5312 56.6344 59.5312 56.9879C59.5312 57.3413 59.1483 57.5933 58.6213 57.5933V57.5901ZM58.6213 56.5624H58.3661V57.4068H58.6213C58.9912 57.4068 59.2563 57.2301 59.2563 56.9879C59.2563 56.7457 58.9912 56.5657 58.6213 56.5657V56.5624Z" fill="#221F20"/>
<path d="M64.7808 57.5509H63.8644L63.5077 58.1695H63.2295L64.3226 56.3105L65.4157 58.1695H65.1375L64.7808 57.5509ZM64.6793 57.3709L64.3226 56.7556L63.9659 57.3709H64.6761H64.6793Z" fill="#221F20"/>
<path d="M70.3931 58.1726L69.5716 57.4232V58.1726H69.3098V56.3792H69.7876C70.2949 56.3792 70.6353 56.6148 70.6353 56.9388C70.6353 57.2202 70.3637 57.4362 69.9578 57.4755L70.7302 58.1726H70.3931ZM69.5716 57.325H69.7844C70.1411 57.325 70.3571 57.1646 70.3571 56.9388C70.3571 56.713 70.1378 56.5624 69.7844 56.5624H69.5716V57.325Z" fill="#221F20"/>
<path d="M75.4432 56.5624V58.1726H75.1813V56.5624H74.4843L74.5334 56.3792H76.0945L76.1435 56.5624H75.4464H75.4432Z" fill="#221F20"/>
<path d="M79.9563 57.7861C80.1363 57.9202 80.3785 58.0151 80.6142 58.0151C80.8924 58.0151 81.0822 57.881 81.0822 57.6911C81.0822 57.5471 80.9644 57.4293 80.7156 57.3704L80.5552 57.3311C80.1265 57.2297 79.9662 57.0464 79.9662 56.814C79.9662 56.549 80.2574 56.3428 80.6469 56.3428C80.8498 56.3428 81.0756 56.3951 81.2589 56.4868L81.2065 56.6897C81.0102 56.5817 80.8236 56.5293 80.6469 56.5293C80.4014 56.5293 80.2312 56.6537 80.2312 56.8173C80.2312 56.9646 80.3458 57.0693 80.6502 57.1413L80.8073 57.1806C81.1705 57.2657 81.3505 57.4555 81.3505 57.6911C81.3505 57.9857 81.0462 58.2017 80.6109 58.2017C80.3229 58.2017 80.0774 58.1133 79.8942 57.9988L79.9531 57.7861H79.9563Z" fill="#221F20"/>
<path d="M77.3774 38.6341H28.7445C32.1023 28.4166 41.7209 21.0366 53.061 21.0366C64.401 21.0366 74.0196 28.4166 77.3774 38.6341Z" fill="#E6E7E8"/>
<path d="M69.7326 62.6956C65.5402 67.1039 59.6231 69.8432 53.0612 69.8432C46.4994 69.8432 40.5823 67.1007 36.3899 62.6956H69.7293H69.7326Z" fill="white"/>
<path d="M74.5793 38.6344H31.5427C34.8416 29.965 43.233 23.8057 53.061 23.8057C62.889 23.8057 71.2771 29.965 74.5793 38.6344Z" fill="white"/>
<path d="M64.964 37.9696H41.1647C42.0778 37.086 42.6472 35.8423 42.6505 34.471V34.4514C42.6505 33.5841 42.4247 32.766 42.0254 32.059C42.356 32.4943 42.7454 32.8805 43.1807 33.211C44.2149 34.003 45.5043 34.471 46.9083 34.471C47.324 34.471 47.7265 34.4285 48.1192 34.35C50.5411 33.8656 52.4524 31.9576 52.9367 29.5325C53.0087 29.1921 53.048 28.8419 53.0545 28.4819C53.0545 28.5343 53.0545 28.5899 53.0578 28.639C53.0742 28.9434 53.1102 29.2445 53.1724 29.5358C53.6567 31.9641 55.568 33.8721 57.9964 34.3565C58.3858 34.4318 58.7884 34.4743 59.2007 34.4743C60.608 34.4743 61.8975 34.003 62.9349 33.2045C63.4128 32.8478 63.8317 32.4125 64.1786 31.9281C63.7368 32.6678 63.4815 33.5285 63.4815 34.4547V34.4743C63.4848 35.8456 64.0542 37.0892 64.9673 37.9729L64.964 37.9696Z" fill="black"/>
<path d="M6.23108 38.6343L6.73507 39.7961H100.054L100.561 38.6343H6.23108Z" fill="black"/>
<path d="M16.1676 61.5337L16.5669 62.6955H90.1512L90.5537 61.5337H16.1676Z" fill="black"/>
</svg>
