<svg width="170" height="55" viewBox="0 0 170 55" fill="none" xmlns="http://www.w3.org/2000/svg">
<path d="M133.155 43.8745L141.841 42.447C141.954 42.4292 142.07 42.4352 142.183 42.4648L151.563 45.0081C152.157 45.1684 152.359 45.9073 151.926 46.3436C149.661 48.6346 143.984 54.1426 141.797 54.009C139.607 53.8755 134.609 47.6909 132.651 45.1565C132.28 44.6757 132.556 43.9724 133.155 43.8745Z" fill="black"/>
<path d="M141.9 44.8272L141.761 51.1928C141.755 51.4569 142.04 51.6409 142.298 51.5341C143.254 51.1334 145.42 49.9553 148.468 46.7146C148.652 46.5187 148.554 46.2041 148.287 46.13L142.387 44.4888C142.147 44.4206 141.906 44.5868 141.9 44.8242V44.8272Z" fill="white"/>
<path d="M26.2921 9.16171L31.4054 37.2892C31.5597 38.132 32.2927 38.7434 33.1474 38.7434H55.3218C56.3338 38.7434 57.141 37.8946 57.0905 36.8856L55.6779 8.7581C55.6304 7.81736 54.8529 7.07544 53.9092 7.07544H28.0311C26.9272 7.07544 26.0933 8.07554 26.2891 9.16171H26.2921Z" fill="black"/>
<path d="M115.551 37.1085L115.067 8.97212C115.049 8.01356 114.275 7.24197 113.316 7.23306L90.5038 6.98081C89.661 6.97191 88.9309 7.55654 88.7529 8.37858L82.7374 36.4438C82.503 37.5388 83.331 38.5716 84.4498 38.5835L113.764 38.9099C114.761 38.9218 115.572 38.1057 115.554 37.1085H115.551Z" fill="black"/>
<path d="M82.1464 8.37826L79.0808 37.7552C79.0244 38.3071 78.5555 38.7256 78.0006 38.7197L62.269 38.5713C61.6933 38.5653 61.2214 38.1054 61.2036 37.5296L60.3489 9.8888C60.3311 9.31605 60.7674 8.82935 61.3372 8.78483L80.989 7.19417C81.6597 7.14075 82.2147 7.70757 82.1464 8.37826Z" fill="black"/>
<path d="M119.091 9.01938L120.747 37.0786C120.803 38.0135 121.578 38.7435 122.513 38.7435H136.218C137.123 38.7435 137.882 38.0609 137.977 37.1588L140.886 9.77613C140.992 8.75526 140.215 7.85902 139.191 7.82044L120.922 7.14381C119.878 7.10523 119.029 7.97476 119.088 9.01641L119.091 9.01938Z" fill="black"/>
<path d="M22.0307 9.06408L27.1855 38.3371C27.3754 39.4203 26.5415 40.4145 25.4435 40.4145H6.93121C6.07058 40.4145 5.3346 39.7972 5.18622 38.9485L0.384541 11.3878C0.206481 10.3698 0.93356 9.41723 1.96334 9.32226L20.1225 7.60695C21.0425 7.52089 21.8734 8.153 22.0307 9.06111V9.06408Z" fill="black"/>
<path d="M147.474 7.6663H168.164C169.141 7.6663 169.933 8.45866 169.933 9.43503V37.4527C169.933 38.4736 169.072 39.2808 168.055 39.2185L143.978 37.7376C142.957 37.6753 142.2 36.7613 142.331 35.7463L145.717 9.20948C145.83 8.32512 146.581 7.66333 147.474 7.66333V7.6663Z" fill="black"/>
<path d="M7.17773 32.3423L9.56077 29.1313C12.1872 30.8139 14.1547 30.9979 15.4605 29.6833C16.6179 28.4517 16.054 27.0687 13.766 25.5345C11.6797 24.5314 10.0119 23.3621 8.76247 22.0208C7.45966 20.9554 7.3558 19.2579 8.45977 16.9342C9.81896 15.2515 12.0121 14.7381 15.0331 15.391C17.2737 15.8421 18.9831 16.8006 20.1613 18.2726L18.3421 20.9197C15.4664 18.9611 13.4543 18.2963 12.3059 18.9195C11.8014 19.9582 13.3534 21.4183 16.9651 23.3028C20.6776 25.573 21.0041 28.8286 17.9444 33.0753C15.7009 35.8234 12.113 35.58 7.1807 32.3453L7.17773 32.3423Z" fill="white"/>
<path d="M32.7291 16.6496L32.6431 14.7088L38.6674 13.6582L38.8574 20.6026L44.6057 13.4268L48.8791 17.1452L42.5491 24.4101L51.7518 30.4048L51.3868 34.6782L40.3293 27.1077L40.3738 34.2271L36.3052 34.7079L35.314 16.3558L32.7321 16.6467L32.7291 16.6496Z" fill="white"/>
<path d="M73.1012 13.2455C73.6888 13.6372 74.0064 14.1387 74.0568 14.7531C74.1192 15.3674 73.8936 15.9164 73.3802 16.4001C72.8698 16.8838 72.2169 17.1598 71.4305 17.2251C70.6529 17.2934 69.9733 17.1331 69.3828 16.7473C68.7952 16.3615 68.4717 15.863 68.4094 15.2487C68.3589 14.6343 68.5904 14.0853 69.1038 13.6016C69.6172 13.1179 70.2642 12.8448 71.0536 12.7766C71.8311 12.6994 72.5107 12.8537 73.1012 13.2455ZM68.81 18.8098L73.5434 19.2787L73.6443 33.1644L68.6735 33.1259L68.807 18.8098H68.81Z" fill="white"/>
<path d="M94.8691 34.3603L94.3914 13.189C102.995 11.9218 107.77 14.9963 108.716 22.4155C109.396 29.8732 104.781 33.8558 94.8691 34.3603ZM98.9794 28.6594C103.101 28.2885 104.775 26.1814 104.001 22.3383C103.372 18.6703 101.585 17.0173 98.6381 17.3764L98.9794 28.6565V28.6594Z" fill="white"/>
<path d="M137.348 17.3438C139.042 19.0413 139.87 21.0623 139.829 23.4068C139.787 25.7631 138.888 27.7603 137.137 29.3955C135.383 31.0307 133.285 31.829 130.846 31.7845C128.406 31.7429 126.338 30.8704 124.643 29.1759C122.949 27.4784 122.121 25.4515 122.162 23.0952C122.204 20.7507 123.1 18.7594 124.857 17.1213C126.611 15.4861 128.709 14.6878 131.148 14.7293C133.588 14.7738 135.656 15.6434 137.351 17.3409L137.348 17.3438ZM135.944 22.6916C135.398 23.1872 134.751 23.4275 134.006 23.4157C133.258 23.4038 132.626 23.1427 132.104 22.6322C131.582 22.1247 131.327 21.5164 131.338 20.8101C131.35 20.1038 131.626 19.5102 132.166 19.0265C132.706 18.5428 133.348 18.3054 134.095 18.3172C134.244 18.3172 134.38 18.3321 134.505 18.3558C133.932 18.0501 133.291 17.8929 132.588 17.881C131.421 17.8602 130.415 18.246 129.576 19.0354C128.736 19.8248 128.305 20.7893 128.285 21.9259C128.264 23.0625 128.662 24.0359 129.472 24.8491C130.285 25.6622 131.273 26.0806 132.439 26.1014C133.606 26.1222 134.609 25.7394 135.452 24.9529C136.291 24.1695 136.722 23.2079 136.74 22.0713C136.743 21.8398 136.731 21.6202 136.704 21.4095C136.591 21.9022 136.336 22.3295 135.938 22.6886L135.944 22.6916Z" fill="white"/>
<path d="M164.102 16.4976C166.428 18.8302 167.565 21.605 167.508 24.8249C167.452 28.0596 166.221 30.7988 163.811 33.0453C161.404 35.2918 158.522 36.3869 155.175 36.3276C151.824 36.2682 148.984 35.0752 146.658 32.7426C144.331 30.413 143.194 27.6293 143.251 24.3946C143.307 21.1747 144.539 18.4414 146.948 16.1949C149.358 13.9484 152.237 12.8533 155.587 12.9127C158.938 12.972 161.775 14.165 164.102 16.4947V16.4976ZM162.173 23.8426C161.425 24.5222 160.537 24.8546 159.511 24.8368C158.484 24.819 157.614 24.4599 156.899 23.7625C156.184 23.0651 155.831 22.2312 155.849 21.2637C155.866 20.2962 156.246 19.4801 156.985 18.8154C157.727 18.1476 158.608 17.8242 159.635 17.842C159.837 17.842 160.024 17.8628 160.199 17.8954C159.413 17.477 158.534 17.2573 157.567 17.2425C155.964 17.2128 154.587 17.7411 153.433 18.8272C152.281 19.9104 151.691 21.231 151.664 22.792C151.637 24.353 152.18 25.6914 153.293 26.8073C154.406 27.9231 155.765 28.4959 157.368 28.5256C158.97 28.5523 160.347 28.03 161.502 26.9527C162.653 25.8754 163.244 24.5578 163.274 22.9968C163.28 22.6793 163.262 22.3766 163.223 22.0857C163.066 22.7624 162.716 23.35 162.173 23.8456V23.8426Z" fill="white"/>
<path d="M131.68 1.79001C133.283 1.6357 136.743 2.01556 139.648 4.00983C140.037 4.27692 140.117 4.74878 139.806 5.09896C139.556 5.37792 139.147 5.44618 138.826 5.25328C137.859 4.66865 135.544 3.57061 131.796 3.57358C131.413 3.57358 131.078 3.30946 131.009 2.9296L130.995 2.76934C130.911 2.31826 131.226 1.83156 131.68 1.78705V1.79001Z" fill="black"/>
<path d="M159.345 1.07201C157.015 0.680282 152.08 0.748538 147.622 3.37195C147.029 3.72214 146.741 4.21774 147.162 4.76379C147.498 5.19706 148.094 5.33951 148.581 5.09023C150.056 4.33348 153.558 2.96241 159.048 3.35118C159.609 3.38976 160.125 3.03661 160.265 2.49056C160.431 1.83767 160.009 1.18182 159.345 1.07201Z" fill="black"/>
</svg>
