<svg width="171" height="55" viewBox="0 0 171 55" fill="none" xmlns="http://www.w3.org/2000/svg">
<path d="M114.677 26.6589C113.17 26.1235 105.462 24.0191 100.108 25.588C100.108 25.588 101.017 23.4216 111.178 25.1274C110.904 25.0029 106.396 23.0355 101.603 22.8114C101.428 22.8114 101.241 22.7989 101.067 22.7864C95.4516 22.6121 87.7317 24.4303 87.0967 24.5921C87.0967 24.5921 87.0842 24.5921 87.0718 24.5921C87.2959 24.5174 93.6959 22.1638 99.8344 21.8276C99.8344 21.8276 99.8469 21.8276 99.8593 21.8276C100.482 21.7778 109.086 21.2051 114.789 23.0977C114.813 23.0977 114.838 23.1102 114.863 23.1226C117.304 23.8324 124.501 26.0986 127.862 28.8379C127.564 28.6885 118.051 24.0567 108.787 23.2971C108.787 23.2971 112.323 24.5174 114.988 26.161C114.988 26.161 116.196 27.1819 114.689 26.6465L114.677 26.6589Z" fill="#231F20"/>
<path d="M109.771 16.6236L112.572 14.7061C112.572 14.7061 115 13.1748 118.536 15.2417C122.06 17.3086 137.301 24.2813 138.446 24.7544C139.592 25.2276 141.41 25.6884 138.919 23.6713C136.429 21.6542 130.614 16.9225 130.614 16.9225C130.614 16.9225 129.631 15.8516 128.784 16.9225C127.937 17.9933 126.866 16.9225 126.866 16.9225L116.42 8.36852C116.42 8.36852 115.237 7.23545 114.228 8.0697C113.22 8.90394 106.932 14.1209 106.932 14.1209L109.783 16.6236H109.771Z" fill="#231F20"/>
<path d="M116.208 21.1557L98.2036 7.20993C98.2036 7.20993 95.2775 4.91887 92.6004 7.20993C89.9234 9.50098 86.0262 12.0661 86.0262 12.0661C86.0262 12.0661 79.8503 18.242 73.2635 12.0661C66.6767 5.89026 61.9576 1.68158 61.9576 1.68158C61.9576 1.68158 58.7203 -1.73009 54.8603 1.68158C51.0004 5.09326 50.1661 5.82799 50.1661 5.82799C50.1661 5.82799 47.1654 9.42655 41.637 11.8546C36.1086 14.2826 24.8027 22.0646 24.8027 22.0646C24.8027 22.0646 21.9887 24.6171 25.6743 22.9362C29.3599 21.2552 37.6027 16.8102 37.6027 16.8102C37.6027 16.8102 39.0097 15.9511 42.1724 15.8888C42.1724 15.8888 47.1156 13.386 49.4191 12.0537C51.7226 10.7214 55.3211 8.8037 58.3343 7.8325C61.3475 6.86129 63.2027 9.68774 63.2027 9.68774C63.2027 9.68774 64.9211 14.955 66.5273 19.6242C68.146 24.2935 75.0814 21.8157 75.0814 21.8157C75.0814 21.8157 86.6363 16.3121 92.0277 12.7635C97.4316 9.21485 97.2946 14.5689 97.2946 14.5689C97.2946 14.5689 97.1701 15.1417 99.5608 15.2413C101.951 15.3409 103.035 15.1168 105.836 16.4615C108.638 17.8063 115.71 21.7534 115.71 21.7534C115.71 21.7534 119.01 23.4966 116.196 21.1682L116.208 21.1557Z" fill="#231F20"/>
<path d="M80.6968 34.9641C80.6968 34.6529 80.6968 34.4538 80.6968 34.2546C80.6968 32.6235 80.7092 30.9797 80.6968 29.3485C80.6968 28.8629 80.7839 28.5892 81.3194 28.6016C81.5061 28.6016 81.6804 28.5518 81.8921 28.5144V41.775H80.7092V40.6046C79.5761 41.7502 78.3186 42.1985 76.8493 41.8747C75.8532 41.663 75.0438 41.1401 74.4213 40.3183C73.1637 38.6374 73.3505 36.1471 74.8446 34.7526C76.3512 33.358 78.7792 33.0342 80.7092 34.9641H80.6968ZM77.8205 40.8287C79.4516 40.8287 80.7839 39.4716 80.7964 37.8031C80.7964 36.1222 79.4516 34.7401 77.8081 34.7401C76.1894 34.7401 74.8446 36.1097 74.8322 37.7657C74.8322 39.4342 76.1769 40.8287 77.8205 40.8287Z" fill="#231F20"/>
<path d="M114.49 30.8803C111.626 29.274 108.849 30.1084 107.342 31.9637C105.774 33.9061 105.749 36.6951 107.28 38.6624C108.588 40.3682 111.451 41.6384 114.676 39.7084C114.726 39.9699 114.726 40.2439 114.826 40.4805C115 40.9288 114.826 41.1154 114.415 41.3022C110.505 43.1326 105.985 41.0656 104.927 36.9567C103.918 33.047 106.683 29.1745 110.704 28.7885C112.012 28.664 113.22 28.8881 114.415 29.3737C114.664 29.4733 114.763 29.6104 114.701 29.8719C114.627 30.1957 114.564 30.5192 114.49 30.8803Z" fill="#231F20"/>
<path d="M21.3159 29.0129C21.7642 29.0129 22.1502 28.9756 22.5237 29.0254C22.6731 29.0503 22.8474 29.2495 22.9097 29.399C24.1673 32.3126 25.4124 35.2262 26.6576 38.1399C26.7821 38.4387 26.919 38.75 27.0933 39.136C27.3548 38.5508 27.5789 38.0278 27.7906 37.5173C28.9486 34.8153 30.119 32.1009 31.2646 29.399C31.3891 29.1126 31.5136 28.9755 31.8498 29.0004C32.1611 29.0378 32.4848 29.0004 32.8708 29.0004C30.9408 33.4082 29.0358 37.7663 27.0933 42.199C25.1509 37.7663 23.2459 33.4082 21.3159 29.0004V29.0129Z" fill="#231F20"/>
<path d="M58.5453 36.9065C56.3787 37.6038 54.2371 38.301 52.0955 38.9983C52.6309 41.1897 55.5818 41.389 57.9103 39.4093C58.0348 39.6957 58.1842 39.982 58.2838 40.2683C58.3212 40.368 58.2838 40.5672 58.1967 40.6295C56.9515 41.7377 55.4823 42.2108 53.8511 41.8497C52.2947 41.5011 51.2239 40.5547 50.7756 38.9983C50.0286 36.4831 51.6597 34.0177 54.262 33.6566C56.8021 33.308 58.4083 35.1509 58.5702 36.9065H58.5453ZM51.8714 37.8902C53.6395 37.3175 55.3577 36.7695 57.076 36.2092C56.9515 35.3749 55.7313 34.5159 54.3243 34.7649C52.8052 35.0264 51.7219 36.4085 51.8838 37.8778L51.8714 37.8902Z" fill="#231F20"/>
<path d="M67.436 39.4094C67.9714 40.6545 68.1955 40.393 66.9753 41.1899C64.9457 42.5222 62.2189 42.0864 60.9115 40.2685C59.0313 37.6786 60.6002 34.0679 63.7628 33.6445C66.2905 33.3084 67.822 35.0639 68.0586 36.6826C68.0586 36.7449 68.0586 36.807 68.071 36.8942C65.9169 37.5915 63.7753 38.2887 61.6337 38.9859C62.0944 41.1649 65.1574 41.3891 67.4236 39.3969L67.436 39.4094ZM66.6142 36.2093C66.4524 35.3253 65.1823 34.5036 63.8002 34.7775C62.2811 35.0888 61.2352 36.446 61.4095 37.8779C63.1403 37.3176 64.871 36.7696 66.6142 36.2093Z" fill="#231F20"/>
<path d="M92.1274 36.9065C89.9608 37.6038 87.8192 38.301 85.6775 38.9983C86.2129 41.1897 89.1639 41.389 91.4923 39.4093C91.6168 39.6957 91.7662 39.982 91.8659 40.2683C91.9032 40.368 91.8658 40.5672 91.7787 40.6295C90.5335 41.7377 89.0643 42.2108 87.4332 41.8497C85.8767 41.5011 84.8059 40.5547 84.3577 38.9983C83.6106 36.4831 85.2417 34.0177 87.844 33.6566C90.3841 33.308 91.9903 35.1509 92.1522 36.9065H92.1274ZM85.4534 37.8778C87.1966 37.3175 88.9273 36.757 90.6581 36.1967C90.2845 35.0761 89.002 34.5035 87.6822 34.8148C86.2627 35.151 85.2417 36.533 85.4534 37.8778Z" fill="#231F20"/>
<path d="M147.946 39.4215C148.494 40.6542 148.681 40.405 147.498 41.1895C145.431 42.5467 142.692 42.0859 141.384 40.2058C139.579 37.6159 141.148 34.0423 144.273 33.6563C146.527 33.3699 148.419 34.7771 148.581 36.8938C146.44 37.5911 144.298 38.2883 142.156 38.9731C142.306 39.9692 143.538 40.8034 144.833 40.8159C145.917 40.8159 146.377 40.6168 147.946 39.409V39.4215ZM147.124 36.2089C146.813 35.0883 145.406 34.4784 144.036 34.8394C142.704 35.2005 141.658 36.7071 141.957 37.8775C143.675 37.3172 145.406 36.7692 147.124 36.2089Z" fill="#231F20"/>
<path d="M125.384 37.7907C125.447 39.8825 123.791 41.9745 121.139 41.9745C118.486 41.9745 116.88 39.9074 116.88 37.7907C116.88 35.649 118.511 33.6072 121.139 33.6072C123.878 33.6072 125.459 35.786 125.384 37.7907ZM124.139 37.8031C124.139 36.0973 122.844 34.7526 121.163 34.7401C119.495 34.7401 118.15 36.0724 118.138 37.7657C118.138 39.4591 119.458 40.8163 121.114 40.8287C122.782 40.8287 124.127 39.4965 124.127 37.8031H124.139Z" fill="#231F20"/>
<path d="M15.7254 41.7752H14.6545C14.6296 41.6134 14.6172 41.4641 14.5923 41.3022C12.4382 42.261 11.1059 42.0867 10.1222 40.7295C9.30045 39.5964 9.38759 38.0899 10.3339 37.0564C11.1806 36.1226 12.8242 35.5996 14.4304 36.7077C14.8164 35.5747 14.1316 34.678 12.7993 34.6905C12.1643 34.6905 11.5168 34.8523 10.8444 34.9394C10.8942 34.6904 10.9191 34.3792 11.0063 34.0804C11.0312 33.9683 11.1806 33.8563 11.2802 33.8189C12.1269 33.5823 12.9861 33.4951 13.8577 33.7192C15.0903 34.0305 15.7129 34.7654 15.7503 36.1226C15.8001 37.9654 15.7627 39.8081 15.7627 41.6509C15.7627 41.6758 15.7378 41.7005 15.7129 41.7628L15.7254 41.7752ZM14.6296 39.036C14.6296 37.9901 13.7456 37.1184 12.6623 37.1309C11.6164 37.1309 10.7199 38.0274 10.7323 39.036C10.7323 40.057 11.6413 40.9286 12.6748 40.9286C13.7331 40.9286 14.6172 40.0695 14.6172 39.0484L14.6296 39.036Z" fill="#231F20"/>
<path d="M40.1797 41.7751H39.0716C39.0467 41.6132 39.0342 41.4639 39.0093 41.2398C38.1252 41.8748 37.1789 42.1363 36.1579 41.8499C35.5104 41.6756 34.9751 41.3146 34.5766 40.7668C33.7548 39.6586 33.7922 38.239 34.6513 37.1557C35.6101 35.9479 36.9673 35.7986 38.8848 36.6827C39.1089 35.3504 38.5361 34.6405 37.1789 34.6779C36.5564 34.6903 35.9338 34.8397 35.2739 34.9393C35.3237 34.6654 35.3611 34.3541 35.4482 34.0429C35.4731 33.9432 35.635 33.8437 35.7595 33.8064C36.6934 33.5449 37.6396 33.4951 38.5735 33.7939C39.6568 34.1301 40.1548 34.9519 40.1797 36.0227C40.2295 37.9278 40.1922 39.8327 40.1922 41.7751H40.1797ZM39.0467 39.0359C39.0467 37.99 38.1626 37.1183 37.0793 37.1308C36.0334 37.1308 35.1369 38.0273 35.1494 39.0359C35.1494 40.0569 36.0583 40.9285 37.1042 40.916C38.1626 40.916 39.0467 40.0569 39.0467 39.0359Z" fill="#231F20"/>
<path d="M0.933105 29.0995C1.344 29.0248 1.76732 28.9502 2.26537 28.863C2.26537 29.1121 2.26537 29.2988 2.26537 29.4856C2.26537 32.9844 2.26537 36.4832 2.26537 39.982C2.26537 40.4303 2.40235 40.5423 2.8257 40.5298C4.31987 40.5049 5.81404 40.5298 7.30821 40.5298H7.80626C7.83116 40.6045 7.85607 40.642 7.85607 40.6669C7.76891 41.028 7.7938 41.5511 7.56968 41.7254C7.3082 41.9122 6.81015 41.7999 6.41171 41.8124C4.60626 41.8124 2.78834 41.8124 0.945531 41.8124V29.1245L0.933105 29.0995Z" fill="#231F20"/>
<path d="M128.659 33.6443C128.659 35.263 128.659 36.8067 128.659 38.3507C128.659 38.6744 128.697 39.0231 128.772 39.3344C128.996 40.2184 129.656 40.7291 130.602 40.8038C131.548 40.8786 132.445 40.343 132.806 39.459C132.93 39.1477 133.005 38.7865 133.005 38.4379C133.03 37.0558 133.03 35.6736 133.005 34.2915C133.005 33.9304 133.105 33.7686 133.478 33.7562C133.727 33.7562 133.964 33.6816 134.25 33.6318V41.7499H133.129V40.8409C132.943 40.9903 132.818 41.09 132.706 41.1896C131.05 42.6091 128.062 42.0988 127.539 39.5338C127.477 39.21 127.464 38.8738 127.452 38.5376C127.452 37.168 127.464 35.8107 127.439 34.4411C127.439 33.9804 127.526 33.7063 128.037 33.7312C128.224 33.7312 128.41 33.6817 128.659 33.6443Z" fill="#231F20"/>
<path d="M157.509 33.6448V41.7628H156.389C156.376 41.4889 156.364 41.215 156.351 40.8539C155.716 41.4515 155.056 41.8128 154.247 41.9373C152.516 42.2112 150.823 40.9537 150.761 39.2105C150.698 37.5296 150.723 35.8486 150.736 34.1552C150.736 34.0307 150.91 33.8438 151.047 33.794C151.309 33.7069 151.595 33.6946 151.944 33.6448C151.944 33.9436 151.944 34.1925 151.944 34.4415C151.956 35.9481 151.931 37.4546 152.018 38.9612C152.081 40.057 152.753 40.6549 153.799 40.7919C154.758 40.9164 155.729 40.3684 156.09 39.447C156.214 39.1357 156.277 38.7746 156.289 38.4259C156.314 37.0812 156.314 35.724 156.289 34.3792C156.289 33.9808 156.339 33.7442 156.812 33.7566C157.036 33.7566 157.273 33.6821 157.522 33.6448H157.509Z" fill="#231F20"/>
<path d="M94.0073 40.0322C94.7917 40.5427 95.5761 40.9161 96.4975 40.8414C97.0952 40.7916 97.5435 40.4678 97.6804 39.92C97.8174 39.3597 97.6057 38.8494 97.0454 38.5754C96.6221 38.3638 96.1614 38.2266 95.7256 38.0647C94.6049 37.6414 93.9949 36.8447 93.9949 35.8113C93.9949 34.7778 94.6672 33.9184 95.6882 33.6818C96.7217 33.4453 97.6431 33.7443 98.5645 34.205C98.4898 34.5661 98.4276 34.9146 98.3529 35.3006C98.1038 35.1885 97.8921 35.0516 97.6555 35.0017C97.1575 34.8897 96.647 34.7652 96.1365 34.7403C95.6633 34.7154 95.3271 35.0143 95.1902 35.4626C95.0532 35.9108 95.1777 36.3465 95.5886 36.5831C96.0369 36.8321 96.535 37.0064 97.0206 37.1932C97.805 37.5045 98.4898 37.9403 98.7886 38.7995C99.2742 40.194 98.4275 41.6259 96.9707 41.8874C96.0119 42.0617 95.1653 41.8129 94.3062 41.4269C93.9077 41.2401 93.6836 41.0157 93.8828 40.555C93.945 40.4056 93.9575 40.2314 94.0073 40.0197V40.0322Z" fill="#231F20"/>
<path d="M170.384 34.2176C170.309 34.6036 170.247 34.9398 170.197 35.1889C169.488 35.0394 168.79 34.8401 168.093 34.7529C167.545 34.6907 167.134 35.027 167.01 35.4877C166.873 35.9484 167.059 36.434 167.545 36.6954C167.956 36.9196 168.417 37.0689 168.865 37.2308C170.259 37.7413 170.944 38.7499 170.695 40.1071C170.471 41.3771 169.363 42.0371 168.043 41.9748C167.396 41.9375 166.773 41.6509 166.138 41.4516C165.752 41.3271 165.516 41.0907 165.715 40.63C165.777 40.4805 165.789 40.2938 165.827 40.0697C166.038 40.1942 166.213 40.2814 166.387 40.381C167.01 40.7421 167.67 40.9163 168.392 40.854C168.952 40.8166 169.388 40.4556 169.525 39.9326C169.649 39.4097 169.463 38.9116 168.952 38.6501C168.516 38.426 168.043 38.2766 167.595 38.1023C166.798 37.791 166.151 37.3181 165.902 36.4465C165.553 35.1764 166.325 33.9559 167.62 33.6945C168.616 33.4952 169.488 33.8067 170.396 34.2301L170.384 34.2176Z" fill="#231F20"/>
<path d="M44.1145 41.7625H42.9316C42.9316 41.5509 42.9316 41.3641 42.9316 41.1774C42.9316 37.2801 42.9316 33.3954 42.9316 29.4981C42.9316 28.9585 43.1931 28.6431 43.7161 28.5518C43.8406 28.5269 43.9651 28.5393 44.1145 28.5269V41.7625Z" fill="#231F20"/>
<path d="M48.3108 41.7625H47.1279V41.1774C47.1279 37.2801 47.1279 33.3954 47.1279 29.4981C47.1279 28.9585 47.3894 28.6431 47.9123 28.5518C48.0368 28.5269 48.1614 28.5393 48.3108 28.5269V41.7625Z" fill="#231F20"/>
<path d="M138.359 28.502V41.7626H137.176C137.176 41.5758 137.176 41.4015 137.176 41.2148C137.176 37.2926 137.176 33.358 137.176 29.4358C137.176 28.9544 137.408 28.6639 137.873 28.5643C138.01 28.5394 138.16 28.5269 138.359 28.502Z" fill="#231F20"/>
<path d="M160.386 41.7626C160.386 39.1976 160.386 36.6701 160.386 34.1425C160.386 34.0305 160.51 33.8437 160.61 33.8063C160.884 33.7191 161.195 33.6944 161.531 33.6446V34.8149C161.531 34.8149 161.581 34.877 161.618 34.9019C162.291 33.9307 163.262 33.6445 164.358 33.5947V34.8274C164.059 34.8648 163.748 34.8895 163.449 34.9517C162.316 35.2008 161.643 36.0601 161.631 37.3052C161.618 38.6126 161.631 39.9074 161.631 41.2148C161.631 41.3891 161.631 41.5634 161.631 41.7626H160.386Z" fill="#231F20"/>
<path d="M57.0267 30.1459C55.7691 30.8432 54.5489 31.5279 53.3037 32.2252C53.1045 31.889 52.9177 31.5777 52.7185 31.229C53.9263 30.4944 55.1216 29.7847 56.3543 29.05C56.5784 29.4236 56.7901 29.7599 57.0267 30.1459Z" fill="#231F20"/>
<path d="M64.41 47.4778C64.3727 47.54 64.3602 47.6146 64.3478 47.6769C64.3353 47.7142 64.3229 47.7642 64.3104 47.8015C64.298 47.8389 64.2855 47.8888 64.2731 47.9262C64.2731 47.9262 64.2357 48.0381 64.1984 48.1003C64.1735 48.1377 64.1361 48.1752 64.0987 48.2001L63.9991 48.2624V48.3618C63.9742 48.561 63.9493 48.7477 63.8995 48.922C63.8746 49.0092 63.8622 49.0966 63.8373 49.1838C63.8124 49.2709 63.7999 49.3705 63.775 49.4452C63.7377 49.632 63.7127 49.8062 63.6878 49.993C63.6505 50.1798 63.638 50.3914 63.6505 50.6156C63.5882 50.8023 63.526 50.989 63.4513 51.1883C63.3766 51.3875 63.3267 51.5742 63.2894 51.7361C63.1649 51.8357 63.0653 51.9727 62.9781 52.147C62.9283 52.2591 62.8785 52.3587 62.8162 52.4708L62.5174 52.4334L62.5548 52.6824C62.5548 52.6824 62.5049 52.7697 62.5049 52.8444C62.4178 52.8942 62.3555 52.9563 62.2808 53.0186C62.1812 53.1182 62.0941 53.1807 62.0069 53.2554C61.9322 53.3052 61.845 53.3424 61.733 53.3673C61.6334 53.3673 61.484 53.3547 61.3221 53.2925C61.0108 53.0559 60.712 52.7821 60.4629 52.4833C60.2139 52.1844 60.0022 51.8107 59.8528 51.3998L59.7781 51.2007L59.5664 51.2506C59.4419 51.2879 59.3423 51.3751 59.2676 51.512C59.2303 51.5867 59.1929 51.6738 59.168 51.761C59.1431 51.8108 59.1306 51.8607 59.1057 51.9105H58.9812L58.9439 52.0972C58.9439 52.0972 58.919 52.1595 58.9065 52.1844L58.8069 52.3462C58.7446 52.4333 58.7197 52.5083 58.6948 52.583C58.6699 52.6577 58.6699 52.7323 58.6948 52.7945C58.645 52.8693 58.6201 52.9563 58.6077 53.031C58.6077 53.056 58.5952 53.0934 58.5828 53.1183C58.5828 53.1681 58.5703 53.2177 58.5454 53.2676C58.533 53.3174 58.5081 53.3548 58.5081 53.3797C58.5081 53.3797 58.4707 53.3922 58.4085 53.3922L58.2839 53.3673L58.1843 53.4919C58.1843 53.4919 58.1594 53.5293 58.147 53.5542C58.1221 53.5542 58.0972 53.5788 58.0723 53.5913C58.0723 53.5913 58.0723 53.5913 58.0474 53.5913C57.9602 53.5539 57.8855 53.4918 57.8233 53.4171C57.7361 53.3051 57.6365 53.1805 57.5742 53.031C57.4995 52.8816 57.4372 52.7324 57.375 52.5954C57.3501 52.5456 57.3376 52.4957 57.3127 52.4459H57.4497L57.2878 52.1097C57.2878 52.1097 57.2505 51.9977 57.2256 51.9355C57.2131 51.8608 57.1882 51.7983 57.1633 51.7485C57.3501 51.3501 57.5493 50.9392 57.761 50.5158C57.873 50.2668 57.9975 50.018 58.1096 49.7689C58.2217 49.5448 58.3337 49.3082 58.4334 49.0841C58.6824 48.5985 58.9065 48.1129 59.1431 47.6149C59.3299 47.2413 59.4917 46.8676 59.666 46.4941L59.7283 46.3573C59.8404 46.4071 59.9649 46.4567 60.0769 46.5065C60.2637 46.6061 60.4131 46.7058 60.5376 46.8178C60.6746 46.9299 60.7867 47.0545 60.8863 47.1914C60.9485 47.3035 60.9983 47.4156 61.0357 47.5152C61.0108 47.5401 60.9983 47.5526 60.9859 47.5775L60.9236 47.7018L60.7369 47.6273L60.9236 48.1128C60.9485 48.1875 60.9485 48.2125 60.9485 48.225C60.9485 48.2499 60.9361 48.2621 60.8987 48.3119C60.8738 48.3742 60.8365 48.4366 60.824 48.4989C60.824 48.5238 60.8116 48.5609 60.7991 48.6107L60.6123 48.5612L60.6497 48.8974C60.6746 49.0966 60.6746 49.2584 60.6622 49.4203V49.9805C60.6373 50.1797 60.6373 50.379 60.6497 50.5906C60.6497 50.8272 60.6871 51.0389 60.7369 51.263L60.7991 51.5619L61.0855 51.4123C61.4341 51.2131 61.6956 50.9642 61.8948 50.6654C62.0941 50.3666 62.2435 50.0303 62.3555 49.6692C62.4676 49.3081 62.5547 48.9347 62.617 48.5363C62.6544 48.225 62.7166 47.9012 62.7665 47.5775L62.7913 47.4155C62.866 47.3283 62.9283 47.2287 62.9781 47.1042C63.0155 46.9921 63.0653 46.88 63.1026 46.743L63.1898 46.3822C63.1898 46.3822 63.2147 46.2949 63.2271 46.2576C63.2521 46.2576 63.2645 46.2825 63.2894 46.2825C63.3765 46.3323 63.4388 46.3944 63.5135 46.4567C63.5509 46.494 63.6007 46.5315 63.638 46.5689C63.6754 46.6062 63.7252 46.6437 63.7625 46.681C63.8497 46.7433 63.9618 46.7929 64.0738 46.8178C64.0987 46.8552 64.1361 46.9051 64.161 46.9425C64.1984 47.0172 64.2481 47.0793 64.2979 47.1416C64.3478 47.2163 64.3851 47.3034 64.41 47.403V47.4778Z" fill="#231F20"/>
<path d="M70.3243 51.2384C70.2621 51.3255 70.1873 51.4126 70.1251 51.4749C70.0006 51.5745 69.8761 51.6616 69.7391 51.7238L69.5897 51.7986L69.6146 51.9731C69.6146 51.9731 69.6146 52.0102 69.6146 52.0227C69.6146 52.0476 69.6146 52.0725 69.6146 52.0725C69.6146 52.1099 69.6146 52.1723 69.6395 52.2345C69.6644 52.3341 69.6769 52.4587 69.6893 52.5707C69.6893 52.6704 69.6893 52.77 69.6893 52.8696V52.8945C69.652 52.9817 69.5897 53.0813 69.5274 53.2058C69.4527 53.3054 69.378 53.405 69.2784 53.4921C69.2037 53.5544 69.0916 53.6414 68.9671 53.6912C68.8675 53.7411 68.7679 53.766 68.6683 53.7785C68.6309 53.7785 68.606 53.7536 68.5936 53.7536C68.5936 53.7536 68.5687 53.7286 68.5562 53.7162C68.5438 53.7162 68.5313 53.6912 68.5189 53.6912L68.4192 53.6289C68.4192 53.5293 68.4193 53.4422 68.357 53.355C68.3072 53.2928 68.2574 53.2307 68.2076 53.1933L68.1702 53.1559C68.357 53.0937 68.4815 53.0066 68.5562 52.907C68.6558 52.7824 68.6932 52.6079 68.6808 52.3713V52.1971L68.494 52.1598C68.3072 52.1224 68.1702 52.1224 68.0582 52.1598C67.9586 52.1847 67.859 52.2096 67.7469 52.2345H67.7095C67.6099 52.2719 67.5103 52.2969 67.3858 52.3218C67.2488 52.3467 67.0621 52.3589 66.8878 52.3589C66.8628 52.3589 66.8255 52.3589 66.8006 52.3589H66.7757C66.7757 52.3589 66.7383 52.2719 66.7009 52.2595L66.6761 52.2345C66.6761 52.2345 66.6138 52.1722 66.6014 52.1473C66.6014 52.1473 66.5889 52.1223 66.6014 52.085V51.998L66.5765 51.9233C66.5516 51.8734 66.5391 51.836 66.5391 51.8235L66.5018 51.4873L66.6761 51.4624C66.6761 51.4624 66.7508 51.4624 66.7881 51.4624C66.8255 51.4624 66.8753 51.4624 66.9126 51.4624C66.9998 51.4624 67.087 51.4499 67.1617 51.4375C67.2737 51.4375 67.3734 51.425 67.473 51.4125C67.6099 51.4001 67.7593 51.3754 67.9212 51.3505L68.2948 51.2633L68.2325 51.0268C68.2076 50.9272 68.1951 50.84 68.1702 50.7404C68.1453 50.6284 68.108 50.5038 68.0831 50.3793C68.0333 50.1552 67.9586 49.9185 67.8963 49.6944L67.7469 49.1715L67.4356 49.7193C67.3111 49.8438 67.1741 50.0056 67.0247 50.2173C66.8877 50.404 66.7757 50.5786 66.6885 50.7404L66.564 50.9271C66.564 50.9271 66.4768 51.0515 66.4395 51.1137V51.0642L66.0908 51.7488C66.041 51.8484 66.0037 51.9355 65.9912 52.0227L65.929 52.0476C65.929 52.0476 65.8294 52.1225 65.8045 52.2221C65.792 52.2594 65.792 52.2844 65.792 52.3093L65.7671 52.3963C65.7671 52.3963 65.7422 52.4212 65.7297 52.4336L65.6675 52.5209V52.5458C65.6675 52.5458 65.6301 52.6577 65.6177 52.7075C65.6052 52.7698 65.5928 52.8198 65.5554 52.8696C65.5305 52.9567 65.4932 53.0314 65.4683 53.1185V53.1559C65.4309 53.2431 65.4185 53.3427 65.4185 53.4423V53.4672C65.4185 53.4672 65.3936 53.4921 65.3687 53.5046C65.3438 53.5171 65.3189 53.5295 65.294 53.542L65.2068 53.5915C65.2068 53.5915 65.1694 53.6165 65.1445 53.6165L65.0574 53.6663L65.0325 53.7286L64.9453 53.7536C64.9453 53.7536 64.8831 53.7536 64.8582 53.7785H64.8084C64.8084 53.7785 64.771 53.7411 64.7585 53.7411C64.7336 53.7162 64.7087 53.7037 64.6963 53.6912C64.6589 53.6539 64.6092 53.6164 64.5593 53.5791C64.5344 53.5417 64.522 53.5171 64.522 53.5171V53.4797C64.522 53.4797 64.4971 53.4298 64.4971 53.3924L64.4722 53.3052C64.4722 53.3052 64.4473 53.2057 64.4224 53.1559L64.4473 52.9194C64.5967 52.5459 64.7337 52.2221 64.8582 51.9482C64.9453 51.7863 65.02 51.6243 65.0947 51.4624C65.1819 51.2881 65.2566 51.1263 65.3438 50.952L65.7049 50.1923L65.68 50.1179C65.7547 49.9933 65.8169 49.8813 65.8667 49.7941C65.8916 49.7443 65.9165 49.6944 65.9414 49.6446C65.9663 49.5947 65.9912 49.5451 66.0286 49.4704C66.0784 49.3708 66.1282 49.2587 66.1905 49.1591C66.2278 49.0719 66.2901 48.9848 66.3523 48.8852L66.4644 48.8478C66.4644 48.8478 66.4893 48.8478 66.5267 48.8229H66.5391L66.7383 48.8478L66.8006 48.8104C67.0372 48.6983 67.2364 48.5488 67.3858 48.3745C67.5228 48.2251 67.6722 48.0259 67.834 47.7893C67.8714 47.8142 67.9212 47.8267 67.9959 47.8516C68.0582 47.8641 68.108 47.889 68.1951 47.9139C68.3196 47.9388 68.4317 47.9635 68.5313 48.0009C68.5936 48.0258 68.6309 48.0508 68.6683 48.0757C68.6932 48.1379 68.7057 48.1754 68.7181 48.2252C68.7181 48.2875 68.743 48.3496 68.743 48.4119C68.7679 48.5239 68.7803 48.636 68.8052 48.7481C68.8177 48.8601 68.8301 48.9972 68.8426 49.184C68.8799 49.2961 68.9049 49.4082 68.9298 49.5202C68.9422 49.5825 68.9547 49.6321 68.9671 49.6819C68.9796 49.7442 68.992 49.8063 69.0045 49.8561C69.0169 49.9308 69.0294 50.0058 69.0418 50.0805C69.0667 50.1676 69.0792 50.2672 69.1041 50.3419C69.1414 50.5038 69.1912 50.6655 69.2535 50.8149L69.3157 50.9645H69.5025L69.5773 51.0019L69.7391 50.952C69.7391 50.952 69.7765 50.9395 69.7889 50.9271C69.8263 51.0142 69.9134 51.0514 69.9881 51.0888L70.0628 51.1137C70.0628 51.1137 70.1376 51.1137 70.15 51.1137C70.1874 51.1386 70.2123 51.1511 70.2247 51.176C70.2247 51.176 70.2745 51.2384 70.3119 51.2633L70.3243 51.2384Z" fill="#231F20"/>
<path d="M81.4807 49.234C81.4433 49.3834 81.3935 49.5454 81.3686 49.7197C81.3562 49.8069 81.3437 49.894 81.3312 49.9812C81.3312 50.0434 81.3188 50.1055 81.3063 50.1678L81.2441 50.2924C81.1569 50.4668 81.0822 50.6163 80.995 50.7658C80.8954 50.9401 80.8207 51.0893 80.7585 51.2388C80.7211 51.2886 80.6713 51.3382 80.6464 51.4005C80.634 51.4378 80.6091 51.4628 80.5842 51.5002C80.5842 51.5002 80.5841 51.5251 80.5717 51.5251L80.2853 51.4254L80.2231 51.8115L80.1484 51.8364L79.9865 52.048C79.8495 52.2721 79.725 52.4466 79.588 52.5836C79.4635 52.7206 79.3017 52.8448 79.1398 52.9569C78.953 53.0814 78.7414 53.1935 78.5546 53.2807C78.3305 53.3803 78.0939 53.4799 77.82 53.5919C77.7203 53.5919 77.6332 53.5798 77.5584 53.5673C77.5211 53.5673 77.4713 53.5673 77.434 53.5673C77.3094 53.5673 77.1476 53.5673 76.9483 53.5424C76.911 53.505 76.8736 53.4676 76.7989 53.4302C76.7616 53.4178 76.7118 53.3928 76.6495 53.3928C76.5997 53.3679 76.5499 53.318 76.525 53.2682C76.4752 53.181 76.4254 53.0817 76.3631 52.9323C76.3382 52.87 76.3009 52.8076 76.276 52.7453L76.525 52.6705L76.0768 52.1726C76.0768 52.1726 76.0269 52.1103 76.002 52.0854V52.0109C75.9771 51.5377 75.9771 51.1019 75.9771 50.7034C75.9771 50.3299 76.0394 49.9812 76.1265 49.6948V49.6699L76.139 49.5452C76.1639 49.3958 76.1764 49.2716 76.1888 49.1844C76.2137 49.1097 76.2262 49.0223 76.2386 48.9476V48.9227L76.1888 48.6488L75.9647 48.5743H75.9273C75.7779 48.5743 75.616 48.574 75.4293 48.6114C75.2176 48.6363 75.0059 48.6613 74.8316 48.6986C74.7071 48.7235 74.5701 48.736 74.4332 48.7485C74.3336 48.7609 74.2339 48.7734 74.1468 48.7734H73.9476L73.8604 49.0598C73.823 49.1594 73.7982 49.2465 73.7733 49.3087L73.7359 49.4084C73.6985 49.4832 73.6612 49.5578 73.6114 49.6449C73.5616 49.7695 73.5118 49.894 73.462 50.0185C73.4246 50.1306 73.3748 50.2552 73.3374 50.3921C73.2752 50.5042 73.2129 50.6163 73.1631 50.7034C73.1258 50.803 73.076 50.9027 73.0511 51.0272C72.9639 51.1517 72.9016 51.2762 72.8643 51.3759C72.8269 51.463 72.7771 51.5875 72.7647 51.6871L72.7398 51.7616C72.7398 51.7616 72.6775 51.8489 72.6651 51.8738L72.5904 51.9486V52.0231C72.5904 52.0231 72.5779 52.1104 72.5281 52.1851C72.5032 52.2224 72.5032 52.2721 72.4908 52.3343C72.4908 52.3717 72.4783 52.3967 72.4783 52.4216L72.3911 52.4714L72.4161 52.5587V52.6581V52.7578C72.3787 52.8699 72.3787 52.9694 72.3911 53.0441L72.4285 53.1439C72.4285 53.1439 72.4659 53.2062 72.4908 53.2186V53.2931L72.6402 53.3928C72.6651 53.3928 72.6775 53.4178 72.69 53.4178C72.7024 53.4178 72.7273 53.4427 72.7522 53.4551L72.8145 53.4925C72.8145 53.5672 72.8145 53.6543 72.7647 53.729C72.7024 53.7913 72.5779 53.8287 72.4161 53.8287V53.8038L72.3164 53.7789C72.2666 53.754 72.2293 53.7415 72.1919 53.729L72.1297 53.6667L71.9055 53.5673V53.505L71.8682 53.4427C71.8682 53.4427 71.8059 53.3554 71.7935 53.318C71.781 53.2433 71.7561 53.1687 71.7437 53.1065C71.7437 53.0442 71.7188 52.9696 71.6939 52.9198C71.6939 52.87 71.6689 52.8325 71.644 52.7952V52.7703C71.6191 52.4465 71.6565 52.1353 71.7437 51.8863C71.8059 51.6995 71.8682 51.5128 71.9304 51.3385L72.0176 51.0892C72.0799 50.9522 72.1421 50.803 72.1919 50.666C72.2417 50.5291 72.2915 50.392 72.3289 50.2551L72.3911 50.1927L72.5405 49.869C72.5779 49.8067 72.6028 49.7196 72.6526 49.6325L72.6775 49.5577C72.6775 49.5577 72.7024 49.5081 72.7024 49.4832L72.8768 49.0473H72.3911C72.3911 49.0473 72.3538 49.0473 72.3414 49.0473C72.3164 49.0473 72.2915 49.0473 72.2666 49.0598C72.2417 49.0598 72.2044 49.0722 72.1795 49.0722H72.0425L71.9678 49.0473L71.8806 49.0847C71.8806 49.0847 71.7935 49.1096 71.7312 49.1096H71.6191C71.4822 49.0847 71.395 49.1096 71.3328 49.1345H70.9468C70.9468 49.1345 70.9094 49.147 70.897 49.1595C70.8596 49.1595 70.8347 49.1595 70.7974 49.1345C70.7724 49.1345 70.76 49.1345 70.7351 49.1096C70.6604 49.0225 70.6106 48.9725 70.5732 48.9351L70.5359 48.898C70.5359 48.898 70.511 48.8357 70.4985 48.7734C70.4985 48.7485 70.4861 48.736 70.4736 48.7111L70.374 48.4497C70.374 48.4497 70.3491 48.3128 70.3491 48.2256C70.3491 48.2256 70.374 48.1633 70.3865 48.1633L70.4114 48.1384V48.1134L70.6728 48.101C70.9094 48.101 71.146 48.101 71.3701 48.0761L72.0923 48.0262L72.5281 47.9764C72.6028 47.9764 72.6775 47.9642 72.7647 47.9517C72.8269 47.9517 72.9017 47.9517 72.9639 47.9268H73.1133L73.1756 47.7772C73.1756 47.7772 73.2005 47.7274 73.2005 47.7025C73.2378 47.7025 73.2628 47.7025 73.2752 47.7149C73.3126 47.7398 73.3375 47.7648 73.3499 47.7772L73.437 47.8769L73.5616 47.852C73.6363 47.852 73.7234 47.8271 73.7981 47.8271C73.8728 47.8271 73.9476 47.8146 74.0347 47.8022C74.1841 47.7773 74.346 47.7523 74.5079 47.7274C74.7445 47.69 74.981 47.6653 75.2176 47.6404C75.5289 47.6031 75.8526 47.5906 76.139 47.6031C76.2137 47.6031 76.276 47.628 76.3258 47.628H76.3507C76.3507 47.628 76.4129 47.7274 76.4503 47.7523C76.4876 47.8146 76.5499 47.852 76.5748 47.8769C76.6371 47.9392 76.7242 48.0138 76.7989 48.1134C76.8238 48.1384 76.8363 48.1758 76.8363 48.2132V48.35C76.8363 48.35 76.8487 48.4248 76.8487 48.4621C76.8487 48.5866 76.9359 48.7735 76.9732 48.8357C76.9857 48.8731 76.9981 48.9227 77.023 48.9725L77.1102 49.1719C77.16 49.284 77.2098 49.3961 77.2596 49.5206C77.297 49.6202 77.3095 49.6949 77.3219 49.7696C77.2596 49.8941 77.2098 50.0558 77.1725 50.2301C77.1351 50.4169 77.1102 50.6036 77.0853 50.7904C77.0853 50.9647 77.0853 51.1392 77.0978 51.3385C77.1227 51.5501 77.16 51.6994 77.2098 51.8364L77.3468 52.1228L77.7203 52.0729C77.9444 52.0106 78.1437 51.9485 78.3055 51.8863C78.4674 51.824 78.6293 51.7494 78.8285 51.6373C78.9904 51.5377 79.1398 51.4256 79.2767 51.2886C79.4386 51.1392 79.5756 51.0021 79.7125 50.8527C79.862 50.6784 79.999 50.4792 80.1235 50.2426C80.248 50.0185 80.3476 49.7818 80.4098 49.5702C80.497 49.3087 80.5468 49.0848 80.5842 48.8731C80.6215 48.6863 80.6464 48.5243 80.6589 48.3624C80.7834 48.2628 80.8456 48.1136 80.8456 47.9268L80.8207 47.7772C80.8207 47.7772 80.8581 47.69 80.883 47.6651C80.9452 47.7024 80.9826 47.7523 81.0324 47.7897L81.2192 47.9764C81.2316 48.1009 81.2565 48.213 81.2939 48.3375C81.3188 48.4122 81.3437 48.4746 81.3686 48.5369C81.3811 48.5743 81.3935 48.6239 81.406 48.6612L81.4308 48.7236C81.4557 48.7983 81.4806 48.8604 81.5056 48.9351C81.5305 48.9974 81.5429 49.0848 81.5554 49.1844L81.4807 49.234Z" fill="#231F20"/>
<path d="M87.0096 53.33C87.0096 53.2677 86.9847 53.1931 86.9473 53.1184C86.9224 53.081 86.8975 53.0436 86.8851 53.0187C86.8104 53.0187 86.7357 52.9938 86.6859 52.9938H86.5862C86.4991 52.9689 86.3995 52.9567 86.3248 52.9442C86.2252 52.9193 86.138 52.9068 86.0384 52.8819C85.9388 52.857 85.8018 52.8195 85.6275 52.7822C85.4407 52.7448 85.2913 52.6949 85.1793 52.6576C85.0547 52.6327 84.9427 52.5706 84.868 52.5332C84.7684 52.4959 84.6687 52.4335 84.5691 52.3712C84.5193 52.3463 84.4695 52.3091 84.4072 52.2718L84.0337 52.0225V51.9854C84.0337 51.9854 83.9964 51.8857 83.9964 51.8359V51.6742L84.1458 51.6118C84.3948 51.5122 84.6812 51.4126 84.9427 51.3255C85.2415 51.2383 85.4905 51.1387 85.7022 51.0391C85.9388 50.9271 86.138 50.79 86.2874 50.6281C86.4368 50.4787 86.5115 50.2795 86.524 50.0305C86.524 49.9931 86.524 49.9931 86.524 49.9931C86.524 49.9557 86.524 49.9432 86.5115 49.9308C86.4866 49.8934 86.4742 49.8313 86.4742 49.7815C86.4742 49.7566 86.4742 49.7441 86.4742 49.7317C86.4368 49.6445 86.387 49.5449 86.3621 49.4453L86.2252 49.0717C86.1878 48.9721 86.138 48.885 86.1006 48.7978C86.0633 48.7231 86.0135 48.6607 85.9512 48.6109L85.8641 48.5239V48.4242C85.8641 48.4242 85.8267 48.3993 85.8018 48.3744C85.7894 48.3619 85.7645 48.337 85.7271 48.3245L85.6275 48.2376C85.5279 48.0881 85.4158 47.976 85.2664 47.8764C85.1294 47.8017 85.0049 47.7146 84.868 47.615C84.6812 47.6399 84.5318 47.7145 84.4072 47.8141C84.2329 47.9635 84.0835 48.1131 83.9465 48.275C83.8096 48.4617 83.6602 48.6484 83.5357 48.8477C83.3738 49.0718 83.187 49.2585 83.0003 49.3955L82.7637 49.5821L82.6641 49.3331C82.6641 49.3331 82.6392 49.3331 82.6143 49.3082C82.6143 49.3082 82.6018 49.3082 82.5894 49.3082C82.552 49.4078 82.5147 49.5074 82.4898 49.6195C82.44 49.7938 82.4026 49.9805 82.3777 50.1673C82.3528 50.242 82.3403 50.3169 82.3279 50.3792C82.303 50.5037 82.2656 50.6282 82.2407 50.7528C82.2034 50.9395 82.1411 51.1387 82.0913 51.2881V51.313C82.0913 51.313 82.0913 51.3751 82.0913 51.4C82.0913 51.4622 82.0913 51.5247 82.0664 51.5869C82.0664 51.6492 82.0415 51.7238 82.0291 51.7736C82.0291 51.7736 82.0291 51.7736 82.0291 51.786C82.0291 51.8732 82.0291 51.9603 82.0291 52.0475C82.0042 52.1471 81.9917 52.2467 81.9419 52.3712C81.917 52.4584 81.8921 52.5455 81.8796 52.6451C81.8547 52.7447 81.8423 52.8321 81.8298 52.9193C81.8298 52.9193 81.8298 52.9439 81.8423 52.9564H82.0415L81.9668 53.243V53.2677C81.9668 53.2677 81.9668 53.2926 81.9668 53.3051C81.9917 53.3549 82.0041 53.4048 82.0041 53.4546C82.0664 53.492 82.1038 53.5541 82.1287 53.6163V53.6413C82.1536 53.6413 82.1785 53.6662 82.2158 53.6787C82.2407 53.6911 82.2781 53.7161 82.3154 53.741L82.3403 53.716C82.4026 53.6413 82.4897 53.6163 82.5769 53.6163C82.6391 53.5167 82.7014 53.4171 82.7512 53.3175C82.8135 53.1307 82.8882 52.9315 82.938 52.7199L83.0376 52.3587L83.6477 52.9068C83.7473 52.994 83.847 53.0686 83.9341 53.1309L83.9964 53.1683C84.0835 53.2181 84.1956 53.2677 84.3076 53.33C84.4446 53.3922 84.6189 53.4672 84.8057 53.5419L84.9053 53.5789C85.4158 53.7657 85.8143 53.9028 86.1131 53.965C86.3995 54.0273 86.6236 54.0273 86.7855 53.965L86.8602 53.9401C86.8602 53.9401 86.91 53.9151 86.9224 53.8902L86.9598 53.8282C86.9598 53.8282 86.9598 53.8157 86.9598 53.8033L86.9349 53.6911L87.0096 53.5914C87.0096 53.5914 87.0345 53.5543 87.0345 53.5294C87.0345 53.4422 87.0345 53.3922 87.0345 53.33H87.0096ZM83.7598 50.7029L83.4485 50.7278L83.4983 50.4415C83.5232 50.2547 83.5855 50.0927 83.6851 49.9557C83.7473 49.8436 83.8221 49.7315 83.9341 49.607L84.2205 49.3207C84.3201 49.2211 84.3823 49.1464 84.4571 49.0468L84.5442 48.8975L84.7061 48.9595C84.8804 49.0093 85.0423 49.1214 85.1917 49.2833C85.3411 49.4451 85.4407 49.6693 85.4656 49.9308L85.4905 50.1053L84.5816 50.4786C84.3076 50.5906 84.0337 50.6656 83.7598 50.7029Z" fill="#231F20"/>
<path d="M92.8487 48.2625C92.7366 48.4243 92.6246 48.524 92.5001 48.5862C92.3009 48.6734 92.1141 48.7231 91.9273 48.7604C91.7654 48.7853 91.6036 48.8227 91.4168 48.8477L91.2425 48.885C91.0184 48.9224 90.7942 48.997 90.5576 49.134C90.4331 49.1091 90.3335 49.134 90.2464 49.1714C90.2339 49.1714 90.1717 49.1963 90.0471 49.1714H89.96L89.8728 49.2459C89.8728 49.2459 89.8355 49.2708 89.823 49.2833L89.3872 49.4328L89.4868 49.6569C89.4868 49.6569 89.5118 49.7192 89.4993 49.7441C89.4993 49.8313 89.4993 49.9308 89.5616 50.018L89.6114 50.1302L89.7483 50.1548C90.0347 50.1797 90.3211 50.1675 90.595 50.1426C90.7942 50.1177 91.0059 50.1053 91.2051 50.1053V50.1426L91.2923 50.1797C91.3047 50.1797 91.3172 50.2047 91.3297 50.2171C91.3546 50.242 91.367 50.2545 91.3919 50.2794C91.4168 50.3043 91.4417 50.3293 91.4666 50.3542C91.4915 50.3791 91.5164 50.4166 91.5538 50.4415C91.616 50.5037 91.6908 50.5534 91.753 50.5907C91.7904 50.6156 91.8277 50.6281 91.8775 50.6406V50.6655V50.678C91.7904 50.7402 91.7032 50.8024 91.616 50.8646C91.5164 50.9393 91.3919 51.0018 91.2799 51.064C91.1927 51.1138 91.0806 51.1635 90.9436 51.2008C90.8191 51.2382 90.6946 51.2507 90.5701 51.2382H90.5203L90.4207 51.1634L90.2962 51.2382C90.2962 51.2382 90.2713 51.2507 90.209 51.2382C90.1094 51.2258 90.0098 51.2382 89.9227 51.2507C89.8479 51.2258 89.7608 51.2133 89.6487 51.2133C89.5616 51.2133 89.4868 51.2133 89.4495 51.1884L89.3001 51.1385L89.188 51.2756C89.0635 51.4499 88.9639 51.6117 88.8643 51.7611C88.7771 51.9229 88.7024 52.1224 88.6152 52.3216L88.5032 52.5955L88.802 52.6329C89.0635 52.6703 89.2752 52.6825 89.437 52.67C89.5989 52.67 89.7608 52.6454 89.8977 52.6329L90.3335 52.5706C90.4705 52.5582 90.6448 52.5581 90.8192 52.5457L90.9063 52.5706L90.9686 52.5332C91.0806 52.471 91.2176 52.4335 91.3794 52.4086C91.5413 52.3961 91.6907 52.359 91.8401 52.3216V52.3463C91.8401 52.3463 91.9273 52.4335 91.9647 52.4709C92.0145 52.5332 92.0643 52.5831 92.1016 52.608C92.1515 52.6578 92.2137 52.6825 92.2635 52.6949V52.7448C92.2884 52.7946 92.3009 52.8321 92.3258 52.8694C92.2635 52.969 92.1888 53.0686 92.1141 53.1558C91.9896 53.2554 91.865 53.3425 91.7281 53.3798C91.5787 53.4296 91.4044 53.4796 91.1927 53.5169C91.0931 53.5418 90.981 53.554 90.8689 53.5789C90.7444 53.6038 90.6075 53.6288 90.4705 53.6537C90.4456 53.6537 90.4456 53.6537 90.4456 53.6537C90.3833 53.6288 90.3211 53.6163 90.1717 53.6288H90.1094C89.9725 53.6661 89.8106 53.6911 89.6238 53.716C89.4121 53.7409 89.2005 53.7534 88.9763 53.741C88.7896 53.741 88.6028 53.716 88.3662 53.6662C88.2044 53.6288 88.0549 53.5417 87.9304 53.4297C87.9304 53.4297 87.9055 53.4047 87.9055 53.3674C87.8682 53.2802 87.8183 53.2056 87.7561 53.1433C87.7561 53.0811 87.7312 53.0064 87.7187 52.9193C87.6938 52.8197 87.6814 52.7076 87.6565 52.5706C87.6316 52.4585 87.6191 52.3589 87.6191 52.2344C87.6191 52.1348 87.6191 52.0477 87.6191 51.973C87.6191 51.9107 87.6565 51.8483 87.7063 51.786C87.7686 51.6988 87.8183 51.6117 87.8308 51.5246H87.9055L87.9678 51.3629C88.0051 51.2383 88.0549 51.1263 88.0923 51.0266C88.1172 50.9768 88.1421 50.9269 88.1794 50.8646C88.2043 50.8148 88.2293 50.7652 88.2542 50.7154C88.304 50.6157 88.3662 50.5037 88.416 50.3916C88.4534 50.3045 88.4908 50.2173 88.5281 50.1177L88.6277 49.8684L88.5032 49.7441C88.4409 49.6943 88.3787 49.6194 88.3538 49.5322C88.3164 49.4451 88.2915 49.3455 88.2666 49.2583C88.2417 49.1587 88.2293 49.0467 88.2168 48.9346C88.2044 48.8474 88.1919 48.7479 88.167 48.6607C88.2044 48.6109 88.2541 48.5737 88.304 48.5488C88.3787 48.4866 88.4783 48.4491 88.5655 48.4117C88.6775 48.3744 88.802 48.3494 88.9265 48.312C89.0261 48.2871 89.1257 48.2749 89.2378 48.25L89.3872 48.2126C89.6736 48.113 89.9227 48.0506 90.1219 48.0132C90.3336 47.9634 90.5452 47.9262 90.7569 47.8889L90.8939 47.8639C91.0557 47.839 91.2425 47.8265 91.4044 47.7892C91.616 47.7767 91.8775 47.7268 92.1016 47.6895C92.1764 47.7393 92.2635 47.7642 92.3631 47.7642H92.4379C92.4379 47.7642 92.5623 47.864 92.6121 47.9138C92.6993 47.9761 92.7865 48.0257 92.8736 48.0755C92.8736 48.1129 92.8736 48.1379 92.8736 48.1752C92.8736 48.2001 92.8736 48.2126 92.8736 48.2375L92.8487 48.2625Z" fill="#231F20"/>
<path d="M103.644 48.1132C103.582 47.8517 103.495 47.6275 103.383 47.4034C103.283 47.1793 103.159 46.9676 103.034 46.7808C102.86 46.6314 102.661 46.5193 102.424 46.4446C102.212 46.3699 101.951 46.3078 101.652 46.258C101.64 46.258 101.615 46.2829 101.602 46.2954C101.565 46.3203 101.49 46.3452 101.378 46.3078C101.154 46.2456 100.868 46.2331 100.469 46.3078C100.32 46.3452 100.17 46.3948 100.034 46.4571C99.909 46.5193 99.7969 46.5818 99.7222 46.644L99.6848 46.669C99.5603 46.7188 99.4608 46.7934 99.3363 46.893C99.2117 47.0175 99.1246 47.1296 99.0374 47.2666C98.9503 47.4036 98.8631 47.5528 98.7759 47.7271C98.7012 47.8766 98.639 48.0386 98.5767 48.2129C98.5767 48.3374 98.5394 48.462 98.4896 48.5741C98.4273 48.6986 98.3401 48.8103 98.2031 48.91L98.1783 48.9349C98.1783 48.9349 98.0537 49.0097 97.9666 48.9972C97.9666 48.9972 97.9292 49.0471 97.9168 49.072C97.8794 49.1218 97.8545 49.1714 97.8171 49.2212L97.7798 49.2836C97.73 49.3707 97.6802 49.4454 97.6304 49.545C97.5682 49.6571 97.5308 49.7567 97.5059 49.8687C97.481 49.9933 97.481 50.1178 97.5059 50.2174L97.5557 50.5162H97.4685C97.4685 50.5162 97.481 50.5537 97.4935 50.5786C97.4935 50.6284 97.5183 50.6658 97.5432 50.7032L97.7923 50.9522L97.6927 50.9895C97.6927 50.9895 97.73 51.1015 97.7424 51.1637C97.7673 51.3256 97.7674 51.4998 97.7176 51.7115C97.6927 51.8734 97.6428 52.0604 97.6055 52.2471C97.5681 52.3841 97.5557 52.4962 97.5682 52.6208L97.593 52.77L97.6802 52.8573L97.4561 53.019L97.4312 53.0439C97.4436 53.1062 97.4685 53.1561 97.5059 53.2059C97.5432 53.2433 97.5681 53.3054 97.6055 53.3552C97.6304 53.3925 97.6553 53.43 97.6802 53.4674C97.7175 53.5296 97.7549 53.6042 97.7674 53.6789C97.7923 53.6789 97.8296 53.7039 97.8545 53.7163C97.8794 53.7163 97.9168 53.7413 97.9417 53.7537C98.0413 53.7288 98.1534 53.7038 98.253 53.6789C98.3775 53.654 98.502 53.6291 98.614 53.6291C98.6888 53.5046 98.7635 53.3678 98.8133 53.2184C98.8756 53.0565 98.9254 52.8573 98.9752 52.6208C99.0125 52.4464 99.025 52.2469 99.0374 52.0228C99.0374 51.8236 99.0374 51.612 99.0374 51.4501V51.251L99.2242 51.2136C99.6101 51.1264 100.033 51.0393 100.469 50.9646C100.893 50.8899 101.304 50.7903 101.69 50.6783C102.088 50.5537 102.449 50.4042 102.773 50.2299C103.072 50.068 103.346 49.8563 103.57 49.5824C103.657 49.3334 103.707 49.097 103.719 48.8479C103.719 48.5865 103.694 48.3373 103.632 48.1132H103.644ZM102.499 48.6361C102.399 48.7357 102.275 48.8231 102.15 48.8729C102.063 48.9102 101.951 48.9474 101.851 48.9847L101.465 49.1094C101.353 49.1343 101.254 49.1717 101.167 49.2091C101.042 49.2713 100.918 49.3085 100.83 49.3334C100.718 49.3583 100.619 49.3708 100.532 49.3833C100.42 49.3833 100.345 49.4082 100.245 49.4331C100.158 49.458 100.083 49.483 99.9961 49.5204L99.7472 49.6447L99.6848 49.4207C99.5852 49.3584 99.523 49.2713 99.4981 49.1842L99.4607 49.1218L99.4981 49.0221C99.4981 49.0221 99.5355 48.9473 99.5479 48.9224C99.5604 48.8975 99.5728 48.8729 99.5853 48.8604C99.6102 48.8231 99.6102 48.7981 99.6226 48.7732C99.6351 48.7483 99.6475 48.7108 99.66 48.6859C99.66 48.661 99.6849 48.6114 99.6973 48.5616C99.7098 48.4993 99.7347 48.4369 99.7596 48.3622L99.7845 48.3248L99.8219 48.2752C100.021 48.0885 100.258 47.9639 100.532 47.9016C100.781 47.8518 101.03 47.8269 101.279 47.8518C101.54 47.8767 101.764 47.9139 101.976 48.001C102.188 48.0757 102.362 48.1753 102.486 48.2874L102.673 48.4494L102.511 48.6236L102.499 48.6361Z" fill="#231F20"/>
<path d="M109.384 51.2381C109.334 51.3128 109.26 51.3999 109.172 51.4746C109.048 51.5742 108.923 51.6613 108.786 51.7236L108.637 51.7984L108.662 51.9978C108.662 51.9978 108.662 52.0474 108.662 52.0598C108.662 52.1221 108.674 52.172 108.687 52.2094C108.712 52.3214 108.724 52.446 108.737 52.5705C108.737 52.6701 108.737 52.7697 108.737 52.8693V52.8943C108.699 52.9814 108.65 53.081 108.575 53.2055C108.5 53.3176 108.413 53.4047 108.326 53.4794C108.239 53.5542 108.139 53.6287 108.014 53.6786C107.915 53.7284 107.815 53.7533 107.716 53.7658C107.678 53.7658 107.653 53.7409 107.653 53.7409L107.616 53.7159C107.616 53.7159 107.579 53.691 107.566 53.6786L107.467 53.6162C107.479 53.5166 107.467 53.4295 107.417 53.3423C107.367 53.2801 107.317 53.218 107.255 53.1806L107.218 53.1432C107.404 53.081 107.529 52.9939 107.604 52.8943C107.703 52.7698 107.741 52.6077 107.728 52.3462L107.703 52.1845L107.541 52.1471C107.342 52.1097 107.205 52.1097 107.093 52.1471C106.993 52.172 106.894 52.1969 106.782 52.2218H106.744C106.632 52.2592 106.533 52.2842 106.421 52.3091C106.284 52.334 106.085 52.3462 105.923 52.3462C105.898 52.3462 105.873 52.3462 105.848 52.3462H105.823C105.823 52.3462 105.786 52.2592 105.748 52.2468L105.723 52.2218C105.723 52.2218 105.674 52.1595 105.649 52.1346C105.649 52.1346 105.649 52.1221 105.649 52.0723L105.674 51.9853L105.636 51.9106C105.636 51.9106 105.599 51.8233 105.599 51.8108L105.562 51.4622L105.723 51.4372C105.723 51.4372 105.798 51.4372 105.835 51.4372C105.873 51.4372 105.923 51.4372 105.96 51.4372C106.047 51.4372 106.134 51.4248 106.209 51.4123C106.321 51.4123 106.421 51.4001 106.52 51.3877C106.682 51.3628 106.869 51.3378 107.056 51.3005L107.355 51.2381L107.305 51.0141C107.267 50.8024 107.205 50.5907 107.143 50.3541C107.093 50.13 107.031 49.8934 106.969 49.6817L106.832 49.1464L106.52 49.6817C106.383 49.8187 106.259 49.9804 106.097 50.1921C105.96 50.3789 105.848 50.5534 105.761 50.7153L105.636 50.9019C105.636 50.9019 105.562 51.0017 105.537 51.0639V51.039L105.176 51.7361C105.138 51.8232 105.088 51.9231 105.076 51.9978L105.014 52.0224C105.014 52.0224 104.914 52.0973 104.877 52.2094C104.877 52.2467 104.864 52.2717 104.864 52.2966L104.839 52.3836C104.839 52.3836 104.815 52.4085 104.79 52.4459L104.752 52.5331C104.752 52.5331 104.715 52.6575 104.702 52.7073C104.69 52.7696 104.665 52.8195 104.64 52.8693C104.603 52.944 104.578 53.0311 104.553 53.1058V53.1557C104.516 53.2553 104.503 53.3424 104.503 53.4421V53.467C104.503 53.467 104.466 53.4919 104.441 53.5044C104.416 53.5168 104.404 53.5293 104.379 53.5418L104.316 53.5788C104.316 53.5788 104.254 53.6038 104.229 53.6162L104.142 53.6661L104.117 53.7284L104.03 53.7533C104.03 53.7533 103.98 53.7534 103.943 53.7783H103.893C103.893 53.7783 103.856 53.7409 103.843 53.7409C103.818 53.716 103.794 53.7035 103.781 53.691C103.744 53.6537 103.694 53.6162 103.632 53.5788C103.607 53.5415 103.594 53.5168 103.594 53.5168V53.4794C103.594 53.4794 103.582 53.4171 103.557 53.3548V53.305C103.557 53.305 103.52 53.2055 103.495 53.1557L103.52 52.9192C103.669 52.5456 103.806 52.2219 103.943 51.9479C104.018 51.7861 104.105 51.624 104.18 51.4622C104.267 51.2879 104.341 51.1261 104.428 50.9518L104.74 50.2918L104.802 50.1921L104.777 50.1426L104.752 50.1176C104.814 50.018 104.877 49.9184 104.939 49.7939C104.964 49.7441 104.989 49.6941 105.014 49.6443C105.039 49.5945 105.064 49.5449 105.101 49.4826C105.138 49.4079 105.176 49.333 105.213 49.2583L105.275 49.1464C105.313 49.0592 105.375 48.9721 105.437 48.8725L105.549 48.8351C105.549 48.8351 105.574 48.8351 105.611 48.8102L105.811 48.8351L105.873 48.7977C106.109 48.6856 106.309 48.5361 106.458 48.3618C106.595 48.2124 106.745 48.0132 106.906 47.7766C106.944 47.8015 107.006 47.814 107.068 47.8389C107.131 47.8514 107.193 47.8763 107.267 47.9012C107.392 47.9261 107.504 47.9508 107.604 47.9882C107.666 48.0131 107.716 48.0381 107.753 48.063C107.79 48.1626 107.79 48.1876 107.79 48.2125C107.79 48.2748 107.815 48.3494 107.828 48.3867L107.878 48.7354C107.902 48.8475 107.902 48.9845 107.915 49.1713C107.952 49.2709 107.977 49.383 108.002 49.5075C108.015 49.5698 108.027 49.6194 108.039 49.6692C108.039 49.7315 108.064 49.7936 108.077 49.8434V49.9182C108.127 50.0676 108.151 50.1923 108.176 50.3417C108.214 50.5035 108.264 50.6653 108.326 50.8147L108.376 50.9642H108.562L108.625 51.0016L108.786 50.9518C108.786 50.9518 108.824 50.9393 108.836 50.9268C108.886 51.014 108.961 51.0512 109.036 51.0886L109.11 51.1135H109.197C109.235 51.1384 109.26 51.1509 109.272 51.1758H109.285C109.285 51.1758 109.334 51.2382 109.372 51.2631L109.384 51.2381Z" fill="#231F20"/>
<path d="M115.224 53.5169C115.224 53.5169 115.224 53.4047 115.224 53.3424C115.224 53.2677 115.199 53.2056 115.162 53.1433C115.137 53.0935 115.112 53.0561 115.087 53.0436C115.012 53.0436 114.95 53.0187 114.888 53.0187H114.801C114.713 52.9938 114.614 52.9813 114.527 52.9688L114.44 52.9442C114.44 52.9442 114.303 52.9193 114.24 52.8944H114.203C114.103 52.857 113.979 52.832 113.829 52.7947C113.63 52.7449 113.493 52.7074 113.381 52.67C113.269 52.6451 113.157 52.5955 113.07 52.5457C112.983 52.5083 112.883 52.4459 112.771 52.3837L112.261 52.0475V52.0104C112.261 52.0104 112.198 51.9106 112.198 51.8483V51.6866L112.348 51.6243C112.559 51.5247 112.821 51.4376 113.132 51.3379C113.431 51.2508 113.68 51.1512 113.904 51.0516C114.141 50.9271 114.327 50.8025 114.477 50.6406C114.626 50.4912 114.701 50.292 114.713 50.0305C114.713 50.0056 114.713 49.9931 114.713 49.9806C114.713 49.9557 114.701 49.9432 114.689 49.9183C114.664 49.8561 114.664 49.8064 114.664 49.7691C114.664 49.7442 114.664 49.7316 114.664 49.7067C114.639 49.6569 114.614 49.607 114.589 49.5447L114.539 49.4453L114.415 49.0842C114.377 48.9721 114.327 48.8725 114.29 48.7853C114.253 48.7106 114.203 48.636 114.141 48.5862L114.066 48.5115V48.4117C114.066 48.4117 114.029 48.3868 114.004 48.3619C113.979 48.3494 113.966 48.3245 113.929 48.3245L113.842 48.2625V48.2376C113.742 48.1006 113.63 47.9885 113.468 47.8764C113.344 47.8017 113.207 47.7146 113.07 47.615C112.883 47.6399 112.721 47.7145 112.609 47.8141C112.447 47.9511 112.298 48.0879 112.148 48.2871C111.999 48.4739 111.862 48.6734 111.725 48.8601C111.576 49.0718 111.401 49.2585 111.202 49.4079L110.953 49.5946L110.854 49.3456C110.854 49.3456 110.829 49.3331 110.804 49.3207C110.804 49.3207 110.779 49.3207 110.766 49.3207C110.729 49.4203 110.692 49.5199 110.679 49.632C110.629 49.8187 110.592 50.0054 110.555 50.1797C110.517 50.3665 110.468 50.566 110.43 50.7528C110.38 50.9644 110.331 51.1387 110.268 51.2881C110.268 51.3254 110.268 51.3626 110.268 51.4C110.268 51.4622 110.268 51.5247 110.268 51.5869C110.268 51.6492 110.243 51.6988 110.219 51.7486C110.219 51.7611 110.218 51.7736 110.206 51.786C110.231 51.8732 110.218 51.9478 110.206 52.035V52.0848C110.169 52.172 110.144 52.2591 110.119 52.3463C110.082 52.4459 110.057 52.5333 110.044 52.6329L110.019 52.7448C110.019 52.7448 109.994 52.857 109.994 52.9068V52.9318H110.007H110.219L110.131 53.2306C110.131 53.2306 110.131 53.2306 110.131 53.243L110.156 53.3424C110.156 53.3424 110.181 53.4048 110.181 53.4422C110.256 53.4795 110.293 53.5541 110.306 53.6039V53.6288C110.331 53.6413 110.368 53.6537 110.38 53.6662C110.405 53.6662 110.443 53.6911 110.48 53.716L110.505 53.6911C110.58 53.6164 110.667 53.5914 110.741 53.5914C110.816 53.4918 110.866 53.3922 110.903 53.3051C110.966 53.1681 111.028 52.9689 111.103 52.6949L111.19 52.3338L111.812 52.8819C111.887 52.9442 111.987 53.0312 112.099 53.1059C112.211 53.1682 112.348 53.2428 112.485 53.3051C112.634 53.3922 112.833 53.4672 113.082 53.5543C113.568 53.7411 113.979 53.8778 114.29 53.9401C114.577 54.0023 114.801 54.0023 114.975 53.9401L115.05 53.9152C115.05 53.9152 115.087 53.878 115.112 53.8531L115.149 53.8033L115.112 53.6662L115.212 53.5668V53.5045L115.224 53.5169ZM111.962 50.7029L111.65 50.7278L111.7 50.4415C111.738 50.2547 111.8 50.1051 111.875 49.9682C111.949 49.8312 112.036 49.7191 112.136 49.6195L112.236 49.5201C112.298 49.4578 112.36 49.3954 112.422 49.3331C112.522 49.2335 112.584 49.1589 112.647 49.0717L112.746 48.9221L112.908 48.9845C113.07 49.0343 113.232 49.1463 113.381 49.3082C113.531 49.4576 113.63 49.6693 113.668 49.9432L113.692 50.1302L112.783 50.5035C112.497 50.6156 112.223 50.6905 111.962 50.7278V50.7029Z" fill="#231F20"/>
<path d="M122.346 52.4956C122.321 52.6574 122.259 52.8069 122.172 52.9066C122.047 53.0435 121.898 53.1556 121.711 53.2428C121.45 53.2428 121.151 53.2552 120.902 53.2303C120.665 53.2054 120.454 53.143 120.267 53.0558C120.242 53.0309 120.242 53.0184 120.23 52.9935L120.205 52.9686L120.155 52.9439C120.08 52.8941 119.981 52.8816 119.881 52.8941C119.856 52.8941 119.844 52.8941 119.831 52.8941C119.831 52.8941 119.707 52.8193 119.619 52.757C119.495 52.6823 119.395 52.6077 119.308 52.5454L119.271 52.508C119.159 52.4209 119.059 52.3462 118.96 52.2591C118.835 52.147 118.76 52.0599 118.686 51.9727C118.623 51.898 118.536 51.8481 118.437 51.8356L118.325 51.7733L118.2 51.8481C117.988 51.985 117.789 52.1593 117.627 52.3834C117.49 52.5577 117.366 52.7569 117.216 52.9686C117.079 53.1802 116.955 53.3548 116.83 53.5042C116.731 53.6412 116.594 53.7408 116.444 53.8155C116.432 53.8155 116.419 53.8155 116.419 53.8155C116.419 53.8155 116.357 53.7781 116.32 53.7532C116.295 53.7532 116.282 53.7282 116.258 53.7158C116.233 53.6909 116.208 53.6784 116.195 53.6659C116.183 53.6659 116.158 53.641 116.146 53.641C116.146 53.5787 116.121 53.5166 116.096 53.4793C116.071 53.3921 116.033 53.3296 115.996 53.2674C115.971 53.23 115.959 53.1804 115.959 53.1431L116.083 52.981L115.934 52.8567C115.934 52.8567 115.897 52.8068 115.859 52.7819V52.7445C115.859 52.7445 115.834 52.6326 115.822 52.5953L116.108 52.508L115.934 52.284L115.959 52.2591V52.1344C115.996 51.7733 116.058 51.487 116.133 51.238C116.233 50.9267 116.332 50.6529 116.419 50.4163C116.544 50.1299 116.656 49.8309 116.756 49.5818C116.855 49.3328 116.942 49.0465 117.017 48.7103C117.092 48.6356 117.154 48.536 117.204 48.4239C117.241 48.3243 117.291 48.2247 117.341 48.1127C117.378 48.0255 117.44 47.9259 117.503 47.8388C117.54 47.7765 117.59 47.739 117.64 47.7017C117.677 47.7017 117.702 47.7266 117.739 47.7391C117.814 47.7889 117.901 47.8138 118.001 47.8263C118.026 47.8761 118.063 47.9136 118.088 47.9509L118.175 48.0628L118.349 48.0254C118.349 48.0254 118.399 48.1002 118.424 48.1376C118.462 48.1998 118.499 48.2869 118.511 48.3616C118.524 48.4363 118.524 48.4863 118.511 48.5486C118.511 48.561 118.499 48.5982 118.424 48.6355L118.275 48.7228L118.312 48.8723V48.8972C118.312 48.8972 118.287 48.9593 118.287 49.0091C118.175 49.1212 118.088 49.2583 118.013 49.445C117.939 49.6443 117.901 49.831 117.889 50.0178L117.851 50.6154L118.275 50.1919C118.349 50.1048 118.437 50.0301 118.536 49.9554C118.598 49.9056 118.661 49.856 118.735 49.8062L118.847 49.7189C118.847 49.7189 118.947 49.6441 119.009 49.6068C119.059 49.5694 119.109 49.5322 119.171 49.4949C119.271 49.4202 119.37 49.3453 119.47 49.2705C119.682 49.0838 119.906 48.9221 120.093 48.7975C120.304 48.673 120.516 48.536 120.74 48.3865C120.765 48.3865 120.777 48.399 120.802 48.4115L121.126 48.5361V48.175H121.151L121.201 48.15C121.201 48.15 121.263 48.1251 121.288 48.1002C121.313 48.1251 121.325 48.1501 121.35 48.175C121.425 48.2621 121.512 48.3118 121.599 48.3367C121.637 48.3989 121.686 48.4489 121.736 48.4863C121.798 48.5361 121.836 48.5732 121.886 48.6106C121.91 48.6355 121.948 48.6605 121.973 48.6978C121.973 48.6978 121.973 48.6979 121.985 48.7352L121.923 48.8349C121.923 48.8349 121.873 48.9344 121.848 48.9967C121.724 49.1087 121.612 49.1959 121.487 49.283C121.35 49.3826 121.201 49.4697 121.064 49.5569C120.914 49.6441 120.765 49.7439 120.616 49.8311C120.429 49.9307 120.267 50.0425 120.13 50.167L120.068 50.2169C120.068 50.2169 120.03 50.2667 119.993 50.2916C119.968 50.3165 119.931 50.3291 119.906 50.354C119.881 50.3789 119.856 50.3914 119.831 50.4038C119.769 50.4412 119.719 50.4908 119.657 50.5406C119.619 50.578 119.57 50.6154 119.545 50.6528C119.52 50.6528 119.507 50.6528 119.482 50.6777H119.408L119.358 50.7771V50.802C119.246 50.8643 119.171 50.9517 119.159 51.0513L119.134 51.1133L119.159 51.2006C119.283 51.4496 119.445 51.6613 119.644 51.8107C119.831 51.9352 120.055 52.0348 120.292 52.097C120.541 52.1593 120.777 52.1967 121.026 52.1967C121.275 52.1967 121.537 52.1967 121.848 52.1967C121.873 52.1967 121.898 52.1843 121.911 52.1718C121.985 52.2092 122.048 52.2466 122.085 52.2965C122.16 52.3836 122.247 52.4583 122.346 52.5454V52.4956Z" fill="#231F20"/>
<path d="M64.41 47.4778C64.3727 47.54 64.3602 47.6146 64.3478 47.6769C64.3353 47.7142 64.3229 47.7642 64.3104 47.8015C64.298 47.8389 64.2855 47.8888 64.2731 47.9262C64.2731 47.9262 64.2357 48.0381 64.1984 48.1003C64.1735 48.1377 64.1361 48.1752 64.0987 48.2001L63.9991 48.2624V48.3618C63.9742 48.561 63.9493 48.7477 63.8995 48.922C63.8746 49.0092 63.8622 49.0966 63.8373 49.1838C63.8124 49.2709 63.7999 49.3705 63.775 49.4452C63.7377 49.632 63.7127 49.8062 63.6878 49.993C63.6505 50.1798 63.638 50.3914 63.6505 50.6156C63.5882 50.8023 63.526 50.989 63.4513 51.1883C63.3766 51.3875 63.3267 51.5742 63.2894 51.7361C63.1649 51.8357 63.0653 51.9727 62.9781 52.147C62.9283 52.2591 62.8785 52.3587 62.8162 52.4708L62.5174 52.4334L62.5548 52.6824C62.5548 52.6824 62.5049 52.7697 62.5049 52.8444C62.4178 52.8942 62.3555 52.9563 62.2808 53.0186C62.1812 53.1182 62.0941 53.1807 62.0069 53.2554C61.9322 53.3052 61.845 53.3424 61.733 53.3673C61.6334 53.3673 61.484 53.3547 61.3221 53.2925C61.0108 53.0559 60.712 52.7821 60.4629 52.4833C60.2139 52.1844 60.0022 51.8107 59.8528 51.3998L59.7781 51.2007L59.5664 51.2506C59.4419 51.2879 59.3423 51.3751 59.2676 51.512C59.2303 51.5867 59.1929 51.6738 59.168 51.761C59.1431 51.8108 59.1306 51.8607 59.1057 51.9105H58.9812L58.9439 52.0972C58.9439 52.0972 58.919 52.1595 58.9065 52.1844L58.8069 52.3462C58.7446 52.4333 58.7197 52.5083 58.6948 52.583C58.6699 52.6577 58.6699 52.7323 58.6948 52.7945C58.645 52.8693 58.6201 52.9563 58.6077 53.031C58.6077 53.056 58.5952 53.0934 58.5828 53.1183C58.5828 53.1681 58.5703 53.2177 58.5454 53.2676C58.533 53.3174 58.5081 53.3548 58.5081 53.3797C58.5081 53.3797 58.4707 53.3922 58.4085 53.3922L58.2839 53.3673L58.1843 53.4919C58.1843 53.4919 58.1594 53.5293 58.147 53.5542C58.1221 53.5542 58.0972 53.5788 58.0723 53.5913C58.0723 53.5913 58.0723 53.5913 58.0474 53.5913C57.9602 53.5539 57.8855 53.4918 57.8233 53.4171C57.7361 53.3051 57.6365 53.1805 57.5742 53.031C57.4995 52.8816 57.4372 52.7324 57.375 52.5954C57.3501 52.5456 57.3376 52.4957 57.3127 52.4459H57.4497L57.2878 52.1097C57.2878 52.1097 57.2505 51.9977 57.2256 51.9355C57.2131 51.8608 57.1882 51.7983 57.1633 51.7485C57.3501 51.3501 57.5493 50.9392 57.761 50.5158C57.873 50.2668 57.9975 50.018 58.1096 49.7689C58.2217 49.5448 58.3337 49.3082 58.4334 49.0841C58.6824 48.5985 58.9065 48.1129 59.1431 47.6149C59.3299 47.2413 59.4917 46.8676 59.666 46.4941L59.7283 46.3573C59.8404 46.4071 59.9649 46.4567 60.0769 46.5065C60.2637 46.6061 60.4131 46.7058 60.5376 46.8178C60.6746 46.9299 60.7867 47.0545 60.8863 47.1914C60.9485 47.3035 60.9983 47.4156 61.0357 47.5152C61.0108 47.5401 60.9983 47.5526 60.9859 47.5775L60.9236 47.7018L60.7369 47.6273L60.9236 48.1128C60.9485 48.1875 60.9485 48.2125 60.9485 48.225C60.9485 48.2499 60.9361 48.2621 60.8987 48.3119C60.8738 48.3742 60.8365 48.4366 60.824 48.4989C60.824 48.5238 60.8116 48.5609 60.7991 48.6107L60.6123 48.5612L60.6497 48.8974C60.6746 49.0966 60.6746 49.2584 60.6622 49.4203V49.9805C60.6373 50.1797 60.6373 50.379 60.6497 50.5906C60.6497 50.8272 60.6871 51.0389 60.7369 51.263L60.7991 51.5619L61.0855 51.4123C61.4341 51.2131 61.6956 50.9642 61.8948 50.6654C62.0941 50.3666 62.2435 50.0303 62.3555 49.6692C62.4676 49.3081 62.5547 48.9347 62.617 48.5363C62.6544 48.225 62.7166 47.9012 62.7665 47.5775L62.7913 47.4155C62.866 47.3283 62.9283 47.2287 62.9781 47.1042C63.0155 46.9921 63.0653 46.88 63.1026 46.743L63.1898 46.3822C63.1898 46.3822 63.2147 46.2949 63.2271 46.2576C63.2521 46.2576 63.2645 46.2825 63.2894 46.2825C63.3765 46.3323 63.4388 46.3944 63.5135 46.4567C63.5509 46.494 63.6007 46.5315 63.638 46.5689C63.6754 46.6062 63.7252 46.6437 63.7625 46.681C63.8497 46.7433 63.9618 46.7929 64.0738 46.8178C64.0987 46.8552 64.1361 46.9051 64.161 46.9425C64.1984 47.0172 64.2481 47.0793 64.2979 47.1416C64.3478 47.2163 64.3851 47.3034 64.41 47.403V47.4778Z" fill="#231F20"/>
<path d="M70.3243 51.2384C70.2621 51.3255 70.1873 51.4126 70.1251 51.4749C70.0006 51.5745 69.8761 51.6616 69.7391 51.7238L69.5897 51.7986L69.6146 51.9731C69.6146 51.9731 69.6146 52.0102 69.6146 52.0227C69.6146 52.0476 69.6146 52.0725 69.6146 52.0725C69.6146 52.1099 69.6146 52.1723 69.6395 52.2345C69.6644 52.3341 69.6769 52.4587 69.6893 52.5707C69.6893 52.6704 69.6893 52.77 69.6893 52.8696V52.8945C69.652 52.9817 69.5897 53.0813 69.5274 53.2058C69.4527 53.3054 69.378 53.405 69.2784 53.4921C69.2037 53.5544 69.0916 53.6414 68.9671 53.6912C68.8675 53.7411 68.7679 53.766 68.6683 53.7785C68.6309 53.7785 68.606 53.7536 68.5936 53.7536C68.5936 53.7536 68.5687 53.7286 68.5562 53.7162C68.5438 53.7162 68.5313 53.6912 68.5189 53.6912L68.4192 53.6289C68.4192 53.5293 68.4193 53.4422 68.357 53.355C68.3072 53.2928 68.2574 53.2307 68.2076 53.1933L68.1702 53.1559C68.357 53.0937 68.4815 53.0066 68.5562 52.907C68.6558 52.7824 68.6932 52.6079 68.6808 52.3713V52.1971L68.494 52.1598C68.3072 52.1224 68.1702 52.1224 68.0582 52.1598C67.9586 52.1847 67.859 52.2096 67.7469 52.2345H67.7095C67.6099 52.2719 67.5103 52.2969 67.3858 52.3218C67.2488 52.3467 67.0621 52.3589 66.8878 52.3589C66.8628 52.3589 66.8255 52.3589 66.8006 52.3589H66.7757C66.7757 52.3589 66.7383 52.2719 66.7009 52.2595L66.6761 52.2345C66.6761 52.2345 66.6138 52.1722 66.6014 52.1473C66.6014 52.1473 66.5889 52.1223 66.6014 52.085V51.998L66.5765 51.9233C66.5516 51.8734 66.5391 51.836 66.5391 51.8235L66.5018 51.4873L66.6761 51.4624C66.6761 51.4624 66.7508 51.4624 66.7881 51.4624C66.8255 51.4624 66.8753 51.4624 66.9126 51.4624C66.9998 51.4624 67.087 51.4499 67.1617 51.4375C67.2737 51.4375 67.3734 51.425 67.473 51.4125C67.6099 51.4001 67.7593 51.3754 67.9212 51.3505L68.2948 51.2633L68.2325 51.0268C68.2076 50.9272 68.1951 50.84 68.1702 50.7404C68.1453 50.6284 68.108 50.5038 68.0831 50.3793C68.0333 50.1552 67.9586 49.9185 67.8963 49.6944L67.7469 49.1715L67.4356 49.7193C67.3111 49.8438 67.1741 50.0056 67.0247 50.2173C66.8877 50.404 66.7757 50.5786 66.6885 50.7404L66.564 50.9271C66.564 50.9271 66.4768 51.0515 66.4395 51.1137V51.0642L66.0908 51.7488C66.041 51.8484 66.0037 51.9355 65.9912 52.0227L65.929 52.0476C65.929 52.0476 65.8294 52.1225 65.8045 52.2221C65.792 52.2594 65.792 52.2844 65.792 52.3093L65.7671 52.3963C65.7671 52.3963 65.7422 52.4212 65.7297 52.4336L65.6675 52.5209V52.5458C65.6675 52.5458 65.6301 52.6577 65.6177 52.7075C65.6052 52.7698 65.5928 52.8198 65.5554 52.8696C65.5305 52.9567 65.4932 53.0314 65.4683 53.1185V53.1559C65.4309 53.2431 65.4185 53.3427 65.4185 53.4423V53.4672C65.4185 53.4672 65.3936 53.4921 65.3687 53.5046C65.3438 53.5171 65.3189 53.5295 65.294 53.542L65.2068 53.5915C65.2068 53.5915 65.1694 53.6165 65.1445 53.6165L65.0574 53.6663L65.0325 53.7286L64.9453 53.7536C64.9453 53.7536 64.8831 53.7536 64.8582 53.7785H64.8084C64.8084 53.7785 64.771 53.7411 64.7585 53.7411C64.7336 53.7162 64.7087 53.7037 64.6963 53.6912C64.6589 53.6539 64.6092 53.6164 64.5593 53.5791C64.5344 53.5417 64.522 53.5171 64.522 53.5171V53.4797C64.522 53.4797 64.4971 53.4298 64.4971 53.3924L64.4722 53.3052C64.4722 53.3052 64.4473 53.2057 64.4224 53.1559L64.4473 52.9194C64.5967 52.5459 64.7337 52.2221 64.8582 51.9482C64.9453 51.7863 65.02 51.6243 65.0947 51.4624C65.1819 51.2881 65.2566 51.1263 65.3438 50.952L65.7049 50.1923L65.68 50.1179C65.7547 49.9933 65.8169 49.8813 65.8667 49.7941C65.8916 49.7443 65.9165 49.6944 65.9414 49.6446C65.9663 49.5947 65.9912 49.5451 66.0286 49.4704C66.0784 49.3708 66.1282 49.2587 66.1905 49.1591C66.2278 49.0719 66.2901 48.9848 66.3523 48.8852L66.4644 48.8478C66.4644 48.8478 66.4893 48.8478 66.5267 48.8229H66.5391L66.7383 48.8478L66.8006 48.8104C67.0372 48.6983 67.2364 48.5488 67.3858 48.3745C67.5228 48.2251 67.6722 48.0259 67.834 47.7893C67.8714 47.8142 67.9212 47.8267 67.9959 47.8516C68.0582 47.8641 68.108 47.889 68.1951 47.9139C68.3196 47.9388 68.4317 47.9635 68.5313 48.0009C68.5936 48.0258 68.6309 48.0508 68.6683 48.0757C68.6932 48.1379 68.7057 48.1754 68.7181 48.2252C68.7181 48.2875 68.743 48.3496 68.743 48.4119C68.7679 48.5239 68.7803 48.636 68.8052 48.7481C68.8177 48.8601 68.8301 48.9972 68.8426 49.184C68.8799 49.2961 68.9049 49.4082 68.9298 49.5202C68.9422 49.5825 68.9547 49.6321 68.9671 49.6819C68.9796 49.7442 68.992 49.8063 69.0045 49.8561C69.0169 49.9308 69.0294 50.0058 69.0418 50.0805C69.0667 50.1676 69.0792 50.2672 69.1041 50.3419C69.1414 50.5038 69.1912 50.6655 69.2535 50.8149L69.3157 50.9645H69.5025L69.5773 51.0019L69.7391 50.952C69.7391 50.952 69.7765 50.9395 69.7889 50.9271C69.8263 51.0142 69.9134 51.0514 69.9881 51.0888L70.0628 51.1137C70.0628 51.1137 70.1376 51.1137 70.15 51.1137C70.1874 51.1386 70.2123 51.1511 70.2247 51.176C70.2247 51.176 70.2745 51.2384 70.3119 51.2633L70.3243 51.2384Z" fill="#231F20"/>
<path d="M81.4807 49.234C81.4433 49.3834 81.3935 49.5454 81.3686 49.7197C81.3562 49.8069 81.3437 49.894 81.3312 49.9812C81.3312 50.0434 81.3188 50.1055 81.3063 50.1678L81.2441 50.2924C81.1569 50.4668 81.0822 50.6163 80.995 50.7658C80.8954 50.9401 80.8207 51.0893 80.7585 51.2388C80.7211 51.2886 80.6713 51.3382 80.6464 51.4005C80.634 51.4378 80.6091 51.4628 80.5842 51.5002C80.5842 51.5002 80.5841 51.5251 80.5717 51.5251L80.2853 51.4254L80.2231 51.8115L80.1484 51.8364L79.9865 52.048C79.8495 52.2721 79.725 52.4466 79.588 52.5836C79.4635 52.7206 79.3017 52.8448 79.1398 52.9569C78.953 53.0814 78.7414 53.1935 78.5546 53.2807C78.3305 53.3803 78.0939 53.4799 77.82 53.5919C77.7203 53.5919 77.6332 53.5798 77.5584 53.5673C77.5211 53.5673 77.4713 53.5673 77.434 53.5673C77.3094 53.5673 77.1476 53.5673 76.9483 53.5424C76.911 53.505 76.8736 53.4676 76.7989 53.4302C76.7616 53.4178 76.7118 53.3928 76.6495 53.3928C76.5997 53.3679 76.5499 53.318 76.525 53.2682C76.4752 53.181 76.4254 53.0817 76.3631 52.9323C76.3382 52.87 76.3009 52.8076 76.276 52.7453L76.525 52.6705L76.0768 52.1726C76.0768 52.1726 76.0269 52.1103 76.002 52.0854V52.0109C75.9771 51.5377 75.9771 51.1019 75.9771 50.7034C75.9771 50.3299 76.0394 49.9812 76.1265 49.6948V49.6699L76.139 49.5452C76.1639 49.3958 76.1764 49.2716 76.1888 49.1844C76.2137 49.1097 76.2262 49.0223 76.2386 48.9476V48.9227L76.1888 48.6488L75.9647 48.5743H75.9273C75.7779 48.5743 75.616 48.574 75.4293 48.6114C75.2176 48.6363 75.0059 48.6613 74.8316 48.6986C74.7071 48.7235 74.5701 48.736 74.4332 48.7485C74.3336 48.7609 74.2339 48.7734 74.1468 48.7734H73.9476L73.8604 49.0598C73.823 49.1594 73.7982 49.2465 73.7733 49.3087L73.7359 49.4084C73.6985 49.4832 73.6612 49.5578 73.6114 49.6449C73.5616 49.7695 73.5118 49.894 73.462 50.0185C73.4246 50.1306 73.3748 50.2552 73.3374 50.3921C73.2752 50.5042 73.2129 50.6163 73.1631 50.7034C73.1258 50.803 73.076 50.9027 73.0511 51.0272C72.9639 51.1517 72.9016 51.2762 72.8643 51.3759C72.8269 51.463 72.7771 51.5875 72.7647 51.6871L72.7398 51.7616C72.7398 51.7616 72.6775 51.8489 72.6651 51.8738L72.5904 51.9486V52.0231C72.5904 52.0231 72.5779 52.1104 72.5281 52.1851C72.5032 52.2224 72.5032 52.2721 72.4908 52.3343C72.4908 52.3717 72.4783 52.3967 72.4783 52.4216L72.3911 52.4714L72.4161 52.5587V52.6581V52.7578C72.3787 52.8699 72.3787 52.9694 72.3911 53.0441L72.4285 53.1439C72.4285 53.1439 72.4659 53.2062 72.4908 53.2186V53.2931L72.6402 53.3928C72.6651 53.3928 72.6775 53.4178 72.69 53.4178C72.7024 53.4178 72.7273 53.4427 72.7522 53.4551L72.8145 53.4925C72.8145 53.5672 72.8145 53.6543 72.7647 53.729C72.7024 53.7913 72.5779 53.8287 72.4161 53.8287V53.8038L72.3164 53.7789C72.2666 53.754 72.2293 53.7415 72.1919 53.729L72.1297 53.6667L71.9055 53.5673V53.505L71.8682 53.4427C71.8682 53.4427 71.8059 53.3554 71.7935 53.318C71.781 53.2433 71.7561 53.1687 71.7437 53.1065C71.7437 53.0442 71.7188 52.9696 71.6939 52.9198C71.6939 52.87 71.6689 52.8325 71.644 52.7952V52.7703C71.6191 52.4465 71.6565 52.1353 71.7437 51.8863C71.8059 51.6995 71.8682 51.5128 71.9304 51.3385L72.0176 51.0892C72.0799 50.9522 72.1421 50.803 72.1919 50.666C72.2417 50.5291 72.2915 50.392 72.3289 50.2551L72.3911 50.1927L72.5405 49.869C72.5779 49.8067 72.6028 49.7196 72.6526 49.6325L72.6775 49.5577C72.6775 49.5577 72.7024 49.5081 72.7024 49.4832L72.8768 49.0473H72.3911C72.3911 49.0473 72.3538 49.0473 72.3414 49.0473C72.3164 49.0473 72.2915 49.0473 72.2666 49.0598C72.2417 49.0598 72.2044 49.0722 72.1795 49.0722H72.0425L71.9678 49.0473L71.8806 49.0847C71.8806 49.0847 71.7935 49.1096 71.7312 49.1096H71.6191C71.4822 49.0847 71.395 49.1096 71.3328 49.1345H70.9468C70.9468 49.1345 70.9094 49.147 70.897 49.1595C70.8596 49.1595 70.8347 49.1595 70.7974 49.1345C70.7724 49.1345 70.76 49.1345 70.7351 49.1096C70.6604 49.0225 70.6106 48.9725 70.5732 48.9351L70.5359 48.898C70.5359 48.898 70.511 48.8357 70.4985 48.7734C70.4985 48.7485 70.4861 48.736 70.4736 48.7111L70.374 48.4497C70.374 48.4497 70.3491 48.3128 70.3491 48.2256C70.3491 48.2256 70.374 48.1633 70.3865 48.1633L70.4114 48.1384V48.1134L70.6728 48.101C70.9094 48.101 71.146 48.101 71.3701 48.0761L72.0923 48.0262L72.5281 47.9764C72.6028 47.9764 72.6775 47.9642 72.7647 47.9517C72.8269 47.9517 72.9017 47.9517 72.9639 47.9268H73.1133L73.1756 47.7772C73.1756 47.7772 73.2005 47.7274 73.2005 47.7025C73.2378 47.7025 73.2628 47.7025 73.2752 47.7149C73.3126 47.7398 73.3375 47.7648 73.3499 47.7772L73.437 47.8769L73.5616 47.852C73.6363 47.852 73.7234 47.8271 73.7981 47.8271C73.8728 47.8271 73.9476 47.8146 74.0347 47.8022C74.1841 47.7773 74.346 47.7523 74.5079 47.7274C74.7445 47.69 74.981 47.6653 75.2176 47.6404C75.5289 47.6031 75.8526 47.5906 76.139 47.6031C76.2137 47.6031 76.276 47.628 76.3258 47.628H76.3507C76.3507 47.628 76.4129 47.7274 76.4503 47.7523C76.4876 47.8146 76.5499 47.852 76.5748 47.8769C76.6371 47.9392 76.7242 48.0138 76.7989 48.1134C76.8238 48.1384 76.8363 48.1758 76.8363 48.2132V48.35C76.8363 48.35 76.8487 48.4248 76.8487 48.4621C76.8487 48.5866 76.9359 48.7735 76.9732 48.8357C76.9857 48.8731 76.9981 48.9227 77.023 48.9725L77.1102 49.1719C77.16 49.284 77.2098 49.3961 77.2596 49.5206C77.297 49.6202 77.3095 49.6949 77.3219 49.7696C77.2596 49.8941 77.2098 50.0558 77.1725 50.2301C77.1351 50.4169 77.1102 50.6036 77.0853 50.7904C77.0853 50.9647 77.0853 51.1392 77.0978 51.3385C77.1227 51.5501 77.16 51.6994 77.2098 51.8364L77.3468 52.1228L77.7203 52.0729C77.9444 52.0106 78.1437 51.9485 78.3055 51.8863C78.4674 51.824 78.6293 51.7494 78.8285 51.6373C78.9904 51.5377 79.1398 51.4256 79.2767 51.2886C79.4386 51.1392 79.5756 51.0021 79.7125 50.8527C79.862 50.6784 79.999 50.4792 80.1235 50.2426C80.248 50.0185 80.3476 49.7818 80.4098 49.5702C80.497 49.3087 80.5468 49.0848 80.5842 48.8731C80.6215 48.6863 80.6464 48.5243 80.6589 48.3624C80.7834 48.2628 80.8456 48.1136 80.8456 47.9268L80.8207 47.7772C80.8207 47.7772 80.8581 47.69 80.883 47.6651C80.9452 47.7024 80.9826 47.7523 81.0324 47.7897L81.2192 47.9764C81.2316 48.1009 81.2565 48.213 81.2939 48.3375C81.3188 48.4122 81.3437 48.4746 81.3686 48.5369C81.3811 48.5743 81.3935 48.6239 81.406 48.6612L81.4308 48.7236C81.4557 48.7983 81.4806 48.8604 81.5056 48.9351C81.5305 48.9974 81.5429 49.0848 81.5554 49.1844L81.4807 49.234Z" fill="#231F20"/>
<path d="M87.0096 53.33C87.0096 53.2677 86.9847 53.1931 86.9473 53.1184C86.9224 53.081 86.8975 53.0436 86.8851 53.0187C86.8104 53.0187 86.7357 52.9938 86.6859 52.9938H86.5862C86.4991 52.9689 86.3995 52.9567 86.3248 52.9442C86.2252 52.9193 86.138 52.9068 86.0384 52.8819C85.9388 52.857 85.8018 52.8195 85.6275 52.7822C85.4407 52.7448 85.2913 52.6949 85.1793 52.6576C85.0547 52.6327 84.9427 52.5706 84.868 52.5332C84.7684 52.4959 84.6687 52.4335 84.5691 52.3712C84.5193 52.3463 84.4695 52.3091 84.4072 52.2718L84.0337 52.0225V51.9854C84.0337 51.9854 83.9964 51.8857 83.9964 51.8359V51.6742L84.1458 51.6118C84.3948 51.5122 84.6812 51.4126 84.9427 51.3255C85.2415 51.2383 85.4905 51.1387 85.7022 51.0391C85.9388 50.9271 86.138 50.79 86.2874 50.6281C86.4368 50.4787 86.5115 50.2795 86.524 50.0305C86.524 49.9931 86.524 49.9931 86.524 49.9931C86.524 49.9557 86.524 49.9432 86.5115 49.9308C86.4866 49.8934 86.4742 49.8313 86.4742 49.7815C86.4742 49.7566 86.4742 49.7441 86.4742 49.7317C86.4368 49.6445 86.387 49.5449 86.3621 49.4453L86.2252 49.0717C86.1878 48.9721 86.138 48.885 86.1006 48.7978C86.0633 48.7231 86.0135 48.6607 85.9512 48.6109L85.8641 48.5239V48.4242C85.8641 48.4242 85.8267 48.3993 85.8018 48.3744C85.7894 48.3619 85.7645 48.337 85.7271 48.3245L85.6275 48.2376C85.5279 48.0881 85.4158 47.976 85.2664 47.8764C85.1294 47.8017 85.0049 47.7146 84.868 47.615C84.6812 47.6399 84.5318 47.7145 84.4072 47.8141C84.2329 47.9635 84.0835 48.1131 83.9465 48.275C83.8096 48.4617 83.6602 48.6484 83.5357 48.8477C83.3738 49.0718 83.187 49.2585 83.0003 49.3955L82.7637 49.5821L82.6641 49.3331C82.6641 49.3331 82.6392 49.3331 82.6143 49.3082C82.6143 49.3082 82.6018 49.3082 82.5894 49.3082C82.552 49.4078 82.5147 49.5074 82.4898 49.6195C82.44 49.7938 82.4026 49.9805 82.3777 50.1673C82.3528 50.242 82.3403 50.3169 82.3279 50.3792C82.303 50.5037 82.2656 50.6282 82.2407 50.7528C82.2034 50.9395 82.1411 51.1387 82.0913 51.2881V51.313C82.0913 51.313 82.0913 51.3751 82.0913 51.4C82.0913 51.4622 82.0913 51.5247 82.0664 51.5869C82.0664 51.6492 82.0415 51.7238 82.0291 51.7736C82.0291 51.7736 82.0291 51.7736 82.0291 51.786C82.0291 51.8732 82.0291 51.9603 82.0291 52.0475C82.0042 52.1471 81.9917 52.2467 81.9419 52.3712C81.917 52.4584 81.8921 52.5455 81.8796 52.6451C81.8547 52.7447 81.8423 52.8321 81.8298 52.9193C81.8298 52.9193 81.8298 52.9439 81.8423 52.9564H82.0415L81.9668 53.243V53.2677C81.9668 53.2677 81.9668 53.2926 81.9668 53.3051C81.9917 53.3549 82.0041 53.4048 82.0041 53.4546C82.0664 53.492 82.1038 53.5541 82.1287 53.6163V53.6413C82.1536 53.6413 82.1785 53.6662 82.2158 53.6787C82.2407 53.6911 82.2781 53.7161 82.3154 53.741L82.3403 53.716C82.4026 53.6413 82.4897 53.6163 82.5769 53.6163C82.6391 53.5167 82.7014 53.4171 82.7512 53.3175C82.8135 53.1307 82.8882 52.9315 82.938 52.7199L83.0376 52.3587L83.6477 52.9068C83.7473 52.994 83.847 53.0686 83.9341 53.1309L83.9964 53.1683C84.0835 53.2181 84.1956 53.2677 84.3076 53.33C84.4446 53.3922 84.6189 53.4672 84.8057 53.5419L84.9053 53.5789C85.4158 53.7657 85.8143 53.9028 86.1131 53.965C86.3995 54.0273 86.6236 54.0273 86.7855 53.965L86.8602 53.9401C86.8602 53.9401 86.91 53.9151 86.9224 53.8902L86.9598 53.8282C86.9598 53.8282 86.9598 53.8157 86.9598 53.8033L86.9349 53.6911L87.0096 53.5914C87.0096 53.5914 87.0345 53.5543 87.0345 53.5294C87.0345 53.4422 87.0345 53.3922 87.0345 53.33H87.0096ZM83.7598 50.7029L83.4485 50.7278L83.4983 50.4415C83.5232 50.2547 83.5855 50.0927 83.6851 49.9557C83.7473 49.8436 83.8221 49.7315 83.9341 49.607L84.2205 49.3207C84.3201 49.2211 84.3823 49.1464 84.4571 49.0468L84.5442 48.8975L84.7061 48.9595C84.8804 49.0093 85.0423 49.1214 85.1917 49.2833C85.3411 49.4451 85.4407 49.6693 85.4656 49.9308L85.4905 50.1053L84.5816 50.4786C84.3076 50.5906 84.0337 50.6656 83.7598 50.7029Z" fill="#231F20"/>
<path d="M92.8487 48.2625C92.7366 48.4243 92.6246 48.524 92.5001 48.5862C92.3009 48.6734 92.1141 48.7231 91.9273 48.7604C91.7654 48.7853 91.6036 48.8227 91.4168 48.8477L91.2425 48.885C91.0184 48.9224 90.7942 48.997 90.5576 49.134C90.4331 49.1091 90.3335 49.134 90.2464 49.1714C90.2339 49.1714 90.1717 49.1963 90.0471 49.1714H89.96L89.8728 49.2459C89.8728 49.2459 89.8355 49.2708 89.823 49.2833L89.3872 49.4328L89.4868 49.6569C89.4868 49.6569 89.5118 49.7192 89.4993 49.7441C89.4993 49.8313 89.4993 49.9308 89.5616 50.018L89.6114 50.1302L89.7483 50.1548C90.0347 50.1797 90.3211 50.1675 90.595 50.1426C90.7942 50.1177 91.0059 50.1053 91.2051 50.1053V50.1426L91.2923 50.1797C91.3047 50.1797 91.3172 50.2047 91.3297 50.2171C91.3546 50.242 91.367 50.2545 91.3919 50.2794C91.4168 50.3043 91.4417 50.3293 91.4666 50.3542C91.4915 50.3791 91.5164 50.4166 91.5538 50.4415C91.616 50.5037 91.6908 50.5534 91.753 50.5907C91.7904 50.6156 91.8277 50.6281 91.8775 50.6406V50.6655V50.678C91.7904 50.7402 91.7032 50.8024 91.616 50.8646C91.5164 50.9393 91.3919 51.0018 91.2799 51.064C91.1927 51.1138 91.0806 51.1635 90.9436 51.2008C90.8191 51.2382 90.6946 51.2507 90.5701 51.2382H90.5203L90.4207 51.1634L90.2962 51.2382C90.2962 51.2382 90.2713 51.2507 90.209 51.2382C90.1094 51.2258 90.0098 51.2382 89.9227 51.2507C89.8479 51.2258 89.7608 51.2133 89.6487 51.2133C89.5616 51.2133 89.4868 51.2133 89.4495 51.1884L89.3001 51.1385L89.188 51.2756C89.0635 51.4499 88.9639 51.6117 88.8643 51.7611C88.7771 51.9229 88.7024 52.1224 88.6152 52.3216L88.5032 52.5955L88.802 52.6329C89.0635 52.6703 89.2752 52.6825 89.437 52.67C89.5989 52.67 89.7608 52.6454 89.8977 52.6329L90.3335 52.5706C90.4705 52.5582 90.6448 52.5581 90.8192 52.5457L90.9063 52.5706L90.9686 52.5332C91.0806 52.471 91.2176 52.4335 91.3794 52.4086C91.5413 52.3961 91.6907 52.359 91.8401 52.3216V52.3463C91.8401 52.3463 91.9273 52.4335 91.9647 52.4709C92.0145 52.5332 92.0643 52.5831 92.1016 52.608C92.1515 52.6578 92.2137 52.6825 92.2635 52.6949V52.7448C92.2884 52.7946 92.3009 52.8321 92.3258 52.8694C92.2635 52.969 92.1888 53.0686 92.1141 53.1558C91.9896 53.2554 91.865 53.3425 91.7281 53.3798C91.5787 53.4296 91.4044 53.4796 91.1927 53.5169C91.0931 53.5418 90.981 53.554 90.8689 53.5789C90.7444 53.6038 90.6075 53.6288 90.4705 53.6537C90.4456 53.6537 90.4456 53.6537 90.4456 53.6537C90.3833 53.6288 90.3211 53.6163 90.1717 53.6288H90.1094C89.9725 53.6661 89.8106 53.6911 89.6238 53.716C89.4121 53.7409 89.2005 53.7534 88.9763 53.741C88.7896 53.741 88.6028 53.716 88.3662 53.6662C88.2044 53.6288 88.0549 53.5417 87.9304 53.4297C87.9304 53.4297 87.9055 53.4047 87.9055 53.3674C87.8682 53.2802 87.8183 53.2056 87.7561 53.1433C87.7561 53.0811 87.7312 53.0064 87.7187 52.9193C87.6938 52.8197 87.6814 52.7076 87.6565 52.5706C87.6316 52.4585 87.6191 52.3589 87.6191 52.2344C87.6191 52.1348 87.6191 52.0477 87.6191 51.973C87.6191 51.9107 87.6565 51.8483 87.7063 51.786C87.7686 51.6988 87.8183 51.6117 87.8308 51.5246H87.9055L87.9678 51.3629C88.0051 51.2383 88.0549 51.1263 88.0923 51.0266C88.1172 50.9768 88.1421 50.9269 88.1794 50.8646C88.2043 50.8148 88.2293 50.7652 88.2542 50.7154C88.304 50.6157 88.3662 50.5037 88.416 50.3916C88.4534 50.3045 88.4908 50.2173 88.5281 50.1177L88.6277 49.8684L88.5032 49.7441C88.4409 49.6943 88.3787 49.6194 88.3538 49.5322C88.3164 49.4451 88.2915 49.3455 88.2666 49.2583C88.2417 49.1587 88.2293 49.0467 88.2168 48.9346C88.2044 48.8474 88.1919 48.7479 88.167 48.6607C88.2044 48.6109 88.2541 48.5737 88.304 48.5488C88.3787 48.4866 88.4783 48.4491 88.5655 48.4117C88.6775 48.3744 88.802 48.3494 88.9265 48.312C89.0261 48.2871 89.1257 48.2749 89.2378 48.25L89.3872 48.2126C89.6736 48.113 89.9227 48.0506 90.1219 48.0132C90.3336 47.9634 90.5452 47.9262 90.7569 47.8889L90.8939 47.8639C91.0557 47.839 91.2425 47.8265 91.4044 47.7892C91.616 47.7767 91.8775 47.7268 92.1016 47.6895C92.1764 47.7393 92.2635 47.7642 92.3631 47.7642H92.4379C92.4379 47.7642 92.5623 47.864 92.6121 47.9138C92.6993 47.9761 92.7865 48.0257 92.8736 48.0755C92.8736 48.1129 92.8736 48.1379 92.8736 48.1752C92.8736 48.2001 92.8736 48.2126 92.8736 48.2375L92.8487 48.2625Z" fill="#231F20"/>
<path d="M103.644 48.1132C103.582 47.8517 103.495 47.6275 103.383 47.4034C103.283 47.1793 103.159 46.9676 103.034 46.7808C102.86 46.6314 102.661 46.5193 102.424 46.4446C102.212 46.3699 101.951 46.3078 101.652 46.258C101.64 46.258 101.615 46.2829 101.602 46.2954C101.565 46.3203 101.49 46.3452 101.378 46.3078C101.154 46.2456 100.868 46.2331 100.469 46.3078C100.32 46.3452 100.17 46.3948 100.034 46.4571C99.909 46.5193 99.7969 46.5818 99.7222 46.644L99.6848 46.669C99.5603 46.7188 99.4608 46.7934 99.3363 46.893C99.2117 47.0175 99.1246 47.1296 99.0374 47.2666C98.9503 47.4036 98.8631 47.5528 98.7759 47.7271C98.7012 47.8766 98.639 48.0386 98.5767 48.2129C98.5767 48.3374 98.5394 48.462 98.4896 48.5741C98.4273 48.6986 98.3401 48.8103 98.2031 48.91L98.1783 48.9349C98.1783 48.9349 98.0537 49.0097 97.9666 48.9972C97.9666 48.9972 97.9292 49.0471 97.9168 49.072C97.8794 49.1218 97.8545 49.1714 97.8171 49.2212L97.7798 49.2836C97.73 49.3707 97.6802 49.4454 97.6304 49.545C97.5682 49.6571 97.5308 49.7567 97.5059 49.8687C97.481 49.9933 97.481 50.1178 97.5059 50.2174L97.5557 50.5162H97.4685C97.4685 50.5162 97.481 50.5537 97.4935 50.5786C97.4935 50.6284 97.5183 50.6658 97.5432 50.7032L97.7923 50.9522L97.6927 50.9895C97.6927 50.9895 97.73 51.1015 97.7424 51.1637C97.7673 51.3256 97.7674 51.4998 97.7176 51.7115C97.6927 51.8734 97.6428 52.0604 97.6055 52.2471C97.5681 52.3841 97.5557 52.4962 97.5682 52.6208L97.593 52.77L97.6802 52.8573L97.4561 53.019L97.4312 53.0439C97.4436 53.1062 97.4685 53.1561 97.5059 53.2059C97.5432 53.2433 97.5681 53.3054 97.6055 53.3552C97.6304 53.3925 97.6553 53.43 97.6802 53.4674C97.7175 53.5296 97.7549 53.6042 97.7674 53.6789C97.7923 53.6789 97.8296 53.7039 97.8545 53.7163C97.8794 53.7163 97.9168 53.7413 97.9417 53.7537C98.0413 53.7288 98.1534 53.7038 98.253 53.6789C98.3775 53.654 98.502 53.6291 98.614 53.6291C98.6888 53.5046 98.7635 53.3678 98.8133 53.2184C98.8756 53.0565 98.9254 52.8573 98.9752 52.6208C99.0125 52.4464 99.025 52.2469 99.0374 52.0228C99.0374 51.8236 99.0374 51.612 99.0374 51.4501V51.251L99.2242 51.2136C99.6101 51.1264 100.033 51.0393 100.469 50.9646C100.893 50.8899 101.304 50.7903 101.69 50.6783C102.088 50.5537 102.449 50.4042 102.773 50.2299C103.072 50.068 103.346 49.8563 103.57 49.5824C103.657 49.3334 103.707 49.097 103.719 48.8479C103.719 48.5865 103.694 48.3373 103.632 48.1132H103.644ZM102.499 48.6361C102.399 48.7357 102.275 48.8231 102.15 48.8729C102.063 48.9102 101.951 48.9474 101.851 48.9847L101.465 49.1094C101.353 49.1343 101.254 49.1717 101.167 49.2091C101.042 49.2713 100.918 49.3085 100.83 49.3334C100.718 49.3583 100.619 49.3708 100.532 49.3833C100.42 49.3833 100.345 49.4082 100.245 49.4331C100.158 49.458 100.083 49.483 99.9961 49.5204L99.7472 49.6447L99.6848 49.4207C99.5852 49.3584 99.523 49.2713 99.4981 49.1842L99.4607 49.1218L99.4981 49.0221C99.4981 49.0221 99.5355 48.9473 99.5479 48.9224C99.5604 48.8975 99.5728 48.8729 99.5853 48.8604C99.6102 48.8231 99.6102 48.7981 99.6226 48.7732C99.6351 48.7483 99.6475 48.7108 99.66 48.6859C99.66 48.661 99.6849 48.6114 99.6973 48.5616C99.7098 48.4993 99.7347 48.4369 99.7596 48.3622L99.7845 48.3248L99.8219 48.2752C100.021 48.0885 100.258 47.9639 100.532 47.9016C100.781 47.8518 101.03 47.8269 101.279 47.8518C101.54 47.8767 101.764 47.9139 101.976 48.001C102.188 48.0757 102.362 48.1753 102.486 48.2874L102.673 48.4494L102.511 48.6236L102.499 48.6361Z" fill="#231F20"/>
<path d="M109.384 51.2381C109.334 51.3128 109.26 51.3999 109.172 51.4746C109.048 51.5742 108.923 51.6613 108.786 51.7236L108.637 51.7984L108.662 51.9978C108.662 51.9978 108.662 52.0474 108.662 52.0598C108.662 52.1221 108.674 52.172 108.687 52.2094C108.712 52.3214 108.724 52.446 108.737 52.5705C108.737 52.6701 108.737 52.7697 108.737 52.8693V52.8943C108.699 52.9814 108.65 53.081 108.575 53.2055C108.5 53.3176 108.413 53.4047 108.326 53.4794C108.239 53.5542 108.139 53.6287 108.014 53.6786C107.915 53.7284 107.815 53.7533 107.716 53.7658C107.678 53.7658 107.653 53.7409 107.653 53.7409L107.616 53.7159C107.616 53.7159 107.579 53.691 107.566 53.6786L107.467 53.6162C107.479 53.5166 107.467 53.4295 107.417 53.3423C107.367 53.2801 107.317 53.218 107.255 53.1806L107.218 53.1432C107.404 53.081 107.529 52.9939 107.604 52.8943C107.703 52.7698 107.741 52.6077 107.728 52.3462L107.703 52.1845L107.541 52.1471C107.342 52.1097 107.205 52.1097 107.093 52.1471C106.993 52.172 106.894 52.1969 106.782 52.2218H106.744C106.632 52.2592 106.533 52.2842 106.421 52.3091C106.284 52.334 106.085 52.3462 105.923 52.3462C105.898 52.3462 105.873 52.3462 105.848 52.3462H105.823C105.823 52.3462 105.786 52.2592 105.748 52.2468L105.723 52.2218C105.723 52.2218 105.674 52.1595 105.649 52.1346C105.649 52.1346 105.649 52.1221 105.649 52.0723L105.674 51.9853L105.636 51.9106C105.636 51.9106 105.599 51.8233 105.599 51.8108L105.562 51.4622L105.723 51.4372C105.723 51.4372 105.798 51.4372 105.835 51.4372C105.873 51.4372 105.923 51.4372 105.96 51.4372C106.047 51.4372 106.134 51.4248 106.209 51.4123C106.321 51.4123 106.421 51.4001 106.52 51.3877C106.682 51.3628 106.869 51.3378 107.056 51.3005L107.355 51.2381L107.305 51.0141C107.267 50.8024 107.205 50.5907 107.143 50.3541C107.093 50.13 107.031 49.8934 106.969 49.6817L106.832 49.1464L106.52 49.6817C106.383 49.8187 106.259 49.9804 106.097 50.1921C105.96 50.3789 105.848 50.5534 105.761 50.7153L105.636 50.9019C105.636 50.9019 105.562 51.0017 105.537 51.0639V51.039L105.176 51.7361C105.138 51.8232 105.088 51.9231 105.076 51.9978L105.014 52.0224C105.014 52.0224 104.914 52.0973 104.877 52.2094C104.877 52.2467 104.864 52.2717 104.864 52.2966L104.839 52.3836C104.839 52.3836 104.815 52.4085 104.79 52.4459L104.752 52.5331C104.752 52.5331 104.715 52.6575 104.702 52.7073C104.69 52.7696 104.665 52.8195 104.64 52.8693C104.603 52.944 104.578 53.0311 104.553 53.1058V53.1557C104.516 53.2553 104.503 53.3424 104.503 53.4421V53.467C104.503 53.467 104.466 53.4919 104.441 53.5044C104.416 53.5168 104.404 53.5293 104.379 53.5418L104.316 53.5788C104.316 53.5788 104.254 53.6038 104.229 53.6162L104.142 53.6661L104.117 53.7284L104.03 53.7533C104.03 53.7533 103.98 53.7534 103.943 53.7783H103.893C103.893 53.7783 103.856 53.7409 103.843 53.7409C103.818 53.716 103.794 53.7035 103.781 53.691C103.744 53.6537 103.694 53.6162 103.632 53.5788C103.607 53.5415 103.594 53.5168 103.594 53.5168V53.4794C103.594 53.4794 103.582 53.4171 103.557 53.3548V53.305C103.557 53.305 103.52 53.2055 103.495 53.1557L103.52 52.9192C103.669 52.5456 103.806 52.2219 103.943 51.9479C104.018 51.7861 104.105 51.624 104.18 51.4622C104.267 51.2879 104.341 51.1261 104.428 50.9518L104.74 50.2918L104.802 50.1921L104.777 50.1426L104.752 50.1176C104.814 50.018 104.877 49.9184 104.939 49.7939C104.964 49.7441 104.989 49.6941 105.014 49.6443C105.039 49.5945 105.064 49.5449 105.101 49.4826C105.138 49.4079 105.176 49.333 105.213 49.2583L105.275 49.1464C105.313 49.0592 105.375 48.9721 105.437 48.8725L105.549 48.8351C105.549 48.8351 105.574 48.8351 105.611 48.8102L105.811 48.8351L105.873 48.7977C106.109 48.6856 106.309 48.5361 106.458 48.3618C106.595 48.2124 106.745 48.0132 106.906 47.7766C106.944 47.8015 107.006 47.814 107.068 47.8389C107.131 47.8514 107.193 47.8763 107.267 47.9012C107.392 47.9261 107.504 47.9508 107.604 47.9882C107.666 48.0131 107.716 48.0381 107.753 48.063C107.79 48.1626 107.79 48.1876 107.79 48.2125C107.79 48.2748 107.815 48.3494 107.828 48.3867L107.878 48.7354C107.902 48.8475 107.902 48.9845 107.915 49.1713C107.952 49.2709 107.977 49.383 108.002 49.5075C108.015 49.5698 108.027 49.6194 108.039 49.6692C108.039 49.7315 108.064 49.7936 108.077 49.8434V49.9182C108.127 50.0676 108.151 50.1923 108.176 50.3417C108.214 50.5035 108.264 50.6653 108.326 50.8147L108.376 50.9642H108.562L108.625 51.0016L108.786 50.9518C108.786 50.9518 108.824 50.9393 108.836 50.9268C108.886 51.014 108.961 51.0512 109.036 51.0886L109.11 51.1135H109.197C109.235 51.1384 109.26 51.1509 109.272 51.1758H109.285C109.285 51.1758 109.334 51.2382 109.372 51.2631L109.384 51.2381Z" fill="#231F20"/>
<path d="M115.224 53.5169C115.224 53.5169 115.224 53.4047 115.224 53.3424C115.224 53.2677 115.199 53.2056 115.162 53.1433C115.137 53.0935 115.112 53.0561 115.087 53.0436C115.012 53.0436 114.95 53.0187 114.888 53.0187H114.801C114.713 52.9938 114.614 52.9813 114.527 52.9688L114.44 52.9442C114.44 52.9442 114.303 52.9193 114.24 52.8944H114.203C114.103 52.857 113.979 52.832 113.829 52.7947C113.63 52.7449 113.493 52.7074 113.381 52.67C113.269 52.6451 113.157 52.5955 113.07 52.5457C112.983 52.5083 112.883 52.4459 112.771 52.3837L112.261 52.0475V52.0104C112.261 52.0104 112.198 51.9106 112.198 51.8483V51.6866L112.348 51.6243C112.559 51.5247 112.821 51.4376 113.132 51.3379C113.431 51.2508 113.68 51.1512 113.904 51.0516C114.141 50.9271 114.327 50.8025 114.477 50.6406C114.626 50.4912 114.701 50.292 114.713 50.0305C114.713 50.0056 114.713 49.9931 114.713 49.9806C114.713 49.9557 114.701 49.9432 114.689 49.9183C114.664 49.8561 114.664 49.8064 114.664 49.7691C114.664 49.7442 114.664 49.7316 114.664 49.7067C114.639 49.6569 114.614 49.607 114.589 49.5447L114.539 49.4453L114.415 49.0842C114.377 48.9721 114.327 48.8725 114.29 48.7853C114.253 48.7106 114.203 48.636 114.141 48.5862L114.066 48.5115V48.4117C114.066 48.4117 114.029 48.3868 114.004 48.3619C113.979 48.3494 113.966 48.3245 113.929 48.3245L113.842 48.2625V48.2376C113.742 48.1006 113.63 47.9885 113.468 47.8764C113.344 47.8017 113.207 47.7146 113.07 47.615C112.883 47.6399 112.721 47.7145 112.609 47.8141C112.447 47.9511 112.298 48.0879 112.148 48.2871C111.999 48.4739 111.862 48.6734 111.725 48.8601C111.576 49.0718 111.401 49.2585 111.202 49.4079L110.953 49.5946L110.854 49.3456C110.854 49.3456 110.829 49.3331 110.804 49.3207C110.804 49.3207 110.779 49.3207 110.766 49.3207C110.729 49.4203 110.692 49.5199 110.679 49.632C110.629 49.8187 110.592 50.0054 110.555 50.1797C110.517 50.3665 110.468 50.566 110.43 50.7528C110.38 50.9644 110.331 51.1387 110.268 51.2881C110.268 51.3254 110.268 51.3626 110.268 51.4C110.268 51.4622 110.268 51.5247 110.268 51.5869C110.268 51.6492 110.243 51.6988 110.219 51.7486C110.219 51.7611 110.218 51.7736 110.206 51.786C110.231 51.8732 110.218 51.9478 110.206 52.035V52.0848C110.169 52.172 110.144 52.2591 110.119 52.3463C110.082 52.4459 110.057 52.5333 110.044 52.6329L110.019 52.7448C110.019 52.7448 109.994 52.857 109.994 52.9068V52.9318H110.007H110.219L110.131 53.2306C110.131 53.2306 110.131 53.2306 110.131 53.243L110.156 53.3424C110.156 53.3424 110.181 53.4048 110.181 53.4422C110.256 53.4795 110.293 53.5541 110.306 53.6039V53.6288C110.331 53.6413 110.368 53.6537 110.38 53.6662C110.405 53.6662 110.443 53.6911 110.48 53.716L110.505 53.6911C110.58 53.6164 110.667 53.5914 110.741 53.5914C110.816 53.4918 110.866 53.3922 110.903 53.3051C110.966 53.1681 111.028 52.9689 111.103 52.6949L111.19 52.3338L111.812 52.8819C111.887 52.9442 111.987 53.0312 112.099 53.1059C112.211 53.1682 112.348 53.2428 112.485 53.3051C112.634 53.3922 112.833 53.4672 113.082 53.5543C113.568 53.7411 113.979 53.8778 114.29 53.9401C114.577 54.0023 114.801 54.0023 114.975 53.9401L115.05 53.9152C115.05 53.9152 115.087 53.878 115.112 53.8531L115.149 53.8033L115.112 53.6662L115.212 53.5668V53.5045L115.224 53.5169ZM111.962 50.7029L111.65 50.7278L111.7 50.4415C111.738 50.2547 111.8 50.1051 111.875 49.9682C111.949 49.8312 112.036 49.7191 112.136 49.6195L112.236 49.5201C112.298 49.4578 112.36 49.3954 112.422 49.3331C112.522 49.2335 112.584 49.1589 112.647 49.0717L112.746 48.9221L112.908 48.9845C113.07 49.0343 113.232 49.1463 113.381 49.3082C113.531 49.4576 113.63 49.6693 113.668 49.9432L113.692 50.1302L112.783 50.5035C112.497 50.6156 112.223 50.6905 111.962 50.7278V50.7029Z" fill="#231F20"/>
<path d="M122.346 52.4956C122.321 52.6574 122.259 52.8069 122.172 52.9066C122.047 53.0435 121.898 53.1556 121.711 53.2428C121.45 53.2428 121.151 53.2552 120.902 53.2303C120.665 53.2054 120.454 53.143 120.267 53.0558C120.242 53.0309 120.242 53.0184 120.23 52.9935L120.205 52.9686L120.155 52.9439C120.08 52.8941 119.981 52.8816 119.881 52.8941C119.856 52.8941 119.844 52.8941 119.831 52.8941C119.831 52.8941 119.707 52.8193 119.619 52.757C119.495 52.6823 119.395 52.6077 119.308 52.5454L119.271 52.508C119.159 52.4209 119.059 52.3462 118.96 52.2591C118.835 52.147 118.76 52.0599 118.686 51.9727C118.623 51.898 118.536 51.8481 118.437 51.8356L118.325 51.7733L118.2 51.8481C117.988 51.985 117.789 52.1593 117.627 52.3834C117.49 52.5577 117.366 52.7569 117.216 52.9686C117.079 53.1802 116.955 53.3548 116.83 53.5042C116.731 53.6412 116.594 53.7408 116.444 53.8155C116.432 53.8155 116.419 53.8155 116.419 53.8155C116.419 53.8155 116.357 53.7781 116.32 53.7532C116.295 53.7532 116.282 53.7282 116.258 53.7158C116.233 53.6909 116.208 53.6784 116.195 53.6659C116.183 53.6659 116.158 53.641 116.146 53.641C116.146 53.5787 116.121 53.5166 116.096 53.4793C116.071 53.3921 116.033 53.3296 115.996 53.2674C115.971 53.23 115.959 53.1804 115.959 53.1431L116.083 52.981L115.934 52.8567C115.934 52.8567 115.897 52.8068 115.859 52.7819V52.7445C115.859 52.7445 115.834 52.6326 115.822 52.5953L116.108 52.508L115.934 52.284L115.959 52.2591V52.1344C115.996 51.7733 116.058 51.487 116.133 51.238C116.233 50.9267 116.332 50.6529 116.419 50.4163C116.544 50.1299 116.656 49.8309 116.756 49.5818C116.855 49.3328 116.942 49.0465 117.017 48.7103C117.092 48.6356 117.154 48.536 117.204 48.4239C117.241 48.3243 117.291 48.2247 117.341 48.1127C117.378 48.0255 117.44 47.9259 117.503 47.8388C117.54 47.7765 117.59 47.739 117.64 47.7017C117.677 47.7017 117.702 47.7266 117.739 47.7391C117.814 47.7889 117.901 47.8138 118.001 47.8263C118.026 47.8761 118.063 47.9136 118.088 47.9509L118.175 48.0628L118.349 48.0254C118.349 48.0254 118.399 48.1002 118.424 48.1376C118.462 48.1998 118.499 48.2869 118.511 48.3616C118.524 48.4363 118.524 48.4863 118.511 48.5486C118.511 48.561 118.499 48.5982 118.424 48.6355L118.275 48.7228L118.312 48.8723V48.8972C118.312 48.8972 118.287 48.9593 118.287 49.0091C118.175 49.1212 118.088 49.2583 118.013 49.445C117.939 49.6443 117.901 49.831 117.889 50.0178L117.851 50.6154L118.275 50.1919C118.349 50.1048 118.437 50.0301 118.536 49.9554C118.598 49.9056 118.661 49.856 118.735 49.8062L118.847 49.7189C118.847 49.7189 118.947 49.6441 119.009 49.6068C119.059 49.5694 119.109 49.5322 119.171 49.4949C119.271 49.4202 119.37 49.3453 119.47 49.2705C119.682 49.0838 119.906 48.9221 120.093 48.7975C120.304 48.673 120.516 48.536 120.74 48.3865C120.765 48.3865 120.777 48.399 120.802 48.4115L121.126 48.5361V48.175H121.151L121.201 48.15C121.201 48.15 121.263 48.1251 121.288 48.1002C121.313 48.1251 121.325 48.1501 121.35 48.175C121.425 48.2621 121.512 48.3118 121.599 48.3367C121.637 48.3989 121.686 48.4489 121.736 48.4863C121.798 48.5361 121.836 48.5732 121.886 48.6106C121.91 48.6355 121.948 48.6605 121.973 48.6978C121.973 48.6978 121.973 48.6979 121.985 48.7352L121.923 48.8349C121.923 48.8349 121.873 48.9344 121.848 48.9967C121.724 49.1087 121.612 49.1959 121.487 49.283C121.35 49.3826 121.201 49.4697 121.064 49.5569C120.914 49.6441 120.765 49.7439 120.616 49.8311C120.429 49.9307 120.267 50.0425 120.13 50.167L120.068 50.2169C120.068 50.2169 120.03 50.2667 119.993 50.2916C119.968 50.3165 119.931 50.3291 119.906 50.354C119.881 50.3789 119.856 50.3914 119.831 50.4038C119.769 50.4412 119.719 50.4908 119.657 50.5406C119.619 50.578 119.57 50.6154 119.545 50.6528C119.52 50.6528 119.507 50.6528 119.482 50.6777H119.408L119.358 50.7771V50.802C119.246 50.8643 119.171 50.9517 119.159 51.0513L119.134 51.1133L119.159 51.2006C119.283 51.4496 119.445 51.6613 119.644 51.8107C119.831 51.9352 120.055 52.0348 120.292 52.097C120.541 52.1593 120.777 52.1967 121.026 52.1967C121.275 52.1967 121.537 52.1967 121.848 52.1967C121.873 52.1967 121.898 52.1843 121.911 52.1718C121.985 52.2092 122.048 52.2466 122.085 52.2965C122.16 52.3836 122.247 52.4583 122.346 52.5454V52.4956Z" fill="#231F20"/>
</svg>
