<svg width="92" height="55" viewBox="0 0 92 55" fill="none" xmlns="http://www.w3.org/2000/svg">
<path d="M64.9092 15.9668C65.1 15.9668 65.2909 15.972 65.4817 15.9823C65.2754 15.9823 65.0691 15.9771 64.8628 15.9668H64.9041H64.9092Z" fill="black"/>
<path d="M89.5916 15.8946C88.8128 15.4098 87.8948 15.1314 86.915 15.1314C84.1919 15.1314 81.9692 17.2716 81.8351 19.974V27.5552H81.8248C81.5772 36.6835 74.1044 44.0119 64.9142 44.0119C55.724 44.0119 48.2202 36.6628 48.0036 27.5087H47.9675V27.4623C47.9623 27.354 47.9623 27.2457 47.9623 27.1374C47.9623 18.0194 55.0536 10.5827 63.9395 10.2062C64.1767 10.1959 64.4191 10.1907 64.6563 10.1907H67.4516C67.6011 10.1907 67.7507 10.1856 67.8951 10.1701C70.4582 9.93802 72.4644 7.75649 72.4644 5.09536C72.4644 2.93963 71.1493 1.09852 69.2824 0.35072C68.7563 0.139273 68.1839 0.0154717 67.5908 0C67.5444 0 67.4928 0 67.4412 0H13.7183C12.4909 0 11.3047 0.165049 10.1753 0.469326C5.49764 1.73285 1.80506 5.44091 0.505431 10.1753C0.505431 10.1804 0.505426 10.1856 0.500269 10.1907C0.500269 10.1959 0.500264 10.201 0.495106 10.2062C0.1702 11.3872 0 12.6456 0 13.9297V40.2523C0 41.5571 0.175368 42.8154 0.505431 44.0119C0.510588 44.0377 0.520891 44.0583 0.526048 44.0841C0.531206 44.1099 0.541509 44.1305 0.546666 44.1563C1.88239 48.8185 5.54405 52.4595 10.1753 53.7127C11.3047 54.0221 12.496 54.182 13.7183 54.182H64.9039C79.5711 54.182 91.5152 42.5369 91.9897 27.9883C91.9897 27.8388 92 27.6892 92 27.5345V20.1597C91.9742 18.3495 91.015 16.7765 89.5864 15.8843L89.5916 15.8946ZM32.0523 31.6861C30.83 32.0626 29.9945 33.1817 29.9945 34.4555V41.1135C29.9945 42.7123 28.7 44.0119 27.1013 44.0119H27.0962C25.4974 44.0119 24.2029 42.7174 24.2029 41.1135V34.4555C24.2029 33.1766 23.3623 32.0574 22.1452 31.6861C19.8399 30.9795 17.7461 29.7934 15.972 28.2462C15.6832 27.9935 15.4047 27.7356 15.1365 27.4623C12.0783 24.4041 10.1804 20.1752 10.1804 15.5027V13.0633C10.1804 11.4646 11.48 10.1649 13.0736 10.1649C13.873 10.1649 14.595 10.4898 15.121 11.0159C15.6419 11.5419 15.972 12.2639 15.972 13.0633V15.5027C15.972 20.6445 19.4583 24.9714 24.2029 26.2452C25.1261 26.4927 26.1008 26.6268 27.1013 26.6268C28.1018 26.6268 29.0714 26.4979 29.9945 26.2452C34.7392 24.9714 38.2255 20.6445 38.2255 15.5027V13.0633C38.2255 11.4646 39.5251 10.1649 41.1238 10.1649C41.9026 10.1649 42.6091 10.4692 43.13 10.9746C43.6767 11.5007 44.0171 12.2433 44.0171 13.0633V15.5027C44.0171 20.1752 42.1243 24.4041 39.0609 27.4623C38.7928 27.7356 38.5091 27.9987 38.2203 28.2514C38.1017 28.3545 37.9779 28.4577 37.8593 28.5557C36.1677 29.9533 34.1977 31.026 32.0523 31.6861Z" fill="black"/>
<path d="M88.0032 5.05939C88.0032 5.1058 88.0032 5.15736 88.0032 5.20377C87.9464 6.94176 86.8686 8.41675 85.3472 9.05625C85.1564 9.11814 84.9656 9.17999 84.7747 9.2522C79.4164 11.1965 75.5845 16.3331 75.5845 22.3671C75.5845 23.1665 75.6516 23.9452 75.7805 24.7085C75.8166 24.8993 75.8476 25.0901 75.894 25.2809C75.992 25.874 76.0435 26.4826 76.0435 27.1014C76.0435 27.2097 76.0435 27.318 76.0384 27.4263V27.4727C75.8424 33.4448 70.9379 38.2307 64.9142 38.2307C63.759 38.2307 62.6399 38.0554 61.5929 37.7253C57.1835 36.3483 53.9551 32.2999 53.7952 27.4727C53.7952 27.349 53.79 27.2252 53.79 27.1014C53.79 20.9746 58.7358 16.003 64.8575 15.9721H64.873C65.0793 15.9824 65.2855 15.9875 65.4918 15.9875C65.5021 15.9875 65.5124 15.9875 65.5228 15.9875H65.5847C72.4335 15.9875 78.1426 11.0779 79.3803 4.57974C79.4112 4.41471 79.4422 4.24969 79.468 4.0795C79.9115 2.15585 81.6288 0.727295 83.6866 0.727295C86.0795 0.727295 88.0187 2.66643 88.0187 5.05939H88.0032Z" fill="black"/>
<path d="M79.3699 4.57449C79.3853 4.4043 79.4163 4.23925 79.4575 4.07422C79.4318 4.24441 79.4008 4.40946 79.3699 4.57449Z" fill="black"/>
<path d="M50.1747 6.3435C50.1334 6.3074 50.1128 6.25581 50.1128 6.19392V3.84222C50.1128 3.78033 50.1334 3.72877 50.1747 3.69267C50.2159 3.65657 50.2675 3.64111 50.3346 3.64111C50.4016 3.64111 50.4532 3.66173 50.4893 3.69784C50.5305 3.73394 50.5511 3.7855 50.5511 3.84738V6.19908C50.5511 6.26097 50.5305 6.30741 50.4893 6.34866C50.448 6.38476 50.3964 6.40539 50.3346 6.40539C50.2727 6.40539 50.2159 6.3899 50.1747 6.35379V6.3435Z" fill="white"/>
<path d="M51.2064 6.3435C51.1652 6.3074 51.1445 6.25581 51.1445 6.19392V4.56425C51.1445 4.27544 51.227 4.04853 51.3921 3.88865C51.5571 3.72362 51.784 3.64111 52.0677 3.64111C52.2121 3.64111 52.3513 3.6772 52.4802 3.75456C52.6092 3.82676 52.7123 3.92992 52.7948 4.05885C52.8773 3.92476 52.9805 3.8216 53.1094 3.7494C53.2384 3.67719 53.3776 3.64111 53.5323 3.64111C53.8211 3.64111 54.048 3.72362 54.2079 3.88865C54.3678 4.05368 54.4503 4.27544 54.4503 4.56425V6.19392C54.4503 6.25581 54.4297 6.30224 54.3884 6.3435C54.3472 6.38476 54.2956 6.40022 54.2286 6.40022C54.1615 6.40022 54.1099 6.38476 54.0687 6.34866C54.0274 6.31256 54.0068 6.26097 54.0068 6.19908V4.56941C54.0068 4.37343 53.9655 4.22902 53.8882 4.13619C53.8108 4.04336 53.6819 3.99693 53.5065 3.99693C53.3466 3.99693 53.2229 4.04853 53.1352 4.14651C53.0475 4.2445 53.0063 4.38891 53.0063 4.56941V6.19908C53.0063 6.26097 52.9857 6.31256 52.9444 6.34866C52.9031 6.38476 52.8516 6.40022 52.7845 6.40022C52.7175 6.40022 52.6659 6.38476 52.6298 6.34866C52.5937 6.31256 52.5731 6.26097 52.5731 6.19908V4.56941C52.5731 4.38891 52.5266 4.24966 52.439 4.15167C52.3513 4.05369 52.2275 4.00209 52.0728 4.00209C51.8923 4.00209 51.7634 4.04852 51.686 4.14135C51.6087 4.23418 51.5674 4.3786 51.5674 4.57457V6.20425C51.5674 6.26613 51.5468 6.31254 51.5055 6.35379C51.4643 6.39505 51.4127 6.41055 51.3456 6.41055C51.2786 6.41055 51.227 6.39506 51.1858 6.35896L51.2064 6.3435Z" fill="white"/>
<path d="M54.9918 6.34356C54.9557 6.30746 54.9351 6.25587 54.9351 6.19398V4.20846C54.9351 4.04343 54.9815 3.91449 55.0794 3.8165C55.1774 3.72367 55.3115 3.67725 55.4869 3.67725H56.1367C56.5132 3.67725 56.802 3.75462 56.998 3.91449C57.1939 4.07436 57.2919 4.30643 57.2919 4.61587C57.2919 4.9253 57.1939 5.15223 57.0031 5.30695C56.8123 5.46167 56.5286 5.54416 56.1573 5.54416H55.3734V6.19398C55.3734 6.25587 55.3528 6.3023 55.3115 6.34356C55.2703 6.37966 55.2187 6.40028 55.1517 6.40028C55.0846 6.40028 55.033 6.38482 54.9969 6.34872L54.9918 6.34356ZM56.8535 4.61587C56.8535 4.40958 56.7968 4.26002 56.6782 4.16203C56.5596 4.06404 56.3894 4.01764 56.1573 4.01764H55.5488C55.492 4.01764 55.4508 4.0331 55.4198 4.0692C55.3889 4.1053 55.3734 4.15173 55.3734 4.21362V5.19348H56.1522C56.6163 5.19348 56.8484 4.9975 56.8484 4.61071L56.8535 4.61587Z" fill="white"/>
<path d="M58.2768 6.22486C58.0654 6.1114 57.9003 5.94637 57.7869 5.74008C57.6734 5.53379 57.6167 5.29142 57.6167 5.01809C57.6167 4.74475 57.6734 4.50751 57.7869 4.29606C57.9003 4.08461 58.0654 3.92474 58.2768 3.81128C58.4883 3.69782 58.7358 3.64111 59.0195 3.64111C59.3031 3.64111 59.5507 3.69782 59.7621 3.81128C59.9735 3.92474 60.1386 4.08977 60.252 4.29606C60.3655 4.50235 60.4222 4.74475 60.4222 5.01809C60.4222 5.29142 60.3655 5.52864 60.252 5.74008C60.1386 5.95153 59.9735 6.1114 59.7621 6.22486C59.5507 6.33832 59.3031 6.39506 59.0195 6.39506C58.7358 6.39506 58.4883 6.33832 58.2768 6.22486ZM59.726 5.77102C59.9013 5.58536 59.9839 5.33784 59.9839 5.01809C59.9839 4.69834 59.8962 4.44562 59.7157 4.25996C59.5404 4.07945 59.2979 3.98664 58.9885 3.98664C58.7925 3.98664 58.6275 4.0279 58.4831 4.11557C58.3387 4.19809 58.2304 4.32187 58.153 4.47658C58.0757 4.6313 58.0396 4.8118 58.0396 5.01809C58.0396 5.22438 58.0808 5.4152 58.1582 5.56992C58.2356 5.72463 58.349 5.84325 58.4934 5.92577C58.6378 6.00828 58.8132 6.04954 59.0092 6.04954C59.3083 6.04954 59.5455 5.95669 59.7157 5.77619L59.726 5.77102Z" fill="white"/>
<path d="M60.8555 4.21362C60.8555 4.04859 60.9019 3.91449 60.9999 3.82166C61.0979 3.72368 61.232 3.67725 61.4073 3.67725H62.0984C62.4697 3.67725 62.7482 3.74948 62.9339 3.89904C63.1195 4.0486 63.2175 4.26518 63.2175 4.55398C63.2175 4.82732 63.135 5.03878 62.97 5.18834C62.805 5.3379 62.5729 5.41523 62.2789 5.41523L62.9132 6.05989C62.9545 6.10115 62.9751 6.14757 62.9751 6.19398C62.9751 6.24555 62.9494 6.29714 62.8978 6.3384C62.8514 6.3745 62.7998 6.38996 62.7585 6.38996C62.6966 6.38996 62.6348 6.35902 62.5729 6.29713L61.7322 5.42556H61.299V6.18882C61.299 6.25071 61.2784 6.3023 61.2371 6.3384C61.1959 6.3745 61.1392 6.39512 61.0721 6.39512C61.0051 6.39512 60.9484 6.3745 60.9071 6.3384C60.8658 6.3023 60.8503 6.25071 60.8503 6.18882V4.21362H60.8555ZM62.0984 5.07487C62.346 5.07487 62.5162 5.03362 62.6193 4.95626C62.7224 4.8789 62.7689 4.7448 62.7689 4.55398C62.7689 4.36317 62.7121 4.23425 62.6038 4.15173C62.4955 4.06922 62.3253 4.02797 62.0984 4.02797H61.4744C61.4228 4.02797 61.3764 4.04343 61.3506 4.07953C61.3197 4.11563 61.3042 4.16203 61.3042 4.22391V5.07487H62.0984Z" fill="white"/>
<path d="M64.5277 6.34332C64.4864 6.30722 64.4658 6.25563 64.4658 6.19374V4.0174H63.6819C63.6148 4.0174 63.5632 4.00192 63.5271 3.97097C63.491 3.94003 63.4756 3.89878 63.4756 3.8472C63.4756 3.79563 63.491 3.74922 63.5271 3.71827C63.5632 3.68733 63.6148 3.67188 63.6819 3.67188H65.688C65.7551 3.67188 65.8067 3.68733 65.8428 3.71827C65.8789 3.74922 65.8995 3.79047 65.8995 3.8472C65.8995 3.90393 65.8789 3.94003 65.8428 3.97097C65.8067 4.00192 65.7551 4.0174 65.688 4.0174H64.9042V6.19374C64.9042 6.25563 64.8835 6.30206 64.8423 6.34332C64.801 6.38458 64.7494 6.40004 64.6824 6.40004C64.6153 6.40004 64.5637 6.38458 64.5225 6.34848L64.5277 6.34332Z" fill="white"/>
<path d="M66.7037 6.27129C66.4871 6.18878 66.3066 6.07016 66.1622 5.9206C66.1312 5.88966 66.1106 5.85354 66.1106 5.80713C66.1106 5.75556 66.1312 5.70401 66.1776 5.6679C66.2086 5.63696 66.2499 5.61631 66.2911 5.61631C66.3427 5.61631 66.3994 5.64212 66.4561 5.69885C66.5696 5.81231 66.7089 5.89998 66.8739 5.95671C67.0338 6.0186 67.2091 6.04437 67.3947 6.04437C67.5804 6.04437 67.73 6.01343 67.8331 5.94638C67.9363 5.87934 67.9878 5.78652 67.9878 5.6679C67.9878 5.54929 67.9363 5.45643 67.828 5.38423C67.7197 5.31203 67.5392 5.24501 67.2813 5.18829C66.8997 5.10577 66.6263 4.99746 66.4561 4.86338C66.2859 4.72929 66.1983 4.55394 66.1983 4.34249C66.1983 4.20324 66.2447 4.08462 66.3324 3.97631C66.42 3.86801 66.5438 3.78551 66.7037 3.72878C66.8636 3.67205 67.0492 3.64111 67.2555 3.64111C67.4928 3.64111 67.699 3.68236 67.8898 3.75972C68.0755 3.83708 68.2148 3.95055 68.3076 4.08979C68.3334 4.13105 68.3437 4.1723 68.3437 4.2084C68.3437 4.26513 68.3179 4.31155 68.2612 4.34765C68.2302 4.36828 68.1941 4.37859 68.1632 4.37859C68.1323 4.37859 68.1013 4.37342 68.0703 4.35795C68.0394 4.34247 68.0136 4.32185 67.993 4.29606C67.9208 4.19807 67.8176 4.12588 67.6887 4.0743C67.5598 4.02273 67.4154 3.99693 67.2555 3.99693C67.0544 3.99693 66.9048 4.0279 66.7965 4.08463C66.6882 4.14652 66.6366 4.23419 66.6366 4.34765C66.6366 4.45595 66.6882 4.5436 66.7914 4.61065C66.8945 4.67769 67.075 4.73961 67.3329 4.80149C67.7248 4.89432 68.0033 5.00777 68.1735 5.14186C68.3437 5.27594 68.4314 5.4513 68.4314 5.6679C68.4314 5.81231 68.3901 5.94124 68.3024 6.0547C68.2147 6.16816 68.0961 6.25067 67.9414 6.31256C67.7867 6.37445 67.6062 6.40022 67.3999 6.40022C67.1524 6.40022 66.9255 6.35897 66.7089 6.27646L66.7037 6.27129Z" fill="white"/>
</svg>
