<svg width="89" height="120" viewBox="0 0 89 120" fill="none" xmlns="http://www.w3.org/2000/svg">
<path d="M76.0616 80.1387L74.0333 82.1734L71.9985 80.1387L74.0333 78.1104L76.0616 80.1387Z" fill="black"/>
<path d="M18.55 96.7952C18.2419 96.7952 17.9403 96.7438 17.645 96.6411C17.0609 96.378 16.5795 95.8837 16.2072 95.1648C16.066 94.8888 15.9697 94.6834 15.9184 94.5422L11.6948 82.918L11.5793 82.6099L11.3547 81.9808L9.94898 78.1104H9.67298L8.26729 81.9808L8.03622 82.6099L7.85648 83.1041C7.82439 83.194 7.79231 83.2902 7.7538 83.3929L6.63053 86.4803C6.2775 87.4624 5.86027 88.6049 5.37887 89.9272C4.27486 92.9761 3.71001 94.5294 3.69075 94.5743C3.66508 94.6257 3.63298 94.6898 3.58805 94.7797C3.30563 95.3253 2.75362 95.8324 1.94486 96.2881C1.70737 96.4101 1.43136 96.532 1.12968 96.6411C0.827999 96.7502 0.519919 96.808 0.205403 96.808H0V96.9621H6.02717V96.7952C5.96298 96.7952 5.89237 96.8016 5.82176 96.8016C5.51367 96.8016 5.19915 96.7503 4.89747 96.6476C4.52519 96.5063 4.26199 96.2753 4.10794 95.9672C4.01808 95.7554 3.96675 95.505 3.96675 95.229C3.96675 94.8696 4.01168 94.6064 4.08871 94.4395L5.50083 90.5369H11.0209L12.6384 94.9659C12.6898 95.1584 12.7219 95.3638 12.7219 95.5756C12.7219 95.6783 12.7154 95.7746 12.7026 95.8837C12.6577 96.1982 12.4651 96.455 12.1313 96.6476C11.9516 96.731 11.7911 96.7759 11.6307 96.7888C11.4766 96.8016 11.3418 96.808 11.2263 96.808H10.9952V96.9621H18.7683V96.7952H18.5372H18.55ZM10.1159 90.2032H5.6356L6.98997 86.4739L8.27371 82.9308L9.55745 86.4739H9.56384L10.9182 90.2032H10.1159Z" fill="black"/>
<path d="M21.9774 91.0762V86.5382H25.7324V86.2044H21.9774V78.1938C21.6244 78.5276 21.3035 78.8165 21.0082 79.0475C20.7065 79.285 20.3664 79.5161 19.9812 79.7408C19.5961 79.9654 19.1853 80.1451 18.7617 80.2799C18.383 80.3955 18.0043 80.4468 17.632 80.434V80.6009C17.632 80.6009 17.6898 80.588 17.7668 80.5816C17.8438 80.5752 17.9401 80.5816 18.0492 80.588C18.1583 80.6008 18.2674 80.6394 18.3766 80.6971C18.4857 80.7549 18.5755 80.8512 18.6461 80.986C18.7167 81.1208 18.7553 81.3005 18.7617 81.5316V86.2108H14.7949V86.5446H18.7617V91.0826C18.7617 91.6218 18.8002 92.1609 18.8708 92.6873C18.9478 93.2264 19.1019 93.7528 19.3458 94.2663C19.5833 94.7412 19.8785 95.1906 20.2444 95.6078C20.6103 96.025 21.0211 96.378 21.4896 96.654C21.5731 96.7054 21.6565 96.7503 21.7335 96.7952C21.9261 96.8787 22.17 96.93 22.4653 96.9364H22.6835C22.7862 96.9364 22.8889 96.9364 23.0044 96.9364C23.1135 96.9364 23.2548 96.9364 23.4281 96.9364V96.7824C23.3703 96.7824 23.3125 96.7824 23.2548 96.7888C23.0815 96.8081 22.9082 96.8081 22.7413 96.7952C22.5744 96.7824 22.4267 96.731 22.292 96.6284C22.17 96.5064 22.0801 96.2561 22.0416 95.8966C22.0224 95.749 22.0096 95.5949 21.9967 95.4281C21.9839 95.0237 21.9774 94.4075 21.971 93.5923V91.089H21.9774V91.0762Z" fill="black"/>
<path d="M67.7364 91.0762V86.5382H71.4913V86.2044H67.7364V78.1938C67.3833 78.5276 67.0624 78.8165 66.7672 79.0475C66.4655 79.285 66.1253 79.5161 65.7402 79.7408C65.355 79.9654 64.9443 80.1451 64.5206 80.2799C64.1419 80.3955 63.7632 80.4468 63.3909 80.434V80.6009C63.3909 80.6009 63.4487 80.588 63.5257 80.5816C63.6027 80.5752 63.699 80.5816 63.8081 80.588C63.9172 80.6008 64.0264 80.6394 64.1355 80.6971C64.2446 80.7549 64.3344 80.8512 64.4051 80.986C64.4757 81.1208 64.5142 81.3005 64.5206 81.5316V86.2108H60.5538V86.5446H64.5206V91.0826C64.5206 91.6218 64.5591 92.1609 64.6297 92.6873C64.7068 93.2264 64.8608 93.7528 65.1047 94.2663C65.3422 94.7412 65.6375 95.1906 66.0033 95.6078C66.3692 96.025 66.78 96.378 67.2486 96.654C67.332 96.7054 67.4154 96.7503 67.4924 96.7952C67.685 96.8787 67.9289 96.93 68.2242 96.9364H68.4424C68.5451 96.9364 68.6478 96.9364 68.7634 96.9364C68.8725 96.9364 69.0137 96.9364 69.187 96.9364V96.7824C69.1292 96.7824 69.0715 96.7824 69.0137 96.7888C68.8404 96.8081 68.6671 96.8081 68.5002 96.7952C68.3333 96.7824 68.1857 96.731 68.0509 96.6284C67.929 96.5064 67.8391 96.2561 67.8006 95.8966C67.7813 95.749 67.7685 95.5949 67.7556 95.4281C67.7428 95.0237 67.7364 94.4075 67.73 93.5923V91.089H67.7364V91.0762Z" fill="black"/>
<path d="M32.3437 96.7696C32.1768 96.7888 32.0034 96.7888 31.8366 96.776C31.6697 96.7632 31.5156 96.7054 31.3872 96.6027C31.0663 96.3139 30.8481 95.9737 30.7454 95.5821C30.6427 95.1906 30.5913 94.8697 30.5978 94.6257V78.104C30.2447 78.4378 29.9238 78.7202 29.6285 78.9577C29.3268 79.1952 28.9867 79.4263 28.5951 79.6509C28.21 79.8756 27.8056 80.0553 27.3756 80.1901C26.9969 80.3056 26.6182 80.357 26.2395 80.3377V80.511C26.2395 80.511 26.2972 80.4982 26.3679 80.4918C26.4449 80.4853 26.5347 80.4853 26.6374 80.4918C26.7401 80.5046 26.8492 80.5367 26.9519 80.588C27.0611 80.6394 27.1509 80.7293 27.2279 80.8512C27.305 80.9732 27.3499 81.1401 27.3563 81.3583V94.6322C27.3563 94.8761 27.3114 95.197 27.2087 95.5821C27.106 95.9737 26.8942 96.3074 26.5668 96.6027C26.4385 96.7054 26.2844 96.7632 26.1175 96.776C25.9506 96.7888 25.7773 96.7824 25.604 96.7696C25.5463 96.7696 25.4949 96.7568 25.4371 96.7503V96.9236H32.4913V96.7503L32.3244 96.7696H32.3437Z" fill="black"/>
<path d="M42.3634 96.9748C42.0104 96.9748 41.6253 96.9362 41.2145 96.8528C40.8037 96.7694 40.4699 96.4805 40.2131 95.9927C39.0578 96.442 37.8639 96.7437 36.6315 96.9042C36.3363 96.9427 36.0346 96.9619 35.7393 96.9619C35.5082 96.9619 35.2001 96.9427 34.815 96.9106C34.4299 96.8721 34.0063 96.7244 33.5377 96.4548C33.1077 96.1853 32.7931 95.8322 32.5749 95.3958C32.331 94.9015 32.2155 94.3624 32.2155 93.7783C32.2155 92.7898 32.5107 91.9297 33.0948 91.1851C34.1667 89.8308 36.0153 88.9321 38.6406 88.5085C38.923 88.4507 39.2118 88.4122 39.4942 88.3801L40.0719 88.3159V85.6971C40.0719 85.3954 40.0398 85.0681 39.9821 84.7022C39.9243 84.3428 39.8023 84.0026 39.629 83.6816C39.4557 83.3607 39.199 83.1232 38.8652 82.9692H38.3068C38.1656 82.9628 38.0436 82.9692 37.9473 82.9692C37.4018 83.1296 36.9204 83.4955 36.5031 84.0796C36.0859 84.6637 35.7842 85.389 35.5788 86.2619L33.9228 84.8691C34.1603 84.362 34.5069 83.9448 34.9755 83.6303C35.4376 83.3158 35.9383 83.0783 36.4646 82.9242C37.1386 82.7188 37.8125 82.6226 38.4929 82.6226C39.1733 82.6226 39.8088 82.7124 40.3544 82.8921C40.5469 82.9563 40.778 83.059 41.054 83.1938C41.7344 83.5404 42.2479 84.0154 42.5881 84.6252C43.0566 85.4981 43.2941 86.4481 43.2941 87.4687C43.2941 87.5842 43.3006 88.0014 43.2941 88.7267C43.2941 89.4521 43.2941 91.1402 43.2941 93.7911V94.5228C43.2877 95.5241 43.5701 96.243 44.135 96.6795C44.2954 96.7758 44.5008 96.8271 44.7576 96.8271C44.8539 96.8271 44.9437 96.8271 45.0464 96.8079H45.2197V96.9619H43.3006C42.832 96.9812 42.5303 96.9876 42.3826 96.9876L42.3634 96.9748ZM37.5045 96.3521C38.3774 96.1788 39.2375 95.9285 40.0719 95.614H40.1104L40.0719 94.3239C40.0719 94.1185 40.0655 92.2057 40.0655 88.5727L39.1797 88.7139C38.3774 89.0605 37.6842 89.5355 37.1001 90.1324C36.516 90.7358 36.1373 91.4739 35.9576 92.3405C35.8934 92.6678 35.8613 93.008 35.8613 93.361C35.8613 93.5344 35.8805 93.8039 35.9126 94.1634C35.9447 94.5228 36.0923 94.9272 36.3427 95.3765C36.5994 95.8258 36.9845 96.1467 37.5109 96.3521H37.5045Z" fill="black"/>
<path d="M60.7528 96.6155C60.8812 96.7182 61.0353 96.776 61.2022 96.7888C61.369 96.8017 61.5424 96.7952 61.7093 96.7824C61.767 96.7824 61.8248 96.776 61.8825 96.776V96.9429H54.822V96.776C54.8797 96.776 54.9311 96.776 54.9953 96.7824C55.1622 96.8017 55.3355 96.8017 55.5023 96.7888C55.6692 96.776 55.8233 96.7182 55.9517 96.6155C56.2662 96.3267 56.478 95.9865 56.5871 95.6014C56.6898 95.2162 56.7412 94.8953 56.7412 94.645V85.6267C56.6898 84.8885 56.4908 84.3943 56.1442 84.1504C55.7976 83.9065 55.3676 83.823 54.8669 83.9065C54.3662 83.9835 53.872 84.144 53.3778 84.3751C52.8835 84.6061 52.4727 84.8308 52.139 85.0362C51.8052 85.2416 51.6319 85.3571 51.6126 85.3828C51.2596 85.6588 50.9194 85.9412 50.5921 86.2365V94.645C50.5921 94.8889 50.6434 95.2098 50.7461 95.5949C50.8488 95.9865 51.0606 96.3202 51.3816 96.6155C51.5099 96.7182 51.664 96.776 51.8309 96.7888C51.9978 96.8017 52.171 96.7952 52.3379 96.7824C52.3957 96.7824 52.4535 96.776 52.5113 96.776V96.9429H45.4507V96.776C45.5085 96.776 45.5598 96.776 45.6176 96.7824C45.7909 96.8017 45.9642 96.8017 46.1375 96.7888C46.3108 96.776 46.452 96.7182 46.5804 96.6155C46.9013 96.3331 47.1196 95.9929 47.2223 95.6078C47.3249 95.2227 47.3763 94.9017 47.3763 94.6578V85.877C47.3763 85.646 47.3314 85.4662 47.2608 85.3314C47.1902 85.1967 47.1003 85.1004 46.9912 85.0426C46.8821 84.9848 46.7729 84.9463 46.6638 84.9335C46.5547 84.9207 46.4584 84.9142 46.3878 84.9271C46.3108 84.9335 46.2659 84.9399 46.2466 84.9463V84.7794C46.6317 84.7923 47.0104 84.7409 47.3827 84.6254C47.8128 84.497 48.2236 84.3173 48.6087 84.0862C48.9938 83.8616 49.334 83.6305 49.6357 83.393C49.9374 83.1555 50.2583 82.8731 50.6049 82.5393V85.8C51.4136 85.0875 52.2737 84.4457 53.1724 83.868C53.9426 83.3545 54.777 82.9629 55.6628 82.6998H55.6821C55.6821 82.6998 55.7013 82.6998 55.7078 82.6933C55.9003 82.642 56.08 82.6035 56.2597 82.5778C56.4331 82.5586 56.6 82.5393 56.7604 82.5393H56.8182C57.505 82.5521 58.057 82.7255 58.4742 83.0721C58.8914 83.4187 59.2188 83.8487 59.437 84.3751C59.6552 84.9014 59.8093 85.4406 59.8863 85.9926C59.9056 86.1274 59.9249 86.2621 59.9377 86.3841C59.9377 86.4804 59.9505 86.9425 59.9569 87.777C59.9569 88.6114 59.9698 89.5614 59.9698 90.6333C59.9698 91.7052 59.9762 93.066 59.9826 94.7284C59.9955 94.9852 60.0532 95.2997 60.1623 95.6656C60.2714 96.0314 60.4704 96.3523 60.7721 96.6155H60.7528Z" fill="black"/>
<path d="M76.7868 96.6028C76.9152 96.7055 77.0693 96.7632 77.2361 96.7761C77.403 96.7889 77.5763 96.7825 77.7432 96.7697C77.801 96.7697 77.8588 96.7633 77.9165 96.7633V96.9301H70.856V96.7633C70.9137 96.7633 70.965 96.7633 71.0292 96.7697C71.1961 96.7889 71.3695 96.7889 71.5363 96.7761C71.7032 96.7632 71.8572 96.7055 71.9856 96.6028C72.3001 96.3139 72.512 95.9738 72.6211 95.5886C72.7302 95.2035 72.7751 94.889 72.7751 94.6387V85.89C72.7751 85.6525 72.7302 85.4728 72.6596 85.338C72.589 85.2032 72.4991 85.1133 72.39 85.0491C72.2809 84.9914 72.1718 84.9528 72.0627 84.94C71.9536 84.9272 71.8573 84.9272 71.7803 84.94C71.7032 84.9464 71.6583 84.9528 71.639 84.9593V84.786C72.0241 84.8052 72.4029 84.7539 72.7751 84.6383C73.2052 84.5035 73.616 84.3238 74.0011 84.0992C74.3862 83.8745 74.7264 83.6434 75.0281 83.4124C75.3298 83.1685 75.6507 82.886 75.9973 82.5522V94.6258C75.9973 94.8762 76.0487 95.1971 76.1514 95.5886C76.2541 95.9802 76.4659 96.314 76.7868 96.6092V96.6028Z" fill="black"/>
<path d="M83.2761 96.93C83.2761 96.93 83.0322 96.93 82.5958 96.93C82.1593 96.93 81.5623 96.7952 80.7921 96.532C80.0732 96.2881 79.4249 95.903 78.8601 95.3831C78.2952 94.8632 77.9294 94.2598 77.7689 93.573C77.724 93.3933 77.7047 93.22 77.7047 93.0467C77.7047 92.5204 77.8844 91.9812 78.2503 91.4292L79.3415 92.0326C79.2388 92.4048 79.1874 92.7771 79.1874 93.1494C79.1874 93.5409 79.2452 93.9325 79.3543 94.3176V94.3304L79.38 94.3882C79.4121 94.4909 79.4891 94.6514 79.6047 94.876C79.7202 95.1007 79.9063 95.3318 80.1502 95.5757C80.3941 95.8196 80.7086 96.0378 81.0938 96.2368C81.4211 96.4037 81.7806 96.4871 82.185 96.4871C82.262 96.4871 82.4353 96.4743 82.7177 96.455C83.0001 96.4358 83.4174 96.1919 83.9758 95.7233C84.3096 95.396 84.5663 95.0172 84.746 94.5936C84.9257 94.1186 85.0092 93.6308 85.0092 93.1237C85.0092 92.944 84.9835 92.6423 84.9257 92.2059C84.868 91.7694 84.6305 91.2751 84.2133 90.7167C84.2004 90.691 84.1812 90.6654 84.1555 90.6461C83.8731 90.3444 83.5265 90.1262 83.1157 89.9914C82.7049 89.863 82.2877 89.7603 81.8512 89.6897C81.4212 89.6191 81.0167 89.5228 80.6573 89.3945C79.9384 89.1441 79.3158 88.7397 78.783 88.1877C78.2503 87.6357 77.9679 86.9618 77.9422 86.1723C77.9679 85.3956 78.231 84.7409 78.7381 84.1953C79.2388 83.6497 79.8486 83.2518 80.561 82.9822C81.2735 82.719 81.986 82.5842 82.7049 82.5842C83.4238 82.5842 84.2004 82.7254 84.9514 83.0143C85.4777 83.2197 85.9527 83.5278 86.3764 83.9193C86.7936 84.3173 87.1017 84.773 87.2878 85.2993C87.3841 85.5753 87.4291 85.8578 87.4291 86.1466C87.4291 86.4098 87.3905 86.6794 87.3071 86.9618L85.9848 85.8899C85.9271 85.0041 85.6832 84.2723 85.2467 83.7075L85.0541 83.5406C84.9193 83.4315 84.746 83.3224 84.5278 83.2132C84.2454 83.072 83.9501 82.995 83.6484 82.995C83.0772 82.995 82.5765 83.3288 82.14 83.9963C81.7677 84.6446 81.5816 85.3571 81.5816 86.1466C81.5816 86.1594 81.5816 86.3648 81.5816 86.7628C81.5816 87.1672 81.7806 87.6935 82.1721 88.3418H82.1785C82.1978 88.3739 82.2106 88.406 82.2363 88.4317C82.3005 88.5408 82.5123 88.682 82.8653 88.8681C83.2184 89.0543 83.8281 89.2404 84.6818 89.433L84.8359 89.4651C86.126 89.7411 87.1338 90.2995 87.8655 91.1339C88.3598 91.7373 88.6101 92.3856 88.6101 93.0852C88.6101 93.1173 88.6101 93.3227 88.5972 93.7014C88.5844 94.0801 88.3084 94.5679 87.7692 95.1713C87.1915 95.7811 86.5112 96.224 85.7217 96.5064C84.9386 96.7888 84.1234 96.93 83.2761 96.93Z" fill="black"/>
<path d="M88.5715 34.733V38.3981C88.5715 38.3981 88.5587 38.4174 88.5523 38.4174C84.9065 38.4302 81.9474 41.4085 81.9474 45.0735V62.8919C81.9474 62.8919 81.9217 62.9239 81.9089 62.9047L73.064 54.0148L73.0575 54.002V45.2789C73.0575 41.6845 70.3103 38.5778 66.7351 38.4174C62.9416 38.2505 59.8093 41.2929 59.8093 45.0671V73.6432C59.8093 73.6432 59.7837 73.6753 59.7708 73.656L50.9258 64.7661L50.9194 64.7533V45.2725C50.9194 41.6781 48.1722 38.5714 44.597 38.4109C40.8036 38.244 37.6712 41.2865 37.6712 45.0607V64.8496C37.6712 64.8496 37.6712 64.8624 37.6648 64.8624L28.8198 73.7523C28.8198 73.7523 28.7813 73.7523 28.7813 73.7395V45.2725C28.7813 41.6716 26.0277 38.565 22.4525 38.4109C18.6591 38.244 15.5332 41.2865 15.5332 45.0607V54.6438C15.5332 54.6438 15.5332 54.6567 15.5267 54.6567L6.68176 63.5466C6.68176 63.5466 6.64325 63.5466 6.64325 63.5337V45.0607C6.64325 41.3892 3.69066 38.4109 0.0384203 38.4045C0.025583 38.4045 0.019165 38.3981 0.019165 38.3853V34.7202C0.019165 34.7202 0.0320017 34.7009 0.0384203 34.7009H88.5523C88.5523 34.7009 88.5715 34.7138 88.5715 34.7202V34.733Z" fill="black"/>
<path d="M88.5718 30.304H0.0130615V32.7816H88.5718V30.304Z" fill="black"/>
<path d="M88.6039 27.1399H0.0130615V28.3723H88.6039V27.1399Z" fill="black"/>
<path d="M44.3082 0.810059L0.0128174 27.1331H88.6037L44.3082 0.810059ZM49.4946 20.9134L44.3147 7.33786L56.5359 20.9134H49.4946ZM44.3596 3.96164L75.7406 23.7312H62.9802L44.3596 3.96164Z" fill="black"/>
<path d="M88.6039 101.308H0.0130615V102.437H88.6039V101.308Z" fill="black"/>
<path d="M39.6483 109.896C38.9037 111.096 37.6648 111.847 36.4902 112.573C36.4196 112.618 36.3811 112.509 36.4453 112.464C37.1064 112.034 37.7611 111.584 38.3452 111.051C38.9037 110.538 39.584 109.832 39.706 109.055C39.8921 107.868 38.3645 108.137 37.6969 108.349C36.8047 108.632 35.9511 109.074 35.1359 109.53C33.666 110.352 32.2539 111.302 30.8867 112.29C30.2641 112.74 29.6543 113.215 29.0959 113.747C28.9483 113.889 28.6658 114.081 28.6209 114.274C28.5567 114.556 28.852 114.62 29.0638 114.646C29.404 114.684 29.7634 114.665 30.11 114.659C31.7147 114.646 33.3194 114.479 34.9176 114.627C35.2835 114.659 35.8291 114.723 36.3233 114.871C37.1963 114.376 38.1013 113.953 39.0449 113.613C39.1733 113.568 39.1989 113.754 39.0962 113.805C38.2746 114.177 37.4723 114.569 36.6892 114.999C37.2926 115.262 37.6841 115.705 37.2605 116.475C36.9139 117.104 36.3233 117.618 35.7713 118.067C35.1616 118.561 34.5261 119.03 33.8265 119.377C33.3194 119.627 32.5684 119.961 31.9971 119.736C31.4965 119.543 31.4259 118.946 31.6441 118.51C31.933 117.932 32.5941 117.489 33.0819 117.091C33.6724 116.604 34.2886 116.154 34.9305 115.731C35.2386 115.525 35.5531 115.326 35.8741 115.134C34.8278 114.935 33.4285 114.98 33.0498 114.993C32.2282 115.018 31.4002 115.07 30.5786 115.108C30.1807 115.127 29.7827 115.14 29.3847 115.134C29.0702 115.134 28.7365 115.127 28.454 114.96C28.2166 114.819 28.0176 114.55 28.0368 114.261C28.0561 113.972 28.2807 113.767 28.4669 113.574C29.0189 113.022 29.6287 112.541 30.2577 112.085C31.5479 111.154 32.8829 110.268 34.2565 109.466C34.9369 109.068 35.6366 108.689 36.3555 108.368C37.0487 108.054 37.7868 107.746 38.5571 107.707C39.077 107.682 39.6932 107.791 39.9499 108.311C40.2067 108.837 39.9499 109.434 39.6675 109.89L39.6483 109.896ZM36.2527 115.236C35.6044 115.609 34.969 116.007 34.3592 116.45C33.6532 116.957 32.9728 117.509 32.3373 118.099C32.0421 118.375 31.4836 118.946 31.9201 119.351C32.3245 119.73 33.2681 119.235 33.6211 119.062C34.2886 118.722 34.8984 118.247 35.4889 117.791C36.0345 117.361 36.7149 116.841 37.0166 116.193C37.2412 115.705 36.8625 115.416 36.2592 115.243L36.2527 115.236Z" fill="black"/>
<path d="M39.4044 112.47C39.52 112.553 39.5007 112.733 39.398 112.784C39.321 113.298 39.0642 113.779 39.0257 114.306C39.0514 114.293 39.0835 114.28 39.1092 114.267C39.1926 114.235 39.2825 114.344 39.2696 114.421C39.2183 114.717 39.0321 114.941 38.7176 114.903C38.5957 114.89 38.5186 114.768 38.4994 114.659C38.4352 114.351 38.5379 113.959 38.6085 113.67C38.7048 113.272 38.8139 112.797 39.0578 112.464C39.122 112.38 39.2311 112.348 39.321 112.412C39.3467 112.431 39.3723 112.451 39.4044 112.47ZM39.6612 111.533C39.6612 111.571 39.6419 111.61 39.6162 111.642C39.597 111.674 39.5649 111.7 39.5328 111.719C39.5007 111.745 39.4622 111.757 39.4237 111.764C39.3659 111.777 39.3081 111.77 39.2568 111.764C39.2311 111.751 39.2054 111.738 39.1798 111.732C39.1092 111.693 39.0642 111.623 39.0386 111.552C39.0257 111.514 39.0257 111.475 39.0386 111.437C39.0386 111.398 39.0578 111.36 39.0835 111.327C39.1092 111.295 39.1349 111.27 39.1669 111.25C39.199 111.225 39.2375 111.212 39.2761 111.205C39.3338 111.193 39.3916 111.199 39.4429 111.212C39.4686 111.225 39.4943 111.231 39.52 111.244C39.5906 111.283 39.6355 111.353 39.6547 111.424C39.6676 111.462 39.6676 111.501 39.6547 111.539L39.6612 111.533Z" fill="black"/>
<path d="M42.2864 112.585C42.2992 113.208 42.1901 113.843 42.3378 114.46C42.3891 114.671 42.1709 114.864 41.9655 114.736C41.6445 114.537 41.7087 114.152 41.728 113.818C41.7408 113.606 41.7601 113.394 41.7986 113.182C41.8114 113.105 42.0168 112.528 41.9334 112.463C41.7344 112.303 41.0412 113.202 40.9192 113.362C40.778 113.542 40.6496 113.734 40.5213 113.927C40.4763 114.229 40.4442 114.582 40.2131 114.781C40.1425 114.845 40.0463 114.813 40.0078 114.729C39.8409 114.37 39.9756 113.94 40.0527 113.567C40.1425 113.15 40.2324 112.637 40.4763 112.277C40.6111 112.072 40.8678 112.309 40.8165 112.47C40.8036 112.823 40.6881 113.195 40.6047 113.548C40.6753 113.439 40.7523 113.324 40.8293 113.214C41.0861 112.855 41.3814 112.463 41.7665 112.239C42.0874 112.053 42.2735 112.226 42.28 112.573L42.2864 112.585Z" fill="black"/>
<path d="M43.9168 112.739C43.782 112.874 43.5766 112.637 43.6922 112.502C43.8013 112.367 43.8975 112.232 43.9553 112.065C44.0388 111.815 43.9104 111.956 43.8141 112.02C43.5702 112.187 43.3841 112.515 43.2814 112.803C43.2107 113.002 43.1722 113.227 43.1722 113.445C43.1722 113.535 43.1722 113.683 43.2236 113.76C43.3134 113.895 43.5188 113.843 43.6665 113.914C43.7306 113.946 43.7371 114.036 43.705 114.087C43.4803 114.536 42.8577 114.273 42.6973 113.914C42.4855 113.426 42.6716 112.797 42.9283 112.367C43.1209 112.04 43.6857 111.289 44.1479 111.539C44.6357 111.809 44.1671 112.482 43.9168 112.739Z" fill="black"/>
<path d="M47.0107 111.533C47.0428 111.796 46.7282 112.053 46.5614 112.207C46.2276 112.515 45.8168 112.83 45.3739 112.99C45.3482 113.067 45.329 113.138 45.3161 113.215C45.2776 113.42 45.3097 113.593 45.5215 113.658C45.605 113.683 45.7205 113.658 45.8168 113.67C45.9131 113.683 45.9452 113.824 45.881 113.889C45.6563 114.113 45.2841 114.177 45.0145 113.985C44.7192 113.773 44.7385 113.382 44.8155 113.061C44.9824 112.316 45.7077 111.43 46.4843 111.27C46.7154 111.225 46.9786 111.257 47.0107 111.527V111.533ZM46.6063 111.559C46.4651 111.514 46.0222 111.995 46.0928 111.931C45.8938 112.111 45.7783 112.2 45.6563 112.393C45.5857 112.509 45.5215 112.624 45.4702 112.746C45.7012 112.631 45.9259 112.509 46.1249 112.348C46.2212 112.271 46.9208 111.655 46.6127 111.559H46.6063Z" fill="black"/>
<path d="M50.5728 113.099C50.8938 113.054 51.0992 113.144 51.1955 113.343C51.2211 113.4 51.2276 113.439 51.1441 113.452C50.759 113.484 49.9181 113.753 49.5459 113.914C49.379 113.991 49.2955 113.978 49.2121 113.914C49.1222 113.837 49.058 113.747 49.0131 113.657C48.9425 113.529 48.9553 113.484 49.0837 113.381C50.714 112.104 52.062 110.255 51.5485 109.806C51.2019 109.511 50.7461 110.287 50.5664 110.647C50.3995 110.98 50.2519 111.147 49.9631 111.173C49.8796 111.173 49.8668 111.16 49.886 111.077C49.9566 110.743 50.2712 109.992 50.759 109.665C51.0478 109.466 51.4394 109.434 51.7282 109.658C52.0042 109.87 52.1518 110.21 51.9464 110.801C51.7539 111.346 50.9002 112.54 49.6935 113.387C50.0144 113.246 50.3418 113.15 50.5728 113.118V113.099Z" fill="black"/>
<path d="M55.0079 111.597C54.6613 112.624 54.0002 113.503 53.1273 113.337C52.6009 113.234 52.3121 112.81 52.2415 112.303C52.0553 110.955 53.0245 109.575 53.6728 109.196C54.013 108.997 54.3275 109.023 54.5201 109.177C55.3289 109.37 55.3353 110.641 55.0079 111.591V111.597ZM54.4174 109.338C54.1029 109.267 53.3904 109.851 52.9539 110.885C52.511 111.931 52.6458 112.99 53.0951 113.099C53.5188 113.208 54.1799 112.56 54.533 111.507C54.9309 110.339 54.7704 109.408 54.4174 109.331V109.338Z" fill="black"/>
<path d="M56.645 112.341C56.9659 112.296 57.1713 112.386 57.2676 112.585C57.2932 112.643 57.2997 112.681 57.2163 112.694C56.8311 112.726 55.9902 112.996 55.618 113.156C55.4511 113.233 55.3677 113.221 55.2842 113.156C55.1944 113.079 55.1302 112.99 55.0852 112.9C55.0146 112.771 55.0275 112.726 55.1558 112.624C56.7862 111.346 58.1341 109.498 57.6206 109.048C57.274 108.753 56.8183 109.53 56.6386 109.889C56.4717 110.223 56.324 110.39 56.0352 110.416C55.9518 110.416 55.9389 110.403 55.9582 110.319C56.0288 109.992 56.3433 109.235 56.8311 108.907C57.1199 108.708 57.5115 108.676 57.8003 108.901C58.0763 109.113 58.224 109.453 58.0186 110.043C57.826 110.589 56.9723 111.783 55.7656 112.63C56.0801 112.489 56.4139 112.393 56.645 112.361V112.341Z" fill="black"/>
<path d="M61.0802 110.833C60.7336 111.86 60.0725 112.739 59.1995 112.572C58.6732 112.47 58.3843 112.046 58.3137 111.539C58.1276 110.191 59.0968 108.811 59.7451 108.432C60.0853 108.233 60.3998 108.259 60.5924 108.413C61.4011 108.606 61.4075 109.877 61.0802 110.826V110.833ZM60.4897 108.58C60.1752 108.509 59.4627 109.093 59.0262 110.127C58.5834 111.173 58.7181 112.232 59.1674 112.348C59.5911 112.457 60.2522 111.809 60.6052 110.756C61.0032 109.588 60.8427 108.657 60.4833 108.58H60.4897Z" fill="black"/>
</svg>
