<svg width="110" height="77" viewBox="0 0 110 77" fill="none" xmlns="http://www.w3.org/2000/svg">
<path d="M54.6398 44.6217C56.6484 31.4488 68.1539 21.5509 81.5316 21.5509C96.5297 21.5509 108.735 33.7558 108.735 48.754C108.735 63.7522 96.5297 75.9571 81.5316 75.9571C72.5122 75.9571 64.1027 71.505 59.0237 64.0379L58.4267 64.6733C63.6763 72.2768 72.2905 76.81 81.5316 76.81C97.0031 76.81 109.588 64.2255 109.588 48.754C109.588 33.2825 97.0031 20.698 81.5316 20.698C67.6294 20.698 55.6889 31.0607 53.7528 44.8051L54.6398 44.6217Z" fill="black"/>
<path d="M64.4055 58.5496C67.9364 64.7544 74.5592 68.6095 81.6894 68.6095C92.6448 68.6095 101.562 59.6968 101.562 48.7371C101.562 37.7774 92.6491 28.8646 81.6894 28.8646C79.8215 28.8646 77.9708 29.1247 76.1882 29.6365L75.9537 28.8177C77.8087 28.2847 79.7405 28.0117 81.6894 28.0117C93.1182 28.0117 102.415 37.3083 102.415 48.7371C102.415 60.1659 93.1182 69.4624 81.6894 69.4624C74.4611 69.4624 67.736 65.667 63.9833 59.5134L64.4055 58.5454V58.5496Z" fill="black"/>
<path d="M76.1883 29.6407L75.9538 28.8176L75.7875 28.8688L76.1883 29.6407Z" fill="black"/>
<path d="M65.0026 68.6778L65.203 67.3686L64.4781 68.2386L63.7275 67.616L66.2777 64.5498L67.0965 65.0914L65.4845 67.0275L66.67 66.6479L67.4973 67.3388L66.0303 67.7567L65.8598 69.39L65.0026 68.6735V68.6778Z" fill="black"/>
<path d="M68.4868 68.0381L69.3696 68.4688L67.9538 70.7418L67.1265 70.2258L68.4911 68.0381H68.4868ZM69.6851 67.0487C69.9495 67.215 70.0391 67.5647 69.8813 67.8206C69.7235 68.0765 69.3696 68.149 69.1052 67.9869C68.8408 67.8206 68.7512 67.4709 68.909 67.215C69.0668 66.9592 69.4208 66.8867 69.6851 67.053V67.0487Z" fill="black"/>
<path d="M71.0242 70.2644L70.7043 70.9254C70.6063 71.1258 70.6574 71.2751 70.8493 71.3689C70.9432 71.4115 71.0412 71.4414 71.1478 71.4499L70.8024 72.1663C70.6276 72.1493 70.4399 72.0981 70.2523 72.0086C69.634 71.71 69.4847 71.2154 69.7661 70.6269L70.1457 69.8465L69.8685 69.7143L70.2011 69.0234L70.4783 69.1556L70.6745 68.7505H71.7534L71.3568 69.5778L71.924 69.8507L71.5914 70.5416L71.0242 70.2686V70.2644Z" fill="black"/>
<path d="M74.2737 70.6224C74.4997 70.6949 74.7044 70.8143 74.8878 70.9679L74.5083 71.6971C74.359 71.5564 74.214 71.4625 74.0818 71.4156C73.7406 71.3047 73.4251 71.4668 73.3227 71.7738C73.2204 72.0809 73.3697 72.4007 73.7279 72.5159C73.8857 72.567 74.0605 72.5798 74.2694 72.5457L74.1202 73.3517C73.8601 73.3645 73.634 73.3517 73.3995 73.275C72.6148 73.0319 72.1756 72.2216 72.44 71.4839C72.6703 70.7418 73.5104 70.3495 74.278 70.6182L74.2737 70.6224Z" fill="black"/>
<path d="M78.4572 74.2772L77.4934 74.1237L77.7322 72.6439C77.7706 72.4136 77.6512 72.2473 77.4337 72.2132C77.2162 72.1791 77.0371 72.3156 77.003 72.5459L76.7685 74.0086L75.8047 73.855L76.4358 69.9189L77.4166 69.9658L77.1437 71.6588C77.3569 71.484 77.6299 71.4158 77.9412 71.4627C78.5638 71.5608 78.8197 72.0341 78.7173 72.678L78.4614 74.2815L78.4572 74.2772Z" fill="black"/>
<path d="M82.9945 74.0256C82.6747 74.2815 82.2312 74.4563 81.7962 74.4649C80.9689 74.4905 80.2866 73.8764 80.2866 73.1002C80.2695 72.3241 80.8751 71.6887 81.6896 71.6716C82.406 71.6588 82.986 72.1279 83.0713 72.9424L81.2717 73.5565C81.4039 73.6973 81.5745 73.7612 81.792 73.757C82.0905 73.7527 82.4018 73.6162 82.7216 73.3518L82.9945 74.0256ZM82.1715 72.6013C82.0734 72.452 81.8986 72.3668 81.7109 72.371C81.3783 72.3796 81.1437 72.6269 81.1054 72.9723L82.1715 72.6013Z" fill="black"/>
<path d="M87.6469 73.5946L86.6917 73.7907L86.3932 72.3237C86.3462 72.0977 86.1799 71.9783 85.9624 72.0252C85.745 72.0679 85.6298 72.2598 85.6768 72.49L85.971 73.94L85.0157 74.1361L84.4998 71.6116L85.4124 71.3259L85.472 71.6116C85.6127 71.3728 85.8601 71.2064 86.1714 71.1467C86.7897 71.0231 87.1949 71.3728 87.3271 72.0124L87.6512 73.6031L87.6469 73.5946Z" fill="black"/>
<path d="M35.4668 29.0994C36.55 29.4363 37.5009 30.0461 38.3112 30.9331C39.1257 31.8202 39.7697 32.7797 40.2473 33.8202C40.7249 34.8565 41.0447 35.8501 41.2025 36.7968C41.3603 37.7435 41.3475 38.4471 41.1556 38.9034C40.8997 39.4834 40.4605 40.089 39.8421 40.7116C39.2195 41.3385 38.4861 41.9568 37.6417 42.5666C36.7973 43.1765 35.8975 43.7735 34.938 44.3535C33.9828 44.9334 33.0488 45.475 32.1405 45.9782C31.2322 46.4814 30.3878 46.9249 29.6074 47.3045C28.827 47.6883 28.2129 47.9825 27.7652 48.1958C26.7758 48.6521 25.7139 49.151 24.5838 49.6841C23.4538 50.2171 22.3621 50.6905 21.3087 51.1041C20.2554 51.5178 19.3002 51.812 18.4387 51.9954C17.5773 52.1788 16.9377 52.1617 16.524 51.9485C16.2681 51.8248 16.0933 51.6031 15.9995 51.2832C15.9057 50.9634 15.8715 50.618 15.9056 50.2512C15.9355 49.8845 16.0165 49.5263 16.1445 49.1766C16.2724 48.8269 16.4302 48.5284 16.6221 48.2853C16.75 48.1318 17.0357 47.9825 17.4835 47.829C17.9313 47.6755 18.4643 47.5561 19.087 47.4623C19.7096 47.3684 20.3876 47.3087 21.1211 47.2789C21.8546 47.249 22.571 47.2618 23.2747 47.3258C24.2299 46.8993 25.3131 46.3194 26.5284 45.5859C27.7396 44.8524 28.9592 44.0464 30.1874 43.1594C31.4155 42.2724 32.584 41.3598 33.7013 40.4131C34.8186 39.4664 35.7653 38.558 36.5457 37.6881C37.3261 36.8181 37.8933 36.0249 38.243 35.3085C38.5927 34.5921 38.6097 34.0206 38.2899 33.5899C37.97 33.1933 37.4541 32.9119 36.7334 32.7413C36.0169 32.575 35.1555 32.511 34.1491 32.5579C33.1469 32.6048 32.0382 32.7413 30.827 32.9716C29.6159 33.2019 28.3409 33.4833 27.0018 33.8202C26.6521 34.43 26.1319 35.172 25.4453 36.042C24.7587 36.912 23.9527 37.9184 23.0316 39.0655C22.1062 40.2084 21.0699 41.4792 19.9228 42.8652C18.7756 44.2554 17.5645 45.7437 16.2895 47.3301C14.7585 49.2533 13.3256 51.0998 11.9866 52.8696C10.6475 54.6394 9.46629 56.23 8.44708 57.633C7.42787 59.0361 6.58777 60.196 5.9353 61.1128C5.28284 62.0297 4.86067 62.5798 4.66876 62.7632C4.47686 62.9466 4.17408 62.9594 3.76043 62.8101C3.34677 62.6566 2.92458 62.3965 2.49387 62.0297C2.06315 61.663 1.69643 61.2152 1.39365 60.6779C1.09087 60.1448 0.954404 59.6032 0.98852 59.0531C0.98852 58.8697 1.32114 58.3495 1.99066 57.4966C2.66018 56.6437 3.53866 55.5648 4.62184 54.2684C5.70501 52.972 6.93319 51.522 8.30635 49.9186C9.67525 48.3152 11.0783 46.6819 12.5154 45.0187C13.9482 43.3556 15.3598 41.7308 16.75 40.1402C18.136 38.5538 19.3727 37.1166 20.4558 35.8373C18.3534 36.6305 16.4387 37.4493 14.7159 38.2894C12.993 39.1295 11.7009 39.9141 10.8437 40.6476C10.5878 40.8907 10.2851 40.8779 9.93538 40.6007C9.58569 40.3278 9.26586 39.9525 8.98014 39.4792C8.69442 39.0058 8.48545 38.5154 8.35752 38.0122C8.22959 37.509 8.26372 37.1209 8.45135 36.8437C8.89912 36.2041 9.77333 35.5302 11.0825 34.8266C12.3875 34.123 13.9184 33.4535 15.6754 32.8095C17.4281 32.1699 19.3087 31.5728 21.3173 31.0227C23.3258 30.4726 25.2534 30.0248 27.1042 29.6709C28.9549 29.3212 30.6266 29.0824 32.1277 28.963C33.6245 28.8393 34.7418 28.8862 35.4753 29.0994H35.4668Z" fill="black"/>
<path d="M51.7742 48.9714C51.5524 49.1548 51.1985 49.4448 50.7208 49.8414C50.2432 50.238 49.723 50.6942 49.1686 51.2145C48.6099 51.7348 48.0428 52.2892 47.4713 52.8862C46.8956 53.4832 46.3881 54.0547 45.9404 54.6048C45.4926 55.1549 45.1514 55.6581 44.9126 56.1144C44.6738 56.5707 44.6013 56.9246 44.6994 57.1677C44.8913 57.6581 45.3775 57.7562 46.1579 57.4662C46.9383 57.1763 47.8381 56.6645 48.8615 55.931C49.8808 55.1975 50.9511 54.3447 52.0641 53.3681C53.1814 52.3915 54.1665 51.4618 55.028 50.5748C55.2199 50.3616 55.4331 50.2081 55.6719 50.1185C55.9107 50.029 56.1112 49.9821 56.2689 49.9821C56.4267 49.9821 56.5333 50.0375 56.5802 50.1441C56.6271 50.2507 56.5888 50.3957 56.4608 50.5791C56.0472 51.1292 55.5184 51.8073 54.883 52.6175C54.2433 53.4278 53.5525 54.2807 52.8019 55.1805C52.0514 56.0803 51.2795 56.9843 50.482 57.8842C49.6846 58.784 48.9212 59.5942 48.1877 60.3106C47.4543 61.0271 46.7677 61.607 46.1323 62.0506C45.4926 62.4941 44.951 62.7158 44.5075 62.7158C44.064 62.7158 43.6759 62.5239 43.3604 62.1444C43.0405 61.7648 42.8017 61.2531 42.6439 60.6092C42.4819 59.9695 42.4222 59.2189 42.452 58.366C42.4819 57.5131 42.6269 56.6091 42.8827 55.6624C41.8635 56.6389 40.9595 57.6155 40.1791 58.5921C39.3987 59.5686 38.6566 60.4471 37.953 61.2232C37.2494 62.0036 36.5671 62.6262 35.8975 63.0996C35.228 63.573 34.5244 63.8075 33.7909 63.8075C33.1853 63.8075 32.6821 63.4578 32.2855 62.7542C31.8889 62.0505 31.5776 61.2062 31.3516 60.2126C31.1299 59.2189 31.0104 58.204 30.9934 57.1677C30.9763 56.1315 31.0659 55.2615 31.2578 54.5579C31.3857 54.1016 31.7354 53.4918 32.3111 52.7241C32.8868 51.9608 33.5862 51.1506 34.4135 50.2977C35.2408 49.4448 36.1449 48.5748 37.1172 47.6878C38.0895 46.8008 39.0447 45.9948 39.9872 45.2613C40.9254 44.5278 41.7953 43.9095 42.5928 43.4063C43.3902 42.903 44.0128 42.6045 44.4563 42.515C44.7762 42.4553 45.1557 42.4553 45.6035 42.515C46.0512 42.5747 46.4948 42.7197 46.9425 42.95C47.3903 43.1802 47.8125 43.483 48.2091 43.8668C48.6057 44.2506 48.917 44.7155 49.143 45.2656C49.4287 45.1121 49.7869 45.176 50.2176 45.449C50.6484 45.7219 51.0322 46.0843 51.3648 46.5236C51.7017 46.9671 51.932 47.4234 52.0599 47.8968C52.1878 48.3701 52.0897 48.7283 51.7742 48.9714ZM33.0233 57.7648C33.1512 58.2211 33.4625 58.4428 33.9572 58.43C34.4519 58.413 35.066 58.2253 35.7995 57.8586C36.5329 57.4918 37.3602 56.9801 38.2856 56.3234C39.211 55.6666 40.1833 54.9118 41.2025 54.0547C42.9254 52.6218 44.3838 51.206 45.5779 49.82C46.7719 48.4298 47.6888 47.2955 48.3285 46.4085C47.2752 46.4085 46.1579 46.6387 44.9809 47.095C43.7996 47.5513 42.6311 48.1569 41.4669 48.9032C40.3027 49.6537 39.1854 50.4682 38.1193 51.3552C37.0489 52.2423 36.1278 53.1037 35.3474 53.9438C34.567 54.7839 33.9615 55.5557 33.5308 56.2551C33.1 56.9588 32.9337 57.462 33.0275 57.7648H33.0233Z" fill="black"/>
<path d="M74.5378 33.9522C74.2819 34.3189 73.8426 34.8605 73.2243 35.5769C72.6017 36.2933 71.8682 37.1207 71.0238 38.0503C70.1795 38.98 69.2626 39.9907 68.2732 41.0738C67.2839 42.157 66.2817 43.2487 65.2582 44.3489C64.239 45.4492 63.2412 46.5153 62.2689 47.5558C61.2966 48.5921 60.4181 49.5388 59.6377 50.396C58.8573 51.2531 58.1963 51.9781 57.6547 52.5708C57.1131 53.1679 56.7634 53.556 56.6014 53.7393C55.7698 54.7457 55.1813 55.6839 54.8316 56.5539C54.4819 57.4238 54.435 57.9825 54.6866 58.2255C54.8487 58.3791 55.2112 58.3876 55.7869 58.2469C56.3626 58.1061 57.0449 57.8588 57.8423 57.4921C58.6398 57.1253 59.5097 56.6776 60.4479 56.1402C61.3861 55.6072 62.2902 55.0187 63.1516 54.379C63.5354 54.1061 63.7955 54.0122 63.9405 54.1061C64.0855 54.1999 64.0514 54.4728 63.8467 54.9291C63.6377 55.3854 63.2241 56.0379 62.6015 56.8737C61.9789 57.7138 61.126 58.7288 60.0428 59.9185C58.8317 61.2022 57.74 62.1148 56.7677 62.6649C55.7954 63.215 54.8956 63.4751 54.064 63.4453C53.3007 63.4453 52.7634 63.0103 52.4606 62.1403C52.1578 61.2704 52.0853 60.1488 52.2474 58.7757C52.4094 57.4025 52.806 55.8545 53.4414 54.1274C54.0811 52.4045 54.9723 50.6689 56.1195 48.929C56.4052 48.5025 56.9169 47.8458 57.6504 46.9588C58.3839 46.0718 59.2283 45.0739 60.1835 43.9609C61.1388 42.8478 62.1665 41.6623 63.2667 40.4128C64.367 39.1591 65.4331 37.9266 66.4694 36.7027C67.5056 35.4831 68.4523 34.3232 69.3138 33.2229C70.1752 32.1227 70.8575 31.193 71.3692 30.4297C71.5611 30.1269 71.8639 30.0928 72.2776 30.3402C72.6912 30.5832 73.0921 30.9414 73.4716 31.4148C73.8554 31.8881 74.1625 32.3786 74.4056 32.8818C74.6444 33.385 74.6828 33.7432 74.525 33.9564L74.5378 33.9522Z" fill="black"/>
<path d="M80.8023 38.4855C80.6402 38.8821 80.3801 39.3085 80.0134 39.7691C79.6466 40.2254 79.2415 40.6689 78.7937 41.0953C78.346 41.5218 77.8683 41.9056 77.3608 42.2382C76.8491 42.5751 76.3544 42.8182 75.8768 42.9717C75.6508 43.0613 75.412 43.0954 75.1604 43.0613C74.9045 43.0314 74.6657 42.9717 74.444 42.8779C74.2222 42.7883 74.0388 42.6647 73.8938 42.5111C73.7488 42.3576 73.6934 42.1743 73.7275 41.961C73.7275 41.8374 73.8213 41.7393 74.0132 41.6625C74.2051 41.5858 74.4269 41.4791 74.6828 41.3427C74.9386 41.2062 75.186 41.0058 75.4248 40.7456C75.6636 40.4855 75.8469 40.0975 75.9749 39.5772C76.0389 39.3341 75.9749 39.0527 75.783 38.7286C75.5911 38.4087 75.5101 38.0334 75.5442 37.607C75.6081 36.9034 75.8939 36.2637 76.4056 35.6837C76.9173 35.1037 77.4419 34.7669 77.9835 34.6773C78.3673 34.6176 78.7639 34.6944 79.1775 34.9076C79.5912 35.1208 79.9494 35.4108 80.2521 35.7775C80.5549 36.1443 80.7681 36.5622 80.8961 37.0355C81.024 37.5089 80.9899 37.9908 80.8023 38.4769V38.4855Z" fill="black"/>
<path d="M78.0774 50.575C78.4271 50.2082 78.8279 49.7732 79.2714 49.27C79.7192 48.7668 80.1968 48.2167 80.7043 47.6197C81.216 47.0227 81.7406 46.4214 82.2821 45.8115C82.8237 45.2017 83.3483 44.5919 83.86 43.9778C84.8153 41.9607 86.3633 40.0844 88.4998 38.3444C88.7556 38.1312 89.1224 38.1227 89.6 38.3231C90.0776 38.5236 90.5254 38.805 90.939 39.1718C91.3527 39.5385 91.664 39.9138 91.8729 40.2933C92.0819 40.6771 92.0734 40.9586 91.8474 41.1419C91.4636 41.4149 90.986 41.8371 90.4145 42.4C89.8388 42.9671 89.2588 43.6196 88.6703 44.3702C88.0818 45.1207 87.5317 45.9267 87.02 46.7966C86.5082 47.6666 86.1287 48.5579 85.8728 49.4747C85.5871 50.5153 85.3867 51.6368 85.2758 52.8394C85.1649 54.0462 85.0754 55.1891 85.0114 56.2723C84.9474 57.3555 84.892 58.3193 84.8451 59.1594C84.7982 59.9995 84.7086 60.5709 84.5807 60.8779C84.4186 61.2148 84.0604 61.5176 83.506 61.7948C82.9474 62.0677 82.312 62.2809 81.5913 62.4345C80.8749 62.588 80.1499 62.6477 79.4164 62.6178C78.6829 62.588 78.0774 62.4046 77.5998 62.0677C77.152 61.7948 76.6914 61.2959 76.2138 60.5794C75.7362 59.863 75.297 59.0613 74.9004 58.1743C74.5038 57.2872 74.1925 56.3491 73.9664 55.3597C73.7447 54.3661 73.6978 53.4578 73.8214 52.6347C73.8854 52.0249 74.1029 51.5515 74.4654 51.2146C74.8321 50.8777 75.2372 50.7583 75.685 50.8479C75.8471 50.8777 75.9793 50.9247 76.0901 50.9844C76.201 51.0441 76.2436 51.1379 76.2095 51.2573C76.0816 51.624 76.0262 52.204 76.0432 52.9972C76.0603 53.7904 76.1797 54.5836 76.4014 55.3768C76.6232 56.17 76.9515 56.8437 77.3823 57.3939C77.813 57.944 78.3631 58.1743 79.0326 58.0805C79.6382 57.9909 80.1414 57.5858 80.538 56.8651C80.9346 56.1486 81.2544 55.3085 81.4932 54.3448C81.732 53.381 81.9154 52.4002 82.0434 51.3895C82.1713 50.3831 82.2821 49.543 82.3802 48.8692C82.4101 48.6261 82.4527 48.3745 82.4996 48.1144C82.5465 47.8542 82.602 47.6026 82.666 47.3596C82.1244 47.8798 81.5913 48.4044 81.0625 48.9417C80.538 49.4747 80.0177 50.0163 79.506 50.5664C79.2501 50.8394 78.9942 51.0313 78.7426 51.1379C78.4868 51.2445 78.2821 51.2914 78.12 51.2743C77.9622 51.2573 77.8642 51.1891 77.8343 51.0697C77.8045 50.946 77.8812 50.7797 78.0731 50.5664L78.0774 50.575Z" fill="black"/>
<path d="M35.4668 29.0994C36.55 29.4363 37.5009 30.0461 38.3112 30.9331C39.1257 31.8202 39.7697 32.7797 40.2473 33.8202C40.7249 34.8565 41.0447 35.8501 41.2025 36.7968C41.3603 37.7435 41.3475 38.4471 41.1556 38.9034C40.8997 39.4834 40.4605 40.089 39.8421 40.7116C39.2195 41.3385 38.4861 41.9568 37.6417 42.5666C36.7973 43.1765 35.8975 43.7735 34.938 44.3535C33.9828 44.9334 33.0488 45.475 32.1405 45.9782C31.2322 46.4814 30.3878 46.9249 29.6074 47.3045C28.827 47.6883 28.2129 47.9825 27.7652 48.1958C26.7758 48.6521 25.7139 49.151 24.5838 49.6841C23.4538 50.2171 22.3621 50.6905 21.3087 51.1041C20.2554 51.5178 19.3002 51.812 18.4387 51.9954C17.5773 52.1788 16.9377 52.1617 16.524 51.9485C16.2681 51.8248 16.0933 51.6031 15.9995 51.2832C15.9057 50.9634 15.8715 50.618 15.9056 50.2512C15.9355 49.8845 16.0165 49.5263 16.1445 49.1766C16.2724 48.8269 16.4302 48.5284 16.6221 48.2853C16.75 48.1318 17.0357 47.9825 17.4835 47.829C17.9313 47.6755 18.4643 47.5561 19.087 47.4623C19.7096 47.3684 20.3876 47.3087 21.1211 47.2789C21.8546 47.249 22.571 47.2618 23.2747 47.3258C24.2299 46.8993 25.3131 46.3194 26.5284 45.5859C27.7396 44.8524 28.9592 44.0464 30.1874 43.1594C31.4155 42.2724 32.584 41.3598 33.7013 40.4131C34.8186 39.4664 35.7653 38.558 36.5457 37.6881C37.3261 36.8181 37.8933 36.0249 38.243 35.3085C38.5927 34.5921 38.6097 34.0206 38.2899 33.5899C37.97 33.1933 37.4541 32.9119 36.7334 32.7413C36.0169 32.575 35.1555 32.511 34.1491 32.5579C33.1469 32.6048 32.0382 32.7413 30.827 32.9716C29.6159 33.2019 28.3409 33.4833 27.0018 33.8202C26.6521 34.43 26.1319 35.172 25.4453 36.042C24.7587 36.912 23.9527 37.9184 23.0316 39.0655C22.1062 40.2084 21.0699 41.4792 19.9228 42.8652C18.7756 44.2554 17.5645 45.7437 16.2895 47.3301C14.7585 49.2533 13.3256 51.0998 11.9866 52.8696C10.6475 54.6394 9.46629 56.23 8.44708 57.633C7.42787 59.0361 6.58777 60.196 5.9353 61.1128C5.28284 62.0297 4.86067 62.5798 4.66876 62.7632C4.47686 62.9466 4.17408 62.9594 3.76043 62.8101C3.34677 62.6566 2.92458 62.3965 2.49387 62.0297C2.06315 61.663 1.69643 61.2152 1.39365 60.6779C1.09087 60.1448 0.954404 59.6032 0.98852 59.0531C0.98852 58.8697 1.32114 58.3495 1.99066 57.4966C2.66018 56.6437 3.53866 55.5648 4.62184 54.2684C5.70501 52.972 6.93319 51.522 8.30635 49.9186C9.67525 48.3152 11.0783 46.6819 12.5154 45.0187C13.9482 43.3556 15.3598 41.7308 16.75 40.1402C18.136 38.5538 19.3727 37.1166 20.4558 35.8373C18.3534 36.6305 16.4387 37.4493 14.7159 38.2894C12.993 39.1295 11.7009 39.9141 10.8437 40.6476C10.5878 40.8907 10.2851 40.8779 9.93538 40.6007C9.58569 40.3278 9.26586 39.9525 8.98014 39.4792C8.69442 39.0058 8.48545 38.5154 8.35752 38.0122C8.22959 37.509 8.26372 37.1209 8.45135 36.8437C8.89912 36.2041 9.77333 35.5302 11.0825 34.8266C12.3875 34.123 13.9184 33.4535 15.6754 32.8095C17.4281 32.1699 19.3087 31.5728 21.3173 31.0227C23.3258 30.4726 25.2534 30.0248 27.1042 29.6709C28.9549 29.3212 30.6266 29.0824 32.1277 28.963C33.6245 28.8393 34.7418 28.8862 35.4753 29.0994H35.4668Z" fill="black"/>
<path d="M51.7742 48.9714C51.5524 49.1548 51.1985 49.4448 50.7208 49.8414C50.2432 50.238 49.723 50.6942 49.1686 51.2145C48.6099 51.7348 48.0428 52.2892 47.4713 52.8862C46.8956 53.4832 46.3881 54.0547 45.9404 54.6048C45.4926 55.1549 45.1514 55.6581 44.9126 56.1144C44.6738 56.5707 44.6013 56.9246 44.6994 57.1677C44.8913 57.6581 45.3775 57.7562 46.1579 57.4662C46.9383 57.1763 47.8381 56.6645 48.8615 55.931C49.8808 55.1975 50.9511 54.3447 52.0641 53.3681C53.1814 52.3915 54.1665 51.4618 55.028 50.5748C55.2199 50.3616 55.4331 50.2081 55.6719 50.1185C55.9107 50.029 56.1112 49.9821 56.2689 49.9821C56.4267 49.9821 56.5333 50.0375 56.5802 50.1441C56.6271 50.2507 56.5888 50.3957 56.4608 50.5791C56.0472 51.1292 55.5184 51.8073 54.883 52.6175C54.2433 53.4278 53.5525 54.2807 52.8019 55.1805C52.0514 56.0803 51.2795 56.9843 50.482 57.8842C49.6846 58.784 48.9212 59.5942 48.1877 60.3106C47.4543 61.0271 46.7677 61.607 46.1323 62.0506C45.4926 62.4941 44.951 62.7158 44.5075 62.7158C44.064 62.7158 43.6759 62.5239 43.3604 62.1444C43.0405 61.7648 42.8017 61.2531 42.6439 60.6092C42.4819 59.9695 42.4222 59.2189 42.452 58.366C42.4819 57.5131 42.6269 56.6091 42.8827 55.6624C41.8635 56.6389 40.9595 57.6155 40.1791 58.5921C39.3987 59.5686 38.6566 60.4471 37.953 61.2232C37.2494 62.0036 36.5671 62.6262 35.8975 63.0996C35.228 63.573 34.5244 63.8075 33.7909 63.8075C33.1853 63.8075 32.6821 63.4578 32.2855 62.7542C31.8889 62.0505 31.5776 61.2062 31.3516 60.2126C31.1299 59.2189 31.0104 58.204 30.9934 57.1677C30.9763 56.1315 31.0659 55.2615 31.2578 54.5579C31.3857 54.1016 31.7354 53.4918 32.3111 52.7241C32.8868 51.9608 33.5862 51.1506 34.4135 50.2977C35.2408 49.4448 36.1449 48.5748 37.1172 47.6878C38.0895 46.8008 39.0447 45.9948 39.9872 45.2613C40.9254 44.5278 41.7953 43.9095 42.5928 43.4063C43.3902 42.903 44.0128 42.6045 44.4563 42.515C44.7762 42.4553 45.1557 42.4553 45.6035 42.515C46.0512 42.5747 46.4948 42.7197 46.9425 42.95C47.3903 43.1802 47.8125 43.483 48.2091 43.8668C48.6057 44.2506 48.917 44.7155 49.143 45.2656C49.4287 45.1121 49.7869 45.176 50.2176 45.449C50.6484 45.7219 51.0322 46.0843 51.3648 46.5236C51.7017 46.9671 51.932 47.4234 52.0599 47.8968C52.1878 48.3701 52.0897 48.7283 51.7742 48.9714ZM33.0233 57.7648C33.1512 58.2211 33.4625 58.4428 33.9572 58.43C34.4519 58.413 35.066 58.2253 35.7995 57.8586C36.5329 57.4918 37.3602 56.9801 38.2856 56.3234C39.211 55.6666 40.1833 54.9118 41.2025 54.0547C42.9254 52.6218 44.3838 51.206 45.5779 49.82C46.7719 48.4298 47.6888 47.2955 48.3285 46.4085C47.2752 46.4085 46.1579 46.6387 44.9809 47.095C43.7996 47.5513 42.6311 48.1569 41.4669 48.9032C40.3027 49.6537 39.1854 50.4682 38.1193 51.3552C37.0489 52.2423 36.1278 53.1037 35.3474 53.9438C34.567 54.7839 33.9615 55.5557 33.5308 56.2551C33.1 56.9588 32.9337 57.462 33.0275 57.7648H33.0233Z" fill="black"/>
<path d="M74.5378 33.9522C74.2819 34.3189 73.8426 34.8605 73.2243 35.5769C72.6017 36.2933 71.8682 37.1207 71.0238 38.0503C70.1795 38.98 69.2626 39.9907 68.2732 41.0738C67.2839 42.157 66.2817 43.2487 65.2582 44.3489C64.239 45.4492 63.2412 46.5153 62.2689 47.5558C61.2966 48.5921 60.4181 49.5388 59.6377 50.396C58.8573 51.2531 58.1963 51.9781 57.6547 52.5708C57.1131 53.1679 56.7634 53.556 56.6014 53.7393C55.7698 54.7457 55.1813 55.6839 54.8316 56.5539C54.4819 57.4238 54.435 57.9825 54.6866 58.2255C54.8487 58.3791 55.2112 58.3876 55.7869 58.2469C56.3626 58.1061 57.0449 57.8588 57.8423 57.4921C58.6398 57.1253 59.5097 56.6776 60.4479 56.1402C61.3861 55.6072 62.2902 55.0187 63.1516 54.379C63.5354 54.1061 63.7955 54.0122 63.9405 54.1061C64.0855 54.1999 64.0514 54.4728 63.8467 54.9291C63.6377 55.3854 63.2241 56.0379 62.6015 56.8737C61.9789 57.7138 61.126 58.7288 60.0428 59.9185C58.8317 61.2022 57.74 62.1148 56.7677 62.6649C55.7954 63.215 54.8956 63.4751 54.064 63.4453C53.3007 63.4453 52.7634 63.0103 52.4606 62.1403C52.1578 61.2704 52.0853 60.1488 52.2474 58.7757C52.4094 57.4025 52.806 55.8545 53.4414 54.1274C54.0811 52.4045 54.9723 50.6689 56.1195 48.929C56.4052 48.5025 56.9169 47.8458 57.6504 46.9588C58.3839 46.0718 59.2283 45.0739 60.1835 43.9609C61.1388 42.8478 62.1665 41.6623 63.2667 40.4128C64.367 39.1591 65.4331 37.9266 66.4694 36.7027C67.5056 35.4831 68.4523 34.3232 69.3138 33.2229C70.1752 32.1227 70.8575 31.193 71.3692 30.4297C71.5611 30.1269 71.8639 30.0928 72.2776 30.3402C72.6912 30.5832 73.0921 30.9414 73.4716 31.4148C73.8554 31.8881 74.1625 32.3786 74.4056 32.8818C74.6444 33.385 74.6828 33.7432 74.525 33.9564L74.5378 33.9522Z" fill="black"/>
<path d="M80.8023 38.4855C80.6402 38.8821 80.3801 39.3085 80.0134 39.7691C79.6466 40.2254 79.2415 40.6689 78.7937 41.0953C78.346 41.5218 77.8683 41.9056 77.3608 42.2382C76.8491 42.5751 76.3544 42.8182 75.8768 42.9717C75.6508 43.0613 75.412 43.0954 75.1604 43.0613C74.9045 43.0314 74.6657 42.9717 74.444 42.8779C74.2222 42.7883 74.0388 42.6647 73.8938 42.5111C73.7488 42.3576 73.6934 42.1743 73.7275 41.961C73.7275 41.8374 73.8213 41.7393 74.0132 41.6625C74.2051 41.5858 74.4269 41.4791 74.6828 41.3427C74.9386 41.2062 75.186 41.0058 75.4248 40.7456C75.6636 40.4855 75.8469 40.0975 75.9749 39.5772C76.0389 39.3341 75.9749 39.0527 75.783 38.7286C75.5911 38.4087 75.5101 38.0334 75.5442 37.607C75.6081 36.9034 75.8939 36.2637 76.4056 35.6837C76.9173 35.1037 77.4419 34.7669 77.9835 34.6773C78.3673 34.6176 78.7639 34.6944 79.1775 34.9076C79.5912 35.1208 79.9494 35.4108 80.2521 35.7775C80.5549 36.1443 80.7681 36.5622 80.8961 37.0355C81.024 37.5089 80.9899 37.9908 80.8023 38.4769V38.4855Z" fill="black"/>
<path d="M78.0774 50.575C78.4271 50.2082 78.8279 49.7732 79.2714 49.27C79.7192 48.7668 80.1968 48.2167 80.7043 47.6197C81.216 47.0227 81.7406 46.4214 82.2821 45.8115C82.8237 45.2017 83.3483 44.5919 83.86 43.9778C84.8153 41.9607 86.3633 40.0844 88.4998 38.3444C88.7556 38.1312 89.1224 38.1227 89.6 38.3231C90.0776 38.5236 90.5254 38.805 90.939 39.1718C91.3527 39.5385 91.664 39.9138 91.8729 40.2933C92.0819 40.6771 92.0734 40.9586 91.8474 41.1419C91.4636 41.4149 90.986 41.8371 90.4145 42.4C89.8388 42.9671 89.2588 43.6196 88.6703 44.3702C88.0818 45.1207 87.5317 45.9267 87.02 46.7966C86.5082 47.6666 86.1287 48.5579 85.8728 49.4747C85.5871 50.5153 85.3867 51.6368 85.2758 52.8394C85.1649 54.0462 85.0754 55.1891 85.0114 56.2723C84.9474 57.3555 84.892 58.3193 84.8451 59.1594C84.7982 59.9995 84.7086 60.5709 84.5807 60.8779C84.4186 61.2148 84.0604 61.5176 83.506 61.7948C82.9474 62.0677 82.312 62.2809 81.5913 62.4345C80.8749 62.588 80.1499 62.6477 79.4164 62.6178C78.6829 62.588 78.0774 62.4046 77.5998 62.0677C77.152 61.7948 76.6914 61.2959 76.2138 60.5794C75.7362 59.863 75.297 59.0613 74.9004 58.1743C74.5038 57.2872 74.1925 56.3491 73.9664 55.3597C73.7447 54.3661 73.6978 53.4578 73.8214 52.6347C73.8854 52.0249 74.1029 51.5515 74.4654 51.2146C74.8321 50.8777 75.2372 50.7583 75.685 50.8479C75.8471 50.8777 75.9793 50.9247 76.0901 50.9844C76.201 51.0441 76.2436 51.1379 76.2095 51.2573C76.0816 51.624 76.0262 52.204 76.0432 52.9972C76.0603 53.7904 76.1797 54.5836 76.4014 55.3768C76.6232 56.17 76.9515 56.8437 77.3823 57.3939C77.813 57.944 78.3631 58.1743 79.0326 58.0805C79.6382 57.9909 80.1414 57.5858 80.538 56.8651C80.9346 56.1486 81.2544 55.3085 81.4932 54.3448C81.732 53.381 81.9154 52.4002 82.0434 51.3895C82.1713 50.3831 82.2821 49.543 82.3802 48.8692C82.4101 48.6261 82.4527 48.3745 82.4996 48.1144C82.5465 47.8542 82.602 47.6026 82.666 47.3596C82.1244 47.8798 81.5913 48.4044 81.0625 48.9417C80.538 49.4747 80.0177 50.0163 79.506 50.5664C79.2501 50.8394 78.9942 51.0313 78.7426 51.1379C78.4868 51.2445 78.2821 51.2914 78.12 51.2743C77.9622 51.2573 77.8642 51.1891 77.8343 51.0697C77.8045 50.946 77.8812 50.7797 78.0731 50.5664L78.0774 50.575Z" fill="black"/>
<path d="M54.7252 34.8221L51.7102 32.3658L49.4714 30.5364L48.5886 29.8157L48.5758 29.8071L48.239 29.5299C48.0215 29.3082 47.8466 29.0481 47.7315 28.7581C47.5694 28.3572 47.5182 27.9052 47.6121 27.4489C47.6632 27.193 47.7528 26.9585 47.8765 26.7495L48.2091 26.3657L48.4479 26.0928L48.7933 25.7005L52.2646 21.7004L54.3201 19.3336L54.4054 19.2355L55.2412 18.2675H55.2455C55.7274 17.9519 56.3287 17.8197 56.9427 17.9434C57.4417 18.0415 57.8724 18.293 58.188 18.6513L58.2861 18.7579L58.9769 19.517L62.8277 23.7516L62.9002 23.8326L63.429 24.4168C63.1348 24.6258 62.849 24.8433 62.5633 25.0693C61.4801 25.9179 60.4609 26.8433 59.5142 27.8497C58.4268 29.0012 57.4374 30.2464 56.5547 31.5854C56.4822 31.692 56.4097 31.8029 56.3415 31.9138C55.7444 32.8434 55.2029 33.8115 54.7252 34.8221Z" fill="black"/>
<path d="M47.9019 23.5724L47.258 23.0053L43.7654 19.9348L42.8485 19.1331L40.2685 16.8644L36.8655 13.875L36.7759 13.7983L33.2833 10.7278L30.8824 8.61693L29.7864 7.65743L29.4154 7.32905C28.2683 6.55292 27.6286 5.14137 27.9101 3.69144C28.2214 2.08374 29.5689 0.945129 31.1212 0.82146C31.4368 0.795873 31.7609 0.812933 32.085 0.8769C32.827 1.02189 33.4667 1.38437 33.9528 1.88758C33.9699 1.90037 33.9826 1.91742 33.9954 1.93021L34.8356 2.74047L38.149 5.93883L38.2813 6.06249L41.7269 9.3888L43.4711 11.069L45.1726 12.7066L48.6183 16.0328L48.7889 16.1992L51.7655 19.0691L50.4393 20.6129L47.8976 23.5724H47.9019Z" fill="black"/>
</svg>
