<svg width="167" height="80" viewBox="0 0 167 80" fill="none" xmlns="http://www.w3.org/2000/svg">
<path d="M91.6026 44.0899C90.0062 45.86 88.4287 47.5831 86.8746 49.2593L86.945 49.2781C30.4622 102.484 2.9439 63.988 0.788818 60.753C23.3209 96.225 61.3423 76.5053 91.5134 47.6536L91.673 47.4423H91.0298C91.8843 46.4328 92.7201 45.4327 93.5182 44.4515C113.707 19.661 124.013 20.7597 128.633 24.2294C116.055 13.8343 91.6026 44.0899 91.6026 44.0899Z" fill="black"/>
<path d="M131.831 28.2765C131.831 28.2765 130.939 25.9571 128.633 24.2292C129.812 25.2058 130.892 26.5299 131.831 28.2765Z" fill="black"/>
<path d="M0.78416 60.7529C0.737208 60.6778 0.690262 60.6073 0.643311 60.5322C0.643311 60.5322 0.694952 60.612 0.78416 60.7529Z" fill="black"/>
<path d="M123.347 59.0302C123.332 59.0067 123.304 58.9785 123.253 58.9456C123.201 58.9128 123.154 58.894 123.102 58.8799C122.891 58.8283 122.783 58.5935 122.783 58.1709C122.783 57.9972 122.802 57.7906 122.839 57.5559C122.962 56.7483 123.337 55.321 123.957 53.2833C124.342 52.0156 124.755 50.823 125.187 49.7103C125.624 48.5975 126.215 47.2453 126.962 45.6536C129.164 40.8881 131.31 36.9394 133.399 33.8031C133.521 33.6153 133.643 33.4368 133.756 33.2631C133.929 33.0002 134.075 32.7889 134.183 32.6199C134.291 32.4509 134.357 32.357 134.371 32.3288C134.385 32.3147 134.39 32.3053 134.39 32.2912V32.2724C134.39 32.2724 134.385 32.2537 134.371 32.2537C134.347 32.2537 134.314 32.2584 134.277 32.2724C134.216 32.2724 134.113 32.2912 133.967 32.3288C133.821 32.3663 133.62 32.418 133.361 32.4884C133.098 32.5588 132.774 32.6481 132.389 32.7607C130.201 33.3476 127.671 34.1458 124.793 35.1694C124.046 35.4323 123.459 35.6295 123.037 35.7656C122.614 35.9018 122.342 35.9816 122.215 36.0098C122.088 36.0333 122.008 36.0473 121.971 36.0473C121.858 36.0473 121.783 36.0239 121.746 35.9722C121.684 35.9112 121.647 35.8032 121.633 35.653C121.619 35.5544 121.6 35.4558 121.567 35.3525C121.534 35.2539 121.506 35.1647 121.483 35.0895C121.431 34.9769 121.407 34.8783 121.407 34.789C121.407 34.7139 121.426 34.6482 121.464 34.5825C121.553 34.4463 121.75 34.3101 122.06 34.174C123.614 33.465 126.098 32.7185 129.516 31.9344C132.929 31.1503 136.31 30.5399 139.658 30.108C140.705 29.9859 141.597 29.9202 142.343 29.9202H143.667C144.836 29.9202 145.771 29.9718 146.466 30.0704C148.156 30.3193 149.001 30.7183 149.001 31.263C149.001 31.3522 148.982 31.432 148.945 31.5071C148.884 31.6574 148.837 31.7325 148.804 31.7419C148.771 31.7466 148.752 31.7513 148.738 31.7513C148.686 31.7513 148.663 31.6949 148.663 31.5823C148.663 31.3193 148.259 31.108 147.452 30.9484C146.916 30.8498 146.325 30.7935 145.677 30.7794C145.029 30.7653 144.63 30.7606 144.484 30.7606C143.55 30.7606 142.738 30.7935 142.038 30.8545C141.367 30.9437 140.615 31.047 139.78 31.1738C138.944 31.3005 138.197 31.4226 137.54 31.5447L136.643 31.7325V32.1034C136.643 32.2631 136.573 32.5025 136.437 32.8124C136.301 33.1223 136.052 33.6106 135.69 34.2679C135.329 34.9252 134.803 35.8595 134.103 37.0662C132.807 39.3058 131.765 41.1698 130.967 42.6534C130.169 44.1418 129.169 46.0856 127.962 48.4848C127.056 50.3019 126.361 51.6916 125.891 52.6541C125.417 53.6166 125.07 54.3632 124.844 54.8843C124.619 55.4055 124.436 55.8985 124.286 56.3586C124.098 56.8939 123.962 57.3117 123.877 57.6169C123.788 57.9221 123.741 58.1193 123.727 58.2132C123.713 58.3071 123.708 58.3634 123.708 58.3916C123.708 58.4808 123.722 58.5466 123.746 58.5982C123.797 58.6968 123.821 58.786 123.821 58.8611C123.821 58.9832 123.741 59.0677 123.577 59.1053C123.516 59.1053 123.459 59.1006 123.408 59.0865C123.356 59.0724 123.328 59.0536 123.314 59.0302H123.347Z" fill="black"/>
<path d="M131.39 49.7384C131.202 49.5412 131.108 49.3112 131.108 49.0482C131.108 48.8135 131.188 48.5459 131.352 48.2454C131.638 47.696 132.066 47.1279 132.639 46.5363C133.211 45.9447 133.751 45.5128 134.263 45.2405C134.549 45.1043 134.784 45.0245 134.963 45.0057C135.141 44.9869 135.263 44.9775 135.324 44.9775C135.484 44.9775 135.615 45.0104 135.714 45.0714C135.836 45.1607 135.958 45.3156 136.071 45.5363C136.183 45.7569 136.24 45.94 136.24 46.0762C136.24 46.1372 136.254 46.1983 136.277 46.2546C136.301 46.311 136.334 46.3532 136.371 46.3767C136.432 46.4283 136.465 46.5082 136.465 46.6208V46.6772C136.465 46.8133 136.413 47.0246 136.315 47.311C136.216 47.5974 136.165 47.7946 136.165 47.9073C136.165 47.9449 136.169 47.9684 136.183 47.9824C136.207 48.0717 136.343 48.1139 136.592 48.1139C137.249 48.1139 138.151 47.8416 139.296 47.2923C139.508 47.1796 139.7 47.081 139.874 46.9918C140.137 46.8556 140.339 46.7523 140.479 46.6819C140.62 46.6115 140.714 46.5786 140.752 46.5786C140.775 46.5786 140.789 46.5833 140.789 46.5974C140.813 46.6349 140.832 46.6631 140.836 46.6819C140.841 46.7007 140.846 46.7241 140.846 46.7476L140.827 46.7852C140.813 46.8227 140.686 46.926 140.447 47.0951C140.207 47.2641 139.911 47.4613 139.569 47.6913C139.226 47.9214 138.892 48.1374 138.569 48.3346C138.245 48.5318 137.996 48.682 137.822 48.7806C137.376 49.006 136.986 49.1187 136.667 49.1187C136.493 49.1187 136.338 49.0858 136.202 49.0248C136.104 48.9731 135.991 48.8698 135.864 48.7055C135.737 48.5459 135.629 48.3721 135.526 48.1937C135.427 48.0153 135.366 47.8557 135.338 47.7195L135.282 47.4941L135.019 47.7007C134.944 47.7618 134.803 47.8885 134.592 48.0717C134.38 48.2595 134.146 48.4567 133.883 48.6679C132.798 49.6023 132.122 50.0671 131.85 50.0671C131.7 50.0671 131.545 49.9544 131.385 49.729L131.39 49.7384ZM134.094 47.7993C135.014 47.1138 135.474 46.7101 135.474 46.588C135.474 46.5645 135.451 46.5504 135.399 46.5504C135.348 46.5504 135.211 46.6349 134.981 46.804C134.751 46.973 134.498 47.1655 134.226 47.3909C133.953 47.6162 133.723 47.8181 133.535 48.0059C133.301 48.2313 133.178 48.3534 133.178 48.3768C133.178 48.3909 133.183 48.3956 133.197 48.3956C133.249 48.3956 133.545 48.1984 134.094 47.7993Z" fill="black"/>
<path d="M140.775 49.9826C140.615 49.9309 140.437 49.8042 140.244 49.5929C140.052 49.3816 139.897 49.1515 139.789 48.9027C139.714 48.6773 139.676 48.4473 139.676 48.2125C139.676 47.5176 140.019 46.757 140.705 45.9353C140.841 45.7992 140.986 45.663 141.132 45.5269C141.282 45.3907 141.413 45.2921 141.521 45.2264C141.658 45.1372 141.78 45.0855 141.883 45.0667C141.986 45.048 142.104 45.0386 142.23 45.0386H142.456C142.644 45.0386 142.78 45.0433 142.864 45.0574C142.953 45.0714 143.024 45.0949 143.08 45.1325C143.137 45.17 143.193 45.2264 143.259 45.3015C143.432 45.4893 143.522 45.6489 143.522 45.7851V45.8039C143.522 45.9541 143.428 46.1654 143.24 46.4377C143.141 46.588 143.052 46.7335 142.968 46.8744C142.888 47.0199 142.827 47.1185 142.789 47.1843C142.752 47.2594 142.705 47.3157 142.648 47.3533C142.592 47.3908 142.545 47.4096 142.507 47.4096H142.47C142.409 47.3955 142.376 47.358 142.376 47.2969C142.376 47.2594 142.367 47.2265 142.348 47.203C142.329 47.1796 142.301 47.1608 142.263 47.1467C142.188 47.0951 142.151 46.9871 142.151 46.8086C142.151 46.7335 142.146 46.6725 142.132 46.6208C142.118 46.5692 142.099 46.5457 142.075 46.5457C142.052 46.5457 141.977 46.6068 141.86 46.7335C141.742 46.8603 141.611 47.0152 141.47 47.2077C141.324 47.4002 141.188 47.5974 141.052 47.7946C140.742 48.2782 140.587 48.6538 140.587 48.9121C140.587 49.1093 140.681 49.236 140.869 49.283C140.982 49.3206 141.104 49.3393 141.24 49.3393C141.949 49.3393 143.099 48.8839 144.691 47.9777C145.127 47.7289 145.461 47.5458 145.7 47.4284C145.935 47.311 146.08 47.25 146.127 47.2406C146.179 47.2359 146.207 47.2312 146.221 47.2312C146.273 47.2312 146.296 47.2641 146.296 47.3251C146.296 47.3486 146.16 47.4519 145.897 47.635C145.63 47.8134 145.292 48.0294 144.888 48.2782C144.484 48.5271 144.062 48.7806 143.63 49.0435C142.512 49.7009 141.672 50.0342 141.108 50.0342C140.982 50.0342 140.874 50.0154 140.77 49.9779L140.775 49.9826Z" fill="black"/>
<path d="M144.62 51.1937C144.606 51.1703 144.583 51.1421 144.545 51.1092C144.508 51.0764 144.47 51.0576 144.432 51.0435C144.32 51.0059 144.263 50.9449 144.254 50.8651C144.249 50.7853 144.245 50.7242 144.245 50.6867C144.245 50.5646 144.268 50.3862 144.32 50.1655C144.479 49.5457 144.817 48.6584 145.329 47.508C145.841 46.3577 146.367 45.2966 146.916 44.3247C147.005 44.1745 147.076 44.043 147.132 43.935C147.189 43.827 147.217 43.7472 147.217 43.7097C147.231 43.6862 147.25 43.6486 147.273 43.6064C147.296 43.5641 147.329 43.5218 147.367 43.4843C147.404 43.4326 147.508 43.2683 147.677 42.9913C147.846 42.7143 148.034 42.3856 148.245 42.01C150.109 38.775 152.015 35.9533 153.954 33.5399C154.602 32.7558 155.278 31.9671 155.987 31.1689C156.696 30.3707 157.325 29.6993 157.87 29.1547C158.419 28.6053 158.739 28.333 158.842 28.333C159.03 28.333 159.171 28.502 159.26 28.8448C159.354 29.1875 159.401 29.5021 159.401 29.7885C159.401 29.9481 159.387 30.1125 159.363 30.2721C159.063 32.2253 157.659 34.5823 155.147 37.343C154.663 37.8924 154.142 38.4182 153.588 38.93C153.034 39.4418 152.334 40.0427 151.489 40.7423C151.067 41.0804 150.752 41.3386 150.546 41.517C150.339 41.6954 150.179 41.8692 150.062 42.0288C149.945 42.1884 149.804 42.4138 149.644 42.7002C148.996 43.719 148.259 44.9633 147.423 46.4329C147.25 46.7568 147.085 47.0526 146.93 47.3202C146.775 47.5879 146.672 47.7663 146.62 47.8508L146.602 47.8883C146.602 47.8883 146.606 47.9071 146.62 47.9071C146.658 47.9071 146.921 47.663 147.404 47.1794C148.489 46.0713 149.376 45.2966 150.071 44.8459C150.344 44.6862 150.621 44.5407 150.902 44.4186C151.184 44.2966 151.395 44.2308 151.546 44.2308C151.607 44.2308 151.705 44.2825 151.837 44.3905C151.968 44.4984 152.095 44.6158 152.217 44.752C152.339 44.8881 152.424 45.0008 152.461 45.09C152.475 45.1511 152.48 45.2168 152.48 45.2778V45.3717C152.466 45.461 152.419 45.5877 152.33 45.7614C152.179 46.0478 151.968 46.3155 151.696 46.5643C151.395 46.8272 151.039 47.0902 150.611 47.3578C150.189 47.6254 149.832 47.8085 149.545 47.9071C149.433 47.9588 149.334 47.9963 149.245 48.0292C149.156 48.0621 149.109 48.0902 149.095 48.1137C149.081 48.1278 149.076 48.1372 149.076 48.1513C149.076 48.1888 149.109 48.2452 149.17 48.3203C149.245 48.433 149.348 48.5457 149.489 48.6584C149.625 48.771 149.771 48.8556 149.916 48.9213C150.203 49.0481 150.508 49.1091 150.832 49.1091C151.203 49.1091 151.597 49.0199 152.006 48.8462C152.729 48.4987 153.532 47.9447 154.414 47.1841C154.612 47.0244 154.79 46.8836 154.945 46.7756C155.1 46.6629 155.189 46.6066 155.217 46.6066C155.245 46.6066 155.274 46.616 155.311 46.6347C155.349 46.6535 155.386 46.6817 155.424 46.7193C155.447 46.7333 155.461 46.7568 155.461 46.7944C155.461 46.8319 155.447 46.8742 155.424 46.9258C155.386 47.015 155.283 47.1512 155.114 47.3343C154.945 47.5174 154.701 47.7757 154.377 48.0996C153.156 49.3673 152.067 50.0012 151.114 50.0012H151.076C150.865 50.0012 150.686 49.9871 150.546 49.9636C150.4 49.9401 150.25 49.8838 150.09 49.7946C149.804 49.6584 149.48 49.4237 149.118 49.095C148.757 48.7663 148.498 48.4706 148.334 48.2076C148.282 48.1184 148.226 48.0339 148.156 47.9447C148.085 47.8555 148.029 47.7898 147.977 47.7381C147.94 47.6865 147.897 47.6677 147.855 47.6724C147.813 47.6771 147.747 47.724 147.658 47.8132C147.569 47.9024 147.433 48.0574 147.25 48.278C147.09 48.4752 146.869 48.7476 146.597 49.0903C146.325 49.4331 146.062 49.7711 145.813 50.1092C145.541 50.4707 145.325 50.743 145.17 50.9308C145.015 51.1186 144.911 51.2219 144.86 51.2407C144.808 51.2595 144.77 51.2689 144.747 51.2689C144.695 51.2689 144.653 51.2454 144.616 51.1937H144.62ZM149.17 46.9775C149.47 46.8038 149.785 46.5878 150.123 46.3342C150.461 46.0807 150.729 45.8507 150.935 45.6441C151.142 45.4375 151.245 45.2966 151.245 45.2262V45.2074H151.208C151.132 45.2074 150.963 45.2825 150.705 45.4328C150.405 45.5924 150.071 45.8037 149.696 46.0572C149.325 46.3108 148.996 46.5549 148.714 46.785C148.433 47.0151 148.297 47.1653 148.297 47.2404C148.297 47.2921 148.329 47.3155 148.39 47.3155C148.428 47.3155 148.48 47.3015 148.541 47.278C148.714 47.2263 148.926 47.1277 149.175 46.9775H149.17ZM153.874 37.4604C155.776 35.3476 157.039 33.5869 157.663 32.1783C157.762 31.9811 157.856 31.7699 157.945 31.5539C158.034 31.3379 158.1 31.1548 158.152 31.0046C158.203 30.8543 158.227 30.7698 158.227 30.7416V30.7228C158.203 30.7228 157.983 30.9858 157.565 31.5163C157.147 32.0469 156.593 32.7558 155.893 33.6526C155.297 34.4508 154.64 35.3429 153.926 36.3383C153.212 37.3336 152.574 38.2398 152.015 39.0614L151.1 40.4418L151.827 39.6953C152.039 39.4699 152.339 39.1507 152.724 38.7328C153.109 38.3149 153.494 37.8924 153.879 37.4557L153.874 37.4604Z" fill="black"/>
<path d="M155.72 50.4851C155.433 50.363 155.17 50.1893 154.926 49.9733C154.682 49.7573 154.508 49.5273 154.396 49.2925C154.32 49.1563 154.269 49.039 154.236 48.9357C154.203 48.8371 154.184 48.7009 154.18 48.5366C154.175 48.3676 154.17 48.1187 154.17 47.7807C154.17 47.344 154.184 47.0013 154.217 46.7524C154.25 46.5036 154.316 46.1937 154.414 45.8181C155.471 41.9493 158.091 37.9302 162.269 33.7656C162.903 33.1459 163.481 32.6106 163.997 32.1693C164.514 31.7279 164.894 31.4462 165.143 31.3194C165.354 31.2208 165.542 31.1692 165.701 31.1692C165.927 31.1692 166.091 31.2678 166.204 31.4697C166.265 31.5683 166.302 31.6669 166.317 31.7702C166.331 31.8688 166.335 31.9674 166.335 32.0707C166.335 32.174 166.331 32.2866 166.317 32.4275C166.317 32.6247 166.307 32.789 166.288 32.9205C166.27 33.0519 166.232 33.1928 166.176 33.3384C166.119 33.4839 166.03 33.6811 165.903 33.9159C165.518 34.761 164.819 35.8456 163.814 37.1649C161.476 40.2637 159.26 42.569 157.17 44.0856C156.983 44.2217 156.814 44.3485 156.659 44.4659C156.504 44.5833 156.405 44.6678 156.367 44.7194C156.306 44.7945 156.213 44.973 156.086 45.25C155.959 45.5317 155.837 45.8463 155.715 46.2031C155.588 46.5599 155.49 46.8886 155.414 47.2032C155.288 47.6492 155.227 48.0107 155.217 48.2783C155.213 48.546 155.208 48.7244 155.208 48.8089C155.208 49.1094 155.241 49.3301 155.302 49.4803C155.424 49.7432 155.659 49.87 155.992 49.87C156.64 49.87 157.663 49.3676 159.072 48.3582C159.372 48.1469 159.678 47.9215 159.997 47.6774C160.316 47.4332 160.57 47.2313 160.772 47.0717C161.157 46.7336 161.41 46.5693 161.537 46.5693C161.612 46.5693 161.65 46.621 161.65 46.7196C161.65 46.7571 161.532 46.898 161.302 47.1374C161.072 47.3816 160.795 47.6586 160.471 47.9779C160.147 48.2971 159.833 48.5976 159.527 48.884C159.222 49.1704 158.987 49.377 158.828 49.4991C157.832 50.2315 156.992 50.5978 156.306 50.5978C156.095 50.5978 155.898 50.5602 155.71 50.4851H155.72ZM158.518 41.7896C159.279 41.0196 160.063 40.151 160.88 39.1885C161.697 38.226 162.415 37.3198 163.035 36.4747C163.246 36.1883 163.471 35.8597 163.715 35.484C163.96 35.1084 164.161 34.7845 164.33 34.5028C164.5 34.221 164.584 34.0567 164.584 34.0098C164.561 34.0098 164.467 34.0849 164.302 34.2351C164.129 34.3854 163.917 34.5826 163.668 34.8314C161.067 37.3809 158.959 40.043 157.344 42.8179L157.156 43.1372L157.382 42.9306C157.443 42.8695 157.584 42.7334 157.8 42.5221C158.016 42.3108 158.255 42.0667 158.518 41.7943V41.7896Z" fill="black"/>
<path d="M160.945 49.7572C160.757 49.6821 160.579 49.4708 160.405 49.1234C160.255 48.837 160.18 48.574 160.18 48.3393V48.2829C160.194 48.02 160.293 47.7054 160.48 47.3298C160.64 47.0058 160.889 46.6678 161.227 46.311C161.565 45.9541 161.88 45.6771 162.18 45.4705C162.481 45.2639 162.711 45.1606 162.87 45.1606H162.945C163.035 45.2123 163.114 45.3344 163.199 45.5316C163.279 45.7288 163.33 45.9166 163.359 46.0903C163.382 46.264 163.396 46.3955 163.396 46.48C163.396 46.6068 163.382 46.7101 163.359 46.7993C163.283 47.0246 163.11 47.2735 162.837 47.5458C162.565 47.8181 162.307 47.9918 162.072 48.067C161.861 48.128 161.692 48.1609 161.57 48.1609C161.448 48.1609 161.363 48.128 161.326 48.067C161.326 48.0529 161.321 48.0482 161.307 48.0482C161.293 48.0482 161.274 48.067 161.25 48.1045C161.213 48.1562 161.171 48.2266 161.119 48.3205C161.067 48.4144 161.03 48.5083 160.997 48.6022C160.964 48.6961 160.95 48.7665 160.95 48.8182C160.95 48.9074 161.02 48.9684 161.157 49.006C161.218 49.0201 161.279 49.0295 161.344 49.0435C161.405 49.0576 161.448 49.067 161.476 49.0811H161.532C161.607 49.0811 161.706 49.067 161.833 49.0435C162.02 49.006 162.222 48.9543 162.438 48.8933C162.654 48.8323 162.837 48.7618 162.988 48.6867C163.349 48.5271 163.842 48.2595 164.471 47.8838C165.1 47.5129 165.65 47.1702 166.124 46.8556C166.396 46.6584 166.579 46.5363 166.673 46.4941C166.767 46.4518 166.824 46.4283 166.852 46.4283C166.889 46.4283 166.908 46.433 166.908 46.4471C166.932 46.4847 166.95 46.5175 166.964 46.5504C166.979 46.5833 166.983 46.6021 166.983 46.6161C166.969 46.6396 166.852 46.7476 166.626 46.9354C166.401 47.1232 166.129 47.3392 165.805 47.588C165.481 47.8369 165.176 48.0716 164.88 48.2876C164.589 48.5036 164.373 48.6585 164.237 48.7431C163.725 49.0529 163.199 49.3253 162.659 49.5553C162.119 49.7854 161.725 49.9028 161.476 49.9028C161.401 49.9028 161.316 49.8887 161.213 49.8558C161.114 49.8229 161.025 49.7901 160.95 49.7525L160.945 49.7572ZM162.044 47.3298C162.18 47.2077 162.307 47.0763 162.415 46.9401C162.528 46.804 162.603 46.696 162.65 46.6208C162.692 46.5457 162.715 46.4988 162.715 46.4706C162.715 46.4565 162.711 46.4518 162.697 46.4518C162.682 46.4518 162.626 46.4941 162.528 46.5739C162.429 46.6537 162.321 46.7523 162.199 46.8744C162.077 46.9965 161.969 47.1091 161.861 47.2218C161.753 47.3345 161.678 47.4284 161.626 47.5035C161.565 47.6021 161.532 47.6632 161.532 47.6913C161.532 47.7054 161.537 47.7101 161.551 47.7101C161.603 47.7101 161.762 47.588 162.035 47.3392L162.044 47.3298Z" fill="black"/>
<path d="M40.8856 73.8198C39.3221 73.2423 38.2892 72.3173 37.7774 71.0403C37.2656 69.7679 37.0121 67.7396 37.0121 64.9506V64.4436C37.0121 62.9129 37.0543 61.6922 37.1389 60.7766C37.2234 59.8564 37.383 58.8235 37.6225 57.6684C38.1671 54.8842 38.9277 51.7056 39.9137 48.142C39.9794 47.8697 40.0311 47.6678 40.0686 47.5316C40.1015 47.3954 40.1203 47.2921 40.1203 47.2264C40.1203 47.1607 40.1015 47.1231 40.0686 47.1231C39.9982 47.0527 39.8292 46.9635 39.5569 46.8414C39.2845 46.724 38.9465 46.5973 38.538 46.4611L37.1623 45.9493L33.5471 47.4799C32.5282 47.8884 31.4389 48.3204 30.2886 48.7805C29.1336 49.2406 28.1993 49.6022 27.4856 49.8745L26.8236 50.128C26.2132 50.3299 25.7437 50.5365 25.4244 50.7384C25.1052 50.9403 24.7953 51.2971 24.5089 51.8089C24.2225 52.316 23.8375 53.1329 23.3633 54.2551C23.1942 54.5931 23.0252 54.9687 22.8515 55.3772C21.1518 59.0113 20.1001 60.8987 19.6916 61.0349C19.6212 61.0677 19.5555 61.0865 19.4898 61.0865C19.3865 61.0865 19.2691 61.0537 19.1329 60.9832C18.931 60.8799 18.7432 60.7391 18.5742 60.5513C18.4052 60.3635 18.3207 60.1851 18.3207 60.016C18.3207 59.7766 18.4991 59.1146 18.8559 58.03C19.2127 56.9454 19.6963 55.6354 20.3067 54.1095C20.5462 53.532 20.7246 53.0672 20.842 52.7104C20.9593 52.3535 21.0204 52.1422 21.0204 52.0718V52.0202H20.7152C20.4757 52.053 20.2034 52.1047 19.8982 52.1704C19.4569 52.2737 19.0672 52.3207 18.7244 52.3207C18.5554 52.3207 18.4005 52.3066 18.2643 52.269C17.823 52.1657 17.3488 51.931 16.837 51.5554C16.0904 51.114 15.7148 50.621 15.7148 50.0764C15.7148 49.5317 16.02 48.9542 16.6304 48.3439C17.3112 47.5973 18.3441 46.8226 19.7386 46.0245C21.1331 45.2263 22.49 44.6253 23.814 44.2168C24.0159 44.1511 24.1943 44.0713 24.3492 43.9868C24.4995 43.9022 24.6638 43.7426 24.8328 43.5032C25.0019 43.2637 25.2225 42.8928 25.4949 42.381C25.7672 41.8692 26.1381 41.1603 26.617 40.24C28.8942 35.8594 31.2183 31.8685 33.5987 28.2674C41.1063 16.9896 48.3227 8.60402 55.2481 3.1013C57.2858 1.57067 58.7648 0.810059 59.6803 0.810059C59.9855 0.810059 60.239 0.894571 60.4456 1.0636C60.7508 1.33592 61.0654 1.7444 61.3894 2.28434C61.7133 2.82898 61.9246 3.30319 62.0279 3.71167C62.0608 3.88069 62.0796 4.08728 62.0796 4.32204C62.0796 5.23759 61.7227 6.69779 61.0091 8.70262C60.1264 11.2145 58.4455 15.1913 55.9665 20.6236C53.8583 25.2765 52.0084 29.4787 50.4121 33.2301C48.8157 36.9816 48.0175 38.9958 48.0175 39.2681C48.0175 39.301 48.0504 39.3198 48.1208 39.3198C48.2241 39.3198 48.3932 39.2869 48.6326 39.2165C49.0411 39.1132 49.5341 38.9441 50.1116 38.7047C51.1962 38.3291 51.8582 38.1366 52.0976 38.1178C52.3371 38.099 52.4732 38.0943 52.5061 38.0943C52.8817 38.0943 53.0836 38.2305 53.1165 38.5028V38.6061C53.1165 38.7751 52.9803 38.8596 52.708 38.8596C52.5719 38.8596 52.215 38.9629 51.6375 39.1648C51.06 39.3667 50.4309 39.6062 49.7548 39.8785L47.3086 40.8973L45.9845 44.6675C45.6089 45.7193 45.2943 46.6348 45.0408 47.4189C44.7873 48.203 44.6417 48.6584 44.6089 48.7946C44.6089 48.8979 44.7028 49.1092 44.8906 49.4331C45.0784 49.7571 45.2897 50.1045 45.5291 50.4755C47.7687 53.6682 48.8909 57.1989 48.8909 61.0724C48.8909 62.4998 48.7359 63.96 48.4307 65.453C47.9189 67.8663 47.1583 69.8665 46.1395 71.4628C45.1206 73.0592 43.9985 73.9935 42.7777 74.2658H42.5759C42.1674 74.2658 41.6087 74.1109 40.895 73.8057L40.8856 73.8198ZM20.9124 49.8228C21.457 49.7195 21.8279 49.5928 22.0345 49.4425C22.2364 49.2923 22.4242 49.0434 22.5933 48.7054C22.6965 48.4659 22.7905 48.2453 22.875 48.0434C22.9595 47.8415 23.0017 47.7053 23.0017 47.6349C23.0017 47.602 22.983 47.5832 22.9501 47.5832C22.8468 47.5832 22.7106 47.6161 22.5416 47.6865C22.2364 47.8227 21.8702 48.0011 21.4476 48.2218C21.0251 48.4425 20.6072 48.6866 20.1987 48.9589C19.7902 49.2312 19.4663 49.4848 19.2315 49.7242L18.4146 50.4379L19.0249 50.283C19.2268 50.2501 19.5085 50.1891 19.8654 50.1045C20.2222 50.02 20.5696 49.9261 20.9077 49.8228H20.9124ZM29.4717 46.7663C30.2886 46.4611 30.9741 46.1794 31.5328 45.9259C32.0916 45.6723 32.4249 45.508 32.5282 45.4423C32.5282 45.3765 32.3075 45.339 31.8662 45.339C31.392 45.3718 30.8145 45.4235 30.1337 45.4939C29.4529 45.5596 28.8237 45.6629 28.2509 45.7991C27.8096 45.9024 27.495 46.0198 27.3072 46.1559C27.1194 46.2921 26.9598 46.5127 26.8236 46.8179C26.6217 47.1935 26.509 47.4283 26.4949 47.5316C26.4761 47.6349 26.4715 47.7006 26.4715 47.7335C26.4715 47.7992 26.4902 47.8368 26.5231 47.8368C26.5888 47.8368 26.9034 47.7335 27.4668 47.5316C28.0256 47.3297 28.697 47.0715 29.4811 46.7663H29.4717ZM39.5099 42.7942L42.0077 41.827L42.3646 40.8081C43.759 37.0379 45.3131 33.2348 47.0269 29.3942C48.7406 25.5582 51.0929 20.6988 54.0837 14.8251C54.9335 13.1255 55.6613 11.6747 56.2763 10.468C56.8867 9.26135 57.3985 8.2425 57.807 7.41145C58.2154 6.58041 58.5347 5.909 58.7742 5.39723C59.0136 4.88546 59.1826 4.50515 59.2859 4.25161C59.3892 3.99807 59.4409 3.81966 59.4409 3.71636C59.4409 3.61307 59.408 3.56142 59.3376 3.56142C58.8634 3.56142 57.7506 4.25631 55.9993 5.65077C54.248 7.04523 52.5249 8.60402 50.83 10.3365C43.3224 18.1493 36.5144 27.8964 30.4013 39.578L28.5655 43.0947L31.4201 43.198C32.1995 43.2308 32.9649 43.2919 33.7114 43.3764C34.4579 43.4609 34.9838 43.5548 35.289 43.6581C35.3547 43.6581 35.4251 43.6769 35.4909 43.7097C35.796 43.813 36.0684 43.8647 36.3078 43.8647C36.5097 43.8647 36.8196 43.7943 37.2234 43.6628C37.6319 43.5266 38.261 43.2872 39.1061 42.9491C39.2423 42.9163 39.3785 42.8646 39.5146 42.7989L39.5099 42.7942ZM41.1391 44.1699H41.0875C41.0171 44.1699 40.9185 44.1886 40.7823 44.2215C40.6133 44.2544 40.4067 44.3248 40.1719 44.4234C39.9325 44.5267 39.7212 44.6347 39.5334 44.7521C39.3456 44.8741 39.2517 44.9633 39.2517 45.0338C39.2517 45.0666 39.3174 45.1371 39.4536 45.2357C39.5897 45.339 39.7588 45.4376 39.9653 45.5409L40.6274 45.8977L40.9325 45.1324C40.9983 44.8929 41.0499 44.691 41.0875 44.522C41.1204 44.353 41.1391 44.2356 41.1391 44.1652V44.1699ZM42.5148 71.6788C44.144 70.4581 45.4023 68.148 46.285 64.7487C46.5245 63.5937 46.6419 62.0162 46.6419 60.0113C46.6419 58.0065 46.5057 56.4289 46.2334 55.3772C46.0972 54.8701 45.8859 54.2738 45.5948 53.5931C45.3084 52.9123 45.0267 52.2925 44.7544 51.7338C44.4821 51.175 44.2802 50.8417 44.144 50.7384C44.0407 50.7384 43.806 51.3347 43.4304 52.5226C43.0548 53.7104 42.6557 55.1565 42.2331 56.8515C41.8106 58.5511 41.4443 60.1475 41.1391 61.6406C40.7635 63.8801 40.5804 66.0211 40.5804 68.0588C40.5804 70.0965 40.7823 71.3689 41.1908 71.984C41.2941 72.0873 41.3786 72.1436 41.4443 72.1624C41.51 72.1812 41.5617 72.1906 41.5993 72.1906C41.6368 72.1906 41.7026 72.1718 41.8012 72.1389C41.9702 72.0356 42.2096 71.8854 42.5148 71.6788Z" fill="black"/>
<path d="M57.9525 55.3772C57.5112 55.072 57.2295 54.8279 57.1121 54.6401C56.9947 54.4523 56.9337 54.1893 56.9337 53.8513C56.9337 52.8982 57.5112 51.7056 58.6662 50.2595C59.8212 48.8181 61.1452 47.6865 62.6383 46.8696C63.2815 46.5315 63.7229 46.2498 63.9623 46.0291C64.2018 45.8085 64.3708 45.5127 64.4741 45.1371C65.0845 43.4045 65.3896 42.2167 65.3896 41.5687C65.3896 41.2964 65.338 41.1274 65.2347 41.057C65.1643 41.0241 65.0798 41.0053 64.9812 41.0053C64.1642 41.0053 62.873 41.6486 61.1077 42.9397C59.1733 44.3671 57.3891 46.0479 55.7599 47.9823C55.0462 48.8321 54.5203 49.2547 54.1823 49.2547C54.0133 49.2547 53.8771 49.1702 53.7738 49.0012C53.741 48.8979 53.6658 48.8134 53.5438 48.7476C53.4264 48.6772 53.3137 48.6115 53.2151 48.5457C53.0132 48.5129 52.9099 48.3579 52.9099 48.0856C52.9099 47.9495 52.9287 47.7992 52.9616 47.6255C53.1306 47.048 53.5578 46.062 54.234 44.6722C54.7082 43.6534 55.6331 41.888 57.0088 39.3761C58.3845 36.8642 59.8118 34.2818 61.2861 31.6338C62.7651 28.9857 63.9248 26.948 64.7746 25.5207C68.8828 18.7972 73.0803 13.0879 77.3576 8.40212C78.0009 7.65559 78.522 7.10156 78.9117 6.74473C79.3014 6.3879 79.5831 6.15784 79.7521 6.05924C79.9212 5.95594 80.0573 5.9043 80.1606 5.9043C80.2264 5.9043 80.278 5.92308 80.3156 5.95594C80.7898 6.22826 81.0715 6.75412 81.156 7.53352C81.2405 8.31761 81.2828 8.89042 81.2828 9.26603C81.2828 10.1159 81.1795 10.9985 80.9776 11.9141C80.0949 14.9378 78.0243 18.6564 74.7612 23.0698C71.5028 27.4833 68.0189 31.2722 64.3191 34.4321C63.7416 34.8734 63.2768 35.2819 62.92 35.6528C62.5632 36.0284 62.1406 36.62 61.6476 37.437C61.1546 38.254 60.3987 39.5263 59.3798 41.2589C59.347 41.3293 59.2953 41.395 59.2249 41.4607C59.192 41.5312 59.1733 41.5781 59.1733 41.6157C59.0042 41.888 58.9197 42.057 58.9197 42.1228C58.9854 42.1228 59.1075 42.057 59.2765 41.9209C59.5489 41.7518 59.9902 41.4279 60.6006 40.9537L61.0091 40.6485C62.366 39.5639 63.2768 38.9864 63.7323 38.916C64.1924 38.8502 64.4694 38.8127 64.5727 38.8127C65.2535 38.8127 65.9296 39.1366 66.6104 39.7799C67.8687 40.6954 68.4932 41.9537 68.4932 43.5501C68.4932 45.0103 67.9673 46.7616 66.9156 48.7993C65.8967 50.8041 64.7417 52.4756 63.4505 53.8184C62.1594 55.1612 60.9715 55.9171 59.8822 56.0862H59.5254C59.2859 56.0862 59.0841 56.0674 58.915 56.0345C58.6756 55.9312 58.3563 55.7106 57.9478 55.3725L57.9525 55.3772ZM61.718 50.2313C62.0561 49.7571 62.319 49.3486 62.5068 49.0106C62.6946 48.6725 62.7885 48.4847 62.7885 48.4518C62.7557 48.4518 62.6101 48.5739 62.3566 48.8087C62.103 49.0481 61.8025 49.3533 61.4645 49.7242C61.1264 50.0998 60.8025 50.4614 60.4973 50.8182C60.1921 51.175 59.9526 51.4708 59.7836 51.7103C59.6475 51.9122 59.5207 52.1281 59.4033 52.3488C59.2859 52.5695 59.2061 52.7667 59.1733 52.9357C59.1404 53.039 59.1216 53.1235 59.1216 53.1893C59.1216 53.255 59.1404 53.2925 59.1733 53.2925C59.239 53.2597 59.4456 53.0719 59.7836 52.7338C60.0231 52.4944 60.3283 52.1469 60.6992 51.6915C61.0748 51.2314 61.4129 50.7478 61.718 50.2407V50.2313ZM69.2585 26.7978C70.0379 25.8493 70.8783 24.7695 71.7798 23.5628C72.6812 22.3561 73.4184 21.295 73.9959 20.3795C74.6767 19.3606 75.3387 18.3183 75.9819 17.2478C76.6252 16.1773 77.1275 15.2852 77.4844 14.5716C77.8412 13.8579 78.0196 13.4353 78.0196 13.2992V13.2475C77.9163 13.2804 77.2308 14.1631 75.9585 15.8956C74.6861 17.6281 73.2259 19.6752 71.5779 22.0322C69.9299 24.3938 68.4791 26.4973 67.2208 28.3472C65.9624 30.1971 65.3192 31.2441 65.2863 31.4788C65.3192 31.4788 65.3709 31.4601 65.4413 31.4272C65.5446 31.3239 65.7371 31.1032 66.0282 30.7652C66.3146 30.4271 66.7231 29.9435 67.2489 29.3144C67.7748 28.6852 68.4462 27.8448 69.2631 26.7931L69.2585 26.7978Z" fill="black"/>
<path d="M84.6962 42.3858C83.574 43.4375 82.0622 44.8132 80.1607 46.5128C76.5266 50.114 74.5405 51.9123 74.1978 51.9123C73.9959 51.9123 73.7236 51.7855 73.3808 51.532C73.0428 51.2784 72.7282 50.9779 72.4371 50.6399C72.1507 50.3018 71.9347 49.9966 71.7986 49.7243C71.6624 49.3863 71.5967 48.9919 71.5967 48.5552C71.5967 47.1983 72.2446 45.2264 73.5311 42.644C74.1743 41.3857 74.7049 40.4702 75.1087 39.8927C75.5171 39.3151 75.8881 38.9771 76.2308 38.8738C76.4327 38.8081 76.6064 38.7705 76.7426 38.7705C77.0806 38.7705 77.353 38.9724 77.5595 39.3809C77.6628 39.5499 77.7896 39.7048 77.9398 39.841C78.0948 39.9772 78.2356 40.0945 78.3718 40.1978C78.7803 40.3997 79.0526 40.6486 79.1888 40.935C79.3249 41.2214 79.3906 41.4702 79.3906 41.6721C79.3906 41.8411 79.3578 42.0102 79.2874 42.1839C79.2169 42.3529 79.0338 42.7285 78.7286 43.306C78.4234 43.8835 78.0478 44.5268 77.6065 45.2404C76.8928 46.4612 76.4186 47.2875 76.1792 47.7101C75.9397 48.1374 75.8223 48.4003 75.8223 48.4989C75.8223 48.5317 75.8411 48.5505 75.874 48.5505C75.9397 48.5177 76.1604 48.3299 76.536 47.9918C76.8083 47.7195 77.2215 47.3204 77.7849 46.7945C78.3436 46.2687 78.9117 45.7334 79.4892 45.1888C81.5927 43.2215 83.2735 41.7003 84.5318 40.6298C85.7901 39.5593 86.6212 39.024 87.0297 39.024C87.1987 39.024 87.3349 39.0569 87.4381 39.1273C87.64 39.1602 87.8466 39.2776 88.0485 39.4842C88.2175 39.6203 88.3021 39.841 88.3021 40.1462V40.2964C87.3161 42.7755 86.6869 44.4047 86.4193 45.1888C86.147 45.9729 86.0108 46.5128 86.0108 46.818C86.0108 46.9213 86.0296 46.987 86.0625 47.0199C86.1282 47.2594 86.5038 47.3767 87.1846 47.3767C88.9829 47.3767 91.4478 46.6302 94.5701 45.1371C95.1476 44.832 95.6735 44.5596 96.1477 44.3202C96.8613 43.9446 97.4107 43.6676 97.8051 43.4798C98.1948 43.2919 98.4436 43.198 98.5422 43.198C98.6079 43.198 98.6455 43.2168 98.6455 43.2497C98.7159 43.353 98.7535 43.4281 98.7723 43.4798C98.7864 43.5314 98.7957 43.5877 98.7957 43.6582L98.7441 43.7615C98.7112 43.8648 98.3638 44.1418 97.6971 44.6019C97.0351 45.062 96.2369 45.602 95.3025 46.2311C94.3682 46.8603 93.4573 47.4472 92.5747 47.9871C91.692 48.5317 91.0112 48.9402 90.537 49.2078C89.3162 49.8182 88.2598 50.1234 87.3771 50.1234C86.9029 50.1234 86.4757 50.0389 86.1047 49.8699C85.8324 49.7337 85.5272 49.4473 85.1892 49.006C84.8511 48.5646 84.5412 48.0998 84.2736 47.6068C84.0013 47.1138 83.8323 46.6819 83.7618 46.3062V46.1513C83.7618 45.2686 84.067 44.0103 84.6774 42.3811L84.6962 42.3858Z" fill="black"/>
<path d="M98.1568 29.1876C98.0207 29.0186 97.9127 28.8496 97.8282 28.6758C97.7437 28.5068 97.7014 28.3707 97.7014 28.2674C97.7014 28.2016 97.8047 27.9622 98.0066 27.5537C98.2085 27.1452 98.4667 26.7039 98.7719 26.2297C100.368 23.7178 101.406 21.6096 101.88 19.9147C102.016 19.5391 102.152 19.2198 102.289 18.9475C102.425 18.6752 102.542 18.5061 102.645 18.4357C102.814 18.3324 102.951 18.2808 103.054 18.2808C103.19 18.2808 103.307 18.3324 103.411 18.4357C103.613 18.5719 103.8 18.7738 103.969 19.0461C104.106 19.248 104.256 19.4358 104.43 19.6048C104.974 20.1823 105.247 20.7786 105.247 21.389C105.247 21.6941 105.176 21.9993 105.045 22.3045C104.669 23.2201 104.162 24.1075 103.514 24.9526C103.345 25.192 103.19 25.4127 103.054 25.6146C102.237 26.7696 101.448 27.7556 100.683 28.5679C99.9175 29.3848 99.3682 29.7886 99.0254 29.7886C98.9221 29.7886 98.786 29.7276 98.6169 29.6102C98.4479 29.4928 98.293 29.3473 98.1568 29.1782V29.1876Z" fill="black"/>
<path d="M102.265 53.6876C102.087 53.5844 101.927 53.4435 101.777 53.2745C101.632 53.1007 101.542 52.9411 101.509 52.7956C101.5 52.7345 101.495 52.6688 101.495 52.6078C101.495 52.0349 101.833 51.3401 102.514 50.5231C103.265 49.6029 104.284 48.7202 105.571 47.875C107.303 46.7153 109.059 45.9406 110.839 45.5556C110.994 45.5228 111.073 45.3866 111.073 45.1471C111.073 45.0439 111.059 44.9124 111.027 44.7574C110.994 44.5696 110.923 44.4147 110.806 44.2879C110.693 44.1612 110.501 44.0391 110.242 43.9123C109.801 43.6823 109.28 43.5179 108.665 43.4193C108.055 43.3207 107.162 43.2503 105.993 43.208C105.219 43.1893 104.627 43.1564 104.214 43.1235C103.801 43.086 103.5 43.0343 103.312 42.9686C103.125 42.9029 102.965 42.7996 102.843 42.6634C102.519 42.3394 102.312 42.0718 102.223 41.8652C102.134 41.6539 102.092 41.4661 102.092 41.3018C102.092 41.2079 102.101 41.1093 102.125 41.006C102.373 39.9073 103.336 38.5035 105.007 36.7898C106.942 34.8366 108.717 33.4374 110.336 32.597C111.956 31.7565 113.224 31.334 114.144 31.334C114.51 31.334 114.844 31.3903 115.149 31.5077C115.44 31.6439 115.637 31.8645 115.726 32.165C115.75 32.2167 115.773 32.273 115.806 32.3387C115.839 32.3998 115.877 32.4655 115.914 32.5266C116.008 32.6439 116.055 32.8411 116.055 33.1228V33.1698C116.055 33.4092 115.98 33.6769 115.834 33.968C115.679 34.2825 115.412 34.691 115.036 35.1887C114.712 35.616 114.294 36.109 113.783 36.6677C113.271 37.2264 112.792 37.7241 112.351 38.1561C111.905 38.588 111.642 38.8087 111.557 38.8087C111.524 38.8087 111.482 38.7758 111.43 38.7148C111.379 38.6537 111.332 38.5833 111.289 38.5129C111.247 38.4378 111.228 38.3861 111.228 38.3579C111.228 38.3345 111.299 38.2359 111.44 38.0575C111.581 37.879 111.759 37.6725 111.98 37.433C112.43 36.9212 112.881 36.3813 113.341 35.8179C113.801 35.2544 114.135 34.8131 114.346 34.5032C114.449 34.3483 114.567 34.1558 114.689 33.9257C114.811 33.6956 114.928 33.4844 115.027 33.2825C115.125 33.0853 115.177 32.9585 115.177 32.9069C115.177 32.8552 115.093 32.827 114.928 32.827H114.834C114.614 32.8505 114.341 32.9022 114.013 32.9914C113.684 33.0806 113.351 33.1933 113.017 33.3294C110.947 34.1839 108.717 35.7287 106.327 37.9542C105.43 38.7993 104.66 39.6116 104.021 40.3816C103.383 41.1563 103.064 41.6633 103.064 41.9028C103.064 42.0061 103.284 42.0906 103.73 42.1469C104.176 42.2033 104.993 42.2596 106.181 42.3113C107.726 42.3629 108.862 42.5085 109.59 42.7526C110.318 42.9921 110.9 43.4193 111.336 44.0391C111.815 44.626 112.059 45.2598 112.059 45.95C112.059 46.767 111.731 47.6497 111.073 48.5981C110.407 49.5888 109.454 50.5466 108.224 51.4668C106.989 52.3871 105.721 53.0867 104.416 53.5656C104.007 53.7017 103.683 53.7769 103.444 53.7909C103.204 53.805 103.045 53.8144 102.974 53.8144C102.669 53.8144 102.434 53.7769 102.27 53.7064L102.265 53.6876ZM103.096 53.0162C104.195 52.7111 105.406 52.0537 106.73 51.0396C108.059 50.0254 109.153 48.9221 110.022 47.7342C110.125 47.598 110.242 47.4149 110.369 47.1848C110.496 46.9548 110.613 46.7294 110.721 46.504C110.829 46.2787 110.9 46.1097 110.933 45.9923C110.942 45.9594 110.947 45.9359 110.947 45.9125C110.947 45.889 110.942 45.8749 110.933 45.8655C110.923 45.8561 110.9 45.8514 110.872 45.8514C110.843 45.8514 110.787 45.8608 110.717 45.8843C110.59 45.9172 110.397 45.9688 110.139 46.0392C108.008 46.7388 106.181 47.6731 104.655 48.8422C103.129 50.0113 102.251 51.1616 102.021 52.2885C102.002 52.4153 101.988 52.5279 101.988 52.6312C101.988 52.8425 102.04 52.9834 102.143 53.0538C102.204 53.0961 102.298 53.1148 102.425 53.1148C102.594 53.1148 102.819 53.0773 103.096 53.0068V53.0162Z" fill="black"/>
<path d="M102.97 54.1428C102.613 54.1428 102.336 54.0958 102.124 54.0019L102.092 53.9832C101.885 53.8611 101.693 53.6968 101.519 53.4949C101.331 53.2789 101.223 53.0723 101.176 52.8657C101.162 52.7671 101.153 52.6873 101.153 52.6028C101.153 51.9361 101.509 51.1848 102.251 50.2975C103.021 49.3584 104.078 48.4429 105.383 47.579C107.13 46.4099 108.928 45.6164 110.726 45.2173C110.726 45.2032 110.726 45.1797 110.726 45.1375C110.726 45.053 110.712 44.945 110.684 44.8135C110.66 44.682 110.618 44.5881 110.548 44.5083C110.491 44.4473 110.364 44.344 110.087 44.2125C109.67 43.9966 109.177 43.8416 108.609 43.7477C108.017 43.6538 107.13 43.5834 105.979 43.5411C105.2 43.5223 104.599 43.4895 104.181 43.4566C103.735 43.4144 103.411 43.358 103.195 43.2782C102.956 43.1937 102.749 43.0575 102.585 42.8791C102.237 42.5317 102.007 42.2312 101.904 41.9823C101.796 41.7335 101.744 41.4987 101.744 41.2828C101.744 41.1607 101.758 41.0386 101.782 40.9165C102.049 39.738 103.021 38.306 104.758 36.5312C106.707 34.5593 108.529 33.1273 110.177 32.2727C112.557 31.0379 114.102 30.7233 115.271 31.1694C115.675 31.3572 115.933 31.6483 116.06 32.0474C116.069 32.0662 116.093 32.1131 116.116 32.1694C116.14 32.2164 116.168 32.268 116.205 32.315C116.332 32.4699 116.402 32.7376 116.402 33.1038C116.402 33.4418 116.318 33.7658 116.144 34.1039C115.98 34.4372 115.698 34.8645 115.313 35.3809C114.975 35.8223 114.548 36.3294 114.036 36.8881C113.524 37.4468 113.041 37.9539 112.59 38.3905C111.876 39.0901 111.721 39.1418 111.557 39.1418C111.346 39.1418 111.21 38.9774 111.163 38.9211C111.097 38.846 111.041 38.7568 110.989 38.6675C110.914 38.5314 110.881 38.4375 110.881 38.3436C110.881 38.198 110.951 38.1041 111.167 37.8318C111.313 37.6487 111.496 37.4327 111.726 37.1839C112.167 36.6815 112.618 36.1462 113.074 35.5828C113.529 35.0241 113.858 34.5921 114.055 34.2917C114.153 34.1414 114.266 33.9583 114.384 33.7376C114.492 33.5357 114.59 33.3479 114.679 33.1742C114.524 33.2024 114.323 33.2446 114.092 33.3057C113.773 33.3902 113.454 33.5029 113.139 33.6296C111.12 34.4654 108.904 36.0007 106.552 38.1839C105.669 39.015 104.904 39.8226 104.28 40.5785C103.758 41.2123 103.547 41.5504 103.458 41.7241C103.528 41.7382 103.627 41.757 103.763 41.7757C104.19 41.8321 105.003 41.8837 106.186 41.9354C107.777 41.9917 108.923 42.1373 109.688 42.3908C110.482 42.6537 111.13 43.1279 111.609 43.8041C112.125 44.4332 112.393 45.1469 112.393 45.9169C112.393 46.7996 112.041 47.7574 111.346 48.7621C110.66 49.781 109.674 50.7717 108.416 51.7107C107.162 52.645 105.852 53.3681 104.519 53.8564C104.068 54.0066 103.721 54.0865 103.449 54.1052C103.195 54.1193 103.031 54.1287 102.956 54.1287L102.97 54.1428ZM102.744 53.4432C102.862 53.4526 102.904 53.462 103.42 53.4291C103.627 53.415 103.927 53.3446 104.303 53.2178C105.561 52.753 106.815 52.0628 108.012 51.1661C109.205 50.274 110.139 49.3396 110.787 48.3818C111.402 47.4898 111.717 46.6681 111.717 45.9263C111.717 45.4708 111.599 45.0436 111.36 44.6398C111.36 44.6586 111.365 44.6774 111.369 44.6961C111.402 44.8699 111.421 45.0248 111.421 45.1422C111.421 45.4145 111.341 45.5882 111.242 45.7009C111.275 45.7619 111.294 45.8324 111.294 45.9122L111.261 46.1047C111.233 46.2127 111.158 46.4005 111.036 46.654C110.923 46.8841 110.806 47.1141 110.674 47.3489C110.538 47.5977 110.411 47.7949 110.299 47.9452C109.421 49.1518 108.289 50.2881 106.942 51.3163C105.585 52.3539 104.322 53.0347 103.19 53.3493H103.186C103.021 53.3916 102.876 53.4244 102.749 53.4432H102.744ZM102.35 52.7765C102.397 52.7765 102.575 52.7906 103.007 52.6826C104.054 52.3915 105.237 51.7483 106.524 50.767C107.82 49.781 108.9 48.6917 109.745 47.532C109.848 47.4005 109.951 47.2315 110.064 47.0202C110.186 46.7949 110.303 46.5742 110.411 46.3535C110.416 46.3441 110.421 46.33 110.426 46.3207C110.364 46.3394 110.299 46.3582 110.228 46.377C108.158 47.0578 106.345 47.9827 104.862 49.1237C103.411 50.2364 102.571 51.3257 102.355 52.368C102.34 52.4619 102.331 52.5558 102.331 52.645C102.331 52.7202 102.34 52.7624 102.345 52.7812L102.35 52.7765ZM102.965 42.2828C103.002 42.3251 103.045 42.3673 103.092 42.4096C103.19 42.5176 103.298 42.5833 103.434 42.635C103.542 42.6725 103.772 42.7289 104.247 42.7711C104.655 42.804 105.237 42.8322 106.003 42.8556C107.205 42.8979 108.092 42.9683 108.721 43.0716C109.364 43.1749 109.928 43.3533 110.402 43.6022C110.472 43.635 110.538 43.6679 110.595 43.7055C110.275 43.419 109.909 43.2078 109.477 43.0622C108.787 42.8322 107.674 42.6913 106.167 42.6397C104.946 42.5833 104.134 42.5317 103.683 42.4706C103.481 42.4425 103.176 42.4049 102.96 42.2781L102.965 42.2828ZM114.144 31.6718C113.285 31.6718 112.059 32.0849 110.496 32.8925C108.914 33.7142 107.153 35.1039 105.256 37.0195C103.636 38.6769 102.697 40.0385 102.463 41.0668C102.448 41.1372 102.439 41.2123 102.439 41.2874C102.439 41.4095 102.472 41.5504 102.542 41.7147C102.571 41.7804 102.627 41.879 102.74 42.0199C102.725 41.9776 102.716 41.9307 102.716 41.8837C102.716 41.6443 102.838 41.2499 103.749 40.1465C104.392 39.3671 105.176 38.5361 106.083 37.6863C108.496 35.442 110.782 33.8644 112.876 32.9958C113.219 32.8549 113.567 32.7376 113.914 32.6437C114.266 32.5498 114.553 32.4934 114.792 32.4699H114.919C115.459 32.4699 115.515 32.7657 115.515 32.8925C115.515 32.9911 115.482 33.1179 115.327 33.4231C115.229 33.6249 115.111 33.8409 114.985 34.0757C114.853 34.3151 114.736 34.517 114.623 34.6814C114.407 35.0006 114.074 35.442 113.599 36.0242C113.135 36.5923 112.679 37.1322 112.228 37.6487C112.012 37.8881 111.834 38.09 111.698 38.2638C111.689 38.2732 111.679 38.2872 111.67 38.2966C111.768 38.2121 111.904 38.0853 112.092 37.9022C112.534 37.475 113.013 36.9773 113.51 36.428C114.008 35.888 114.421 35.395 114.745 34.9725C115.107 34.4935 115.365 34.0992 115.51 33.8034C115.632 33.5592 115.693 33.3432 115.693 33.1601C115.693 32.8174 115.632 32.7376 115.632 32.7376C115.562 32.639 115.52 32.5638 115.482 32.4887C115.445 32.4136 115.416 32.3526 115.393 32.2915C115.318 32.0521 115.191 31.9112 114.989 31.8173C114.75 31.7281 114.454 31.6765 114.13 31.6765L114.144 31.6718Z" fill="black"/>
</svg>
