<svg width="128" height="64" viewBox="0 0 128 64" fill="none" xmlns="http://www.w3.org/2000/svg">
<path d="M85.0222 63.7336C85.6988 63.5654 86.3686 63.3456 87.0555 63.2425C89.2845 62.9163 90.4247 61.5184 90.7682 59.4268C91.1391 57.16 91.407 54.8761 91.7092 52.599C92.1901 48.9721 92.664 45.3453 93.1346 41.715C93.6463 37.779 94.1443 33.8396 94.6664 29.9003C95.0854 26.7405 95.5215 23.5842 95.9577 20.4279C96.0676 19.6345 96.0848 19.6345 95.2708 19.6345C94.8449 19.6345 94.4156 19.6791 93.9966 19.6276C92.8804 19.4902 92.1866 20.0947 91.6199 20.9293C90.7854 22.1623 90.6823 23.6014 90.4969 25.0129C90.0229 28.6398 89.5558 32.2701 89.0853 35.8969C88.9341 37.0475 88.783 38.198 88.625 39.3452C88.1648 42.6732 84.8265 45.6922 81.4641 45.7746C79.6747 45.8192 77.8853 45.8021 76.0959 45.7746C75.0724 45.7609 74.1073 45.462 73.2487 44.9057C72.8984 44.679 72.6271 44.6618 72.2802 44.8644C71.1777 45.5136 69.9791 45.7986 68.698 45.7849C67.2005 45.7712 65.6997 45.7849 64.2022 45.7815C60.3693 45.7643 57.79 42.6595 58.336 38.8712C58.9611 34.5437 59.4694 30.1991 60.0361 25.8647C60.3315 23.6082 60.6612 21.3552 60.9497 19.0987C60.9978 18.7381 61.1111 18.5904 61.4821 18.5938C63.1375 18.6076 64.7929 18.6144 66.4484 18.5904C66.9395 18.5835 66.9258 18.8205 66.8811 19.1743C66.5377 21.8085 66.2045 24.4394 65.8645 27.0737C65.3528 31.0337 64.841 34.9936 64.3258 38.9536C64.1713 40.1488 63.9584 41.3372 64.0305 42.553C64.1266 44.205 64.7346 44.7958 66.3591 44.7992C68.8113 44.8026 69.6184 44.1879 70.0993 41.7494C70.6007 39.2078 70.8171 36.625 71.1674 34.0594C71.6585 30.4566 72.1119 26.847 72.5824 23.2442C72.761 21.8738 72.9533 20.5034 73.1148 19.1296C73.1628 18.7175 73.3174 18.5835 73.7433 18.5904C75.3094 18.6179 76.8756 18.6282 78.4383 18.5904C79.0084 18.5767 79.1698 18.7415 79.0943 19.2945C78.7439 21.8154 78.4177 24.3363 78.0845 26.8573C77.614 30.4395 77.1366 34.0217 76.6764 37.6073C76.4875 39.0876 76.1955 40.561 76.199 42.0584C76.199 42.4156 76.223 42.7763 76.2848 43.1232C76.4909 44.2703 77.0988 44.7752 78.2631 44.7958C78.5104 44.7992 78.7542 44.7958 79.0015 44.7958C80.7497 44.7958 81.4812 44.2634 82.0651 42.5874C82.57 41.138 82.6352 39.6131 82.8379 38.1122C83.3324 34.4647 83.7824 30.8104 84.2563 27.1595C84.3731 26.2528 84.4487 25.3324 84.6685 24.4497C85.4962 21.1216 88.6147 18.6934 92.1351 18.5973C93.2754 18.5664 94.4156 18.5423 95.5559 18.5767C96.0814 18.5938 96.2188 18.4152 96.2806 17.9138C96.7477 14.1736 97.1667 10.4231 97.7643 6.70355C98.2966 3.39267 101.621 0.658801 104.977 0.586676C106.553 0.552331 108.13 0.57981 109.716 0.675976C108.837 0.888916 107.965 1.11902 107.082 1.31135C105.076 1.75097 104.235 3.22094 103.929 5.03779C103.541 7.34579 103.287 9.67783 102.981 11.9996C102.727 13.9229 102.483 15.8497 102.222 17.773C102.109 18.6007 102.088 18.5973 102.892 18.5973C103.83 18.5973 104.771 18.5904 105.708 18.6041C105.887 18.6041 106.261 18.4633 106.162 18.8549C106.093 19.1262 106.316 19.6345 105.698 19.6242C104.626 19.607 103.551 19.6413 102.476 19.6104C102.057 19.5967 101.951 19.765 101.906 20.1394C101.261 25.274 100.663 30.4189 99.9315 35.5432C99.0625 41.6154 98.3585 47.7048 97.4998 53.777C97.3109 55.1027 97.2113 56.4422 96.9503 57.7542C96.26 61.2196 92.956 63.7989 89.4253 63.8092C87.9656 63.8127 86.5059 63.8092 85.0188 63.7234L85.0222 63.7336Z" fill="black"/>
<path d="M53.2768 45.6473C51.2883 45.6473 49.413 45.6473 47.5412 45.6473C46.9299 45.6473 47.1737 45.0188 46.8955 44.7749C46.4147 45.2386 45.8205 45.6095 45.1576 45.6198C43.3064 45.6507 41.4415 45.8328 39.604 45.5134C36.9251 45.0463 34.8953 42.5906 34.9674 39.9048C35.0052 38.5207 35.2113 37.1469 35.5685 35.8074C36.094 33.8463 37.2686 32.4107 39.1026 31.4971C41.2457 30.429 43.516 29.6906 45.7656 28.9006C46.5246 28.6362 47.2767 28.3614 48.0392 28.1107C48.417 27.987 48.6986 27.7638 48.7364 27.3825C48.9184 25.5176 49.3512 23.6801 49.2962 21.7912C49.2825 21.3138 49.1932 20.8535 48.9906 20.4311C48.7089 19.8404 48.2384 19.5038 47.5618 19.5038C47.0913 19.5038 46.6207 19.5347 46.1537 19.4969C44.9241 19.4007 44.1788 20.0396 43.6774 21.0665C43.1313 22.193 43.0111 23.4191 42.8565 24.6349C42.7501 25.4764 42.647 26.3179 42.5612 27.1593C42.5234 27.5199 42.3757 27.6436 42.0048 27.6401C40.3287 27.623 38.6492 27.6298 36.9732 27.6333C36.7362 27.6333 36.5095 27.6436 36.5473 27.2967C36.7946 25.1638 36.9904 23.031 38.5496 21.3241C40.0608 19.6652 41.8639 18.5868 44.1307 18.5043C46.0712 18.4322 48.022 18.3601 49.9625 18.5627C53.1257 18.889 55.3822 21.7019 54.9941 24.8445C54.3759 29.8279 53.7165 34.8045 53.0879 39.7846C52.8441 41.7251 52.3736 43.6725 53.2803 45.6473H53.2768Z" fill="black"/>
<path d="M118.378 31.9745C116.633 31.9745 114.888 32.002 113.144 31.9607C112.501 31.9436 112.251 32.0707 112.175 32.7885C111.873 35.6494 111.471 38.5001 111.117 41.3576C111.028 42.072 111.069 42.7898 111.306 43.4767C111.554 44.2013 112.055 44.6238 112.848 44.641C113.295 44.6478 113.741 44.6341 114.188 44.6616C115.524 44.7406 116.317 44.0399 116.808 42.8825C117.341 41.6289 117.403 40.2791 117.605 38.9603C117.712 38.2768 117.808 37.5899 117.866 36.903C117.89 36.6042 118 36.5286 118.275 36.5321C120.02 36.5389 121.764 36.5321 123.509 36.5355C123.705 36.5355 123.911 36.4874 123.856 36.8343C123.705 37.7822 123.65 38.7473 123.44 39.6815C122.692 43.0302 119.449 45.6164 116.008 45.6507C114.487 45.6679 112.965 45.6198 111.447 45.661C107.954 45.7572 104.767 42.9272 105.43 38.5722C106.038 34.5813 106.577 30.5732 106.986 26.5583C107.308 23.3745 108.545 20.8776 111.444 19.332C112.429 18.8065 113.484 18.5078 114.586 18.4906C116.461 18.4631 118.347 18.3498 120.219 18.549C123.653 18.913 125.831 21.7671 125.367 25.1913C125.092 27.2245 124.828 29.2612 124.594 31.3013C124.536 31.8165 124.375 32.002 123.822 31.9882C122.012 31.947 120.198 31.9711 118.388 31.9711L118.378 31.9745Z" fill="black"/>
<path d="M25.9793 45.6577C25.131 45.6577 24.2792 45.6474 23.4309 45.6646C23.1046 45.6714 23.0325 45.5959 23.0772 45.249C23.6748 40.736 24.2518 36.2231 24.8322 31.7067C25.3852 27.4136 25.9347 23.1204 26.4945 18.8307C27.0543 14.541 27.6313 10.2513 28.1912 5.95812C28.4007 4.3439 28.6033 2.72625 28.775 1.10859C28.8265 0.631191 28.9433 0.425137 29.4894 0.438875C31.0968 0.483524 32.711 0.469768 34.3183 0.442292C34.7545 0.435423 34.8404 0.565948 34.7854 0.971221C34.1706 5.59408 33.5662 10.2169 32.9651 14.8398C32.4053 19.1535 31.8627 23.4707 31.3028 27.7845C30.8323 31.4113 30.348 35.0382 29.8706 38.665C29.589 40.8116 29.2936 42.9547 29.0464 45.1047C28.9983 45.5272 28.8987 45.6817 28.459 45.6611C27.6348 45.6268 26.8036 45.6508 25.9759 45.6508L25.9793 45.6577Z" fill="black"/>
<path d="M8.6728 45.6438C7.74548 45.5957 6.32359 45.8052 4.93261 45.5614C1.52557 44.9638 -0.408058 42.1612 0.0727743 38.737C0.687553 34.3614 1.26455 29.9824 1.79003 25.5965C2.27773 21.5163 5.5577 18.4871 9.67912 18.4802C12.0695 18.4768 14.4668 18.3634 16.8538 18.5729C18.1074 18.6828 19.3404 18.8717 20.3536 19.7304C20.618 19.9536 20.7073 20.17 20.6524 20.534C20.3364 22.6978 20.0445 24.865 19.7835 27.0356C19.7285 27.4855 19.6083 27.6538 19.1412 27.6469C17.5098 27.6229 15.875 27.616 14.2436 27.6469C13.7318 27.6572 13.7353 27.4649 13.7868 27.0562C13.9963 25.4214 14.3191 23.7968 14.3432 22.1414C14.3501 21.6949 14.3054 21.2519 14.1749 20.8191C13.8864 19.8815 13.3884 19.5071 12.4164 19.5037C12.0146 19.5037 11.6093 19.5312 11.2075 19.4968C9.98822 19.4007 9.22919 20.012 8.72432 21.0492C8.1061 22.3234 8.00994 23.711 7.82791 25.0779C7.33677 28.7941 6.85938 32.5102 6.38885 36.2298C6.16904 37.9573 5.95953 39.6849 5.77751 41.4124C5.70538 42.1028 5.72599 42.8 5.95953 43.4663C6.21369 44.1876 6.70139 44.6203 7.4982 44.634C7.96529 44.6409 8.43582 44.634 8.90291 44.6581C10.1084 44.7165 10.8778 44.1189 11.3723 43.0679C11.9768 41.7868 12.0386 40.3959 12.2447 39.0323C12.3512 38.3283 12.4439 37.6173 12.5126 36.9098C12.5401 36.6282 12.6328 36.5251 12.9213 36.5286C14.6866 36.5389 16.4554 36.5389 18.2208 36.5286C18.5024 36.5286 18.5436 36.6316 18.5093 36.8892C18.2036 39.1903 17.9116 41.4915 17.6163 43.7926C17.5716 44.1429 17.3175 44.3181 17.0565 44.4967C15.6998 45.424 14.1268 45.5304 12.5675 45.63C11.4307 45.7022 10.287 45.6438 8.66937 45.6438H8.6728Z" fill="black"/>
<path d="M127.713 7.96408C125.405 10.3579 123.101 12.7518 120.793 15.1491C120.226 15.7398 119.536 16.0386 118.711 16.0352C117.441 16.0318 116.166 16.0352 114.827 15.9047C119.103 13.2258 123.382 10.5468 127.658 7.86792C127.675 7.89883 127.696 7.93316 127.713 7.96408Z" fill="black"/>
<path d="M48.4997 29.2581C48.2043 31.5248 47.9399 33.6886 47.6308 35.8489C47.3423 37.8547 47.1912 39.8845 46.7619 41.8696C46.6623 42.3298 46.5008 42.766 46.2879 43.185C45.8139 44.1123 45.1201 44.6893 44.0177 44.6481C43.5506 44.6309 43.0801 44.6584 42.6095 44.6412C41.5998 44.6035 41.0709 44.1467 40.8339 43.1576C40.5763 42.086 40.7446 41.0247 40.8785 39.9634C41.1636 37.707 41.5036 35.4574 41.7543 33.1975C41.8402 32.435 42.2146 31.9679 42.819 31.6176C44.4676 30.6593 46.2707 30.072 48.0498 29.4263C48.17 29.3817 48.2902 29.3371 48.5031 29.2581H48.4997Z" fill="#FDFDFD"/>
<path d="M115.548 30.9991C114.676 30.9991 113.807 30.9854 112.934 31.006C112.55 31.0163 112.433 30.9098 112.488 30.5114C112.849 27.8428 113.103 25.157 113.577 22.5021C113.68 21.932 113.875 21.3825 114.157 20.8742C114.659 19.964 115.373 19.4111 116.479 19.5004C116.833 19.5279 117.193 19.5038 117.55 19.5038C118.883 19.5038 119.494 20.0602 119.639 21.3962C119.755 22.4918 119.615 23.5771 119.477 24.659C119.233 26.5823 118.945 28.4988 118.735 30.4256C118.677 30.9442 118.481 31.0266 118.031 31.0094C117.207 30.9785 116.379 30.9991 115.551 30.9991H115.548Z" fill="#FDFDFD"/>
</svg>
