<svg width="93" height="88" viewBox="0 0 93 88" fill="none" xmlns="http://www.w3.org/2000/svg">
<path d="M20.2106 77.4058L5.47021 74.4194C5.47021 74.4194 8.92971 80.0198 12.2832 81.191C17.3044 82.9466 20.208 77.4058 20.208 77.4058H20.2106Z" fill="black"/>
<path d="M71.0222 28.347C67.6429 28.4685 64.2118 29.707 61.0445 31.3954C61.029 28.4892 61.016 25.583 61.0109 22.6743C61.0109 22.5398 61.0988 22.3614 61.2048 22.2787C62.1744 21.503 63.1466 20.7325 64.1394 19.9878C64.5531 19.6776 64.8763 19.3647 64.6824 18.7933C64.6695 18.7519 64.6824 18.7002 64.6772 18.6537C64.6358 18.0513 64.5919 17.4488 64.5453 16.7947C63.3456 17.7281 62.1976 18.6175 60.9902 19.5535C60.9824 18.6899 60.9721 17.9142 60.9773 17.1385C60.9773 17.0584 61.0703 16.9627 61.1453 16.9033C62.208 16.0785 63.2732 15.2563 64.3411 14.4366C64.504 14.3125 64.5686 14.1781 64.5428 13.966C64.4962 13.5989 64.4911 13.224 64.4652 12.8542C64.4342 12.4354 64.4006 12.0191 64.3644 11.5511C63.206 12.4509 62.1097 13.3041 60.954 14.2039C60.9514 13.3533 60.9436 12.5776 60.9514 11.8019C60.9514 11.714 61.0057 11.5977 61.0755 11.5408C61.5435 11.1607 62.0244 10.7935 62.4976 10.4238C63.1285 9.92997 63.7593 9.43613 64.3825 8.93453C64.4626 8.86989 64.5557 8.75095 64.5505 8.66304C64.5066 7.83049 64.4419 7.00052 64.3799 6.13694C64.2454 6.22485 64.1342 6.28431 64.036 6.35929C62.7303 7.3806 61.4194 8.39673 60.124 9.43095C59.9327 9.5835 59.8138 9.59385 59.6147 9.47491C58.8648 9.02244 58.1047 8.5803 57.3445 8.14076C56.5585 7.68311 55.7673 7.23322 54.9296 6.75231C54.9942 7.64691 55.046 8.48981 55.1235 9.33012C55.1313 9.4232 55.2631 9.52921 55.3614 9.58609C56.5275 10.2713 57.6884 10.9694 58.8726 11.6209C59.2553 11.8304 59.4518 12.0527 59.3639 12.4974C59.3302 12.6759 59.369 12.8672 59.369 13.0533C59.3716 13.6144 59.369 14.1781 59.369 14.765C57.872 13.8988 56.4215 13.0585 54.9244 12.1923C54.9813 13.0301 55.0485 13.8032 55.0796 14.5788C55.0899 14.8193 55.1804 14.9434 55.3769 15.0546C56.6309 15.7734 57.8797 16.4999 59.1234 17.2316C59.232 17.2937 59.3794 17.4178 59.382 17.516C59.4052 18.2995 59.3975 19.0855 59.4001 19.9232C57.9444 19.0803 56.543 18.2684 55.0925 17.4281C55.1545 18.3176 55.2063 19.1475 55.2864 19.9775C55.2968 20.0835 55.4286 20.205 55.5346 20.2671C56.6594 20.929 57.7815 21.6012 58.9269 22.2269C59.3147 22.4415 59.4414 22.6872 59.4388 23.1216C59.4233 25.084 59.444 27.0439 59.4544 29.0063C59.4595 30.0974 59.4673 31.1885 59.4725 32.2797C55.3174 34.7463 51.7571 37.8335 49.5982 39.8812L49.5568 3.60825C49.5568 3.60825 36.7479 15.6518 35.468 25.053C35.1733 27.2093 35.3025 29.1459 35.7317 30.8783L3.6784 0.0117188C3.6784 0.0117188 1.86333 4.03228 0.932526 10.3669L23.2383 31.1756L0.49815 14.509C0.231836 18.6821 0.446439 23.512 1.66683 28.6702L30.2633 40.1553L3.14578 33.6733C4.18259 36.5717 5.56328 39.5348 7.37319 42.5133C8.123 43.7441 8.9478 44.8791 9.83465 45.9263L36.8254 44.6439L13.4389 49.4685C17.0872 52.4704 21.2603 54.4483 25.211 55.7515L42.4542 46.9735L30.7054 57.2072C36.1532 58.3267 40.2255 58.2569 40.2255 58.2569L19.2823 81.5245C19.2823 81.5245 38.4543 82.3699 58.4977 68.9999C58.8985 68.731 59.2837 68.4596 59.6638 68.1881C59.6638 68.4802 59.6664 68.7724 59.669 69.0646C59.6819 71.6398 59.6948 74.2176 59.7103 76.7954C59.7129 77.1936 59.7129 77.5918 59.7155 77.99V80.4566H56.3284C60.0775 81.5607 60.5041 87.81 60.5041 87.81C60.5041 87.81 60.6437 81.5632 64.3902 80.4566H61.2927V79.0164H61.3005C61.2798 75.0062 61.2643 70.996 61.2436 66.9832C76.3278 54.8465 72.24 38.2627 79.2366 35.7366C86.4426 33.1329 91.8904 38.1437 92.1592 38.3945C91.8361 38.0481 82.3212 27.9411 71.0222 28.3444V28.347Z" fill="black"/>
</svg>
