<svg width="81" height="99" viewBox="0 0 81 99" fill="none" xmlns="http://www.w3.org/2000/svg">
<path d="M12.8783 77.2914H2.49438V77.1508C2.92119 77.1508 3.20742 76.8646 3.20742 76.4378V64.6329C3.20742 64.2061 2.92119 63.9199 2.49438 63.9199V63.7793H6.61684V63.9199C6.19004 63.9199 5.9038 64.2061 5.9038 64.6329V77.1508H9.4588C11.166 77.1508 12.587 75.7298 12.3058 73.8769H12.4465L12.8732 77.2914H12.8783Z" fill="black"/>
<path d="M18.8982 63.7793H21.464L26.0584 76.2118C26.194 76.6185 26.6007 77.0755 27.0024 77.0755V77.211H22.9503V77.0755C23.1662 77.0905 23.1813 77.0503 23.357 76.9399C23.5328 76.8194 23.5579 76.7139 23.4926 76.5332C23.1662 75.6695 22.87 74.8762 22.6842 74.3188L22.5486 73.9121C21.0623 72.1547 18.2253 70.6684 13.4954 71.3463C17.683 70.1311 19.1693 70.2667 21.469 71.0751C20.6606 68.6448 19.7116 66.2096 18.9032 63.7793H18.8982ZM17.683 77.206H13.7665V77.0704C14.4444 77.0704 14.9616 76.5884 15.3884 76.2068C15.8754 75.775 16.1968 75.3984 16.4679 74.7205H16.6035C16.3324 75.2628 16.3725 76.1666 16.6035 76.5332C16.8094 76.8545 17.1458 77.0755 17.683 77.0755V77.211V77.206Z" fill="black"/>
<path d="M40.3844 74.0878L40.7408 77.2914H27.9368L36.8293 64.8438L37.4319 63.94H32.0341L31.6424 63.955C30.2817 64.0052 28.6849 65.5066 28.6498 67.3343L28.2933 63.7793H40.7408L31.8483 76.5784L31.5169 77.0855H37.1808C38.7274 77.0855 40.3844 75.8653 40.3844 74.0878Z" fill="black"/>
<path d="M78.2845 73.9777L78.641 77.1813H65.8369L74.7295 64.7337L75.332 63.8299H69.9342L69.5426 63.8449C68.1818 63.8951 66.5851 65.3965 66.5499 67.2242L66.1934 63.6692H78.641L69.7485 76.4682L69.417 76.9754H75.081C76.6275 76.9754 78.2845 75.7552 78.2845 73.9777Z" fill="black"/>
<path d="M52.4754 74.0129L52.1389 77.2867H42.7342V77.1461C43.1058 77.1461 43.392 76.8549 43.392 76.4984V67.2242L45.993 63.9253H43.3117C43.6682 64.1211 43.9142 64.5027 43.9142 64.9546C43.9142 65.6024 43.392 66.1346 42.7342 66.1346H42.679C42.0313 66.1346 41.499 65.6024 41.499 64.9546C41.499 64.3069 42.0313 63.7747 42.679 63.7747H51.7975C52.0536 63.7747 52.2695 63.5788 52.2946 63.3228H52.4202L52.0938 66.5865H51.9682C52.0938 65.2459 51.1246 64.0659 49.8141 63.9253H46.0081V70.6889H47.8709C48.7948 70.6889 49.5731 69.9708 49.6434 69.057H49.7689L49.5129 72.3208H49.3722C49.4425 71.5123 48.8049 70.8194 47.9864 70.8194H46.46C46.2039 70.8194 46.0081 71.0253 46.0081 71.2713V76.4984C46.0081 76.8549 46.2993 77.1461 46.6558 77.1461H48.8751C50.6577 77.1461 52.159 75.7904 52.3348 74.0129H52.4754Z" fill="black"/>
<path d="M64.6116 74.0129L64.2752 77.2867H54.8705V77.1461C55.242 77.1461 55.5282 76.8549 55.5282 76.4984V67.2242L58.1292 63.9253H55.4479C55.8044 64.1211 56.0504 64.5027 56.0504 64.9546C56.0504 65.6024 55.5282 66.1346 54.8705 66.1346H54.8152C54.1675 66.1346 53.6353 65.6024 53.6353 64.9546C53.6353 64.3069 54.1675 63.7747 54.8152 63.7747H63.9337C64.1898 63.7747 64.4057 63.5788 64.4309 63.3228H64.5564L64.23 66.5865H64.1045C64.23 65.2459 63.2609 64.0659 61.9503 63.9253H58.1443V70.6889H60.0071C60.931 70.6889 61.7093 69.9708 61.7796 69.057H61.9052L61.6491 72.3208H61.5085C61.5788 71.5123 60.9411 70.8194 60.1226 70.8194H58.5962C58.3401 70.8194 58.1443 71.0253 58.1443 71.2713V76.4984C58.1443 76.8549 58.4355 77.1461 58.792 77.1461H61.0114C62.7939 77.1461 64.2953 75.7904 64.471 74.0129H64.6116Z" fill="black"/>
<path d="M38.5586 89.4043C38.669 89.4081 38.6818 89.5117 38.597 89.7153C38.5146 89.9287 38.4102 90.0642 38.2838 90.1217L38.2102 90.1401C38.0691 90.1387 37.9005 90.1416 37.7042 90.1488C37.7004 90.2593 37.6936 90.3574 37.6837 90.4433C37.6515 90.7536 37.5777 91.0639 37.4621 91.3742C37.3515 91.6832 37.2175 91.972 37.0603 92.2406C36.903 92.5091 36.7121 92.7782 36.4873 93.0479C36.2639 93.3225 36.0392 93.5714 35.8133 93.7945C35.5935 94.0212 35.3455 94.2498 35.0693 94.4802C34.7943 94.7155 34.5402 94.9196 34.307 95.0924C34.075 95.2701 33.8234 95.4527 33.5521 95.6401C32.5419 96.3557 31.4662 96.9547 30.3249 97.4372C30.3004 97.4433 30.2648 97.4574 30.2181 97.4794C29.9862 97.5737 29.7984 97.6465 29.6549 97.6979C29.5125 97.7542 29.3248 97.8167 29.0916 97.8852C28.8634 97.9524 28.6493 97.9928 28.4493 98.0061C28.2494 98.0194 28.0641 98.0082 27.8936 97.9725C27.5723 97.8962 27.37 97.7433 27.2868 97.5138C27.2035 97.2844 27.2314 97.009 27.3702 96.6877C27.514 96.3652 27.6842 96.0439 27.8807 95.7239C28.0773 95.4038 28.3204 95.0722 28.6102 94.729C28.9062 94.3894 29.1358 94.1289 29.2991 93.9475C29.4636 93.7709 29.6085 93.6202 29.7337 93.4951C30.6938 92.5366 31.7642 91.7174 32.9449 91.0375L32.6855 88.6469C32.5726 88.6959 32.4726 88.7443 32.3855 88.7921C32.2738 88.8459 32.2382 88.7975 32.2788 88.6466C32.3232 88.4688 32.4006 88.3087 32.5111 88.1665C32.5271 88.1469 32.5393 88.1334 32.5479 88.1261L32.6253 88.0599L32.2673 84.6774C32.2564 84.5707 32.3252 84.4285 32.4738 84.2507C32.6273 84.0717 32.7291 84.0203 32.7794 84.0964C32.7891 84.1148 32.7971 84.1363 32.8032 84.1608L33.1648 87.6205C33.344 87.4612 33.514 87.3068 33.6749 87.1572C33.8345 87.0028 33.9996 86.8287 34.1703 86.635C34.341 86.4413 34.4871 86.2538 34.6087 86.0723C34.7352 85.8896 34.8415 85.6989 34.9275 85.5003C35.0172 85.2955 35.0707 85.1023 35.088 84.9208C35.1054 84.7392 35.0785 84.5583 35.0075 84.3779C34.9402 84.1913 34.8226 84.0226 34.6546 83.8715C34.4401 83.68 34.2114 83.5363 33.9686 83.4404C33.7307 83.3433 33.4915 83.2934 33.2511 83.2908C33.0143 83.282 32.7708 83.3088 32.5205 83.3711C32.2702 83.4335 32.0266 83.5229 31.7897 83.6392C31.5578 83.7543 31.324 83.8934 31.0883 84.0564C30.8563 84.2132 30.6372 84.3799 30.431 84.5563C30.2296 84.7316 30.0332 84.9161 29.8417 85.1097C29.6551 85.3022 29.4899 85.4867 29.3462 85.6632C29.2013 85.8349 29.0736 86.0022 28.9631 86.1653C28.8636 86.2891 28.7728 86.3639 28.6906 86.3895C28.6133 86.414 28.5667 86.3839 28.5508 86.2993C28.5349 86.2146 28.5712 86.1091 28.6596 85.9829C29.3806 84.9223 30.275 84.0348 31.3428 83.3205C31.5404 83.1931 31.7522 83.0804 31.978 82.9824C32.2038 82.8845 32.4412 82.8019 32.6903 82.7346C32.9431 82.6612 33.1964 82.6215 33.4504 82.6156C33.7031 82.6048 33.9447 82.6228 34.1753 82.6696C34.4096 82.7102 34.6328 82.8006 34.8449 82.9406C35.0558 83.0757 35.236 83.255 35.3855 83.4783C35.4921 83.6342 35.568 83.803 35.6132 83.9846C35.6622 84.16 35.678 84.3385 35.6607 84.5201C35.6482 84.7004 35.6156 84.8832 35.5627 85.0684C35.5086 85.2487 35.4324 85.4344 35.3341 85.6257C35.2345 85.8121 35.1264 85.9954 35.0097 86.1757C34.8918 86.351 34.7568 86.5306 34.6045 86.7145C34.451 86.8935 34.3 87.0614 34.1514 87.2183C34.0078 87.374 33.8537 87.5297 33.6892 87.6854C34.0327 87.5998 34.375 87.551 34.7161 87.539C35.0571 87.527 35.3902 87.5561 35.7152 87.6263C36.039 87.6915 36.3315 87.7985 36.5927 87.9472C36.8538 88.0958 37.0788 88.2978 37.2675 88.5531C37.4562 88.8084 37.583 89.1079 37.6477 89.4514C37.952 89.4173 38.2556 89.4016 38.5586 89.4043ZM33.2506 88.4358L33.4935 90.7288C34.5723 90.1629 35.7098 89.77 36.906 89.5502C36.7468 89.2041 36.5287 88.9248 36.2516 88.7124C35.9782 88.4938 35.6772 88.3525 35.3485 88.2884C35.0185 88.2195 34.6769 88.1977 34.3236 88.2232C33.9752 88.2474 33.6175 88.3183 33.2506 88.4358ZM34.138 94.6653C34.3614 94.495 34.5621 94.3381 34.7401 94.1947C34.9194 94.0563 35.1262 93.8822 35.3607 93.6726C35.5952 93.4631 35.7984 93.2639 35.9702 93.0751C36.1471 92.8851 36.3227 92.6693 36.497 92.4278C36.6714 92.1863 36.8084 91.9515 36.908 91.7234C37.0075 91.4953 37.0789 91.2481 37.122 90.982C37.1652 90.7158 37.1629 90.4557 37.1153 90.2017C35.8676 90.3614 34.681 90.7248 33.5556 91.2919L33.625 91.947C33.6359 92.0538 33.5671 92.196 33.4186 92.3738C33.2651 92.5528 33.1632 92.6042 33.113 92.5281C33.1044 92.5146 33.0989 92.4925 33.0965 92.4619L33.0015 91.5785C31.8049 92.2363 30.7271 93.0469 29.7683 94.0104C29.1433 94.6404 28.6515 95.2399 28.2929 95.8089C27.6615 96.8106 27.7838 97.291 28.6597 97.25L29.0407 97.2098C30.5007 96.9607 32.1998 96.1126 34.138 94.6653Z" fill="black"/>
<path d="M40.7521 88.7796C40.7731 88.6962 40.8638 88.7153 41.0244 88.8369C41.212 88.983 41.3002 89.107 41.2891 89.2088C41.2854 89.2149 41.2842 89.2204 41.2854 89.2253C41.2263 89.4486 41.1286 89.6632 40.9923 89.8691C40.8547 90.0702 40.6964 90.24 40.5171 90.3785C40.3367 90.512 40.1361 90.5751 39.9153 90.5675C39.6981 90.5539 39.4891 90.447 39.288 90.2468C39.1704 90.1302 39.073 89.9903 38.9958 89.827C38.9236 89.6626 38.8728 89.5006 38.8435 89.3411C38.8141 89.1816 38.7983 89.0031 38.7961 88.8056C38.7987 88.6069 38.8068 88.4302 38.8204 88.2757C38.834 88.1211 38.8568 87.9512 38.8889 87.766C38.9012 87.69 38.9852 87.7133 39.1409 87.8361C39.3334 87.9811 39.4253 88.1093 39.4166 88.221C39.3045 88.8171 39.3194 89.4102 39.4612 90.0004C39.4612 90.0004 39.4618 90.0029 39.463 90.0078C39.4643 90.0127 39.4649 90.0151 39.4649 90.0151L39.5146 90.0262C39.5428 90.014 39.5955 90.006 39.6728 90.0024C39.7489 89.9939 39.8041 89.9853 39.8385 89.9768C40.0692 89.8776 40.2551 89.7244 40.3964 89.5172C40.5597 89.2941 40.6783 89.0482 40.7521 88.7796ZM38.9021 87.317C38.8715 87.3403 38.8304 87.3427 38.7788 87.3243C38.7273 87.3059 38.6752 87.2745 38.6225 87.2303C38.5686 87.1812 38.5189 87.1284 38.4736 87.072C38.4282 87.0155 38.3995 86.9627 38.3872 86.9136C38.375 86.8646 38.3787 86.8271 38.3984 86.8014C38.5948 86.6274 38.7544 86.4938 38.8771 86.4006C38.9962 86.3136 39.0876 86.283 39.1514 86.3088C39.2654 86.3482 39.3678 86.4243 39.4585 86.5373C39.548 86.6453 39.5706 86.7569 39.5263 86.8722C39.5116 86.8968 39.4784 86.8998 39.4269 86.8814C39.4232 86.8875 39.4171 86.8942 39.4085 86.9016C39.3987 86.904 39.3919 86.9083 39.3883 86.9144C39.3355 86.9537 39.2655 87.0076 39.1784 87.0762C39.0838 87.1571 38.9918 87.2374 38.9021 87.317Z" fill="black"/>
<path d="M43.2569 88.4683C43.3135 88.2978 43.4099 88.1513 43.5462 88.0287C43.6309 87.9503 43.68 87.9381 43.6934 87.9921C43.6971 88.0276 43.6817 88.0914 43.6472 88.1834C43.5833 88.3661 43.5286 88.5127 43.4831 88.6231C43.4413 88.7273 43.3811 88.8622 43.3025 89.0277C43.2226 89.1884 43.1348 89.3275 43.039 89.4452C42.9432 89.5629 42.8401 89.6616 42.7296 89.7412C42.5394 89.8773 42.3811 89.9011 42.2548 89.8126C42.1322 89.7181 42.055 89.5549 42.0233 89.323C42.0123 89.2579 42.0069 89.1524 42.007 89.0065C42.0059 88.8556 42.0017 88.7445 41.9944 88.6734C41.9859 88.5973 41.9547 88.493 41.9008 88.3605C41.8665 88.3065 41.8236 88.2598 41.7721 88.2205C41.7194 88.1763 41.6618 88.1438 41.5992 88.1229C41.5367 88.102 41.4754 88.086 41.4153 88.0749C41.3539 88.0589 41.2871 88.0416 41.2147 88.0232C41.1411 87.9998 41.078 87.9765 41.0253 87.9531L41.0234 87.9457C40.9546 88.0463 40.8895 88.1407 40.8281 88.229C40.682 88.4165 40.5857 88.4588 40.5391 88.3557C40.4926 88.2526 40.5117 88.1201 40.5965 87.9583C40.6137 87.9227 40.634 87.889 40.6573 87.8571C40.6733 87.8375 40.6984 87.8026 40.7328 87.7523C40.4484 87.5104 40.2788 87.206 40.2239 86.8392C40.1946 86.6588 40.2168 86.4343 40.2906 86.1657C40.3681 85.891 40.4842 85.677 40.6389 85.5238C40.7985 85.3694 40.9979 85.3744 41.237 85.539C41.6648 85.8755 41.7227 86.4319 41.4104 87.2082C41.495 87.2548 41.6085 87.3022 41.7507 87.3501C41.893 87.3981 42.0046 87.438 42.0856 87.47C42.1665 87.502 42.248 87.5677 42.3301 87.6671C42.411 87.7616 42.4661 87.8886 42.4954 88.0481C42.5089 88.123 42.5161 88.2567 42.5172 88.4493C42.517 88.637 42.531 88.7769 42.5592 88.8689C42.6595 89.1879 42.8135 89.2095 43.021 88.9337C43.1303 88.7865 43.2089 88.6314 43.2569 88.4683ZM41.039 86.9098C41.0514 86.7712 41.0318 86.6405 40.9804 86.5178C40.9191 86.4184 40.8456 86.3324 40.7598 86.26C40.7695 86.3618 40.775 86.4152 40.7762 86.4201C40.8264 86.6005 40.914 86.7637 41.039 86.9098Z" fill="black"/>
<path d="M45.6088 85.4663C45.6261 85.389 45.7119 85.4093 45.8664 85.5272C46.0552 85.6783 46.1471 85.8065 46.1421 85.912C46.0731 86.2837 46.0256 86.6682 45.9995 87.0657C45.9771 87.457 45.9755 87.8692 45.9948 88.3022C46.019 88.7341 46.0457 89.1236 46.0748 89.4708C46.1089 89.8167 46.1632 90.2333 46.2376 90.7204C46.3182 91.2111 46.3823 91.5939 46.4299 91.8687C46.4836 92.1473 46.5588 92.543 46.6553 93.0558C46.6858 93.1994 46.7072 93.3061 46.7194 93.376C46.7402 93.4803 46.6727 93.4815 46.517 93.3796C46.3331 93.2482 46.2258 93.1315 46.1953 93.0297C46.0426 92.2285 45.9357 91.6635 45.8746 91.3347C45.8135 91.0058 45.736 90.5065 45.6421 89.8366C45.5543 89.1704 45.4971 88.5748 45.4706 88.0497C45.0454 88.9167 44.5569 89.299 44.0049 89.1968C43.8847 89.1746 43.7805 89.1328 43.6922 89.0714C43.6027 89.0051 43.5322 88.921 43.4808 88.8191C43.4281 88.7123 43.3859 88.6056 43.3541 88.4988C43.3174 88.3933 43.2984 88.2651 43.2973 88.1142C43.295 87.9584 43.2933 87.8259 43.2921 87.7167C43.2898 87.6026 43.2997 87.4646 43.3219 87.3027C43.3441 87.1408 43.3608 87.0194 43.3719 86.9384C43.383 86.8575 43.4003 86.7489 43.4237 86.6128C43.4286 86.5907 43.4323 86.5741 43.4348 86.5631C43.4372 86.552 43.4391 86.5385 43.4403 86.5226C43.4415 86.5067 43.4434 86.4932 43.4459 86.4821C43.457 86.4012 43.5428 86.4215 43.7034 86.5431C43.8971 86.6929 43.989 86.8211 43.9791 86.9279C43.9188 87.2713 43.8798 87.6172 43.8624 87.9656C43.8524 88.114 43.848 88.2637 43.8491 88.4146C43.8613 88.4845 43.8858 88.5305 43.9226 88.5527C43.9582 88.5699 43.9895 88.5699 44.0165 88.5527L44.0643 88.5252C44.2705 88.4112 44.4455 88.2556 44.5891 88.0582C45.0766 87.4832 45.4165 86.6193 45.6088 85.4663Z" fill="black"/>
<path d="M50.6393 86.0348C50.6957 86.0729 50.7097 86.1397 50.6814 86.2354C50.6532 86.3311 50.6163 86.4132 50.5708 86.4819C50.5672 86.488 50.5598 86.5003 50.5487 86.5187C49.7995 87.6332 49.2663 87.9094 48.949 87.3473C48.8669 87.2061 48.8014 87.0583 48.7525 86.9037C48.7106 87.0288 48.6652 87.1495 48.616 87.2661C48.5042 87.5076 48.3678 87.7345 48.2069 87.9466C48.0461 88.1587 47.8718 88.2855 47.684 88.3271C47.5454 88.3564 47.3921 88.3164 47.2241 88.2071C47.0598 88.0916 46.9176 87.9602 46.7975 87.8129C46.6124 87.5932 46.5047 87.3386 46.4743 87.049C46.4475 86.7534 46.468 86.4694 46.5357 86.1971C46.6083 85.9236 46.7195 85.6587 46.8694 85.4024C47.1114 84.9929 47.3569 84.7753 47.606 84.7498C47.8354 84.7291 48.1199 84.8772 48.4594 85.1939C48.4657 85.0516 48.4658 84.9161 48.4597 84.7873C48.4549 84.7259 48.5279 84.7468 48.6787 84.85C48.881 84.9925 48.9858 85.1201 48.993 85.233C48.9893 85.2391 48.9881 85.2447 48.9893 85.2496C48.9905 85.2545 48.9912 85.2569 48.9912 85.2569L48.993 85.2643C49.1128 85.7244 49.2223 86.1011 49.3215 86.3944C49.3239 86.4042 49.3337 86.4331 49.3508 86.4809C49.368 86.5288 49.3796 86.565 49.3857 86.5895C49.3955 86.6079 49.4084 86.6386 49.4243 86.6815C49.4451 86.7233 49.4641 86.7576 49.4812 86.7846C49.5021 86.8055 49.526 86.8282 49.5529 86.8528C49.5787 86.8724 49.6057 86.8866 49.6339 86.8952C49.6768 86.9001 49.7136 86.9014 49.7443 86.8989C49.7799 86.8953 49.8167 86.8757 49.8547 86.8401C49.8977 86.8034 49.9315 86.7715 49.956 86.7445C49.9855 86.7163 50.0174 86.6771 50.0518 86.6268C50.0911 86.5754 50.12 86.5343 50.1384 86.5036C50.1617 86.4717 50.1863 86.4344 50.2121 86.3914C50.2428 86.3473 50.2637 86.316 50.2747 86.2976C50.4258 86.0671 50.5473 85.9795 50.6393 86.0348ZM47.5411 87.5651C48.0408 87.1227 48.3382 86.4439 48.4334 85.5288C48.4076 85.5092 48.3843 85.4889 48.3635 85.468C48.2605 85.3686 48.1551 85.3219 48.0471 85.3279C47.9379 85.3291 47.8398 85.364 47.7526 85.4326C47.6655 85.5012 47.5795 85.5956 47.4948 85.7158C47.4137 85.8298 47.3474 85.9401 47.2958 86.0468C47.2442 86.1535 47.1999 86.2584 47.163 86.3614C47.0659 86.6201 47.0141 86.9145 47.0077 87.2445C47.0001 87.6322 47.0968 87.7905 47.2981 87.7195C47.3705 87.6962 47.4515 87.6448 47.5411 87.5651Z" fill="black"/>
<path d="M53.512 85.1549C53.5145 85.0604 53.5373 85.0052 53.5802 84.9893C53.6428 84.9685 53.6709 85.071 53.6646 85.2967C53.6606 85.6365 53.5813 85.9143 53.4265 86.1301C53.2706 86.341 53.0509 86.4113 52.7676 86.3412C52.6732 86.3178 52.5879 86.2791 52.5119 86.225C52.4359 86.171 52.3728 86.1164 52.3225 86.0611C52.2723 86.0059 52.2196 85.9304 52.1645 85.8346C52.1142 85.7377 52.0763 85.6585 52.0506 85.5972C52.0236 85.5309 51.9851 85.4389 51.9349 85.3211C51.8883 85.1971 51.8553 85.1063 51.8357 85.0486C51.8013 85.0989 51.781 85.1326 51.7749 85.1498C51.6901 85.3325 51.5715 85.6514 51.419 86.1064C51.2554 86.6006 51.0998 87.0955 50.9522 87.591C50.9215 87.6977 50.8221 87.6651 50.6542 87.4932C50.5022 87.3434 50.4238 87.2274 50.419 87.1453L50.4089 83.6214C50.4041 83.5601 50.477 83.581 50.6278 83.6841C50.8301 83.8266 50.9325 83.9549 50.9348 84.069L50.9374 85.4601C50.9928 85.2639 51.0377 85.1093 51.0721 84.9965C51.1102 84.8775 51.1655 84.7439 51.238 84.5955C51.3142 84.441 51.3885 84.3417 51.4609 84.2976C51.5297 84.2596 51.5984 84.2529 51.667 84.2775C51.7406 84.3009 51.8074 84.3494 51.8675 84.423C51.9325 84.4955 51.9833 84.5636 52.0201 84.6274C52.0617 84.69 52.0991 84.7563 52.1321 84.8262C52.1554 84.8778 52.1977 84.9741 52.2589 85.1152C52.3201 85.2564 52.3691 85.3693 52.4058 85.4539C52.4475 85.5374 52.5063 85.627 52.5823 85.7227C52.6582 85.8185 52.7342 85.883 52.8103 85.9161C53.0126 85.996 53.1795 85.944 53.3109 85.7601C53.4472 85.575 53.5143 85.3733 53.512 85.1549Z" fill="black"/>
<path d="M55.3683 85.1381C55.3892 85.0547 55.48 85.0738 55.6406 85.1953C55.8281 85.3415 55.9164 85.4655 55.9053 85.5673C55.9016 85.5734 55.9003 85.5789 55.9016 85.5838C55.8425 85.807 55.7448 86.0217 55.6085 86.2276C55.4709 86.4287 55.3125 86.5985 55.1333 86.737C54.9529 86.8705 54.7522 86.9336 54.5314 86.926C54.3143 86.9123 54.1052 86.8054 53.9042 86.6053C53.7865 86.4887 53.6891 86.3488 53.612 86.1855C53.5397 86.0211 53.4889 85.8591 53.4596 85.6996C53.4303 85.5401 53.4145 85.3616 53.4122 85.1641C53.4148 84.9654 53.4229 84.7887 53.4366 84.6342C53.4502 84.4796 53.473 84.3097 53.505 84.1245C53.5174 84.0485 53.6014 84.0718 53.7571 84.1946C53.9496 84.3396 54.0415 84.4678 54.0328 84.5794C53.9207 85.1756 53.9355 85.7687 54.0774 86.3589C54.0774 86.3589 54.078 86.3613 54.0792 86.3663C54.0804 86.3712 54.081 86.3736 54.081 86.3736L54.1307 86.3847C54.1589 86.3724 54.2117 86.3645 54.289 86.3609C54.365 86.3524 54.4203 86.3438 54.4546 86.3353C54.6853 86.2361 54.8713 86.0829 55.0125 85.8757C55.1759 85.6526 55.2945 85.4067 55.3683 85.1381ZM53.5183 83.6755C53.4876 83.6988 53.4465 83.7012 53.395 83.6828C53.3435 83.6643 53.2914 83.633 53.2387 83.5888C53.1847 83.5397 53.1351 83.4869 53.0897 83.4304C53.0444 83.374 53.0156 83.3212 53.0034 83.2721C52.9912 83.223 52.9949 83.1856 53.0145 83.1599C53.2109 82.9858 53.3705 82.8523 53.4933 82.7591C53.6123 82.6721 53.7038 82.6415 53.7675 82.6673C53.8816 82.7067 53.984 82.7828 54.0746 82.8958C54.1641 83.0038 54.1867 83.1154 54.1425 83.2307C54.1277 83.2552 54.0946 83.2583 54.0431 83.2398C54.0394 83.246 54.0333 83.2527 54.0247 83.2601C54.0148 83.2625 54.0081 83.2668 54.0044 83.2729C53.9516 83.3121 53.8817 83.3661 53.7945 83.4347C53.7 83.5156 53.6079 83.5959 53.5183 83.6755Z" fill="black"/>
<path d="M80.3578 21.4807C80.3477 21.5259 80.3226 21.5711 80.3026 21.6163C79.3636 23.3486 75.8487 24.5587 74.4378 24.9052C71.3146 24.6592 68.1361 24.1319 65.023 23.5294C61.8998 22.9017 58.7766 22.1737 55.6886 21.3251C52.6206 20.4313 49.5426 19.5124 46.5198 18.458C44.9884 17.9659 43.4971 17.3834 41.9756 16.8562C40.4642 16.2988 38.978 15.7013 37.4565 15.164V15.1741C38.1746 15.5457 38.8876 15.9122 39.6056 16.2687C40.3337 16.6252 41.0367 17.0169 41.7748 17.3332L43.9791 18.3274C44.7172 18.6538 45.4554 18.9751 46.2085 19.2664L48.458 20.1602L50.7427 20.9786C52.2641 21.551 53.8207 21.9728 55.3521 22.4649C58.4653 23.3587 61.5985 24.1771 64.777 24.7696C67.8198 25.3521 70.8777 25.799 74.0009 25.9345C74.3373 28.2292 75.9592 39.2558 77.7367 47.5458C79.0824 53.8474 75.6428 56.2426 73.4837 57.1263C72.8812 57.3623 72.2083 57.528 71.4903 57.6083C60.5792 58.8285 51.1544 58.472 43.0151 57.0359C45.4654 55.4894 47.2881 53.029 47.8957 50.0313C48.3225 47.9726 48.1066 45.934 47.4136 44.0862C47.1325 43.3682 46.1483 43.3129 45.7365 43.9506C45.1089 44.9448 44.3055 45.7984 43.3766 46.4914C42.528 47.119 41.4183 46.0646 42.0459 45.2059C43.1757 43.6142 44.0393 41.8267 44.5415 39.8433C44.6067 39.5872 44.677 39.3161 44.7323 39.0499C45.1892 36.7653 45.134 34.4857 44.6419 32.3466C44.1147 30.0519 43.0954 27.9029 41.6643 26.035C41.107 25.2968 39.9421 25.7538 39.9873 26.6978C40.0425 27.5815 39.9772 28.4753 39.7864 29.3841V29.4193C39.0483 33.0546 36.5075 35.9016 33.2488 37.2523C32.8923 37.408 32.5307 37.5436 32.1742 37.654C30.3515 38.4022 28.7498 39.6374 27.5748 41.204C26.6359 42.4443 25.953 43.9004 25.6266 45.5223C25.1797 47.7617 25.471 50.0012 26.3296 51.9795C26.3296 51.9795 26.3295 51.9896 26.3396 51.9996C16.8495 47.7567 10.0558 41.9924 5.28569 36.5192C3.44793 34.4154 2.74496 32.5324 2.64453 30.9658C5.81291 34.5158 10.0107 38.1511 15.4687 41.2291C16.8345 41.9924 18.2655 42.7154 19.7869 43.3983C19.7869 43.3983 19.7836 43.3916 19.7769 43.3782C19.5208 42.7757 19.3199 42.148 19.1944 41.4852C17.7935 40.722 16.488 39.9286 15.2528 39.0901C11.2107 36.3937 8.00216 33.381 5.47147 30.4837C4.45217 29.3088 3.84963 28.2242 3.53329 27.2401C4.03542 26.3764 4.59779 25.8743 4.66307 25.819L24.1403 8.01385L23.7939 7.62219C23.7738 7.58705 21.2883 4.78019 21.4992 2.62107C21.5645 1.98338 21.8557 1.48126 22.408 1.07454C23.3269 0.391654 25.25 0 28.1523 0C31.5567 0 36.2916 0.537267 42.297 1.80261H42.307C60.0922 6.12085 66.6047 10.188 69.6074 12.1463C74.4428 15.2795 74.9449 16.8462 74.7993 17.4838C74.6637 18.1466 73.79 18.3676 73.5791 18.4228C73.544 18.4329 73.5239 18.4329 73.5239 18.4329C72.4142 18.5785 70.8024 18.5885 68.4625 18.3676C60.6144 17.6295 41.7899 12.4677 29.1314 4.98104C28.6845 4.72496 28.2376 4.45381 27.8008 4.17764L27.5899 4.43373C27.9916 4.77015 28.4184 5.10657 28.8552 5.42792C41.0768 14.6067 64.1995 21.1744 73.1322 22.013C74.3173 22.1385 75.3717 22.1787 76.2906 22.1787C78.2037 22.1787 79.5694 21.9427 80.3528 21.4606L80.3578 21.4807Z" fill="black"/>
<path d="M20.9371 6.37199L21.2283 6.69836L4.96458 21.5712C4.82901 21.6816 2.44396 23.8307 3.5436 27.2552C3.00634 28.1389 2.52428 29.4043 2.64981 30.9809C2.5042 30.8253 2.3586 30.6546 2.22302 30.4989C-2.35632 25.2266 1.53008 21.7118 1.70582 21.5662L17.9695 6.69334L17.6783 6.36697C17.6783 6.36697 15.5844 4.007 15.7652 2.19434C15.8204 1.65707 16.0665 1.24533 16.5134 0.908911C17.2766 0.336493 18.8985 0.0151367 21.3137 0.0151367C21.861 0.0151367 22.4534 0.0251773 23.0811 0.0603258C21.4793 0.170792 20.3596 0.472066 19.7671 0.908911C19.3202 1.24533 19.0742 1.65707 19.0039 2.19434C18.8382 4.007 20.9069 6.34688 20.927 6.36697L20.9371 6.37199Z" fill="black"/>
</svg>
